<?xml version="1.0" standalone="no"?>
<!DOCTYPE svg PUBLIC "-//W3C//DTD SVG 1.1//EN" "http://www.w3.org/Graphics/SVG/1.1/DTD/svg11.dtd" >
<svg xmlns="http://www.w3.org/2000/svg" xmlns:xlink="http://www.w3.org/1999/xlink" version="1.1">
<metadata>
Created by FontForge 20170812 at Sat Nov 19 00:29:17 2016
 By www-data
Copyright (c) Milos Mitrovic, 2016. All rights reserved.
</metadata>
<defs>
<font id="BergenSans" horiz-adv-x="544" >
  <font-face 
    font-family="Bergen Sans"
    font-weight="400"
    font-stretch="normal"
    units-per-em="1000"
    panose-1="0 0 5 0 0 0 0 0 0 0"
    ascent="744"
    descent="-256"
    x-height="448"
    cap-height="704"
    bbox="-200 -304 1104 1008"
    underline-thickness="50"
    underline-position="-200"
    unicode-range="U+0020-25CA"
  />
<missing-glyph horiz-adv-x="520" 
d="M97 800h329v-1040h-329v1040zM346 696v34h-171v-34h67v-38h-68v-35h172v35h-68v38h68zM278 523v73h-104v-108h172v35h-68zM208 561h34v-38h-34v38zM346 426v34h-172v-34h68v-39h-68v-34h104v73h68zM346 294v104h-34v-69h-138v-35h172zM346 153v118h-104v-59h36v24h34v-49
h-104v84h-34v-118h172zM346 -27v118h-172v-118h172zM208 56h104v-48h-104v48zM346 -85v34h-172v-34h72l-72 -49v-34h172v34h-106l73 49h33z" />
    <glyph glyph-name=".notdef" horiz-adv-x="520" 
d="M97 800h329v-1040h-329v1040zM346 696v34h-171v-34h67v-38h-68v-35h172v35h-68v38h68zM278 523v73h-104v-108h172v35h-68zM208 561h34v-38h-34v38zM346 426v34h-172v-34h68v-39h-68v-34h104v73h68zM346 294v104h-34v-69h-138v-35h172zM346 153v118h-104v-59h36v24h34v-49
h-104v84h-34v-118h172zM346 -27v118h-172v-118h172zM208 56h104v-48h-104v48zM346 -85v34h-172v-34h72l-72 -49v-34h172v34h-106l73 49h33z" />
    <glyph glyph-name=".null" horiz-adv-x="0" 
 />
    <glyph glyph-name="nonmarkingreturn" horiz-adv-x="333" 
 />
    <glyph glyph-name="space" unicode=" " horiz-adv-x="336" 
 />
    <glyph glyph-name="exclam" unicode="!" horiz-adv-x="304" 
d="M192 208h-80l-16 496h112zM152 -8q-30 0 -51 21t-21 51t21 51t51 21q31 0 51.5 -21t20.5 -51t-20.5 -51t-51.5 -21z" />
    <glyph glyph-name="quotedbl" unicode="&#x22;" horiz-adv-x="416" 
d="M160 704v-240h-96v240h96zM352 704v-240h-96v240h96z" />
    <glyph glyph-name="numbersign" unicode="#" horiz-adv-x="688" 
d="M624 496v-80h-129l-14 -128h127v-80h-136l-24 -208h-80l24 208h-128l-24 -208h-80l24 208h-120v80h129l14 128h-127v80h136l24 208h80l-24 -208h128l24 208h80l-24 -208h120zM273 288h128l14 128h-128z" />
    <glyph glyph-name="dollar" unicode="$" 
d="M496 211q0 -75 -48 -137q-48 -63 -128 -78v-92h-64v89q-88 6 -143 58q-41 38 -65 77l56 73q75 -121 174 -121q53 0 88 38q34 37 34 89q0 47 -29.5 77.5t-91.5 59.5q-106 47 -144 92q-39 46 -39 116q0 58 46 104t114 54v90h64v-90q72 -9 128 -70l-56 -71q-49 55 -111 55
q-35 0 -62 -22t-27 -52q0 -66 97 -106q100 -42 155 -94q52 -51 52 -139z" />
    <glyph glyph-name="percent" unicode="%" horiz-adv-x="800" 
d="M209 424q-61 0 -103 42q-42 40 -42 102q0 60 42 102t103 42q60 0 102 -42q41 -43 41 -102q0 -61 -41 -102q-42 -42 -102 -42zM664 704l-448 -704h-80l448 704h80zM163 523q19 -19 45 -19t45 19t19 45t-19 45t-45 19t-45 -19t-19 -45t19 -45zM593 -8q-61 0 -103 42
q-42 40 -42 102q0 60 42 102t103 42q60 0 102 -42q41 -43 41 -102q0 -61 -41 -102q-42 -42 -102 -42zM547 91q19 -19 45 -19t45 19t19 45t-19 45t-45 19t-45 -19t-19 -45t19 -45z" />
    <glyph glyph-name="ampersand" unicode="&#x26;" horiz-adv-x="609" 
d="M336 316h225v-88h-62q14 -98 -48 -167q-61 -69 -163 -69q-100 0 -161 63q-63 61 -63 161q0 57 25.5 107t66.5 77q-60 52 -60 136q0 71 56 124q55 52 144 52q92 0 160 -68l-56 -69q-42 49 -101 49q-46 0 -76.5 -25.5t-30.5 -64.5q0 -31 25 -62q25 -32 87 -36v-88
q-67 -2 -105.5 -38t-38.5 -98q0 -50 36 -91q35 -41 92 -41q68 0 97 53q28 51 14 95h-63v88z" />
    <glyph glyph-name="quotesingle" unicode="'" horiz-adv-x="224" 
d="M160 704v-240h-96v240h96z" />
    <glyph glyph-name="parenleft" unicode="(" horiz-adv-x="320" 
d="M184 800l88 -52q-54 -89 -83 -204.5t-29 -223.5t29 -223.5t83 -204.5l-88 -52q-120 212 -120 480t120 480z" />
    <glyph glyph-name="parenright" unicode=")" horiz-adv-x="320" 
d="M48 748l88 52q120 -212 120 -480t-120 -480l-88 52q54 89 83 204.5t29 223.5t-29 223.5t-83 204.5z" />
    <glyph glyph-name="asterisk" unicode="*" horiz-adv-x="460" 
d="M266 704l-5 -120l107 48l28 -69l-114 -38l77 -96l-58 -42l-71 100l-68 -100l-60 42l76 96l-114 38l28 69l107 -48l-5 120h72z" />
    <glyph glyph-name="plus" unicode="+" horiz-adv-x="480" 
d="M280 384h136v-80h-136v-136h-80v136h-136v80h136v136h80v-136z" />
    <glyph glyph-name="comma" unicode="," horiz-adv-x="256" 
d="M152 -112h-72v224h112z" />
    <glyph glyph-name="hyphen" unicode="-" horiz-adv-x="400" 
d="M336 296v-80h-272v80h272z" />
    <glyph glyph-name="period" unicode="." horiz-adv-x="272" 
d="M136 -8q-30 0 -51 21t-21 51q0 31 21 51.5t51 20.5q31 0 51.5 -20.5t20.5 -51.5q0 -30 -20.5 -51t-51.5 -21z" />
    <glyph glyph-name="slash" unicode="/" horiz-adv-x="560" 
d="M496 784l-336 -864h-96l336 864h96z" />
    <glyph glyph-name="zero" unicode="0" horiz-adv-x="736" 
d="M368 712q133 0 219 -104q85 -103 85 -256t-85 -256q-86 -104 -219 -104q-135 0 -219 104q-85 103 -85 256t85 256q86 104 219 104zM221 160q62 -80 147 -80t147 80q61 79 61 192q0 114 -61 193t-147 79t-147 -79t-61 -193q0 -113 61 -192z" />
    <glyph glyph-name="one" unicode="1" horiz-adv-x="368" 
d="M48 536v96l208 88v-720h-96v583z" />
    <glyph glyph-name="two" unicode="2" horiz-adv-x="576" 
d="M392 256l-136 -168h256v-88h-448l198 244q92 111 123 162q31 50 31 93q0 54 -35.5 89.5t-92.5 35.5q-56 0 -92 -36t-36 -91q0 -20 8.5 -45t20.5 -37l-79 -45q-46 53 -46 127q0 90 64 153q64 62 160 62t161 -60q63 -61 63 -155q0 -68 -44 -137q-7 -10 -14.5 -22t-12.5 -19
t-8 -11q-21 -27 -41 -52z" />
    <glyph glyph-name="three" unicode="3" horiz-adv-x="608" 
d="M528 704l-204 -254q90 0 154.5 -56.5t65.5 -161.5q0 -99 -67 -169q-68 -71 -173 -71q-57 0 -103.5 20.5t-74.5 52.5t-44 67t-18 68l89 27q9 -68 50 -107.5t101 -39.5t102 42t42 109q0 41 -21 71t-52 43t-68 11.5t-68 -19.5l-59 79l162 200h-246v88h432z" />
    <glyph glyph-name="four" unicode="4" horiz-adv-x="592" 
d="M336 148h-288l228 556h102l-187 -468h145v164h96v-164h96v-88h-96v-148h-96v148z" />
    <glyph glyph-name="five" unicode="5" horiz-adv-x="592" 
d="M223 616l-29 -190q52 29 111.5 29.5t108.5 -23.5t81.5 -77t32.5 -125q0 -97 -65 -168q-64 -70 -167 -70q-54 0 -99.5 20.5t-72.5 52.5t-42.5 67t-17.5 68l89 27q9 -68 47.5 -107.5t95.5 -39.5q58 0 97 41.5t39 107.5q2 47 -23 82t-63 49t-85.5 4.5t-87.5 -43.5l-83 31
l54 352h305v-88h-226z" />
    <glyph glyph-name="six" unicode="6" horiz-adv-x="592" 
d="M528 224q0 -96 -68 -164t-164 -68t-164 68t-68 164q0 43 18 101q10 34 53 103q11 18 41 59q27 38 47 62q6 8 25.5 32.5t32.5 41.5q59 74 64 81h117l-201 -256q22 8 51 8q87 0 152 -65q64 -64 64 -167zM201 123q40 -43 95 -43q56 0 96 43q40 41 40 101q0 59 -40 102
q-40 42 -96 42q-54 0 -95 -42q-41 -44 -41 -102t41 -101z" />
    <glyph glyph-name="seven" unicode="7" 
d="M64 616v88h464l-272 -704h-104l244 616h-332z" />
    <glyph glyph-name="eight" unicode="8" horiz-adv-x="608" 
d="M444 383q100 -59 100 -171q0 -92 -69 -156q-70 -64 -171 -64q-106 0 -173 64q-67 63 -67 156q0 114 96 172q-64 49 -64 136q0 81 59 137q58 55 149 55q87 0 148 -56q60 -56 60 -136q0 -84 -68 -137zM383 595q-23 23 -57.5 27.5t-64 -6.5t-50.5 -36t-19 -56
q0 -42 32.5 -72t79.5 -30t79.5 30t32.5 72q0 41 -33 71zM304 80q58 0 102 38q42 38 42 90q0 54 -41 92q-43 38 -103 38q-61 0 -102 -38q-42 -38 -42 -92q0 -52 42 -90q43 -38 102 -38z" />
    <glyph glyph-name="nine" unicode="9" horiz-adv-x="592" 
d="M64 480q0 96 68 164t164 68t164 -68t68 -164q0 -40 -17 -100q-9 -31 -53 -104q-20 -29 -42 -59q-11 -15 -26.5 -35t-19.5 -26q-32 -40 -59 -74q-13 -16 -34.5 -43.5t-29.5 -38.5h-117l201 256q-22 -8 -51 -8q-86 0 -151 65t-65 167zM392 582q-40 42 -96 42q-54 0 -95 -42
q-41 -44 -41 -102t41 -101q40 -43 95 -43q56 0 96 43q40 41 40 101q0 59 -40 102z" />
    <glyph glyph-name="colon" unicode=":" horiz-adv-x="272" 
d="M136 312q-30 0 -51 21t-21 51q0 31 21 51.5t51 20.5q31 0 51.5 -20.5t20.5 -51.5q0 -30 -20.5 -51t-51.5 -21zM136 -8q-30 0 -51 21t-21 51t21 51t51 21q31 0 51.5 -21t20.5 -51t-20.5 -51t-51.5 -21z" />
    <glyph glyph-name="semicolon" unicode=";" horiz-adv-x="272" 
d="M136 312q-30 0 -51 21t-21 51q0 31 21 51.5t51 20.5q31 0 51.5 -20.5t20.5 -51.5q0 -30 -20.5 -51t-51.5 -21zM160 -112h-72v224h112z" />
    <glyph glyph-name="less" unicode="&#x3c;" horiz-adv-x="496" 
d="M432 216v-88l-368 184v64l368 184v-88l-278 -128z" />
    <glyph glyph-name="equal" unicode="=" horiz-adv-x="480" 
d="M64 384v80h352v-80h-352zM64 224v80h352v-80h-352z" />
    <glyph glyph-name="greater" unicode="&#x3e;" horiz-adv-x="496" 
d="M432 312l-368 -184v88l278 128l-278 128v88l368 -184v-64z" />
    <glyph glyph-name="question" unicode="?" horiz-adv-x="496" 
d="M232 712q89 0 144 -52q56 -53 56 -132q5 -73 -58 -143q-19 -21 -35 -35q-7 -6 -12.5 -12t-10.5 -11l-6 -6q-34 -35 -34 -113h-88q-12 86 30 147q18 28 74 76q44 38 44 91q0 47 -28.5 74.5t-74.5 27.5q-70 0 -107 -52l-62 62q62 78 168 78zM232 136q31 0 51.5 -21
t20.5 -51t-20.5 -51t-51.5 -21q-30 0 -51 21t-21 51t21 51t51 21z" />
    <glyph glyph-name="at" unicode="@" horiz-adv-x="1088" 
d="M552 784q122 2 232.5 -60.5t176.5 -169t63 -224.5q0 -112 -63 -189t-174 -77q-58 0 -98 32q-38 30 -52 67q-55 -67 -139 -67q-78 0 -128 59t-39 145q11 88 68 142q59 54 137 54q77 0 113 -60l6 44h81l-29 -239q-5 -42 20.5 -69.5t72.5 -27.5q56 0 100 48q44 47 44 138
q0 155 -113 265q-112 109 -279 109q-176 0 -291 -121q-117 -121 -117 -295q0 -170 117 -293q117 -121 291 -123q98 -2 164 30l25 -76q-75 -34 -189 -34q-131 -3 -245 65t-179.5 183.5t-63.5 247.5q-2 132 63.5 247.5t179.5 183.5t245 65zM627 295q5 45 -22 83t-68 38
q-53 0 -86.5 -35t-39.5 -86q-6 -49 22 -84t79 -35q46 0 78 35t37 84z" />
    <glyph glyph-name="A" unicode="A" horiz-adv-x="672" 
d="M656 0h-104l-44 100h-344l-44 -100h-104l320 720zM336 496l-134 -308h268z" />
    <glyph glyph-name="B" unicode="B" 
d="M363 378q53 -15 85 -64.5t32 -110.5q0 -92 -64 -147q-65 -56 -170 -56h-166v704h125q116 0 179.5 -47.5t63.5 -136.5q0 -46 -23.5 -83t-61.5 -59zM218 616h-42v-204h42q62 0 98 29t36 77q0 47 -35.5 72.5t-98.5 25.5zM176 88h56q71 0 110.5 29t39.5 85q0 58 -40 90
t-110 32h-56v-236z" />
    <glyph glyph-name="C" unicode="C" horiz-adv-x="656" 
d="M154 98q-106 105 -106 254t106 255q105 105 254 105q58 0 116.5 -19.5t99.5 -52.5l-52 -72q-67 56 -163 56q-110 0 -187 -80q-78 -80 -78 -192t78 -192q77 -80 187 -80q96 0 163 56l52 -72q-41 -33 -99.5 -52.5t-116.5 -19.5q-149 0 -254 106z" />
    <glyph glyph-name="D" unicode="D" horiz-adv-x="624" 
d="M80 704h137q169 0 264 -99q95 -101 95 -253t-96 -252t-263 -100h-137v704zM176 88h56q106 0 177 77t71 187t-71 187t-177 77h-56v-528z" />
    <glyph glyph-name="E" unicode="E" horiz-adv-x="480" 
d="M416 704v-88h-240v-252h176v-88h-176v-188h240v-88h-336v704h336z" />
    <glyph glyph-name="F" unicode="F" horiz-adv-x="464" 
d="M416 704v-88h-240v-252h176v-88h-176v-276h-96v704h336z" />
    <glyph glyph-name="G" unicode="G" horiz-adv-x="800" 
d="M154 98q-106 105 -106 254t106 255q105 105 254 105q118 0 208 -72l-53 -72q-67 56 -155 56q-111 0 -187 -79q-77 -80 -77 -193q0 -112 78 -192q77 -80 186 -80q90 0 153.5 52.5t85.5 143.5h-263v88h368v-13q0 -151 -98 -255t-246 -104q-149 0 -254 106z" />
    <glyph glyph-name="H" unicode="H" horiz-adv-x="576" 
d="M400 364v340h96v-704h-96v276h-224v-276h-96v704h96v-340h224z" />
    <glyph glyph-name="I" unicode="I" horiz-adv-x="256" 
d="M176 704v-704h-96v704h96z" />
    <glyph glyph-name="J" unicode="J" horiz-adv-x="432" 
d="M272 200v504h96v-496q0 -105 -48 -160.5t-128 -55.5q-46 0 -84 17t-60 45l60 64q36 -38 84 -38q37 0 58.5 30t21.5 90z" />
    <glyph glyph-name="K" unicode="K" 
d="M289 389l223 -389h-120l-163 297l-53 -81v-216h-96v704h96v-332l208 332h112z" />
    <glyph glyph-name="L" unicode="L" horiz-adv-x="448" 
d="M176 704v-616h224v-88h-320v704h96z" />
    <glyph glyph-name="M" unicode="M" horiz-adv-x="768" 
d="M80 720l304 -368l304 368v-720h-96v458l-208 -250l-208 250v-458h-96v720z" />
    <glyph glyph-name="N" unicode="N" horiz-adv-x="656" 
d="M576 704v-720l-400 476v-460h-96v720l400 -476v460h96z" />
    <glyph glyph-name="O" unicode="O" horiz-adv-x="816" 
d="M154 607q105 105 254 105q148 0 255 -105q105 -107 105 -255q0 -149 -105 -254q-106 -106 -255 -106t-254 106q-106 105 -106 254t106 255zM221 160q77 -80 187 -80t187 80t77 192q0 113 -77 193q-76 79 -187 79t-187 -79q-77 -80 -77 -193q0 -112 77 -192z" />
    <glyph glyph-name="P" unicode="P" horiz-adv-x="512" 
d="M80 704h128q124 0 191 -65q65 -67 65 -167q0 -98 -66 -165q-67 -67 -176 -67h-46v-240h-96v704zM176 328h49q57 0 100 40q43 39 43 104q0 70 -45 108q-45 36 -104 36h-43v-288z" />
    <glyph glyph-name="Q" unicode="Q" horiz-adv-x="816" 
d="M768 352q0 -122 -74 -219q45 -59 74 -133h-100q-9 31 -34 72q-100 -80 -226 -80q-149 0 -254 106q-106 105 -106 254t106 255q105 105 254 105q148 0 255 -105q105 -107 105 -255zM595 545q-76 79 -187 79t-187 -79q-77 -80 -77 -193q0 -22 3 -41q135 35 261 8
q129 -27 223 -114q41 67 41 147q0 113 -77 193zM172 230q33 -69 96 -109.5t140 -40.5q95 0 168 62q-76 73 -178 96t-226 -8z" />
    <glyph glyph-name="R" unicode="R" horiz-adv-x="528" 
d="M338 265l142 -265h-112l-123 241q-5 -1 -23 -1h-46v-240h-96v704h128q124 0 191 -65q65 -67 65 -167q0 -67 -33.5 -122.5t-92.5 -84.5zM176 616v-288h49q57 0 100 40q43 39 43 104q0 70 -45 108q-45 36 -104 36h-43z" />
    <glyph glyph-name="S" unicode="S" 
d="M289 444q100 -42 155 -94q52 -51 52 -139q0 -85 -60 -152q-61 -67 -160 -67q-97 0 -157 55q-47 40 -71 81l56 73q75 -121 174 -121q53 0 88 38q34 37 34 89q0 47 -29.5 77.5t-91.5 59.5q-106 47 -144 92q-39 46 -39 116q0 64 55 112q54 48 132 48q56 0 92 -16.5t73 -55.5
l-56 -71q-49 55 -111 55q-35 0 -62 -22t-27 -52q0 -66 97 -106z" />
    <glyph glyph-name="T" unicode="T" horiz-adv-x="480" 
d="M48 616v88h384v-88h-144v-616h-96v616h-144z" />
    <glyph glyph-name="U" unicode="U" horiz-adv-x="640" 
d="M464 264v440h96v-424q0 -134 -64 -210q-65 -78 -176 -78q-113 0 -176.5 76.5t-63.5 211.5v424h96v-440q0 -83 38.5 -133.5t105.5 -50.5q66 0 105 50.5t39 133.5z" />
    <glyph glyph-name="V" unicode="V" horiz-adv-x="672" 
d="M336 208l216 496h104l-320 -720l-320 720h104z" />
    <glyph glyph-name="W" unicode="W" horiz-adv-x="928" 
d="M808 704h104l-312 -720l-135 328l-137 -328l-312 720h104l208 -486l88 214l-110 272h102l192 -486z" />
    <glyph glyph-name="X" unicode="X" horiz-adv-x="592" 
d="M140 0h-108l208 366l-192 338h107l141 -254l141 254h107l-192 -338l208 -366h-108l-156 280z" />
    <glyph glyph-name="Y" unicode="Y" horiz-adv-x="608" 
d="M304 381l180 323h108l-240 -419v-285h-96v285l-240 419h108z" />
    <glyph glyph-name="Z" unicode="Z" 
d="M480 88v-88h-432l300 616h-284v88h432l-300 -616h284z" />
    <glyph glyph-name="bracketleft" unicode="[" horiz-adv-x="352" 
d="M272 760h-96v-880h96v-88h-192v1056h192v-88z" />
    <glyph glyph-name="backslash" unicode="\" horiz-adv-x="560" 
d="M496 -80h-96l-336 864h96z" />
    <glyph glyph-name="bracketright" unicode="]" horiz-adv-x="352" 
d="M176 -120v880h-96v88h192v-1056h-192v88h96z" />
    <glyph glyph-name="asciicircum" unicode="^" horiz-adv-x="512" 
d="M160 480h-96l154 224h76l154 -224h-96l-96 146z" />
    <glyph glyph-name="underscore" unicode="_" horiz-adv-x="576" 
d="M528 -32v-80h-480v80h480z" />
    <glyph glyph-name="a" unicode="a" horiz-adv-x="512" 
d="M448 210v-210h-96v58q-56 -66 -139 -66q-72 0 -118 43q-47 42 -47 108q0 63 46.5 103t113 43t141.5 -27q-6 106 -101 106q-57 0 -104 -29l-40 69q63 48 148 48q196 0 196 -246zM352 183q-34 20 -84 23t-87.5 -14.5t-36.5 -51.5q0 -26 21.5 -43t56.5 -17q46 0 85 30t45 73
z" />
    <glyph glyph-name="b" unicode="b" horiz-adv-x="592" 
d="M80 736h96v-344q55 64 144 64q93 0 159 -68q65 -68 65 -164t-65 -164q-66 -68 -159 -68q-89 0 -144 64v-56h-96v736zM216 122q39 -42 96 -42q56 0 97 42q39 42 39 102t-39 102q-41 42 -97 42q-57 0 -96 -42q-40 -41 -40 -102t40 -102z" />
    <glyph glyph-name="c" unicode="c" horiz-adv-x="480" 
d="M280 80q63 0 100 40l52 -72q-65 -56 -152 -56q-96 0 -164 68t-68 164t68 164t164 68q87 0 152 -56l-52 -72q-37 40 -100 40q-54 0 -95 -42q-41 -44 -41 -102t41 -101q40 -43 95 -43z" />
    <glyph glyph-name="d" unicode="d" horiz-adv-x="592" 
d="M416 392v344h96v-736h-96v56q-55 -64 -144 -64q-93 0 -158 68q-66 68 -66 164t66 164q65 68 158 68q89 0 144 -64zM184 122q39 -42 96 -42q56 0 97 42q39 42 39 102t-39 102q-41 42 -97 42q-57 0 -96 -42q-40 -41 -40 -102t40 -102z" />
    <glyph glyph-name="e" unicode="e" horiz-adv-x="512" 
d="M280 80q59 0 111 52l55 -70q-67 -70 -166 -70q-96 0 -164 68t-68 164t68 164t164 68q75 0 128 -42.5t72 -115.5l-297 -172q14 -20 41.5 -33t55.5 -13zM280 368q-54 0 -95 -44t-41 -100q0 -2 2 -26l222 128q-32 42 -88 42z" />
    <glyph glyph-name="f" unicode="f" horiz-adv-x="400" 
d="M48 360v88h64v122q0 84 38.5 129t105.5 45q50 0 96 -32l-44 -72q-20 16 -45 16q-55 0 -55 -86v-122h144v-88h-144v-360h-96v360h-64z" />
    <glyph glyph-name="g" unicode="g" horiz-adv-x="592" 
d="M416 392v56h96v-422q0 -140 -69 -208q-69 -66 -179 -66q-45 0 -96 17q-48 16 -72 40l43 78q53 -47 125 -47q73 0 112.5 45t39.5 127v44q-55 -64 -144 -64q-93 0 -158 68q-66 68 -66 164t66 164q65 68 158 68q89 0 144 -64zM184 122q39 -42 96 -42q56 0 97 42
q39 42 39 102t-39 102q-41 42 -97 42q-57 0 -96 -42q-40 -41 -40 -102t40 -102z" />
    <glyph glyph-name="h" unicode="h" 
d="M302 456q86 0 132 -57t46 -163v-236h-96v236q0 67 -23.5 99.5t-76.5 32.5q-46 0 -77 -38.5t-31 -97.5v-232h-96v736h96v-344q14 26 48 45t78 19z" />
    <glyph glyph-name="i" unicode="i" horiz-adv-x="256" 
d="M179 549q-21 -21 -51 -21t-51 21t-21 51t21 51t51 21t51 -21t21 -51t-21 -51zM176 0h-96v448h96v-448z" />
    <glyph glyph-name="j" unicode="j" horiz-adv-x="256" 
d="M179 549q-21 -21 -51 -21t-51 21t-21 51t21 51t51 21t51 -21t21 -51t-21 -51zM176 -224l-96 -32v704h96v-672z" />
    <glyph glyph-name="k" unicode="k" horiz-adv-x="496" 
d="M273 251l207 -251h-120l-149 187l-35 -36v-151h-96v736h96v-468l168 180h120z" />
    <glyph glyph-name="l" unicode="l" horiz-adv-x="256" 
d="M80 0v736h96v-736h-96z" />
    <glyph glyph-name="m" unicode="m" horiz-adv-x="816" 
d="M582 456q81 0 125.5 -57.5t44.5 -162.5v-236h-96v236q0 132 -92 132q-44 0 -72 -37.5t-28 -98.5v-232h-96v236q0 132 -92 132q-44 0 -72 -37.5t-28 -98.5v-232h-96v448h96v-56q16 22 28 33t35 21t55 10q95 0 138 -76q33 42 66.5 59t83.5 17z" />
    <glyph glyph-name="n" unicode="n" 
d="M302 456q86 0 132 -57t46 -163v-236h-96v236q0 67 -23.5 99.5t-76.5 32.5q-46 0 -77 -38.5t-31 -97.5v-232h-96v448h96v-56q14 26 48 45t78 19z" />
    <glyph glyph-name="o" unicode="o" horiz-adv-x="560" 
d="M116 388q68 68 164 68t164 -68t68 -164t-68 -164t-164 -68t-164 68t-68 164t68 164zM185 123q40 -43 95 -43q56 0 96 43q40 41 40 101q0 59 -40 102q-40 42 -96 42q-54 0 -95 -42q-41 -44 -41 -102t41 -101z" />
    <glyph glyph-name="p" unicode="p" horiz-adv-x="592" 
d="M176 56v-296h-96v688h96v-56q55 64 144 64q93 0 159 -68q65 -68 65 -164t-65 -164q-66 -68 -159 -68q-89 0 -144 64zM409 326q-41 42 -97 42q-57 0 -96 -42q-40 -41 -40 -102t40 -102q39 -42 96 -42q56 0 97 42q39 42 39 102t-39 102z" />
    <glyph glyph-name="q" unicode="q" horiz-adv-x="592" 
d="M512 -240h-96v296q-55 -64 -144 -64q-93 0 -158 68q-66 68 -66 164t66 164q65 68 158 68q89 0 144 -64v56h96v-688zM377 326q-41 42 -97 42q-57 0 -96 -42q-40 -41 -40 -102t40 -102q39 -42 96 -42q56 0 97 42q39 42 39 102t-39 102z" />
    <glyph glyph-name="r" unicode="r" horiz-adv-x="384" 
d="M176 448v-71q45 79 160 79v-102q-44 9 -80 -4q-80 -29 -80 -149v-201h-96v448h96z" />
    <glyph glyph-name="s" unicode="s" horiz-adv-x="432" 
d="M241 280q143 -33 143 -146q0 -63 -47 -102q-47 -40 -112 -40q-101 0 -177 76l48 70q58 -56 123 -58q31 -1 50 14t19 35q0 38 -62 55q-87 24 -120.5 55t-33.5 88q0 54 41.5 91.5t110.5 37.5q71 0 129 -46l-45 -70q-37 28 -84 28q-26 0 -41 -11t-15 -27q0 -19 15.5 -29.5
t57.5 -20.5z" />
    <glyph glyph-name="t" unicode="t" horiz-adv-x="400" 
d="M224 0h-96v360h-80v88h80v176l96 32v-208h128v-88h-128v-360z" />
    <glyph glyph-name="u" unicode="u" 
d="M242 -8q-86 0 -132 57t-46 163v236h96v-244q0 -124 100 -124q46 0 77 40t31 104v224h96v-448h-96v56q-14 -26 -48 -45t-78 -19z" />
    <glyph glyph-name="v" unicode="v" horiz-adv-x="464" 
d="M448 448l-216 -464l-216 464h104l112 -248l112 248h104z" />
    <glyph glyph-name="w" unicode="w" horiz-adv-x="688" 
d="M568 448h104l-232 -464l-93 204l-99 -204l-232 464h104l128 -268l53 108l-73 160h96l116 -268z" />
    <glyph glyph-name="x" unicode="x" horiz-adv-x="496" 
d="M304 236l160 -236h-112l-104 161l-104 -161h-112l160 236l-144 212h112l88 -138l88 138h112z" />
    <glyph glyph-name="y" unicode="y" horiz-adv-x="480" 
d="M241 145l119 303h104l-279 -688h-102l109 266l-176 422h104z" />
    <glyph glyph-name="z" unicode="z" horiz-adv-x="464" 
d="M400 88v-88h-352l208 360h-192v88h352l-210 -360h194z" />
    <glyph glyph-name="braceleft" unicode="{" horiz-adv-x="344" 
d="M64 280v80q29 1 46.5 22t17.5 50v250q0 157 112 182l40 -80q-31 -9 -43.5 -34t-12.5 -72v-212q0 -118 -67 -146q67 -28 67 -146v-212q0 -47 12.5 -72t43.5 -34l-40 -80q-112 25 -112 182v250q0 29 -17.5 50t-46.5 22z" />
    <glyph glyph-name="bar" unicode="|" horiz-adv-x="240" 
d="M160 736v-976h-80v976h80z" />
    <glyph glyph-name="braceright" unicode="}" horiz-adv-x="344" 
d="M280 360v-80q-29 -1 -46.5 -22t-17.5 -50v-250q0 -157 -112 -182l-40 80q31 9 43.5 34t12.5 72v212q0 118 67 146q-67 28 -67 146v212q0 47 -12.5 72t-43.5 34l40 80q112 -25 112 -182v-250q0 -29 17.5 -50t46.5 -22z" />
    <glyph glyph-name="asciitilde" unicode="~" horiz-adv-x="528" 
d="M411 392l53 -56q-44 -56 -115 -56q-43 0 -128 32q-63 23 -104 -32l-53 56q44 56 115 56q36 0 84 -19t85 -19q34 0 63 38z" />
    <glyph glyph-name="exclamdown" unicode="&#xa1;" horiz-adv-x="304" 
d="M152 456q31 0 51.5 -21t20.5 -51t-20.5 -51t-51.5 -21q-30 0 -51 21t-21 51t21 51t51 21zM96 -256l16 496h80l16 -496h-112z" />
    <glyph glyph-name="cent" unicode="&#xa2;" horiz-adv-x="480" 
d="M380 120l52 -72q-52 -45 -120 -54v-90h-64v90q-85 12 -142 78q-58 64 -58 152t58 153t142 77v90h64v-90q68 -9 120 -54l-52 -72q-37 40 -100 40q-54 0 -95 -42q-41 -44 -41 -102t41 -101q40 -43 95 -43q63 0 100 40z" />
    <glyph glyph-name="sterling" unicode="&#xa3;" horiz-adv-x="528" 
d="M352 312h-132q21 -129 -23 -224h283v-88h-432q44 59 65 115t21 102t-8 95h-62v64h50q-18 90 -18 130q0 84 56 146q56 60 153 60q112 0 175 -80l-58 -64q-50 56 -116 56q-49 0 -80.5 -33t-33.5 -91q-1 -31 16 -124h144v-64z" />
    <glyph glyph-name="currency" unicode="&#xa4;" horiz-adv-x="526" 
d="M407 312q0 -46 -24 -80l79 -78l-39 -41l-80 78q-35 -23 -79 -23q-47 0 -82 25l-79 -80l-39 40l78 80q-23 35 -23 79t24 79l-79 81l41 39l78 -79q37 24 81 24q46 0 81 -25l76 80l41 -39l-79 -80q24 -38 24 -80zM308 357q-19 19 -44.5 19t-44.5 -19t-19 -45t19 -45
t44.5 -19t44.5 19q20 19 20 45t-20 45z" />
    <glyph glyph-name="yen" unicode="&#xa5;" horiz-adv-x="672" 
d="M624 704l-240 -419v-13h80v-48h-80v-64h80v-48h-80v-112h-96v112h-80v48h80v64h-80v48h80v13l-240 419h108l180 -323l180 323h108z" />
    <glyph glyph-name="brokenbar" unicode="&#xa6;" horiz-adv-x="240" 
d="M160 736v-328h-80v328h80zM160 88v-328h-80v328h80z" />
    <glyph glyph-name="section" unicode="&#xa7;" horiz-adv-x="576" 
d="M431 39q49 -48 49 -127q0 -64 -54 -112q-55 -48 -133 -48q-56 0 -92 16.5t-73 55.5l56 71q49 -55 111 -55q35 0 62 22t27 52q0 66 -97 106q-101 42 -155 95q-52 49 -52 138q0 48 21.5 94t59.5 78q-49 48 -49 127q0 64 55 112q54 48 132 48q56 0 92 -16.5t73 -55.5
l-56 -71q-49 55 -111 55q-35 0 -62 -22t-27 -52q0 -66 97 -106q100 -42 155 -94q52 -51 52 -139q0 -48 -21.5 -94t-59.5 -78zM176 257q0 -47 29.5 -77.5t91.5 -59.5q36 -15 54 -26q30 16 47.5 46.5t17.5 66.5q0 47 -29.5 77.5t-91.5 59.5q-36 15 -54 26q-30 -16 -47.5 -46.5
t-17.5 -66.5z" />
    <glyph glyph-name="copyright" unicode="&#xa9;" horiz-adv-x="848" 
d="M680 96q-104 -104 -256 -104q-153 0 -256 105q-104 104 -104 255q0 152 104 256t256 104t256 -104t104 -256t-104 -256zM226 154q81 -82 198 -82t199 82q81 81 81 198q0 116 -81 199q-83 81 -199 81q-117 0 -198 -81q-82 -82 -82 -199t82 -198zM421 214q51 0 83 27
l42 -57q-49 -42 -124 -42q-91 0 -149 61q-59 61 -59 149t59 150q59 60 149 60q75 0 124 -42l-42 -57q-32 27 -83 27q-57 0 -92 -41q-35 -43 -35 -97q0 -55 35 -96q34 -42 92 -42z" />
    <glyph glyph-name="ordfeminine" unicode="&#xaa;" horiz-adv-x="284" 
d="M252 576v-112h-53v28q-31 -36 -76 -36q-40 0 -65.5 23.5t-25.5 60.5q0 54 54 73q52 19 112 -8q-4 58 -56 58q-32 0 -57 -15l-22 38q35 26 81 26q108 0 108 -136zM199 562q-29 17 -71 11q-43 -6 -43 -35q0 -14 12 -23.5t31 -9.5q25 0 46.5 16.5t24.5 40.5z" />
    <glyph glyph-name="guillemotleft" unicode="&#xab;" horiz-adv-x="560" 
d="M176 448l64 -40l-88 -144l88 -144l-64 -40l-112 184zM400 448l64 -40l-88 -144l88 -144l-64 -40l-112 184z" />
    <glyph glyph-name="logicalnot" unicode="&#xac;" horiz-adv-x="608" 
d="M64 384h480v-192h-80v112h-400v80z" />
    <glyph glyph-name="registered" unicode="&#xae;" horiz-adv-x="848" 
d="M168 608q104 104 256 104t256 -104t104 -256t-104 -256t-256 -104q-153 0 -256 105q-104 104 -104 255q0 152 104 256zM226 154q81 -82 198 -82t199 82q81 81 81 198q0 116 -81 199q-83 81 -199 81q-117 0 -198 -81q-82 -82 -82 -199t82 -198zM560 411q0 -83 -68 -123
l77 -136h-90l-62 116h-41v-116h-80v400h112q72 0 112 -39.5t40 -101.5zM400 478h-24v-136h25q35 0 57 18.5t22 50.5t-22.5 49.5t-57.5 17.5z" />
    <glyph glyph-name="degree" unicode="&#xb0;" horiz-adv-x="416" 
d="M209 424q-61 0 -103 42q-42 40 -42 102q0 60 42 102t103 42q60 0 102 -42q41 -43 41 -102q0 -61 -41 -102q-42 -42 -102 -42zM163 523q19 -19 45 -19t45 19t19 45t-19 45t-45 19t-45 -19t-19 -45t19 -45z" />
    <glyph glyph-name="plusminus" unicode="&#xb1;" horiz-adv-x="480" 
d="M280 472h136v-80h-136v-136h-80v136h-136v80h136v136h80v-136zM64 64v80h352v-80h-352z" />
    <glyph glyph-name="uni00B2" unicode="&#xb2;" horiz-adv-x="331" 
d="M237 594l-33 -42h79v-72h-231l91 108q36 44 48.5 65.5t12.5 39.5q0 14 -11.5 24.5t-26.5 10.5q-16 0 -27.5 -10.5t-11.5 -24.5q0 -17 9 -31l-68 -28q-20 26 -20 59q0 44 34 75.5t84 31.5q48 0 82.5 -31t34.5 -76q0 -41 -46 -99z" />
    <glyph glyph-name="uni00B3" unicode="&#xb3;" horiz-adv-x="332" 
d="M276 792l-83 -113q41 -2 66 -27.5t25 -69.5q0 -48 -33.5 -79t-87.5 -31q-47 0 -80 28t-35 64l72 15q2 -15 14 -25t29 -10q18 0 30 11t12 28q0 28 -24 37q-25 9 -44 -6l-39 50l45 56h-77v72h210z" />
    <glyph glyph-name="paragraph" unicode="&#xb6;" horiz-adv-x="704" 
d="M640 704v-80h-96v-864h-80v864h-144v-864h-80v577q-76 0 -126 54q-50 53 -50 130q0 76 51 130q50 53 125 53h400z" />
    <glyph glyph-name="middot" unicode="&#xb7;" horiz-adv-x="272" 
d="M136 264q-30 0 -51 21t-21 51q0 31 21 51.5t51 20.5q31 0 51.5 -20.5t20.5 -51.5q0 -30 -20.5 -51t-51.5 -21z" />
    <glyph glyph-name="uni00B9" unicode="&#xb9;" horiz-adv-x="288" 
d="M64 684v72l128 44v-320h-79v221z" />
    <glyph glyph-name="ordmasculine" unicode="&#xba;" horiz-adv-x="320" 
d="M70 675q37 37 90 37q54 0 91 -37t37 -91q0 -53 -37 -90q-38 -38 -91 -38q-52 0 -90 38t-38 90q0 53 38 91zM107 529q22 -24 53 -24t53 24q22 23 22 55t-22 56q-22 23 -53 23t-53 -23q-22 -24 -22 -56t22 -55z" />
    <glyph glyph-name="guillemotright" unicode="&#xbb;" horiz-adv-x="560" 
d="M184 264l-88 144l64 40l112 -184l-112 -184l-64 40zM408 264l-88 144l64 40l112 -184l-112 -184l-64 40z" />
    <glyph glyph-name="onequarter" unicode="&#xbc;" horiz-adv-x="753" 
d="M192 392h-79v221l-49 -17v72l128 44v-320zM88 0l448 704h80l-448 -704h-80zM670 177v-52h35v-72h-35v-53h-79v53h-143l94 259h78l-67 -187h38v52h79z" />
    <glyph glyph-name="onehalf" unicode="&#xbd;" horiz-adv-x="747" 
d="M192 392h-79v221l-49 -17v72l128 44v-320zM88 0l448 704h80l-448 -704h-80zM653 114l-33 -42h79v-72h-231l91 108q36 44 48.5 65.5t12.5 39.5q0 14 -11.5 24.5t-26.5 10.5q-16 0 -27.5 -10.5t-11.5 -24.5q0 -18 9 -31l-68 -28q-20 26 -20 59q0 44 34 75.5t84 31.5
q48 0 82.5 -31t34.5 -76q0 -41 -46 -99z" />
    <glyph glyph-name="threequarters" unicode="&#xbe;" horiz-adv-x="797" 
d="M276 704l-83 -113q41 -2 66 -27.5t25 -69.5q0 -48 -33.5 -79t-87.5 -31q-47 0 -80 28t-35 64l72 15q2 -15 14 -25t29 -10q18 0 30 11t12 28q0 28 -24 37q-25 9 -44 -6l-39 50l45 56h-77v72h210zM660 704l-448 -704h-80l448 704h80zM635 53h-143l94 259h78l-67 -187h38v52
h79v-52h35v-72h-35v-53h-79v53z" />
    <glyph glyph-name="questiondown" unicode="&#xbf;" horiz-adv-x="496" 
d="M264 312q-31 0 -51.5 21t-20.5 51t20.5 51t51.5 21q30 0 51 -21t21 -51t-21 -51t-51 -21zM264 -264q-89 0 -144 52q-56 53 -56 132q-5 75 59 144q17 19 34 35q8 7 29 28q34 35 34 113h88q12 -86 -30 -147q-18 -28 -74 -76q-44 -38 -44 -91q0 -47 28.5 -74.5t74.5 -27.5
q70 0 107 52l62 -62q-62 -78 -168 -78z" />
    <glyph glyph-name="Agrave" unicode="&#xc0;" horiz-adv-x="672" 
d="M312 928l64 -160h-64l-96 160h96zM656 0h-104l-44 100h-344l-44 -100h-104l320 720zM336 496l-134 -308h268z" />
    <glyph glyph-name="Aacute" unicode="&#xc1;" horiz-adv-x="672" 
d="M360 928h96l-96 -160h-64zM656 0h-104l-44 100h-344l-44 -100h-104l320 720zM336 496l-134 -308h268z" />
    <glyph glyph-name="Acircumflex" unicode="&#xc2;" horiz-adv-x="672" 
d="M392 768l-56 80l-56 -80h-72l128 168l128 -168h-72zM656 0h-104l-44 100h-344l-44 -100h-104l320 720zM336 496l-134 -308h268z" />
    <glyph glyph-name="Atilde" unicode="&#xc3;" horiz-adv-x="672" 
d="M342 782q-97 46 -129 -14l-45 40q36 56 94 56q39 0 68 -13q97 -48 129 13l45 -40q-36 -56 -94 -56q-35 0 -68 14zM656 0h-104l-44 100h-344l-44 -100h-104l320 720zM336 496l-134 -308h268z" />
    <glyph glyph-name="Adieresis" unicode="&#xc4;" horiz-adv-x="672" 
d="M248 768q-23 0 -39.5 16.5t-16.5 39.5q0 24 16.5 40t39.5 16q24 0 40 -16t16 -40q0 -23 -16 -39.5t-40 -16.5zM424 768q-23 0 -39.5 16.5t-16.5 39.5q0 24 16.5 40t39.5 16q24 0 40 -16t16 -40q0 -23 -16 -39.5t-40 -16.5zM656 0h-104l-44 100h-344l-44 -100h-104
l320 720zM336 496l-134 -308h268z" />
    <glyph glyph-name="Aring" unicode="&#xc5;" horiz-adv-x="672" 
d="M656 0h-104l-44 100h-344l-44 -100h-104l269 604q-61 34 -61 100q0 46 33 79t79 33t79 -33t33 -79q0 -67 -61 -100zM376 744q-16 16 -39 16t-40 -16t-17 -39t17 -40t40 -17t39 17t16 40t-16 39zM336 496l-134 -308h268z" />
    <glyph glyph-name="AE" unicode="&#xc6;" horiz-adv-x="768" 
d="M704 704v-88h-240v-252h176v-88h-176v-188h240v-88h-336v100h-200l-48 -100h-104l352 704h336zM368 512l-157 -324h157v324z" />
    <glyph glyph-name="Ccedilla" unicode="&#xc7;" horiz-adv-x="656" 
d="M572 136l52 -72q-82 -67 -203 -72v-40q37 -5 72 -34t35 -86q0 -61 -40 -98q-41 -38 -96 -38q-41 0 -72.5 17.5t-47.5 45.5l48 45q18 -44 72 -44q35 0 57.5 20t22.5 53q0 43 -33.5 64.5t-81.5 14.5v84q-131 18 -220 119t-89 237q0 149 106 255q105 105 254 105
q58 0 116.5 -19.5t99.5 -52.5l-52 -72q-67 56 -163 56q-110 0 -187 -80q-78 -80 -78 -192t78 -192q77 -80 187 -80q96 0 163 56z" />
    <glyph glyph-name="Egrave" unicode="&#xc8;" horiz-adv-x="480" 
d="M248 928l64 -160h-64l-96 160h96zM416 704v-88h-240v-252h176v-88h-176v-188h240v-88h-336v704h336z" />
    <glyph glyph-name="Eacute" unicode="&#xc9;" horiz-adv-x="480" 
d="M248 768h-64l64 160h96zM416 704v-88h-240v-252h176v-88h-176v-188h240v-88h-336v704h336z" />
    <glyph glyph-name="Ecircumflex" unicode="&#xca;" horiz-adv-x="480" 
d="M368 768h-72l-56 80l-56 -80h-72l128 168zM416 704v-88h-240v-252h176v-88h-176v-188h240v-88h-336v704h336z" />
    <glyph glyph-name="Edieresis" unicode="&#xcb;" horiz-adv-x="480" 
d="M152 768q-23 0 -39.5 16.5t-16.5 39.5q0 24 16.5 40t39.5 16q24 0 40 -16t16 -40q0 -23 -16 -39.5t-40 -16.5zM328 768q-23 0 -39.5 16.5t-16.5 39.5q0 24 16.5 40t39.5 16q24 0 40 -16t16 -40q0 -23 -16 -39.5t-40 -16.5zM416 704v-88h-240v-252h176v-88h-176v-188h240
v-88h-336v704h336z" />
    <glyph glyph-name="Igrave" unicode="&#xcc;" horiz-adv-x="256" 
d="M112 928l64 -160h-64l-96 160h96zM176 704v-704h-96v704h96z" />
    <glyph glyph-name="Iacute" unicode="&#xcd;" horiz-adv-x="256" 
d="M144 768h-64l64 160h96zM176 704v-704h-96v704h96z" />
    <glyph glyph-name="Icircumflex" unicode="&#xce;" horiz-adv-x="256" 
d="M256 768h-72l-56 80l-56 -80h-72l128 168zM176 704v-704h-96v704h96z" />
    <glyph glyph-name="Idieresis" unicode="&#xcf;" horiz-adv-x="256" 
d="M40 768q-23 0 -39.5 16.5t-16.5 39.5q0 24 16.5 40t39.5 16q24 0 40 -16t16 -40q0 -23 -16 -39.5t-40 -16.5zM216 768q-23 0 -39.5 16.5t-16.5 39.5q0 24 16.5 40t39.5 16q24 0 40 -16t16 -40q0 -23 -16 -39.5t-40 -16.5zM176 704v-704h-96v704h96z" />
    <glyph glyph-name="Eth" unicode="&#xd0;" horiz-adv-x="624" 
d="M80 704h137q169 0 264 -99q95 -101 95 -253t-96 -252t-263 -100h-137v320h-48v64h48v320zM176 88h56q106 0 177 77t71 187t-71 187t-177 77h-56v-232h96v-64h-96v-232z" />
    <glyph glyph-name="Ntilde" unicode="&#xd1;" horiz-adv-x="656" 
d="M451 864l45 -40q-36 -56 -94 -56q-35 0 -68 14q-97 46 -129 -14l-45 40q36 56 94 56q39 0 68 -13q97 -48 129 13zM576 704v-720l-400 476v-460h-96v720l400 -476v460h96z" />
    <glyph glyph-name="Ograve" unicode="&#xd2;" horiz-adv-x="816" 
d="M392 928l64 -160h-64l-96 160h96zM154 607q105 105 254 105q148 0 255 -105q105 -107 105 -255q0 -149 -105 -254q-106 -106 -255 -106t-254 106q-106 105 -106 254t106 255zM221 160q77 -80 187 -80t187 80t77 192q0 113 -77 193q-76 79 -187 79t-187 -79
q-77 -80 -77 -193q0 -112 77 -192z" />
    <glyph glyph-name="Oacute" unicode="&#xd3;" horiz-adv-x="816" 
d="M424 768h-64l64 160h96zM154 607q105 105 254 105q148 0 255 -105q105 -107 105 -255q0 -149 -105 -254q-106 -106 -255 -106t-254 106q-106 105 -106 254t106 255zM221 160q77 -80 187 -80t187 80t77 192q0 113 -77 193q-76 79 -187 79t-187 -79q-77 -80 -77 -193
q0 -112 77 -192z" />
    <glyph glyph-name="Ocircumflex" unicode="&#xd4;" horiz-adv-x="816" 
d="M536 768h-72l-56 80l-56 -80h-72l128 168zM154 607q105 105 254 105q148 0 255 -105q105 -107 105 -255q0 -149 -105 -254q-106 -106 -255 -106t-254 106q-106 105 -106 254t106 255zM221 160q77 -80 187 -80t187 80t77 192q0 113 -77 193q-76 79 -187 79t-187 -79
q-77 -80 -77 -193q0 -112 77 -192z" />
    <glyph glyph-name="Otilde" unicode="&#xd5;" horiz-adv-x="816" 
d="M539 864l45 -40q-36 -56 -94 -56q-35 0 -68 14q-97 46 -129 -14l-45 40q36 56 94 56q39 0 68 -13q97 -48 129 13zM154 607q105 105 254 105q148 0 255 -105q105 -107 105 -255q0 -149 -105 -254q-106 -106 -255 -106t-254 106q-106 105 -106 254t106 255zM221 160
q77 -80 187 -80t187 80t77 192q0 113 -77 193q-76 79 -187 79t-187 -79q-77 -80 -77 -193q0 -112 77 -192z" />
    <glyph glyph-name="Odieresis" unicode="&#xd6;" horiz-adv-x="816" 
d="M320 768q-23 0 -39.5 16.5t-16.5 39.5q0 24 16.5 40t39.5 16q24 0 40 -16t16 -40q0 -23 -16 -39.5t-40 -16.5zM496 768q-23 0 -39.5 16.5t-16.5 39.5q0 24 16.5 40t39.5 16q24 0 40 -16t16 -40q0 -23 -16 -39.5t-40 -16.5zM154 607q105 105 254 105q148 0 255 -105
q105 -107 105 -255q0 -149 -105 -254q-106 -106 -255 -106t-254 106q-106 105 -106 254t106 255zM221 160q77 -80 187 -80t187 80t77 192q0 113 -77 193q-76 79 -187 79t-187 -79q-77 -80 -77 -193q0 -112 77 -192z" />
    <glyph glyph-name="multiply" unicode="&#xd7;" horiz-adv-x="480" 
d="M240 401l119 119l57 -57l-119 -119l119 -119l-57 -57l-119 119l-119 -119l-57 57l119 119l-119 119l57 57z" />
    <glyph glyph-name="Oslash" unicode="&#xd8;" horiz-adv-x="816" 
d="M154 607q105 105 254 105q148 0 255 -105q105 -107 105 -255q0 -149 -105 -254q-106 -106 -255 -106t-254 106q-106 105 -106 254t106 255zM144 352q0 -102 64 -178l347 404q-67 46 -147 46q-111 0 -187 -79q-77 -80 -77 -193zM408 80q110 0 187 80t77 192q0 100 -63 177
l-346 -405q65 -44 145 -44z" />
    <glyph glyph-name="Ugrave" unicode="&#xd9;" horiz-adv-x="640" 
d="M304 928l64 -160h-64l-96 160h96zM464 264v440h96v-424q0 -134 -64 -210q-65 -78 -176 -78q-113 0 -176.5 76.5t-63.5 211.5v424h96v-440q0 -83 38.5 -133.5t105.5 -50.5q66 0 105 50.5t39 133.5z" />
    <glyph glyph-name="Uacute" unicode="&#xda;" horiz-adv-x="640" 
d="M336 768h-64l64 160h96zM464 264v440h96v-424q0 -134 -64 -210q-65 -78 -176 -78q-113 0 -176.5 76.5t-63.5 211.5v424h96v-440q0 -83 38.5 -133.5t105.5 -50.5q66 0 105 50.5t39 133.5z" />
    <glyph glyph-name="Ucircumflex" unicode="&#xdb;" horiz-adv-x="640" 
d="M448 768h-72l-56 80l-56 -80h-72l128 168zM464 264v440h96v-424q0 -134 -64 -210q-65 -78 -176 -78q-113 0 -176.5 76.5t-63.5 211.5v424h96v-440q0 -83 38.5 -133.5t105.5 -50.5q66 0 105 50.5t39 133.5z" />
    <glyph glyph-name="Udieresis" unicode="&#xdc;" horiz-adv-x="640" 
d="M232 768q-23 0 -39.5 16.5t-16.5 39.5q0 24 16.5 40t39.5 16q24 0 40 -16t16 -40q0 -23 -16 -39.5t-40 -16.5zM408 768q-23 0 -39.5 16.5t-16.5 39.5q0 24 16.5 40t39.5 16q24 0 40 -16t16 -40q0 -23 -16 -39.5t-40 -16.5zM464 264v440h96v-424q0 -134 -64 -210
q-65 -78 -176 -78q-113 0 -176.5 76.5t-63.5 211.5v424h96v-440q0 -83 38.5 -133.5t105.5 -50.5q66 0 105 50.5t39 133.5z" />
    <glyph glyph-name="Yacute" unicode="&#xdd;" horiz-adv-x="608" 
d="M328 768h-64l64 160h96zM304 381l180 323h108l-240 -419v-285h-96v285l-240 419h108z" />
    <glyph glyph-name="Thorn" unicode="&#xde;" horiz-adv-x="512" 
d="M176 584h32q124 0 191 -65q65 -67 65 -167q0 -98 -66 -165q-67 -67 -176 -67h-46v-120h-96v704h96v-120zM176 208h55q57 0 97 39t40 105q0 69 -40.5 106.5t-102.5 37.5h-49v-288z" />
    <glyph glyph-name="germandbls" unicode="&#xdf;" 
d="M160 -192h-96v712q0 57 17.5 103t43.5 69q22 20 56 34q44 18 77 18q82 0 138 -56q55 -56 55 -132q0 -52 -26 -95t-67 -65q61 -18 99.5 -69t38.5 -121q0 -84 -56 -149t-160 -65q-49 0 -88 16l30 80q60 -23 119 9t59 113q0 71 -55 106.5t-153 35.5v80q67 0 113 31
q47 32 47 93q0 42 -28.5 71t-67.5 29q-44 0 -70 -32t-26 -84v-732z" />
    <glyph glyph-name="agrave" unicode="&#xe0;" horiz-adv-x="512" 
d="M256 672l64 -160h-64l-96 160h96zM448 210v-210h-96v58q-56 -66 -139 -66q-72 0 -118 43q-47 42 -47 108q0 63 46.5 103t113 43t141.5 -27q-6 106 -101 106q-57 0 -104 -29l-40 69q63 48 148 48q196 0 196 -246zM352 183q-34 20 -84 23t-87.5 -14.5t-36.5 -51.5
q0 -26 21.5 -43t56.5 -17q46 0 85 30t45 73z" />
    <glyph glyph-name="aacute" unicode="&#xe1;" horiz-adv-x="512" 
d="M272 512h-64l64 160h96zM448 210v-210h-96v58q-56 -66 -139 -66q-72 0 -118 43q-47 42 -47 108q0 63 46.5 103t113 43t141.5 -27q-6 106 -101 106q-57 0 -104 -29l-40 69q63 48 148 48q196 0 196 -246zM352 183q-34 20 -84 23t-87.5 -14.5t-36.5 -51.5q0 -26 21.5 -43
t56.5 -17q46 0 85 30t45 73z" />
    <glyph glyph-name="acircumflex" unicode="&#xe2;" horiz-adv-x="512" 
d="M384 512h-72l-56 80l-56 -80h-72l128 168zM448 210v-210h-96v58q-56 -66 -139 -66q-72 0 -118 43q-47 42 -47 108q0 63 46.5 103t113 43t141.5 -27q-6 106 -101 106q-57 0 -104 -29l-40 69q63 48 148 48q196 0 196 -246zM352 183q-34 20 -84 23t-87.5 -14.5t-36.5 -51.5
q0 -26 21.5 -43t56.5 -17q46 0 85 30t45 73z" />
    <glyph glyph-name="atilde" unicode="&#xe3;" horiz-adv-x="512" 
d="M379 608l45 -40q-36 -56 -94 -56q-35 0 -68 14q-97 46 -129 -14l-45 40q36 56 94 56q39 0 68 -13q97 -48 129 13zM448 210v-210h-96v58q-56 -66 -139 -66q-72 0 -118 43q-47 42 -47 108q0 63 46.5 103t113 43t141.5 -27q-6 106 -101 106q-57 0 -104 -29l-40 69
q63 48 148 48q196 0 196 -246zM352 183q-34 20 -84 23t-87.5 -14.5t-36.5 -51.5q0 -26 21.5 -43t56.5 -17q46 0 85 30t45 73z" />
    <glyph glyph-name="adieresis" unicode="&#xe4;" horiz-adv-x="512" 
d="M168 512q-23 0 -39.5 16.5t-16.5 39.5q0 24 16.5 40t39.5 16q24 0 40 -16t16 -40q0 -23 -16 -39.5t-40 -16.5zM344 512q-23 0 -39.5 16.5t-16.5 39.5q0 24 16.5 40t39.5 16q24 0 40 -16t16 -40q0 -23 -16 -39.5t-40 -16.5zM448 210v-210h-96v58q-56 -66 -139 -66
q-72 0 -118 43q-47 42 -47 108q0 63 46.5 103t113 43t141.5 -27q-6 106 -101 106q-57 0 -104 -29l-40 69q63 48 148 48q196 0 196 -246zM352 183q-34 20 -84 23t-87.5 -14.5t-36.5 -51.5q0 -26 21.5 -43t56.5 -17q46 0 85 30t45 73z" />
    <glyph glyph-name="aring" unicode="&#xe5;" horiz-adv-x="512" 
d="M177 671q33 33 79 33t79 -33t33 -79t-33 -79t-79 -33t-79 33t-33 79t33 79zM217 553q17 -17 40 -17t39 17t16 40t-16 39t-39 16t-40 -16t-17 -39t17 -40zM448 210v-210h-96v58q-56 -66 -139 -66q-72 0 -118 43q-47 42 -47 108q0 63 46.5 103t113 43t141.5 -27
q-6 106 -101 106q-57 0 -104 -29l-40 69q63 48 148 48q196 0 196 -246zM352 183q-34 20 -84 23t-87.5 -14.5t-36.5 -51.5q0 -26 21.5 -43t56.5 -17q46 0 85 30t45 73z" />
    <glyph glyph-name="ae" unicode="&#xe6;" horiz-adv-x="816" 
d="M584 80q59 0 111 52l55 -70q-67 -70 -166 -70q-114 0 -180 92q-71 -92 -191 -92q-72 0 -118 43q-47 42 -47 108q0 63 46.5 103t113 43t141.5 -27q-6 106 -101 106q-57 0 -104 -29l-40 69q63 48 148 48q113 0 161 -81q65 81 171 81q75 0 128 -42.5t72 -115.5l-297 -172
q14 -20 41.5 -33t55.5 -13zM448 224q0 -2 2 -26l222 128q-32 42 -88 42q-54 0 -95 -44t-41 -100zM222 80q46 0 85 30t45 73q-34 20 -84 23t-87.5 -14.5t-36.5 -51.5q0 -26 21.5 -43t56.5 -17z" />
    <glyph glyph-name="ccedilla" unicode="&#xe7;" horiz-adv-x="480" 
d="M380 120l52 -72q-55 -49 -131 -55v-41q37 -5 72 -34t35 -86q0 -61 -40 -98q-41 -38 -96 -38q-41 0 -72.5 17.5t-47.5 45.5l48 45q18 -44 72 -44q35 0 57.5 20t22.5 53q0 43 -33.5 64.5t-81.5 14.5v84q-81 15 -135 80q-54 64 -54 148q0 96 68 164t164 68q87 0 152 -56
l-52 -72q-37 40 -100 40q-54 0 -95 -42q-41 -44 -41 -102t41 -101q40 -43 95 -43q63 0 100 40z" />
    <glyph glyph-name="egrave" unicode="&#xe8;" horiz-adv-x="512" 
d="M256 672l64 -160h-64l-96 160h96zM280 80q59 0 111 52l55 -70q-67 -70 -166 -70q-96 0 -164 68t-68 164t68 164t164 68q75 0 128 -42.5t72 -115.5l-297 -172q14 -20 41.5 -33t55.5 -13zM280 368q-54 0 -95 -44t-41 -100q0 -2 2 -26l222 128q-32 42 -88 42z" />
    <glyph glyph-name="eacute" unicode="&#xe9;" horiz-adv-x="512" 
d="M280 512h-64l64 160h96zM280 80q59 0 111 52l55 -70q-67 -70 -166 -70q-96 0 -164 68t-68 164t68 164t164 68q75 0 128 -42.5t72 -115.5l-297 -172q14 -20 41.5 -33t55.5 -13zM280 368q-54 0 -95 -44t-41 -100q0 -2 2 -26l222 128q-32 42 -88 42z" />
    <glyph glyph-name="ecircumflex" unicode="&#xea;" horiz-adv-x="512" 
d="M392 512h-72l-56 80l-56 -80h-72l128 168zM280 80q59 0 111 52l55 -70q-67 -70 -166 -70q-96 0 -164 68t-68 164t68 164t164 68q75 0 128 -42.5t72 -115.5l-297 -172q14 -20 41.5 -33t55.5 -13zM280 368q-54 0 -95 -44t-41 -100q0 -2 2 -26l222 128q-32 42 -88 42z" />
    <glyph glyph-name="edieresis" unicode="&#xeb;" horiz-adv-x="512" 
d="M176 512q-23 0 -39.5 16.5t-16.5 39.5q0 24 16.5 40t39.5 16q24 0 40 -16t16 -40q0 -23 -16 -39.5t-40 -16.5zM352 512q-23 0 -39.5 16.5t-16.5 39.5q0 24 16.5 40t39.5 16q24 0 40 -16t16 -40q0 -23 -16 -39.5t-40 -16.5zM280 80q59 0 111 52l55 -70q-67 -70 -166 -70
q-96 0 -164 68t-68 164t68 164t164 68q75 0 128 -42.5t72 -115.5l-297 -172q14 -20 41.5 -33t55.5 -13zM280 368q-54 0 -95 -44t-41 -100q0 -2 2 -26l222 128q-32 42 -88 42z" />
    <glyph glyph-name="igrave" unicode="&#xec;" horiz-adv-x="256" 
d="M112 672l64 -160h-64l-96 160h96zM176 0h-96v448h96v-448z" />
    <glyph glyph-name="iacute" unicode="&#xed;" horiz-adv-x="256" 
d="M144 512h-64l64 160h96zM176 0h-96v448h96v-448z" />
    <glyph glyph-name="icircumflex" unicode="&#xee;" horiz-adv-x="256" 
d="M256 512h-72l-56 80l-56 -80h-72l128 168zM176 0h-96v448h96v-448z" />
    <glyph glyph-name="idieresis" unicode="&#xef;" horiz-adv-x="256" 
d="M40 512q-23 0 -39.5 16.5t-16.5 39.5q0 24 16.5 40t39.5 16q24 0 40 -16t16 -40q0 -23 -16 -39.5t-40 -16.5zM216 512q-23 0 -39.5 16.5t-16.5 39.5q0 24 16.5 40t39.5 16q24 0 40 -16t16 -40q0 -23 -16 -39.5t-40 -16.5zM176 0h-96v448h96v-448z" />
    <glyph glyph-name="eth" unicode="&#xf0;" horiz-adv-x="560" 
d="M291 574l154 -183q67 -80 67 -167q0 -96 -68 -164t-164 -68t-164 68t-68 164q0 93 69 162q70 68 159 68l-68 83l-112 -49v64l73 33l-97 119h109l70 -83l117 52v-65zM185 123q40 -43 95 -43q56 0 96 43q40 41 40 101q0 59 -40 102q-40 42 -96 42q-54 0 -95 -42
q-41 -44 -41 -102t41 -101z" />
    <glyph glyph-name="ntilde" unicode="&#xf1;" 
d="M395 608l45 -40q-36 -56 -94 -56q-35 0 -68 14q-97 46 -129 -14l-45 40q36 56 94 56q39 0 68 -13q97 -48 129 13zM302 456q86 0 132 -57t46 -163v-236h-96v236q0 67 -23.5 99.5t-76.5 32.5q-46 0 -77 -38.5t-31 -97.5v-232h-96v448h96v-56q14 26 48 45t78 19z" />
    <glyph glyph-name="ograve" unicode="&#xf2;" horiz-adv-x="560" 
d="M264 672l64 -160h-64l-96 160h96zM116 388q68 68 164 68t164 -68t68 -164t-68 -164t-164 -68t-164 68t-68 164t68 164zM185 123q40 -43 95 -43q56 0 96 43q40 41 40 101q0 59 -40 102q-40 42 -96 42q-54 0 -95 -42q-41 -44 -41 -102t41 -101z" />
    <glyph glyph-name="oacute" unicode="&#xf3;" horiz-adv-x="560" 
d="M296 512h-64l64 160h96zM116 388q68 68 164 68t164 -68t68 -164t-68 -164t-164 -68t-164 68t-68 164t68 164zM185 123q40 -43 95 -43q56 0 96 43q40 41 40 101q0 59 -40 102q-40 42 -96 42q-54 0 -95 -42q-41 -44 -41 -102t41 -101z" />
    <glyph glyph-name="ocircumflex" unicode="&#xf4;" horiz-adv-x="560" 
d="M408 512h-72l-56 80l-56 -80h-72l128 168zM116 388q68 68 164 68t164 -68t68 -164t-68 -164t-164 -68t-164 68t-68 164t68 164zM185 123q40 -43 95 -43q56 0 96 43q40 41 40 101q0 59 -40 102q-40 42 -96 42q-54 0 -95 -42q-41 -44 -41 -102t41 -101z" />
    <glyph glyph-name="otilde" unicode="&#xf5;" horiz-adv-x="560" 
d="M403 608l45 -40q-36 -56 -94 -56q-35 0 -68 14q-97 46 -129 -14l-45 40q36 56 94 56q39 0 68 -13q97 -48 129 13zM116 388q68 68 164 68t164 -68t68 -164t-68 -164t-164 -68t-164 68t-68 164t68 164zM185 123q40 -43 95 -43q56 0 96 43q40 41 40 101q0 59 -40 102
q-40 42 -96 42q-54 0 -95 -42q-41 -44 -41 -102t41 -101z" />
    <glyph glyph-name="odieresis" unicode="&#xf6;" horiz-adv-x="560" 
d="M192 512q-23 0 -39.5 16.5t-16.5 39.5q0 24 16.5 40t39.5 16q24 0 40 -16t16 -40q0 -23 -16 -39.5t-40 -16.5zM368 512q-23 0 -39.5 16.5t-16.5 39.5q0 24 16.5 40t39.5 16q24 0 40 -16t16 -40q0 -23 -16 -39.5t-40 -16.5zM116 388q68 68 164 68t164 -68t68 -164
t-68 -164t-164 -68t-164 68t-68 164t68 164zM185 123q40 -43 95 -43q56 0 96 43q40 41 40 101q0 59 -40 102q-40 42 -96 42q-54 0 -95 -42q-41 -44 -41 -102t41 -101z" />
    <glyph glyph-name="divide" unicode="&#xf7;" horiz-adv-x="480" 
d="M240 480q-30 0 -51 21t-21 51q0 31 21 51.5t51 20.5q31 0 51.5 -20.5t20.5 -51.5q0 -30 -20.5 -51t-51.5 -21zM64 304v80h352v-80h-352zM240 64q-30 0 -51 21t-21 51q0 31 21 51.5t51 20.5q31 0 51.5 -20.5t20.5 -51.5q0 -30 -20.5 -51t-51.5 -21z" />
    <glyph glyph-name="oslash" unicode="&#xf8;" horiz-adv-x="560" 
d="M116 388q68 68 164 68t164 -68t68 -164t-68 -164t-164 -68t-164 68t-68 164t68 164zM280 368q-54 0 -95 -42q-41 -44 -41 -102q0 -40 21 -76l176 204q-28 16 -61 16zM280 80q56 0 96 43q40 41 40 101q0 43 -22 78l-176 -205q29 -17 62 -17z" />
    <glyph glyph-name="ugrave" unicode="&#xf9;" 
d="M254 672l64 -160h-64l-96 160h96zM242 -8q-86 0 -132 57t-46 163v236h96v-244q0 -124 100 -124q46 0 77 40t31 104v224h96v-448h-96v56q-14 -26 -48 -45t-78 -19z" />
    <glyph glyph-name="uacute" unicode="&#xfa;" 
d="M286 512h-64l64 160h96zM242 -8q-86 0 -132 57t-46 163v236h96v-244q0 -124 100 -124q46 0 77 40t31 104v224h96v-448h-96v56q-14 -26 -48 -45t-78 -19z" />
    <glyph glyph-name="ucircumflex" unicode="&#xfb;" 
d="M392 512h-72l-56 80l-56 -80h-72l128 168zM242 -8q-86 0 -132 57t-46 163v236h96v-244q0 -124 100 -124q46 0 77 40t31 104v224h96v-448h-96v56q-14 -26 -48 -45t-78 -19z" />
    <glyph glyph-name="udieresis" unicode="&#xfc;" 
d="M176 512q-23 0 -39.5 16.5t-16.5 39.5q0 24 16.5 40t39.5 16q24 0 40 -16t16 -40q0 -23 -16 -39.5t-40 -16.5zM352 512q-23 0 -39.5 16.5t-16.5 39.5q0 24 16.5 40t39.5 16q24 0 40 -16t16 -40q0 -23 -16 -39.5t-40 -16.5zM242 -8q-86 0 -132 57t-46 163v236h96v-244
q0 -124 100 -124q46 0 77 40t31 104v224h96v-448h-96v56q-14 -26 -48 -45t-78 -19z" />
    <glyph glyph-name="yacute" unicode="&#xfd;" horiz-adv-x="480" 
d="M254 512h-64l64 160h96zM241 145l119 303h104l-279 -688h-102l109 266l-176 422h104z" />
    <glyph glyph-name="thorn" unicode="&#xfe;" horiz-adv-x="592" 
d="M176 56v-296h-96v944h96v-312q55 64 144 64q93 0 159 -68q65 -68 65 -164t-65 -164q-66 -68 -159 -68q-89 0 -144 64zM409 326q-41 42 -97 42q-57 0 -96 -42q-40 -41 -40 -102t40 -102q39 -42 96 -42q56 0 97 42q39 42 39 102t-39 102z" />
    <glyph glyph-name="ydieresis" unicode="&#xff;" horiz-adv-x="480" 
d="M152 512q-23 0 -39.5 16.5t-16.5 39.5q0 24 16.5 40t39.5 16q24 0 40 -16t16 -40q0 -23 -16 -39.5t-40 -16.5zM328 512q-23 0 -39.5 16.5t-16.5 39.5q0 24 16.5 40t39.5 16q24 0 40 -16t16 -40q0 -23 -16 -39.5t-40 -16.5zM241 145l119 303h104l-279 -688h-102l109 266
l-176 422h104z" />
    <glyph glyph-name="Amacron" unicode="&#x100;" horiz-adv-x="672" 
d="M224 848h224v-64h-224v64zM656 0h-104l-44 100h-344l-44 -100h-104l320 720zM336 496l-134 -308h268z" />
    <glyph glyph-name="amacron" unicode="&#x101;" horiz-adv-x="512" 
d="M368 592v-64h-224v64h224zM448 210v-210h-96v58q-56 -66 -139 -66q-72 0 -118 43q-47 42 -47 108q0 63 46.5 103t113 43t141.5 -27q-6 106 -101 106q-57 0 -104 -29l-40 69q63 48 148 48q196 0 196 -246zM352 183q-34 20 -84 23t-87.5 -14.5t-36.5 -51.5q0 -26 21.5 -43
t56.5 -17q46 0 85 30t45 73z" />
    <glyph glyph-name="Abreve" unicode="&#x102;" horiz-adv-x="672" 
d="M427 806q-38 -38 -91 -38q-52 0 -90 38t-38 90h56q0 -30 21 -51t51 -21t51 21t21 51h56q0 -53 -37 -90zM656 0h-104l-44 100h-344l-44 -100h-104l320 720zM336 496l-134 -308h268z" />
    <glyph glyph-name="abreve" unicode="&#x103;" horiz-adv-x="512" 
d="M328 640h56q0 -53 -37 -90q-38 -38 -91 -38q-52 0 -90 38t-38 90h56q0 -30 21 -51t51 -21t51 21t21 51zM448 210v-210h-96v58q-56 -66 -139 -66q-72 0 -118 43q-47 42 -47 108q0 63 46.5 103t113 43t141.5 -27q-6 106 -101 106q-57 0 -104 -29l-40 69q63 48 148 48
q196 0 196 -246zM352 183q-34 20 -84 23t-87.5 -14.5t-36.5 -51.5q0 -26 21.5 -43t56.5 -17q46 0 85 30t45 73z" />
    <glyph glyph-name="Aogonek" unicode="&#x104;" horiz-adv-x="672" 
d="M696 -126l24 -50q-12 -13 -37 -22.5t-45 -9.5q-53 0 -85.5 35t-32.5 89q0 52 32 84l-44 100h-344l-44 -100h-104l320 720l320 -720q-32 0 -56 -23.5t-24 -60.5q-2 -51 44.5 -65.5t75.5 23.5zM336 496l-134 -308h268z" />
    <glyph glyph-name="aogonek" unicode="&#x105;" horiz-adv-x="512" 
d="M488 -126l24 -50q-12 -13 -37 -22.5t-45 -9.5q-53 0 -85.5 35t-32.5 89q0 55 40 92v50q-56 -66 -139 -66q-72 0 -118 43q-47 42 -47 108q0 63 46.5 103t113 43t141.5 -27q-6 106 -101 106q-57 0 -104 -29l-40 69q63 48 148 48q196 0 196 -246v-210q-32 0 -56 -23.5
t-24 -60.5q-2 -51 44.5 -65.5t75.5 23.5zM222 80q46 0 85 30t45 73q-34 20 -84 23t-87.5 -14.5t-36.5 -51.5q0 -26 21.5 -43t56.5 -17z" />
    <glyph glyph-name="Cacute" unicode="&#x106;" horiz-adv-x="656" 
d="M416 768h-64l64 160h96zM154 98q-106 105 -106 254t106 255q105 105 254 105q58 0 116.5 -19.5t99.5 -52.5l-52 -72q-67 56 -163 56q-110 0 -187 -80q-78 -80 -78 -192t78 -192q77 -80 187 -80q96 0 163 56l52 -72q-41 -33 -99.5 -52.5t-116.5 -19.5q-149 0 -254 106z
" />
    <glyph glyph-name="cacute" unicode="&#x107;" horiz-adv-x="480" 
d="M288 512h-64l64 160h96zM280 80q63 0 100 40l52 -72q-65 -56 -152 -56q-96 0 -164 68t-68 164t68 164t164 68q87 0 152 -56l-52 -72q-37 40 -100 40q-54 0 -95 -42q-41 -44 -41 -102t41 -101q40 -43 95 -43z" />
    <glyph glyph-name="Cdotaccent" unicode="&#x10a;" horiz-adv-x="656" 
d="M443 773q-21 -21 -51 -21t-51 21t-21 51t21 51t51 21t51 -21t21 -51t-21 -51zM154 98q-106 105 -106 254t106 255q105 105 254 105q58 0 116.5 -19.5t99.5 -52.5l-52 -72q-67 56 -163 56q-110 0 -187 -80q-78 -80 -78 -192t78 -192q77 -80 187 -80q96 0 163 56l52 -72
q-41 -33 -99.5 -52.5t-116.5 -19.5q-149 0 -254 106z" />
    <glyph glyph-name="cdotaccent" unicode="&#x10b;" horiz-adv-x="480" 
d="M323 517q-21 -21 -51 -21t-51 21t-21 51t21 51t51 21t51 -21t21 -51t-21 -51zM280 80q63 0 100 40l52 -72q-65 -56 -152 -56q-96 0 -164 68t-68 164t68 164t164 68q87 0 152 -56l-52 -72q-37 40 -100 40q-54 0 -95 -42q-41 -44 -41 -102t41 -101q40 -43 95 -43z" />
    <glyph glyph-name="Ccaron" unicode="&#x10c;" horiz-adv-x="656" 
d="M392 848l56 80h72l-128 -168l-128 168h72zM154 98q-106 105 -106 254t106 255q105 105 254 105q58 0 116.5 -19.5t99.5 -52.5l-52 -72q-67 56 -163 56q-110 0 -187 -80q-78 -80 -78 -192t78 -192q77 -80 187 -80q96 0 163 56l52 -72q-41 -33 -99.5 -52.5t-116.5 -19.5
q-149 0 -254 106z" />
    <glyph glyph-name="ccaron" unicode="&#x10d;" horiz-adv-x="480" 
d="M272 592l56 80h72l-128 -168l-128 168h72zM280 80q63 0 100 40l52 -72q-65 -56 -152 -56q-96 0 -164 68t-68 164t68 164t164 68q87 0 152 -56l-52 -72q-37 40 -100 40q-54 0 -95 -42q-41 -44 -41 -102t41 -101q40 -43 95 -43z" />
    <glyph glyph-name="Dcaron" unicode="&#x10e;" horiz-adv-x="624" 
d="M288 848l56 80h72l-128 -168l-128 168h72zM80 704h137q169 0 264 -99q95 -101 95 -253t-96 -252t-263 -100h-137v704zM176 88h56q106 0 177 77t71 187t-71 187t-177 77h-56v-528z" />
    <glyph glyph-name="dcaron" unicode="&#x10f;" horiz-adv-x="704" 
d="M416 392v344h96v-736h-96v56q-55 -64 -144 -64q-93 0 -158 68q-66 68 -66 164t66 164q65 68 158 68q89 0 144 -64zM640 560h-64v144h96zM184 122q39 -42 96 -42q56 0 97 42q39 42 39 102t-39 102q-41 42 -97 42q-57 0 -96 -42q-40 -41 -40 -102t40 -102z" />
    <glyph glyph-name="Dcroat" unicode="&#x110;" horiz-adv-x="624" 
d="M80 704h137q169 0 264 -99q95 -101 95 -253t-96 -252t-263 -100h-137v320h-48v64h48v320zM176 88h56q106 0 177 77t71 187t-71 187t-177 77h-56v-232h96v-64h-96v-232z" />
    <glyph glyph-name="dslash" unicode="&#x111;" horiz-adv-x="592" 
d="M512 608h48v-48h-48v-560h-96v56q-55 -64 -144 -64q-93 0 -158 68q-66 68 -66 164t66 164q65 68 158 68q89 0 144 -64v168h-96v48h96v128h96v-128zM184 122q39 -42 96 -42q56 0 97 42q39 42 39 102t-39 102q-41 42 -97 42q-57 0 -96 -42q-40 -41 -40 -102t40 -102z" />
    <glyph glyph-name="Emacron" unicode="&#x112;" horiz-adv-x="480" 
d="M352 848v-64h-224v64h224zM416 704v-88h-240v-252h176v-88h-176v-188h240v-88h-336v704h336z" />
    <glyph glyph-name="emacron" unicode="&#x113;" horiz-adv-x="512" 
d="M376 592v-64h-224v64h224zM280 80q59 0 111 52l55 -70q-67 -70 -166 -70q-96 0 -164 68t-68 164t68 164t164 68q75 0 128 -42.5t72 -115.5l-297 -172q14 -20 41.5 -33t55.5 -13zM280 368q-54 0 -95 -44t-41 -100q0 -2 2 -26l222 128q-32 42 -88 42z" />
    <glyph glyph-name="Edotaccent" unicode="&#x116;" horiz-adv-x="480" 
d="M291 773q-21 -21 -51 -21t-51 21t-21 51t21 51t51 21t51 -21t21 -51t-21 -51zM416 704v-88h-240v-252h176v-88h-176v-188h240v-88h-336v704h336z" />
    <glyph glyph-name="edotaccent" unicode="&#x117;" horiz-adv-x="512" 
d="M315 517q-21 -21 -51 -21t-51 21t-21 51t21 51t51 21t51 -21t21 -51t-21 -51zM280 80q59 0 111 52l55 -70q-67 -70 -166 -70q-96 0 -164 68t-68 164t68 164t164 68q75 0 128 -42.5t72 -115.5l-297 -172q14 -20 41.5 -33t55.5 -13zM280 368q-54 0 -95 -44t-41 -100
q0 -2 2 -26l222 128q-32 42 -88 42z" />
    <glyph glyph-name="Eogonek" unicode="&#x118;" horiz-adv-x="480" 
d="M456 -126l24 -50q-12 -13 -37 -22.5t-45 -9.5q-53 0 -85.5 35t-32.5 89q0 52 32 84h-232v704h336v-88h-240v-252h176v-88h-176v-188h240v-88q-32 0 -56 -23.5t-24 -60.5q-2 -51 44.5 -65.5t75.5 23.5z" />
    <glyph glyph-name="eogonek" unicode="&#x119;" horiz-adv-x="512" 
d="M280 80q59 0 111 52l55 -70q-54 -57 -135 -68q-21 -7 -34 -28t-13 -50q-2 -51 44.5 -65.5t75.5 23.5l24 -50q-12 -13 -37 -22.5t-45 -9.5q-53 0 -85.5 35t-32.5 89q0 45 29 80q-81 15 -135 80q-54 64 -54 148q0 96 68 164t164 68q75 0 128 -42.5t72 -115.5l-297 -172
q14 -20 41.5 -33t55.5 -13zM144 224q0 -2 2 -26l222 128q-32 42 -88 42q-54 0 -95 -44t-41 -100z" />
    <glyph glyph-name="Ecaron" unicode="&#x11a;" horiz-adv-x="480" 
d="M240 848l56 80h72l-128 -168l-128 168h72zM416 704v-88h-240v-252h176v-88h-176v-188h240v-88h-336v704h336z" />
    <glyph glyph-name="ecaron" unicode="&#x11b;" horiz-adv-x="512" 
d="M264 592l56 80h72l-128 -168l-128 168h72zM280 80q59 0 111 52l55 -70q-67 -70 -166 -70q-96 0 -164 68t-68 164t68 164t164 68q75 0 128 -42.5t72 -115.5l-297 -172q14 -20 41.5 -33t55.5 -13zM280 368q-54 0 -95 -44t-41 -100q0 -2 2 -26l222 128q-32 42 -88 42z" />
    <glyph glyph-name="Gbreve" unicode="&#x11e;" horiz-adv-x="800" 
d="M472 896h56q0 -53 -37 -90q-38 -38 -91 -38q-52 0 -90 38t-38 90h56q0 -30 21 -51t51 -21t51 21t21 51zM154 98q-106 105 -106 254t106 255q105 105 254 105q118 0 208 -72l-53 -72q-67 56 -155 56q-111 0 -187 -79q-77 -80 -77 -193q0 -112 78 -192q77 -80 186 -80
q90 0 153.5 52.5t85.5 143.5h-263v88h368v-13q0 -151 -98 -255t-246 -104q-149 0 -254 106z" />
    <glyph glyph-name="gbreve" unicode="&#x11f;" horiz-adv-x="592" 
d="M376 640h56q0 -53 -37 -90q-38 -38 -91 -38q-52 0 -90 38t-38 90h56q0 -30 21 -51t51 -21t51 21t21 51zM416 392v56h96v-422q0 -140 -69 -208q-69 -66 -179 -66q-45 0 -96 17q-48 16 -72 40l43 78q53 -47 125 -47q73 0 112.5 45t39.5 127v44q-55 -64 -144 -64
q-93 0 -158 68q-66 68 -66 164t66 164q65 68 158 68q89 0 144 -64zM184 122q39 -42 96 -42q56 0 97 42q39 42 39 102t-39 102q-41 42 -97 42q-57 0 -96 -42q-40 -41 -40 -102t40 -102z" />
    <glyph glyph-name="Gdotaccent" unicode="&#x120;" horiz-adv-x="800" 
d="M451 773q-21 -21 -51 -21t-51 21t-21 51t21 51t51 21t51 -21t21 -51t-21 -51zM154 98q-106 105 -106 254t106 255q105 105 254 105q118 0 208 -72l-53 -72q-67 56 -155 56q-111 0 -187 -79q-77 -80 -77 -193q0 -112 78 -192q77 -80 186 -80q90 0 153.5 52.5t85.5 143.5
h-263v88h368v-13q0 -151 -98 -255t-246 -104q-149 0 -254 106z" />
    <glyph glyph-name="gdotaccent" unicode="&#x121;" horiz-adv-x="592" 
d="M347 517q-21 -21 -51 -21t-51 21t-21 51t21 51t51 21t51 -21t21 -51t-21 -51zM416 392v56h96v-422q0 -140 -69 -208q-69 -66 -179 -66q-45 0 -96 17q-48 16 -72 40l43 78q53 -47 125 -47q73 0 112.5 45t39.5 127v44q-55 -64 -144 -64q-93 0 -158 68q-66 68 -66 164
t66 164q65 68 158 68q89 0 144 -64zM184 122q39 -42 96 -42q56 0 97 42q39 42 39 102t-39 102q-41 42 -97 42q-57 0 -96 -42q-40 -41 -40 -102t40 -102z" />
    <glyph glyph-name="Gcommaaccent" unicode="&#x122;" horiz-adv-x="800" 
d="M154 98q-106 105 -106 254t106 255q105 105 254 105q118 0 208 -72l-53 -72q-67 56 -155 56q-111 0 -187 -79q-77 -80 -77 -193q0 -112 78 -192q77 -80 186 -80q90 0 153.5 52.5t85.5 143.5h-263v88h368v-13q0 -151 -98 -255t-246 -104q-149 0 -254 106zM416 -208h-64
v144h96z" />
    <glyph glyph-name="gcommaaccent" unicode="&#x123;" horiz-adv-x="592" 
d="M296 656h64v-144h-96zM416 392v56h96v-422q0 -140 -69 -208q-69 -66 -179 -66q-45 0 -96 17q-48 16 -72 40l43 78q53 -47 125 -47q73 0 112.5 45t39.5 127v44q-55 -64 -144 -64q-93 0 -158 68q-66 68 -66 164t66 164q65 68 158 68q89 0 144 -64zM184 122q39 -42 96 -42
q56 0 97 42q39 42 39 102t-39 102q-41 42 -97 42q-57 0 -96 -42q-40 -41 -40 -102t40 -102z" />
    <glyph glyph-name="Hbar" unicode="&#x126;" horiz-adv-x="576" 
d="M496 704v-704h-96v276h-224v-276h-96v704h96v-144h224v144h96zM176 364h224v148h-224v-148z" />
    <glyph glyph-name="hbar" unicode="&#x127;" 
d="M302 456q86 0 132 -57t46 -163v-236h-96v236q0 67 -23.5 99.5t-76.5 32.5q-46 0 -77 -38.5t-31 -97.5v-232h-96v560h-48v48h48v128h96v-128h96v-48h-96v-168q14 26 48 45t78 19z" />
    <glyph glyph-name="Imacron" unicode="&#x12a;" horiz-adv-x="256" 
d="M240 848v-64h-224v64h224zM176 704v-704h-96v704h96z" />
    <glyph glyph-name="imacron" unicode="&#x12b;" horiz-adv-x="256" 
d="M240 592v-64h-224v64h224zM176 0h-96v448h96v-448z" />
    <glyph glyph-name="Iogonek" unicode="&#x12e;" horiz-adv-x="256" 
d="M216 -126l24 -50q-12 -13 -37 -22.5t-45 -9.5q-53 0 -85.5 35t-32.5 89q0 55 40 92v696h96v-704q-32 0 -56 -23.5t-24 -60.5q-2 -51 44.5 -65.5t75.5 23.5z" />
    <glyph glyph-name="iogonek" unicode="&#x12f;" horiz-adv-x="256" 
d="M179 549q-21 -21 -51 -21t-51 21t-21 51t21 51t51 21t51 -21t21 -51t-21 -51zM192 -142l16 -50q-22 -16 -54 -16q-51 0 -82.5 34.5t-31.5 89.5t40 92v440h96v-448q-28 0 -54 -26t-26 -58q0 -45 31 -61t65 3z" />
    <glyph glyph-name="Idot" unicode="&#x130;" horiz-adv-x="256" 
d="M179 773q-21 -21 -51 -21t-51 21t-21 51t21 51t51 21t51 -21t21 -51t-21 -51zM176 704v-704h-96v704h96z" />
    <glyph glyph-name="dotlessi" unicode="&#x131;" horiz-adv-x="256" 
d="M176 0h-96v448h96v-448z" />
    <glyph glyph-name="IJ" unicode="&#x132;" horiz-adv-x="672" 
d="M176 704v-704h-96v704h96zM512 200v504h96v-496q0 -105 -48 -160.5t-128 -55.5q-46 0 -84 17t-60 45l60 64q36 -38 84 -38q37 0 58.5 30t21.5 90z" />
    <glyph glyph-name="ij" unicode="&#x133;" horiz-adv-x="496" 
d="M179 549q-21 -21 -51 -21t-51 21t-21 51t21 51t51 21t51 -21t21 -51t-21 -51zM419 549q-21 -21 -51 -21t-51 21t-21 51t21 51t51 21t51 -21t21 -51t-21 -51zM176 0h-96v448h96v-448zM416 -240h-96v688h96v-688z" />
    <glyph glyph-name="Kcommaaccent" unicode="&#x136;" 
d="M289 389l223 -389h-120l-163 297l-53 -81v-216h-96v704h96v-332l208 332h112zM280 -208h-64v144h96z" />
    <glyph glyph-name="kcommaaccent" unicode="&#x137;" horiz-adv-x="496" 
d="M273 251l207 -251h-120l-149 187l-35 -36v-151h-96v736h96v-468l168 180h120zM272 -208h-64v144h96z" />
    <glyph glyph-name="Lacute" unicode="&#x139;" horiz-adv-x="448" 
d="M144 768h-64l64 160h96zM176 704v-616h224v-88h-320v704h96z" />
    <glyph glyph-name="lacute" unicode="&#x13a;" horiz-adv-x="256" 
d="M144 800h-64l64 160h96zM80 0v736h96v-736h-96z" />
    <glyph glyph-name="Lcommaaccent" unicode="&#x13b;" horiz-adv-x="448" 
d="M176 704v-616h224v-88h-320v704h96zM256 -208h-64v144h96z" />
    <glyph glyph-name="lcommaaccent" unicode="&#x13c;" horiz-adv-x="256" 
d="M80 0v736h96v-736h-96zM144 -208h-64v144h96z" />
    <glyph glyph-name="Lcaron" unicode="&#x13d;" horiz-adv-x="448" 
d="M176 704v-616h224v-88h-320v704h96zM368 560h-64v144h96z" />
    <glyph glyph-name="lcaron" unicode="&#x13e;" horiz-adv-x="352" 
d="M80 0v736h96v-736h-96zM288 560h-64v144h96z" />
    <glyph glyph-name="Ldot" unicode="&#x13f;" horiz-adv-x="448" 
d="M176 704v-616h224v-88h-320v704h96zM344 304q-30 0 -51 21t-21 51q0 31 21 51.5t51 20.5q31 0 51.5 -20.5t20.5 -51.5q0 -30 -20.5 -51t-51.5 -21z" />
    <glyph glyph-name="ldot" unicode="&#x140;" horiz-adv-x="400" 
d="M80 0v736h96v-736h-96zM348 325q-23 -21 -51.5 -21t-51.5 21t-21 51q0 31 20.5 51.5t51.5 20.5t51.5 -20.5t20.5 -51.5q0 -29 -20 -51z" />
    <glyph glyph-name="Lslash" unicode="&#x141;" horiz-adv-x="448" 
d="M176 340v-252h224v-88h-320v316l-48 -12v48l48 12v340h96v-316l48 12v-48z" />
    <glyph glyph-name="lslash" unicode="&#x142;" horiz-adv-x="256" 
d="M176 356v-356h-96v332l-48 -12v48l48 12v356h96v-332l48 12v-48z" />
    <glyph glyph-name="Nacute" unicode="&#x143;" horiz-adv-x="656" 
d="M336 768h-64l64 160h96zM576 704v-720l-400 476v-460h-96v720l400 -476v460h96z" />
    <glyph glyph-name="nacute" unicode="&#x144;" 
d="M288 512h-64l64 160h96zM302 456q86 0 132 -57t46 -163v-236h-96v236q0 67 -23.5 99.5t-76.5 32.5q-46 0 -77 -38.5t-31 -97.5v-232h-96v448h96v-56q14 26 48 45t78 19z" />
    <glyph glyph-name="Ncommaaccent" unicode="&#x145;" horiz-adv-x="656" 
d="M576 704v-720l-400 476v-460h-96v720l400 -476v460h96zM344 -208h-64v144h96z" />
    <glyph glyph-name="ncommaaccent" unicode="&#x146;" 
d="M302 456q86 0 132 -57t46 -163v-236h-96v236q0 67 -23.5 99.5t-76.5 32.5q-46 0 -77 -38.5t-31 -97.5v-232h-96v448h96v-56q14 26 48 45t78 19zM288 -208h-64v144h96z" />
    <glyph glyph-name="Ncaron" unicode="&#x147;" horiz-adv-x="656" 
d="M328 848l56 80h72l-128 -168l-128 168h72zM576 704v-720l-400 476v-460h-96v720l400 -476v460h96z" />
    <glyph glyph-name="ncaron" unicode="&#x148;" 
d="M264 592l56 80h72l-128 -168l-128 168h72zM302 456q86 0 132 -57t46 -163v-236h-96v236q0 67 -23.5 99.5t-76.5 32.5q-46 0 -77 -38.5t-31 -97.5v-232h-96v448h96v-56q14 26 48 45t78 19z" />
    <glyph glyph-name="Eng" unicode="&#x14a;" horiz-adv-x="656" 
d="M480 244v460h96v-706q0 -83 -24 -142q-18 -44 -57 -72q-26 -19 -66 -27q-5 -1 -29 -5l-24 88q51 10 77.5 43.5t26.5 100.5v114l-304 362v-460h-96v720z" />
    <glyph glyph-name="eng" unicode="&#x14b;" 
d="M302 456q86 0 132 -57t46 -163v-238q0 -83 -24 -142q-18 -44 -57 -72q-26 -19 -66 -27q-5 -1 -29 -5l-24 88q51 10 77.5 43.5t26.5 100.5v252q0 67 -23.5 99.5t-76.5 32.5q-46 0 -77 -38.5t-31 -97.5v-232h-96v448h96v-56q14 26 48 45t78 19z" />
    <glyph glyph-name="Omacron" unicode="&#x14c;" horiz-adv-x="816" 
d="M520 848v-64h-224v64h224zM154 607q105 105 254 105q148 0 255 -105q105 -107 105 -255q0 -149 -105 -254q-106 -106 -255 -106t-254 106q-106 105 -106 254t106 255zM221 160q77 -80 187 -80t187 80t77 192q0 113 -77 193q-76 79 -187 79t-187 -79q-77 -80 -77 -193
q0 -112 77 -192z" />
    <glyph glyph-name="omacron" unicode="&#x14d;" horiz-adv-x="560" 
d="M392 592v-64h-224v64h224zM116 388q68 68 164 68t164 -68t68 -164t-68 -164t-164 -68t-164 68t-68 164t68 164zM185 123q40 -43 95 -43q56 0 96 43q40 41 40 101q0 59 -40 102q-40 42 -96 42q-54 0 -95 -42q-41 -44 -41 -102t41 -101z" />
    <glyph glyph-name="Ohungarumlaut" unicode="&#x150;" horiz-adv-x="816" 
d="M328 768h-64v128h88zM552 768h-64v128h88zM154 607q105 105 254 105q148 0 255 -105q105 -107 105 -255q0 -149 -105 -254q-106 -106 -255 -106t-254 106q-106 105 -106 254t106 255zM221 160q77 -80 187 -80t187 80t77 192q0 113 -77 193q-76 79 -187 79t-187 -79
q-77 -80 -77 -193q0 -112 77 -192z" />
    <glyph glyph-name="ohungarumlaut" unicode="&#x151;" horiz-adv-x="560" 
d="M200 512h-64v128h88zM424 512h-64v128h88zM116 388q68 68 164 68t164 -68t68 -164t-68 -164t-164 -68t-164 68t-68 164t68 164zM185 123q40 -43 95 -43q56 0 96 43q40 41 40 101q0 59 -40 102q-40 42 -96 42q-54 0 -95 -42q-41 -44 -41 -102t41 -101z" />
    <glyph glyph-name="OE" unicode="&#x152;" horiz-adv-x="1072" 
d="M1008 704v-88h-240v-252h176v-88h-176v-188h240v-88h-336v107q-106 -115 -264 -115q-149 0 -254 106q-106 105 -106 254t106 255q105 105 254 105q158 0 264 -115v107h336zM221 160q77 -80 187 -80t187 80t77 192q0 113 -77 193q-76 79 -187 79t-187 -79
q-77 -80 -77 -193q0 -112 77 -192z" />
    <glyph glyph-name="oe" unicode="&#x153;" horiz-adv-x="880" 
d="M648 80q59 0 111 52l55 -70q-67 -70 -166 -70q-54 0 -102.5 24.5t-81.5 66.5q-33 -42 -81.5 -66.5t-102.5 -24.5q-96 0 -164 68t-68 164t68 164t164 68q54 0 102.5 -24.5t81.5 -66.5q33 42 81.5 66.5t102.5 24.5q75 0 128 -42.5t72 -115.5l-297 -172q14 -20 41.5 -33
t55.5 -13zM185 123q40 -43 95 -43q56 0 96 43q40 41 40 101q0 59 -40 102q-40 42 -96 42q-54 0 -95 -42q-41 -44 -41 -102t41 -101zM512 224q0 -2 2 -26l222 128q-32 42 -88 42q-54 0 -95 -44t-41 -100z" />
    <glyph glyph-name="Racute" unicode="&#x154;" horiz-adv-x="528" 
d="M264 928h96l-96 -160h-64zM338 265l142 -265h-112l-123 241q-5 -1 -23 -1h-46v-240h-96v704h128q124 0 191 -65q65 -67 65 -167q0 -67 -33.5 -122.5t-92.5 -84.5zM176 616v-288h49q57 0 100 40q43 39 43 104q0 70 -45 108q-45 36 -104 36h-43z" />
    <glyph glyph-name="racute" unicode="&#x155;" horiz-adv-x="384" 
d="M192 512h-64l64 160h96zM176 448v-71q45 79 160 79v-102q-44 9 -80 -4q-80 -29 -80 -149v-201h-96v448h96z" />
    <glyph glyph-name="Rcommaaccent" unicode="&#x156;" horiz-adv-x="528" 
d="M338 265l142 -265h-112l-123 241q-5 -1 -23 -1h-46v-240h-96v704h128q124 0 191 -65q65 -67 65 -167q0 -67 -33.5 -122.5t-92.5 -84.5zM176 616v-288h49q57 0 100 40q43 39 43 104q0 70 -45 108q-45 36 -104 36h-43zM280 -208h-64v144h96z" />
    <glyph glyph-name="rcommaaccent" unicode="&#x157;" horiz-adv-x="384" 
d="M176 448v-71q45 79 160 79v-102q-44 9 -80 -4q-80 -29 -80 -149v-201h-96v448h96zM176 -208h-64v144h96z" />
    <glyph glyph-name="Rcaron" unicode="&#x158;" horiz-adv-x="528" 
d="M304 928h72l-128 -168l-128 168h72l56 -80zM338 265l142 -265h-112l-123 241q-5 -1 -23 -1h-46v-240h-96v704h128q124 0 191 -65q65 -67 65 -167q0 -67 -33.5 -122.5t-92.5 -84.5zM176 616v-288h49q57 0 100 40q43 39 43 104q0 70 -45 108q-45 36 -104 36h-43z" />
    <glyph glyph-name="rcaron" unicode="&#x159;" horiz-adv-x="384" 
d="M200 592l56 80h72l-128 -168l-128 168h72zM176 448v-71q45 79 160 79v-102q-44 9 -80 -4q-80 -29 -80 -149v-201h-96v448h96z" />
    <glyph glyph-name="Sacute" unicode="&#x15a;" 
d="M288 768h-64l64 160h96zM289 444q100 -42 155 -94q52 -51 52 -139q0 -85 -60 -152q-61 -67 -160 -67q-97 0 -157 55q-47 40 -71 81l56 73q75 -121 174 -121q53 0 88 38q34 37 34 89q0 47 -29.5 77.5t-91.5 59.5q-106 47 -144 92q-39 46 -39 116q0 64 55 112q54 48 132 48
q56 0 92 -16.5t73 -55.5l-56 -71q-49 55 -111 55q-35 0 -62 -22t-27 -52q0 -66 97 -106z" />
    <glyph glyph-name="sacute" unicode="&#x15b;" horiz-adv-x="432" 
d="M224 512h-64l64 160h96zM241 280q143 -33 143 -146q0 -63 -47 -102q-47 -40 -112 -40q-101 0 -177 76l48 70q58 -56 123 -58q31 -1 50 14t19 35q0 38 -62 55q-87 24 -120.5 55t-33.5 88q0 54 41.5 91.5t110.5 37.5q71 0 129 -46l-45 -70q-37 28 -84 28q-26 0 -41 -11
t-15 -27q0 -19 15.5 -29.5t57.5 -20.5z" />
    <glyph glyph-name="Scedilla" unicode="&#x15e;" 
d="M496 211q0 -79 -53 -144t-142 -74v-41q37 -5 72 -34t35 -86q0 -61 -40 -98q-41 -38 -96 -38q-41 0 -72.5 17.5t-47.5 45.5l48 45q18 -44 72 -44q35 0 57.5 20t22.5 53q0 43 -33.5 64.5t-81.5 14.5v83q-78 12 -129 61q-41 38 -60 72l56 73q75 -121 174 -121q53 0 88 38
q34 37 34 89q0 47 -29.5 77.5t-91.5 59.5q-106 47 -144 92q-39 46 -39 116q0 64 55 112q54 48 132 48q56 0 92 -16.5t73 -55.5l-56 -71q-49 55 -111 55q-35 0 -62 -22t-27 -52q0 -66 97 -106q100 -42 155 -94q52 -51 52 -139z" />
    <glyph glyph-name="scedilla" unicode="&#x15f;" horiz-adv-x="432" 
d="M245 -7v-41q37 -5 72 -34t35 -86q0 -61 -40 -98q-41 -38 -96 -38q-41 0 -72.5 17.5t-47.5 45.5l48 45q18 -44 72 -44q35 0 57.5 20t22.5 53q0 43 -33.5 64.5t-81.5 14.5v84q-75 14 -133 72l48 70q58 -56 123 -58q31 -1 50 14t19 35q0 38 -62 55q-87 24 -120.5 55
t-33.5 88q0 54 41.5 91.5t110.5 37.5q71 0 129 -46l-45 -70q-37 28 -84 28q-26 0 -41 -11t-15 -27q0 -19 15.5 -29.5t57.5 -20.5q143 -33 143 -146q0 -57 -40 -96t-99 -45z" />
    <glyph glyph-name="Scaron" unicode="&#x160;" 
d="M272 848l56 80h72l-128 -168l-128 168h72zM289 444q100 -42 155 -94q52 -51 52 -139q0 -85 -60 -152q-61 -67 -160 -67q-97 0 -157 55q-47 40 -71 81l56 73q75 -121 174 -121q53 0 88 38q34 37 34 89q0 47 -29.5 77.5t-91.5 59.5q-106 47 -144 92q-39 46 -39 116
q0 64 55 112q54 48 132 48q56 0 92 -16.5t73 -55.5l-56 -71q-49 55 -111 55q-35 0 -62 -22t-27 -52q0 -66 97 -106z" />
    <glyph glyph-name="scaron" unicode="&#x161;" horiz-adv-x="432" 
d="M216 592l56 80h72l-128 -168l-128 168h72zM241 280q143 -33 143 -146q0 -63 -47 -102q-47 -40 -112 -40q-101 0 -177 76l48 70q58 -56 123 -58q31 -1 50 14t19 35q0 38 -62 55q-87 24 -120.5 55t-33.5 88q0 54 41.5 91.5t110.5 37.5q71 0 129 -46l-45 -70q-37 28 -84 28
q-26 0 -41 -11t-15 -27q0 -19 15.5 -29.5t57.5 -20.5z" />
    <glyph glyph-name="uni0162" unicode="&#x162;" horiz-adv-x="480" 
d="M288 616v-616h-15v-48q37 -5 72 -34t35 -86q0 -61 -40 -98q-41 -38 -96 -38q-41 0 -72.5 17.5t-47.5 45.5l48 45q18 -44 72 -44q35 0 57.5 20t22.5 53q0 43 -33.5 64.5t-81.5 14.5v88h-17v616h-144v88h384v-88h-144z" />
    <glyph glyph-name="uni0163" unicode="&#x163;" horiz-adv-x="400" 
d="M224 360v-360h-15v-48q37 -5 72 -34t35 -86q0 -61 -40 -98q-41 -38 -96 -38q-41 0 -72.5 17.5t-47.5 45.5l48 45q18 -44 72 -44q35 0 57.5 20t22.5 53q0 43 -33.5 64.5t-81.5 14.5v88h-17v360h-80v88h80v176l96 32v-208h128v-88h-128z" />
    <glyph glyph-name="Tcaron" unicode="&#x164;" horiz-adv-x="480" 
d="M240 848l56 80h72l-128 -168l-128 168h72zM48 616v88h384v-88h-144v-616h-96v616h-144z" />
    <glyph glyph-name="tcaron" unicode="&#x165;" horiz-adv-x="464" 
d="M416 560h-64v144h96zM224 0h-96v360h-80v88h80v176l96 32v-208h128v-88h-128v-360z" />
    <glyph glyph-name="Tbar" unicode="&#x166;" horiz-adv-x="480" 
d="M432 704v-88h-144v-264h64v-48h-64v-304h-96v304h-64v48h64v264h-144v88h384z" />
    <glyph glyph-name="tbar" unicode="&#x167;" horiz-adv-x="400" 
d="M352 448v-88h-128v-96h96v-48h-96v-216h-96v216h-64v48h64v96h-80v88h80v176l96 32v-208h128z" />
    <glyph glyph-name="Umacron" unicode="&#x16a;" horiz-adv-x="640" 
d="M432 848v-64h-224v64h224zM464 264v440h96v-424q0 -134 -64 -210q-65 -78 -176 -78q-113 0 -176.5 76.5t-63.5 211.5v424h96v-440q0 -83 38.5 -133.5t105.5 -50.5q66 0 105 50.5t39 133.5z" />
    <glyph glyph-name="umacron" unicode="&#x16b;" 
d="M376 592v-64h-224v64h224zM242 -8q-86 0 -132 57t-46 163v236h96v-244q0 -124 100 -124q46 0 77 40t31 104v224h96v-448h-96v56q-14 -26 -48 -45t-78 -19z" />
    <glyph glyph-name="Uring" unicode="&#x16e;" horiz-adv-x="640" 
d="M241 783q33 33 79 33t79 -33t33 -79t-33 -79t-79 -33t-79 33t-33 79t33 79zM281 665q17 -17 40 -17t39 17t16 40t-16 39t-39 16t-40 -16t-17 -39t17 -40zM464 264v440h96v-424q0 -134 -64 -210q-65 -78 -176 -78q-113 0 -176.5 76.5t-63.5 211.5v424h96v-440
q0 -83 38.5 -133.5t105.5 -50.5q66 0 105 50.5t39 133.5z" />
    <glyph glyph-name="uring" unicode="&#x16f;" 
d="M193 671q33 33 79 33t79 -33t33 -79t-33 -79t-79 -33t-79 33t-33 79t33 79zM233 553q17 -17 40 -17t39 17t16 40t-16 39t-39 16t-40 -16t-17 -39t17 -40zM242 -8q-86 0 -132 57t-46 163v236h96v-244q0 -124 100 -124q46 0 77 40t31 104v224h96v-448h-96v56
q-14 -26 -48 -45t-78 -19z" />
    <glyph glyph-name="Uhungarumlaut" unicode="&#x170;" horiz-adv-x="640" 
d="M232 768h-64v128h88zM456 768h-64v128h88zM464 264v440h96v-424q0 -134 -64 -210q-65 -78 -176 -78q-113 0 -176.5 76.5t-63.5 211.5v424h96v-440q0 -83 38.5 -133.5t105.5 -50.5q66 0 105 50.5t39 133.5z" />
    <glyph glyph-name="uhungarumlaut" unicode="&#x171;" 
d="M176 512h-64v128h88zM400 512h-64v128h88zM242 -8q-86 0 -132 57t-46 163v236h96v-244q0 -124 100 -124q46 0 77 40t31 104v224h96v-448h-96v56q-14 -26 -48 -45t-78 -19z" />
    <glyph glyph-name="Uogonek" unicode="&#x172;" horiz-adv-x="640" 
d="M464 264v440h96v-424q0 -122 -55 -198t-151 -88q-21 -4 -35.5 -26t-14.5 -52q-2 -51 44.5 -65.5t75.5 23.5l24 -50q-12 -13 -37 -22.5t-45 -9.5q-53 0 -85.5 35t-32.5 89q0 48 28 79h2q-94 14 -146 89.5t-52 195.5v424h96v-440q0 -83 38.5 -133.5t105.5 -50.5
q66 0 105 50.5t39 133.5z" />
    <glyph glyph-name="uogonek" unicode="&#x173;" 
d="M504 -126l24 -50q-12 -13 -37 -22.5t-45 -9.5q-53 0 -85.5 35t-32.5 89q0 55 40 92v48q-14 -26 -48 -45t-78 -19q-86 0 -132 57t-46 163v236h96v-244q0 -124 100 -124q46 0 77 40t31 104v224h96v-448q-32 0 -56 -23.5t-24 -60.5q-2 -51 44.5 -65.5t75.5 23.5z" />
    <glyph glyph-name="Wcircumflex" unicode="&#x174;" horiz-adv-x="928" 
d="M592 768h-72l-56 80l-56 -80h-72l128 168zM808 704h104l-312 -720l-135 328l-137 -328l-312 720h104l208 -486l88 214l-110 272h102l192 -486z" />
    <glyph glyph-name="wcircumflex" unicode="&#x175;" horiz-adv-x="688" 
d="M472 512h-72l-56 80l-56 -80h-72l128 168zM568 448h104l-232 -464l-93 204l-99 -204l-232 464h104l128 -268l53 108l-73 160h96l116 -268z" />
    <glyph glyph-name="Ycircumflex" unicode="&#x176;" horiz-adv-x="608" 
d="M432 768h-72l-56 80l-56 -80h-72l128 168zM304 381l180 323h108l-240 -419v-285h-96v285l-240 419h108z" />
    <glyph glyph-name="ycircumflex" unicode="&#x177;" horiz-adv-x="480" 
d="M368 512h-72l-56 80l-56 -80h-72l128 168zM241 145l119 303h104l-279 -688h-102l109 266l-176 422h104z" />
    <glyph glyph-name="Ydieresis" unicode="&#x178;" horiz-adv-x="608" 
d="M216 768q-23 0 -39.5 16.5t-16.5 39.5q0 24 16.5 40t39.5 16q24 0 40 -16t16 -40q0 -23 -16 -39.5t-40 -16.5zM392 768q-23 0 -39.5 16.5t-16.5 39.5q0 24 16.5 40t39.5 16q24 0 40 -16t16 -40q0 -23 -16 -39.5t-40 -16.5zM304 381l180 323h108l-240 -419v-285h-96v285
l-240 419h108z" />
    <glyph glyph-name="Zacute" unicode="&#x179;" 
d="M288 768h-64l64 160h96zM480 88v-88h-432l300 616h-284v88h432l-300 -616h284z" />
    <glyph glyph-name="zacute" unicode="&#x17a;" horiz-adv-x="464" 
d="M246 512h-64l64 160h96zM400 88v-88h-352l208 360h-192v88h352l-210 -360h194z" />
    <glyph glyph-name="Zdotaccent" unicode="&#x17b;" 
d="M323 773q-21 -21 -51 -21t-51 21t-21 51t21 51t51 21t51 -21t21 -51t-21 -51zM480 88v-88h-432l300 616h-284v88h432l-300 -616h284z" />
    <glyph glyph-name="zdotaccent" unicode="&#x17c;" horiz-adv-x="464" 
d="M283 517q-21 -21 -51 -21t-51 21t-21 51t21 51t51 21t51 -21t21 -51t-21 -51zM400 88v-88h-352l208 360h-192v88h352l-210 -360h194z" />
    <glyph glyph-name="Zcaron" unicode="&#x17d;" 
d="M272 848l56 80h72l-128 -168l-128 168h72zM480 88v-88h-432l300 616h-284v88h432l-300 -616h284z" />
    <glyph glyph-name="zcaron" unicode="&#x17e;" horiz-adv-x="464" 
d="M232 592l56 80h72l-128 -168l-128 168h72zM400 88v-88h-352l208 360h-192v88h352l-210 -360h194z" />
    <glyph glyph-name="Aringacute" unicode="&#x1fa;" horiz-adv-x="672" 
d="M360 1008h96l-96 -160h-64zM656 0h-104l-44 100h-344l-44 -100h-104l269 604q-61 34 -61 100q0 46 33 79t79 33t79 -33t33 -79q0 -67 -61 -100zM376 744q-16 16 -39 16t-40 -16t-17 -39t17 -40t40 -17t39 17t16 40t-16 39zM336 496l-134 -308h268z" />
    <glyph glyph-name="aringacute" unicode="&#x1fb;" horiz-adv-x="512" 
d="M272 736h-64l64 160h96zM177 671q33 33 79 33t79 -33t33 -79t-33 -79t-79 -33t-79 33t-33 79t33 79zM217 553q17 -17 40 -17t39 17t16 40t-16 39t-39 16t-40 -16t-17 -39t17 -40zM448 210v-210h-96v58q-56 -66 -139 -66q-72 0 -118 43q-47 42 -47 108q0 63 46.5 103
t113 43t141.5 -27q-6 106 -101 106q-57 0 -104 -29l-40 69q63 48 148 48q196 0 196 -246zM352 183q-34 20 -84 23t-87.5 -14.5t-36.5 -51.5q0 -26 21.5 -43t56.5 -17q46 0 85 30t45 73z" />
    <glyph glyph-name="AEacute" unicode="&#x1fc;" horiz-adv-x="768" 
d="M448 928h96l-96 -160h-64zM704 704v-88h-240v-252h176v-88h-176v-188h240v-88h-336v100h-200l-48 -100h-104l352 704h336zM368 512l-157 -324h157v324z" />
    <glyph glyph-name="aeacute" unicode="&#x1fd;" horiz-adv-x="816" 
d="M416 672h96l-96 -160h-64zM584 80q59 0 111 52l55 -70q-67 -70 -166 -70q-114 0 -180 92q-71 -92 -191 -92q-72 0 -118 43q-47 42 -47 108q0 63 46.5 103t113 43t141.5 -27q-6 106 -101 106q-57 0 -104 -29l-40 69q63 48 148 48q113 0 161 -81q65 81 171 81
q75 0 128 -42.5t72 -115.5l-297 -172q14 -20 41.5 -33t55.5 -13zM448 224q0 -2 2 -26l222 128q-32 42 -88 42q-54 0 -95 -44t-41 -100zM222 80q46 0 85 30t45 73q-34 20 -84 23t-87.5 -14.5t-36.5 -51.5q0 -26 21.5 -43t56.5 -17z" />
    <glyph glyph-name="Scommaaccent" unicode="&#x218;" 
d="M289 444q100 -42 155 -94q52 -51 52 -139q0 -85 -60 -152q-61 -67 -160 -67q-97 0 -157 55q-47 40 -71 81l56 73q75 -121 174 -121q53 0 88 38q34 37 34 89q0 47 -29.5 77.5t-91.5 59.5q-106 47 -144 92q-39 46 -39 116q0 64 55 112q54 48 132 48q56 0 92 -16.5t73 -55.5
l-56 -71q-49 55 -111 55q-35 0 -62 -22t-27 -52q0 -66 97 -106zM296 -208h-64v144h96z" />
    <glyph glyph-name="scommaaccent" unicode="&#x219;" horiz-adv-x="432" 
d="M241 280q143 -33 143 -146q0 -63 -47 -102q-47 -40 -112 -40q-101 0 -177 76l48 70q58 -56 123 -58q31 -1 50 14t19 35q0 38 -62 55q-87 24 -120.5 55t-33.5 88q0 54 41.5 91.5t110.5 37.5q71 0 129 -46l-45 -70q-37 28 -84 28q-26 0 -41 -11t-15 -27q0 -19 15.5 -29.5
t57.5 -20.5zM240 -208h-64v144h96z" />
    <glyph glyph-name="uni021A" unicode="&#x21a;" horiz-adv-x="480" 
d="M48 616v88h384v-88h-144v-616h-96v616h-144zM256 -208h-64v144h96z" />
    <glyph glyph-name="uni021B" unicode="&#x21b;" horiz-adv-x="400" 
d="M224 0h-96v360h-80v88h80v176l96 32v-208h128v-88h-128v-360zM208 -208h-64v144h96z" />
    <glyph glyph-name="Alphatonos" unicode="&#x386;" horiz-adv-x="672" 
d="M656 0h-104l-44 100h-344l-44 -100h-104l320 720zM48 704h96l-32 -144h-64v144zM336 496l-134 -308h268z" />
    <glyph glyph-name="Epsilontonos" unicode="&#x388;" horiz-adv-x="608" 
d="M112 560h-64v144h96zM544 704v-88h-240v-252h176v-88h-176v-188h240v-88h-336v704h336z" />
    <glyph glyph-name="Etatonos" unicode="&#x389;" horiz-adv-x="704" 
d="M112 560h-64v144h96zM528 364v340h96v-704h-96v276h-224v-276h-96v704h96v-340h224z" />
    <glyph glyph-name="Iotatonos" unicode="&#x38a;" horiz-adv-x="384" 
d="M112 560h-64v144h96zM304 704v-704h-96v704h96z" />
    <glyph glyph-name="Omicrontonos" unicode="&#x38c;" horiz-adv-x="880" 
d="M218 607q105 105 254 105q148 0 255 -105q105 -107 105 -255q0 -149 -105 -254q-106 -106 -255 -106t-254 106q-106 105 -106 254t106 255zM112 560h-64v144h96zM285 160q77 -80 187 -80t187 80t77 192q0 113 -77 193q-76 79 -187 79t-187 -79q-77 -80 -77 -193
q0 -112 77 -192z" />
    <glyph glyph-name="Upsilontonos" unicode="&#x38e;" horiz-adv-x="768" 
d="M112 560h-64v144h96zM464 381l180 323h108l-240 -419v-285h-96v285l-240 419h108z" />
    <glyph glyph-name="Omegatonos" unicode="&#x38f;" horiz-adv-x="880" 
d="M816 392q0 -154 -156 -296h156v-96h-296v80l30 27.5t23 21.5q15 14 50 53q35 38 51 66q46 79 46 144q0 98 -69 165q-68 67 -171 67t-171 -67q-69 -67 -69 -165q0 -65 46 -144q16 -28 51 -66q35 -39 50 -53q5 -5 23 -21.5l30 -27.5v-80h-296v96h156q-156 142 -156 296
q0 43 12 86.5t39 86t65 75t95 52.5t125 20t125 -20t95 -52.5t65 -75t39 -86t12 -86.5zM112 560h-64v144h96z" />
    <glyph glyph-name="iotadieresistonos" unicode="&#x390;" horiz-adv-x="256" 
d="M152 512h-64v144h96zM-8 512q-23 0 -39.5 16.5t-16.5 39.5q0 24 16.5 40t39.5 16q24 0 40 -16t16 -40q0 -23 -16 -39.5t-40 -16.5zM264 512q-23 0 -39.5 16.5t-16.5 39.5q0 24 16.5 40t39.5 16q24 0 40 -16t16 -40q0 -23 -16 -39.5t-40 -16.5zM176 0h-96v448h96v-448z
" />
    <glyph glyph-name="Alpha" unicode="&#x391;" horiz-adv-x="672" 
d="M656 0h-104l-44 100h-344l-44 -100h-104l320 720zM336 496l-134 -308h268z" />
    <glyph glyph-name="Beta" unicode="&#x392;" 
d="M363 378q53 -15 85 -64.5t32 -110.5q0 -92 -64 -147q-65 -56 -170 -56h-166v704h125q116 0 179.5 -47.5t63.5 -136.5q0 -46 -23.5 -83t-61.5 -59zM218 616h-42v-204h42q62 0 98 29t36 77q0 47 -35.5 72.5t-98.5 25.5zM176 88h56q71 0 110.5 29t39.5 85q0 58 -40 90
t-110 32h-56v-236z" />
    <glyph glyph-name="Gamma" unicode="&#x393;" horiz-adv-x="448" 
d="M400 616h-224v-616h-96v704h320v-88z" />
    <glyph glyph-name="uni0394" unicode="&#x394;" horiz-adv-x="672" 
d="M16 0l320 720l320 -720h-640zM336 496l-178 -408h356z" />
    <glyph glyph-name="Epsilon" unicode="&#x395;" horiz-adv-x="480" 
d="M416 704v-88h-240v-252h176v-88h-176v-188h240v-88h-336v704h336z" />
    <glyph glyph-name="Zeta" unicode="&#x396;" 
d="M480 88v-88h-432l300 616h-284v88h432l-300 -616h284z" />
    <glyph glyph-name="Eta" unicode="&#x397;" horiz-adv-x="576" 
d="M400 364v340h96v-704h-96v276h-224v-276h-96v704h96v-340h224z" />
    <glyph glyph-name="Theta" unicode="&#x398;" horiz-adv-x="816" 
d="M154 607q105 105 254 105q148 0 255 -105q105 -107 105 -255q0 -149 -105 -254q-106 -106 -255 -106t-254 106q-106 105 -106 254t106 255zM221 160q77 -80 187 -80t187 80t77 192q0 113 -77 193q-76 79 -187 79t-187 -79q-77 -80 -77 -193q0 -112 77 -192zM592 320h-368
v64h368v-64z" />
    <glyph glyph-name="Iota" unicode="&#x399;" horiz-adv-x="256" 
d="M176 704v-704h-96v704h96z" />
    <glyph glyph-name="Kappa" unicode="&#x39a;" 
d="M289 389l223 -389h-120l-163 297l-53 -81v-216h-96v704h96v-332l208 332h112z" />
    <glyph glyph-name="Lambda" unicode="&#x39b;" horiz-adv-x="672" 
d="M656 0h-104l-216 496l-216 -496h-104l320 720z" />
    <glyph glyph-name="Mu" unicode="&#x39c;" horiz-adv-x="768" 
d="M80 720l304 -368l304 368v-720h-96v458l-208 -250l-208 250v-458h-96v720z" />
    <glyph glyph-name="Nu" unicode="&#x39d;" horiz-adv-x="656" 
d="M576 704v-720l-400 476v-460h-96v720l400 -476v460h96z" />
    <glyph glyph-name="Xi" unicode="&#x39e;" horiz-adv-x="496" 
d="M432 616h-368v88h368v-88zM384 276h-272v88h272v-88zM432 0h-368v88h368v-88z" />
    <glyph glyph-name="Omicron" unicode="&#x39f;" horiz-adv-x="816" 
d="M154 607q105 105 254 105q148 0 255 -105q105 -107 105 -255q0 -149 -105 -254q-106 -106 -255 -106t-254 106q-106 105 -106 254t106 255zM221 160q77 -80 187 -80t187 80t77 192q0 113 -77 193q-76 79 -187 79t-187 -79q-77 -80 -77 -193q0 -112 77 -192z" />
    <glyph glyph-name="Pi" unicode="&#x3a0;" horiz-adv-x="576" 
d="M80 704h416v-704h-96v616h-224v-616h-96v704z" />
    <glyph glyph-name="Rho" unicode="&#x3a1;" horiz-adv-x="512" 
d="M80 704h128q124 0 191 -65q65 -67 65 -167q0 -98 -66 -165q-67 -67 -176 -67h-46v-240h-96v704zM176 328h49q57 0 100 40q43 39 43 104q0 70 -45 108q-45 36 -104 36h-43v-288z" />
    <glyph glyph-name="Sigma" unicode="&#x3a3;" 
d="M464 616h-246l166 -264l-166 -264h246v-88h-416l220 352l-220 352h416v-88z" />
    <glyph glyph-name="Tau" unicode="&#x3a4;" horiz-adv-x="480" 
d="M48 616v88h384v-88h-144v-616h-96v616h-144z" />
    <glyph glyph-name="Upsilon" unicode="&#x3a5;" horiz-adv-x="608" 
d="M304 381l180 323h108l-240 -419v-285h-96v285l-240 419h108z" />
    <glyph glyph-name="Phi" unicode="&#x3a6;" horiz-adv-x="768" 
d="M432 736v-64q106 -6 192 -76q96 -78 96 -228q0 -131 -89 -214q-90 -83 -199 -90v-64h-96v64q-110 8 -198 90q-90 83 -90 214q0 149 97 228q86 70 191 76v64h96zM336 152v432q-63 0 -122 -47q-70 -55 -70 -169q0 -99 64 -157q65 -59 128 -59zM432 584v-432q63 0 128 59
q64 58 64 157q0 55 -19 99.5t-50 69.5q-60 47 -123 47z" />
    <glyph glyph-name="Chi" unicode="&#x3a7;" horiz-adv-x="592" 
d="M140 0h-108l208 366l-192 338h107l141 -254l141 254h107l-192 -338l208 -366h-108l-156 280z" />
    <glyph glyph-name="Psi" unicode="&#x3a8;" horiz-adv-x="768" 
d="M592 436v268h96v-254q0 -139 -64 -208.5t-192 -85.5v-156h-96v156q-128 16 -192 85.5t-64 208.5v254h96v-268q0 -91 43 -140t117 -52v460h96v-460q74 3 117 52t43 140z" />
    <glyph glyph-name="uni03A9" unicode="&#x3a9;" horiz-adv-x="800" 
d="M736 392q0 -154 -156 -296h156v-96h-296v80l30 27.5t23 21.5q15 14 50 53q35 38 51 66q46 79 46 144q0 98 -69 165q-68 67 -171 67t-171 -67q-69 -67 -69 -165q0 -65 46 -144q16 -28 51 -66q35 -39 50 -53q5 -5 23 -21.5l30 -27.5v-80h-296v96h156q-156 142 -156 296
q0 43 12 86.5t39 86t65 75t95 52.5t125 20t125 -20t95 -52.5t65 -75t39 -86t12 -86.5z" />
    <glyph glyph-name="Iotadieresis" unicode="&#x3aa;" horiz-adv-x="256" 
d="M40 768q-23 0 -39.5 16.5t-16.5 39.5q0 24 16.5 40t39.5 16q24 0 40 -16t16 -40q0 -23 -16 -39.5t-40 -16.5zM216 768q-23 0 -39.5 16.5t-16.5 39.5q0 24 16.5 40t39.5 16q24 0 40 -16t16 -40q0 -23 -16 -39.5t-40 -16.5zM176 704v-704h-96v704h96z" />
    <glyph glyph-name="Upsilondieresis" unicode="&#x3ab;" horiz-adv-x="608" 
d="M216 768q-23 0 -39.5 16.5t-16.5 39.5q0 24 16.5 40t39.5 16q24 0 40 -16t16 -40q0 -23 -16 -39.5t-40 -16.5zM392 768q-23 0 -39.5 16.5t-16.5 39.5q0 24 16.5 40t39.5 16q24 0 40 -16t16 -40q0 -23 -16 -39.5t-40 -16.5zM304 381l180 323h108l-240 -419v-285h-96v285
l-240 419h108z" />
    <glyph glyph-name="alphatonos" unicode="&#x3ac;" horiz-adv-x="592" 
d="M328 512h-64v144h96zM416 392v56h96v-448h-96v56q-55 -64 -144 -64q-93 0 -158 68q-66 68 -66 164t66 164q65 68 158 68q89 0 144 -64zM184 122q39 -42 96 -42q56 0 97 42q39 42 39 102t-39 102q-41 42 -97 42q-57 0 -96 -42q-40 -41 -40 -102t40 -102z" />
    <glyph glyph-name="epsilontonos" unicode="&#x3ad;" horiz-adv-x="464" 
d="M272 512h-64v144h96zM260 80q60 3 116 43l40 -70q-68 -61 -171 -61q-81 0 -131 35t-50 99q0 35 20.5 63.5t56.5 42.5q-33 12 -51 39.5t-18 60.5q0 58 45 91t119 33q93 0 176 -62l-44 -70q-7 5 -16.5 11t-13 8t-10 5.5t-13 5.5t-17.5 6q-27 8 -52 8q-78 0 -78 -51
q0 -21 35 -37t85 -16v-80q-50 0 -88 -13q-40 -13 -40 -37q0 -27 28 -41.5t72 -12.5z" />
    <glyph glyph-name="etatonos" unicode="&#x3ae;" 
d="M296 512h-64v144h96zM302 456q86 0 132 -57t46 -163v-476h-96v476q0 67 -23.5 99.5t-76.5 32.5q-46 0 -77 -38.5t-31 -97.5v-232h-96v448h96v-56q14 26 48 45t78 19z" />
    <glyph glyph-name="iotatonos" unicode="&#x3af;" horiz-adv-x="256" 
d="M152 512h-64v144h96zM176 0h-96v448h96v-448z" />
    <glyph glyph-name="upsilondieresistonos" unicode="&#x3b0;" horiz-adv-x="528" 
d="M288 512h-64v144h96zM128 512q-23 0 -39.5 16.5t-16.5 39.5q0 24 16.5 40t39.5 16q24 0 40 -16t16 -40q0 -23 -16 -39.5t-40 -16.5zM400 512q-23 0 -39.5 16.5t-16.5 39.5q0 24 16.5 40t39.5 16q24 0 40 -16t16 -40q0 -23 -16 -39.5t-40 -16.5zM368 214v234h96v-224
q0 -110 -53 -171t-147 -61t-147 61t-53 171v224h96v-234q0 -64 28.5 -99t75.5 -35t75.5 35t28.5 99z" />
    <glyph glyph-name="alpha" unicode="&#x3b1;" horiz-adv-x="592" 
d="M416 392v56h96v-448h-96v56q-55 -64 -144 -64q-93 0 -158 68q-66 68 -66 164t66 164q65 68 158 68q89 0 144 -64zM184 122q39 -42 96 -42q56 0 97 42q39 42 39 102t-39 102q-41 42 -97 42q-57 0 -96 -42q-40 -41 -40 -102t40 -102z" />
    <glyph glyph-name="beta" unicode="&#x3b2;" 
d="M358 412q58 -15 98 -70t40 -128q0 -88 -59 -155q-58 -67 -165 -67q-56 0 -112 32v-216h-96v712q0 155 106 206q31 15 70 18h20q81 0 137 -53q54 -53 54 -127q0 -52 -25.5 -91.5t-67.5 -60.5zM160 536v-412q34 -31 77.5 -39t79.5 6t60.5 47.5t22.5 77.5q0 73 -56.5 112.5
t-151.5 39.5v80q160 0 160 112q0 43 -29 69.5t-65 26.5q-47 0 -72.5 -33.5t-25.5 -86.5z" />
    <glyph glyph-name="gamma" unicode="&#x3b3;" horiz-adv-x="512" 
d="M392 448h104l-192 -415v-273h-96v273l-192 415h104l136 -302z" />
    <glyph glyph-name="delta" unicode="&#x3b4;" horiz-adv-x="560" 
d="M512 224q0 -96 -68 -164t-164 -68t-164 68t-68 164q0 97 68 165q67 67 175 67q-105 126 -243 248h416v-88h-200q1 -1 6 -6.5t15 -15.5t20 -21q13 -14 31 -33.5t24 -26.5q15 -17 53 -64q57 -74 84 -148q15 -40 15 -77zM185 123q40 -43 95 -43q56 0 96 43q40 41 40 101
q0 59 -40 102q-40 42 -96 42q-54 0 -95 -42q-41 -44 -41 -102t41 -101z" />
    <glyph glyph-name="epsilon" unicode="&#x3b5;" horiz-adv-x="448" 
d="M260 80q51 2 100 39l40 -70q-63 -57 -158 -57q-80 0 -129 35t-49 99q0 35 20.5 63.5t56.5 42.5q-33 12 -51 39.5t-18 60.5q0 58 44 91t117 33q96 0 163 -58l-44 -70q-50 38 -106 40q-78 0 -78 -49q0 -22 35 -38.5t85 -16.5v-80q-51 0 -89 -13q-39 -13 -39 -39
q0 -27 28 -40.5t72 -11.5z" />
    <glyph glyph-name="zeta" unicode="&#x3b6;" horiz-adv-x="496" 
d="M296 80q152 0 152 -144v-32h-96v37q0 51 -56 51q-112 0 -172 54.5t-60 161.5q0 87 50.5 182t159.5 226h-194v88h384q-166 -176 -235 -289t-69 -187q0 -69 35 -107.5t101 -40.5z" />
    <glyph glyph-name="eta" unicode="&#x3b7;" 
d="M302 456q86 0 132 -57t46 -163v-476h-96v476q0 67 -23.5 99.5t-76.5 32.5q-46 0 -77 -38.5t-31 -97.5v-232h-96v448h96v-56q14 26 48 45t78 19z" />
    <glyph glyph-name="theta" unicode="&#x3b8;" horiz-adv-x="560" 
d="M111 609q61 103 169 103q107 0 170 -103q62 -104 62 -257t-62 -257q-63 -103 -170 -103q-109 0 -170 103q-62 103 -62 257t63 257zM374 557q-37 67 -94 67t-93 -67q-38 -68 -42 -173h270q-4 104 -41 173zM187 147q36 -67 93 -67t94 67q37 69 41 173h-270q4 -105 42 -173z
" />
    <glyph glyph-name="iota" unicode="&#x3b9;" horiz-adv-x="256" 
d="M176 0h-96v448h96v-448z" />
    <glyph glyph-name="kappa" unicode="&#x3ba;" horiz-adv-x="496" 
d="M273 251l207 -251h-120l-149 187l-35 -36v-151h-96v448h96v-180l168 180h120z" />
    <glyph glyph-name="lambda" unicode="&#x3bb;" horiz-adv-x="512" 
d="M198 704l282 -704h-105l-129 328l-125 -328h-105l179 448l-101 256h104z" />
    <glyph glyph-name="uni03BC" unicode="&#x3bc;" horiz-adv-x="576" 
d="M400 224v224h96v-448h-96v56q-13 -28 -43.5 -46t-68.5 -18t-68.5 18t-43.5 46v-296h-96v688h96v-224q0 -64 32.5 -104t79.5 -40t79.5 40t32.5 104z" />
    <glyph glyph-name="nu" unicode="&#x3bd;" horiz-adv-x="464" 
d="M448 448l-216 -464l-216 464h104l112 -248l112 248h104z" />
    <glyph glyph-name="xi" unicode="&#x3be;" horiz-adv-x="512" 
d="M464 -64v-32h-96v37q0 32 -16.5 41.5t-64.5 9.5q-98 0 -160 59q-63 58 -63 149q0 66 29.5 110t79.5 64q-41 18 -67 58.5t-26 87.5q0 94 60 143q58 49 147 49q113 0 177 -88l-50 -68q-48 68 -124 68q-48 0 -81 -27.5t-33 -76.5q0 -54 45 -82q45 -30 99 -30v-80
q-70 0 -115 -33.5t-45 -94.5q0 -50 38 -85t90 -35q94 0 135 -33t41 -111z" />
    <glyph glyph-name="omicron" unicode="&#x3bf;" horiz-adv-x="560" 
d="M116 388q68 68 164 68t164 -68t68 -164t-68 -164t-164 -68t-164 68t-68 164t68 164zM185 123q40 -43 95 -43q56 0 96 43q40 41 40 101q0 59 -40 102q-40 42 -96 42q-54 0 -95 -42q-41 -44 -41 -102t41 -101z" />
    <glyph glyph-name="pi" unicode="&#x3c0;" horiz-adv-x="576" 
d="M528 448v-88h-64v-360h-96v360h-160v-360h-96v360h-64v88h480z" />
    <glyph glyph-name="rho" unicode="&#x3c1;" horiz-adv-x="592" 
d="M148 388q68 68 164 68t164 -68t68 -164t-68 -164t-164 -68q-75 0 -136 56v-288h-96v464q0 96 68 164zM217 123q40 -43 95 -43q56 0 96 43q40 41 40 101q0 59 -40 102q-40 42 -96 42q-54 0 -95 -42q-41 -44 -41 -102t41 -101z" />
    <glyph glyph-name="uni03C2" unicode="&#x3c2;" horiz-adv-x="496" 
d="M280 80q152 0 152 -144v-32h-96v37q0 51 -56 51q-96 0 -164 68t-68 164t68 164t164 68q87 0 152 -56l-52 -72q-37 40 -100 40q-54 0 -95 -42q-41 -44 -41 -102t41 -101q40 -43 95 -43z" />
    <glyph glyph-name="sigma" unicode="&#x3c3;" horiz-adv-x="608" 
d="M560 448v-88h-100q52 -50 52 -136q0 -96 -68 -164t-164 -68t-164 68t-68 164t68 164t164 68q20 0 26 -1q101 -7 254 -7zM185 123q40 -43 95 -43q56 0 96 43q40 41 40 101q0 59 -40 102q-40 42 -96 42q-54 0 -95 -42q-41 -44 -41 -102t41 -101z" />
    <glyph glyph-name="tau" unicode="&#x3c4;" horiz-adv-x="448" 
d="M48 360v88h352v-88h-128v-360h-96v360h-128z" />
    <glyph glyph-name="upsilon" unicode="&#x3c5;" horiz-adv-x="528" 
d="M368 214v234h96v-224q0 -110 -53 -171t-147 -61t-147 61t-53 171v224h96v-234q0 -64 28.5 -99t75.5 -35t75.5 35t28.5 99z" />
    <glyph glyph-name="phi" unicode="&#x3c6;" horiz-adv-x="672" 
d="M48 224q0 80 49.5 139.5t133.5 82.5l17 -84q-46 -12 -75 -50t-29 -88q0 -59 40 -98t104 -46v375q18 3 41 3q130 0 213 -62q82 -63 82 -172q0 -95 -67 -158q-68 -64 -173 -74v-232h-96v232q-105 10 -173 74q-67 63 -67 158zM384 368v-288q65 9 104.5 46.5t39.5 97.5
t-39.5 97.5t-104.5 46.5z" />
    <glyph glyph-name="chi" unicode="&#x3c7;" horiz-adv-x="496" 
d="M304 236l160 -236h-112l-104 161l-104 -161h-112l160 236l-144 212h112l88 -138l88 138h112z" />
    <glyph glyph-name="psi" unicode="&#x3c8;" horiz-adv-x="704" 
d="M544 258v190h96v-186q0 -244 -240 -270v-232h-96v232q-240 26 -240 270v186h96v-190q0 -84 39 -127.5t105 -50.5v368h96v-368q66 7 105 50.5t39 127.5z" />
    <glyph glyph-name="omega" unicode="&#x3c9;" horiz-adv-x="736" 
d="M525 424l90 24q57 -99 57 -220q0 -116 -49.5 -176t-134.5 -60q-77 0 -120 61q-43 -61 -120 -61q-86 0 -135 60t-49 176q0 121 57 220l90 -24q-3 -8 -10 -22.5t-9 -19t-6 -14.5t-6 -16.5t-5 -17.5t-6 -25q-9 -39 -9 -81q0 -72 23.5 -110t64.5 -38q32 0 52 26t20 76v202h96
v-202q0 -50 20 -76t52 -26q41 0 64.5 38t23.5 110q0 79 -26 140q-3 7 -12 27t-13 29z" />
    <glyph glyph-name="iotadieresis" unicode="&#x3ca;" horiz-adv-x="256" 
d="M40 512q-23 0 -39.5 16.5t-16.5 39.5q0 24 16.5 40t39.5 16q24 0 40 -16t16 -40q0 -23 -16 -39.5t-40 -16.5zM216 512q-23 0 -39.5 16.5t-16.5 39.5q0 24 16.5 40t39.5 16q24 0 40 -16t16 -40q0 -23 -16 -39.5t-40 -16.5zM176 0h-96v448h96v-448z" />
    <glyph glyph-name="upsilondieresis" unicode="&#x3cb;" horiz-adv-x="528" 
d="M176 512q-23 0 -39.5 16.5t-16.5 39.5q0 24 16.5 40t39.5 16q24 0 40 -16t16 -40q0 -23 -16 -39.5t-40 -16.5zM352 512q-23 0 -39.5 16.5t-16.5 39.5q0 24 16.5 40t39.5 16q24 0 40 -16t16 -40q0 -23 -16 -39.5t-40 -16.5zM368 214v234h96v-224q0 -110 -53 -171t-147 -61
t-147 61t-53 171v224h96v-234q0 -64 28.5 -99t75.5 -35t75.5 35t28.5 99z" />
    <glyph glyph-name="omicrontonos" unicode="&#x3cc;" horiz-adv-x="560" 
d="M304 512h-64v144h96zM116 388q68 68 164 68t164 -68t68 -164t-68 -164t-164 -68t-164 68t-68 164t68 164zM185 123q40 -43 95 -43q56 0 96 43q40 41 40 101q0 59 -40 102q-40 42 -96 42q-54 0 -95 -42q-41 -44 -41 -102t41 -101z" />
    <glyph glyph-name="upsilontonos" unicode="&#x3cd;" horiz-adv-x="528" 
d="M288 512h-64v144h96zM368 214v234h96v-224q0 -110 -53 -171t-147 -61t-147 61t-53 171v224h96v-234q0 -64 28.5 -99t75.5 -35t75.5 35t28.5 99z" />
    <glyph glyph-name="omegatonos" unicode="&#x3ce;" horiz-adv-x="736" 
d="M392 512h-64v144h96zM525 424l90 24q57 -99 57 -220q0 -116 -49.5 -176t-134.5 -60q-77 0 -120 61q-43 -61 -120 -61q-86 0 -135 60t-49 176q0 121 57 220l90 -24q-13 -26 -25 -56q-9 -21 -17 -57q-9 -39 -9 -81q0 -68 24 -105t64 -37q72 0 72 94v202h96v-202
q0 -94 72 -94q40 0 64 37t24 105q0 78 -25 138q-6 14 -26 56z" />
    <glyph glyph-name="uni0401" unicode="&#x401;" horiz-adv-x="480" 
d="M152 768q-23 0 -39.5 16.5t-16.5 39.5q0 24 16.5 40t39.5 16q24 0 40 -16t16 -40q0 -23 -16 -39.5t-40 -16.5zM328 768q-23 0 -39.5 16.5t-16.5 39.5q0 24 16.5 40t39.5 16q24 0 40 -16t16 -40q0 -23 -16 -39.5t-40 -16.5zM416 704v-88h-240v-252h176v-88h-176v-188h240
v-88h-336v704h336z" />
    <glyph glyph-name="uni0402" unicode="&#x402;" horiz-adv-x="640" 
d="M384 448q88 0 140 -60.5t52 -179.5v-210q0 -83 -24 -142q-18 -44 -57 -72q-26 -19 -66 -27q-5 -1 -29 -5l-24 88q51 10 77.5 43.5t26.5 100.5v222q0 82 -26.5 118t-93.5 36q-62 0 -120 -30v-330h-96v616h-96v88h288v-88h-96v-200q73 32 144 32z" />
    <glyph glyph-name="uni0403" unicode="&#x403;" horiz-adv-x="448" 
d="M240 768h-64l64 160h96zM400 616h-224v-616h-96v704h320v-88z" />
    <glyph glyph-name="uni0404" unicode="&#x404;" horiz-adv-x="656" 
d="M409 80q96 0 163 56l52 -72q-41 -33 -99.5 -52.5t-116.5 -19.5q-149 0 -254 106q-106 105 -106 254t106 255q105 105 254 105q58 0 116.5 -19.5t99.5 -52.5l-52 -72q-67 56 -163 56q-99 0 -173 -66q-76 -68 -89 -166h253v-80h-253q13 -98 89 -165q73 -67 173 -67z" />
    <glyph glyph-name="uni0405" unicode="&#x405;" 
d="M289 444q100 -42 155 -94q52 -51 52 -139q0 -85 -60 -152q-61 -67 -160 -67q-97 0 -157 55q-47 40 -71 81l56 73q75 -121 174 -121q53 0 88 38q34 37 34 89q0 47 -29.5 77.5t-91.5 59.5q-106 47 -144 92q-39 46 -39 116q0 64 55 112q54 48 132 48q56 0 92 -16.5t73 -55.5
l-56 -71q-49 55 -111 55q-35 0 -62 -22t-27 -52q0 -66 97 -106z" />
    <glyph glyph-name="uni0406" unicode="&#x406;" horiz-adv-x="256" 
d="M176 704v-704h-96v704h96z" />
    <glyph glyph-name="uni0407" unicode="&#x407;" horiz-adv-x="256" 
d="M40 768q-23 0 -39.5 16.5t-16.5 39.5q0 24 16.5 40t39.5 16q24 0 40 -16t16 -40q0 -23 -16 -39.5t-40 -16.5zM216 768q-23 0 -39.5 16.5t-16.5 39.5q0 24 16.5 40t39.5 16q24 0 40 -16t16 -40q0 -23 -16 -39.5t-40 -16.5zM176 704v-704h-96v704h96z" />
    <glyph glyph-name="uni0408" unicode="&#x408;" horiz-adv-x="432" 
d="M272 200v504h96v-496q0 -105 -48 -160.5t-128 -55.5q-46 0 -84 17t-60 45l60 64q36 -38 84 -38q37 0 58.5 30t21.5 90z" />
    <glyph glyph-name="uni0409" unicode="&#x409;" horiz-adv-x="928" 
d="M592 364h46q120 0 181 -48t61 -134t-62.5 -134t-185.5 -48h-136v616h-144l-48 -408q-13 -111 -58 -163.5t-126 -52.5q-59 0 -88 25l36 75q21 -12 52 -12q75 0 88 112l64 512h320v-340zM592 88h49q66 0 104.5 24t38.5 70q0 94 -146 94h-46v-188z" />
    <glyph glyph-name="uni040A" unicode="&#x40a;" horiz-adv-x="832" 
d="M496 364h46q120 0 181 -48t61 -134t-62.5 -134t-185.5 -48h-136v276h-224v-276h-96v704h96v-340h224v340h96v-340zM496 88h49q66 0 104.5 24t38.5 70q0 94 -146 94h-46v-188z" />
    <glyph glyph-name="uni040B" unicode="&#x40b;" horiz-adv-x="640" 
d="M384 448q88 0 140 -60.5t52 -179.5v-208h-96v206q0 82 -26.5 118t-93.5 36q-62 0 -120 -30v-330h-96v616h-96v88h288v-88h-96v-200q73 32 144 32z" />
    <glyph glyph-name="uni040C" unicode="&#x40c;" 
d="M264 768h-64l64 160h96zM289 389l223 -389h-120l-163 297l-53 -81v-216h-96v704h96v-332l208 332h112z" />
    <glyph glyph-name="uni040E" unicode="&#x40e;" horiz-adv-x="576" 
d="M368 896h56q0 -53 -37 -90q-38 -38 -91 -38q-52 0 -90 38t-38 90h56q0 -30 21 -51t51 -21t51 21t21 51zM300 386l156 318h104l-348 -704h-104l140 282l-216 422h104z" />
    <glyph glyph-name="uni040F" unicode="&#x40f;" horiz-adv-x="576" 
d="M400 88v616h96v-704h-160v-96h-96v96h-160v704h96v-616h224z" />
    <glyph glyph-name="uni0410" unicode="&#x410;" horiz-adv-x="672" 
d="M656 0h-104l-44 100h-344l-44 -100h-104l320 720zM336 496l-134 -308h268z" />
    <glyph glyph-name="uni0411" unicode="&#x411;" horiz-adv-x="528" 
d="M176 456h48q121 0 188.5 -60.5t67.5 -161.5q0 -98 -65 -166q-66 -68 -177 -68h-158v704h304v-88h-208v-160zM176 88h71q55 0 96 41t41 105q0 68 -44 101t-99 33h-65v-280z" />
    <glyph glyph-name="uni0412" unicode="&#x412;" 
d="M363 378q53 -15 85 -64.5t32 -110.5q0 -92 -64 -147q-65 -56 -170 -56h-166v704h125q116 0 179.5 -47.5t63.5 -136.5q0 -46 -23.5 -83t-61.5 -59zM218 616h-42v-204h42q62 0 98 29t36 77q0 47 -35.5 72.5t-98.5 25.5zM176 88h56q71 0 110.5 29t39.5 85q0 58 -40 90
t-110 32h-56v-236z" />
    <glyph glyph-name="uni0413" unicode="&#x413;" horiz-adv-x="448" 
d="M400 616h-224v-616h-96v704h320v-88z" />
    <glyph glyph-name="uni0414" unicode="&#x414;" horiz-adv-x="720" 
d="M576 704v-616h96v-185h-96v97h-432v-97h-96v185h75l125 616h328zM321 616l-102 -528h261v528h-159z" />
    <glyph glyph-name="uni0415" unicode="&#x415;" horiz-adv-x="480" 
d="M416 704v-88h-240v-252h176v-88h-176v-188h240v-88h-336v704h336z" />
    <glyph glyph-name="uni0416" unicode="&#x416;" horiz-adv-x="864" 
d="M596 384l236 -384h-120l-177 297l-55 -81v-216h-96v216l-55 81l-177 -297h-120l236 384l-220 320h112l224 -332v332h96v-332l224 332h112z" />
    <glyph glyph-name="uni0417" unicode="&#x417;" horiz-adv-x="512" 
d="M208 328v80q54 0 99 30q45 28 45 82q0 48 -33.5 76t-80.5 28q-77 0 -128 -68l-48 68q66 88 179 88q89 0 148 -49q59 -50 59 -143q0 -47 -26 -87.5t-67 -58.5q50 -20 79.5 -64t29.5 -110q0 -90 -62 -149q-64 -59 -161 -59q-61 0 -111.5 25t-81.5 65l54 68q49 -70 138 -70
q52 0 90 35t38 85q0 61 -45 94.5t-115 33.5z" />
    <glyph glyph-name="uni0418" unicode="&#x418;" horiz-adv-x="640" 
d="M160 0h-80v704h96v-506l304 506h80v-704h-96v506z" />
    <glyph glyph-name="uni0419" unicode="&#x419;" horiz-adv-x="640" 
d="M392 896h56q0 -53 -37 -90q-38 -38 -91 -38q-52 0 -90 38t-38 90h56q0 -30 21 -51t51 -21t51 21t21 51zM160 0h-80v704h96v-506l304 506h80v-704h-96v506z" />
    <glyph glyph-name="uni041A" unicode="&#x41a;" 
d="M289 389l223 -389h-120l-163 297l-53 -81v-216h-96v704h96v-332l208 332h112z" />
    <glyph glyph-name="uni041B" unicode="&#x41b;" horiz-adv-x="672" 
d="M208 192l64 512h320v-704h-96v616h-144l-48 -408q-13 -111 -58 -163.5t-126 -52.5q-59 0 -88 25l36 75q21 -12 52 -12q75 0 88 112z" />
    <glyph glyph-name="uni041C" unicode="&#x41c;" horiz-adv-x="768" 
d="M80 720l304 -368l304 368v-720h-96v458l-208 -250l-208 250v-458h-96v720z" />
    <glyph glyph-name="uni041D" unicode="&#x41d;" horiz-adv-x="576" 
d="M400 364v340h96v-704h-96v276h-224v-276h-96v704h96v-340h224z" />
    <glyph glyph-name="uni041E" unicode="&#x41e;" horiz-adv-x="816" 
d="M154 607q105 105 254 105q148 0 255 -105q105 -107 105 -255q0 -149 -105 -254q-106 -106 -255 -106t-254 106q-106 105 -106 254t106 255zM221 160q77 -80 187 -80t187 80t77 192q0 113 -77 193q-76 79 -187 79t-187 -79q-77 -80 -77 -193q0 -112 77 -192z" />
    <glyph glyph-name="uni041F" unicode="&#x41f;" horiz-adv-x="576" 
d="M80 704h416v-704h-96v616h-224v-616h-96v704z" />
    <glyph glyph-name="uni0420" unicode="&#x420;" horiz-adv-x="512" 
d="M80 704h128q124 0 191 -65q65 -67 65 -167q0 -98 -66 -165q-67 -67 -176 -67h-46v-240h-96v704zM176 328h49q57 0 100 40q43 39 43 104q0 70 -45 108q-45 36 -104 36h-43v-288z" />
    <glyph glyph-name="uni0421" unicode="&#x421;" horiz-adv-x="656" 
d="M154 98q-106 105 -106 254t106 255q105 105 254 105q58 0 116.5 -19.5t99.5 -52.5l-52 -72q-67 56 -163 56q-110 0 -187 -80q-78 -80 -78 -192t78 -192q77 -80 187 -80q96 0 163 56l52 -72q-41 -33 -99.5 -52.5t-116.5 -19.5q-149 0 -254 106z" />
    <glyph glyph-name="uni0422" unicode="&#x422;" horiz-adv-x="480" 
d="M48 616v88h384v-88h-144v-616h-96v616h-144z" />
    <glyph glyph-name="uni0423" unicode="&#x423;" horiz-adv-x="576" 
d="M300 386l156 318h104l-348 -704h-104l140 282l-216 422h104z" />
    <glyph glyph-name="uni0424" unicode="&#x424;" horiz-adv-x="768" 
d="M432 736v-64q106 -6 192 -76q96 -78 96 -228q0 -131 -89 -214q-90 -83 -199 -90v-64h-96v64q-110 8 -198 90q-90 83 -90 214q0 149 97 228q86 70 191 76v64h96zM336 152v432q-63 0 -122 -47q-70 -55 -70 -169q0 -99 64 -157q65 -59 128 -59zM432 584v-432q63 0 128 59
q64 58 64 157q0 55 -19 99.5t-50 69.5q-60 47 -123 47z" />
    <glyph glyph-name="uni0425" unicode="&#x425;" horiz-adv-x="592" 
d="M140 0h-108l208 366l-192 338h107l141 -254l141 254h107l-192 -338l208 -366h-108l-156 280z" />
    <glyph glyph-name="uni0426" unicode="&#x426;" horiz-adv-x="656" 
d="M496 704v-616h96v-184h-96v96h-416v704h96v-616h224v616h96z" />
    <glyph glyph-name="uni0427" unicode="&#x427;" horiz-adv-x="576" 
d="M256 248q-88 0 -140 60.5t-52 179.5v216h96v-214q0 -82 26.5 -118t93.5 -36q62 0 120 30v338h96v-704h-96v280q-73 -32 -144 -32z" />
    <glyph glyph-name="uni0428" unicode="&#x428;" horiz-adv-x="848" 
d="M672 88v616h96v-704h-688v704h96v-616h200v616h96v-616h200z" />
    <glyph glyph-name="uni0429" unicode="&#x429;" horiz-adv-x="928" 
d="M768 704v-616h96v-184h-96v96h-688v704h96v-616h200v616h96v-616h200v616h96z" />
    <glyph glyph-name="uni042A" unicode="&#x42a;" horiz-adv-x="592" 
d="M240 456h48q121 0 188.5 -60.5t67.5 -161.5q0 -98 -65 -166q-66 -68 -177 -68h-158v616h-96v88h192v-248zM240 88h71q55 0 96 41t41 105q0 68 -44 101t-99 33h-65v-280z" />
    <glyph glyph-name="uni042B" unicode="&#x42b;" horiz-adv-x="784" 
d="M176 456h48q121 0 188.5 -60.5t67.5 -161.5q0 -98 -65 -166q-66 -68 -177 -68h-158v704h96v-248zM704 704v-704h-96v704h96zM176 88h71q55 0 96 41t41 105q0 68 -44 101t-99 33h-65v-280z" />
    <glyph glyph-name="uni042C" unicode="&#x42c;" horiz-adv-x="528" 
d="M176 456h48q121 0 188.5 -60.5t67.5 -161.5q0 -98 -65 -166q-66 -68 -177 -68h-158v704h96v-248zM176 88h71q55 0 96 41t41 105q0 68 -44 101t-99 33h-65v-280z" />
    <glyph glyph-name="uni042D" unicode="&#x42d;" horiz-adv-x="672" 
d="M263 80q100 0 174 67q75 67 88 165h-253v80h253q-13 97 -88 166q-75 66 -174 66q-96 0 -163 -56l-52 72q41 33 99.5 52.5t116.5 19.5q148 0 255 -105q105 -107 105 -255q0 -149 -105 -254q-106 -106 -255 -106q-58 0 -116.5 19.5t-99.5 52.5l52 72q67 -56 163 -56z" />
    <glyph glyph-name="uni042E" unicode="&#x42e;" horiz-adv-x="1056" 
d="M648 712q148 0 255 -105q105 -107 105 -255q0 -149 -105 -254q-106 -106 -255 -106q-138 0 -239 91t-118 225h-115v-308h-96v704h96v-308h115q17 134 118 225t239 91zM461 160q77 -80 187 -80t187 80t77 192q0 113 -77 193q-76 79 -187 79t-187 -79q-77 -80 -77 -193
q0 -112 77 -192z" />
    <glyph glyph-name="uni042F" unicode="&#x42f;" horiz-adv-x="528" 
d="M320 704h128v-704h-96v240h-46q-18 0 -23 1l-123 -241h-112l142 265q-59 29 -92.5 84.5t-33.5 122.5q0 101 66 167q65 65 190 65zM303 328h49v288h-43q-59 0 -104 -36q-45 -38 -45 -108q0 -65 44 -104q43 -40 99 -40z" />
    <glyph glyph-name="uni0430" unicode="&#x430;" horiz-adv-x="512" 
d="M448 210v-210h-96v58q-56 -66 -139 -66q-72 0 -118 43q-47 42 -47 108q0 63 46.5 103t113 43t141.5 -27q-6 106 -101 106q-57 0 -104 -29l-40 69q63 48 148 48q196 0 196 -246zM352 183q-34 20 -84 23t-87.5 -14.5t-36.5 -51.5q0 -26 21.5 -43t56.5 -17q46 0 85 30t45 73
z" />
    <glyph glyph-name="uni0431" unicode="&#x431;" horiz-adv-x="560" 
d="M284 456q96 0 162 -68t66 -164t-68 -164t-164 -68t-164 68t-68 164q0 111 44 194t136 162q46 39 63 60q19 25 37 64h104q-7 -42 -41 -88t-82 -77q-82 -55 -111 -106q38 23 86 23zM185 123q40 -43 95 -43q56 0 96 43q40 41 40 101q0 59 -40 102q-40 42 -96 42
q-54 0 -95 -42q-41 -44 -41 -102t41 -101z" />
    <glyph glyph-name="uni0432" unicode="&#x432;" horiz-adv-x="512" 
d="M368 237q34 -8 57 -36t23 -61q0 -140 -192 -140h-176v448h152q98 0 149 -34t51 -92q0 -27 -17 -50.5t-47 -34.5zM259 360h-83v-92h75q85 0 85 46t-77 46zM176 88h97q35 0 57 13t22 37q0 50 -79 50h-97v-100z" />
    <glyph glyph-name="uni0433" unicode="&#x433;" horiz-adv-x="384" 
d="M336 360h-160v-360h-96v448h256v-88z" />
    <glyph glyph-name="uni0434" unicode="&#x434;" horiz-adv-x="624" 
d="M496 448v-360h80v-184h-96v96h-336v-96h-96v184h65l87 360h296zM273 360l-62 -272h189v272h-127z" />
    <glyph glyph-name="uni0435" unicode="&#x435;" horiz-adv-x="512" 
d="M280 80q59 0 111 52l55 -70q-67 -70 -166 -70q-96 0 -164 68t-68 164t68 164t164 68q75 0 128 -42.5t72 -115.5l-297 -172q14 -20 41.5 -33t55.5 -13zM280 368q-54 0 -95 -44t-41 -100q0 -2 2 -26l222 128q-32 42 -88 42z" />
    <glyph glyph-name="uni0436" unicode="&#x436;" horiz-adv-x="736" 
d="M510 254l194 -254h-120l-136 186l-32 -35v-151h-96v151l-32 35l-136 -186h-120l194 254l-178 194h120l152 -180v180h96v-180l152 180h120z" />
    <glyph glyph-name="uni0437" unicode="&#x437;" horiz-adv-x="448" 
d="M188 80q44 -2 72 11.5t28 40.5q0 26 -39 39q-38 13 -89 13v80q50 0 85 16.5t35 38.5q0 49 -78 49q-56 -2 -106 -40l-44 70q67 58 163 58q73 0 117 -33t44 -91q0 -33 -18 -60.5t-51 -39.5q36 -14 56.5 -42.5t20.5 -63.5q0 -64 -49 -99t-129 -35q-95 0 -158 57l40 70
q49 -37 100 -39z" />
    <glyph glyph-name="uni0438" unicode="&#x438;" 
d="M80 448h96v-282l208 282h80v-448h-96v282l-208 -282h-80v448z" />
    <glyph glyph-name="uni0439" unicode="&#x439;" 
d="M344 640h56q0 -53 -37 -90q-38 -38 -91 -38q-52 0 -90 38t-38 90h56q0 -30 21 -51t51 -21t51 21t21 51zM80 448h96v-282l208 282h80v-448h-96v282l-208 -282h-80v448z" />
    <glyph glyph-name="uni043A" unicode="&#x43a;" horiz-adv-x="496" 
d="M273 251l207 -251h-120l-149 187l-35 -36v-151h-96v448h96v-180l168 180h120z" />
    <glyph glyph-name="uni043B" unicode="&#x43b;" horiz-adv-x="592" 
d="M512 0h-96v360h-150l-28 -203q-22 -165 -139 -165q-43 0 -83 24l30 74q80 -41 96 65l42 293h328v-448z" />
    <glyph glyph-name="uni043C" unicode="&#x43c;" horiz-adv-x="640" 
d="M320 180l240 284v-464h-96v216l-144 -176l-144 176v-216h-96v464z" />
    <glyph glyph-name="uni043D" unicode="&#x43d;" horiz-adv-x="560" 
d="M384 268v180h96v-448h-96v180h-208v-180h-96v448h96v-180h208z" />
    <glyph glyph-name="uni043E" unicode="&#x43e;" horiz-adv-x="560" 
d="M116 388q68 68 164 68t164 -68t68 -164t-68 -164t-164 -68t-164 68t-68 164t68 164zM185 123q40 -43 95 -43q56 0 96 43q40 41 40 101q0 59 -40 102q-40 42 -96 42q-54 0 -95 -42q-41 -44 -41 -102t41 -101z" />
    <glyph glyph-name="uni043F" unicode="&#x43f;" horiz-adv-x="560" 
d="M80 448h400v-448h-96v360h-208v-360h-96v448z" />
    <glyph glyph-name="uni0440" unicode="&#x440;" horiz-adv-x="592" 
d="M176 56v-296h-96v688h96v-56q55 64 144 64q93 0 159 -68q65 -68 65 -164t-65 -164q-66 -68 -159 -68q-89 0 -144 64zM409 326q-41 42 -97 42q-57 0 -96 -42q-40 -41 -40 -102t40 -102q39 -42 96 -42q56 0 97 42q39 42 39 102t-39 102z" />
    <glyph glyph-name="uni0441" unicode="&#x441;" horiz-adv-x="480" 
d="M280 80q63 0 100 40l52 -72q-65 -56 -152 -56q-96 0 -164 68t-68 164t68 164t164 68q87 0 152 -56l-52 -72q-37 40 -100 40q-54 0 -95 -42q-41 -44 -41 -102t41 -101q40 -43 95 -43z" />
    <glyph glyph-name="uni0442" unicode="&#x442;" horiz-adv-x="448" 
d="M48 360v88h352v-88h-128v-360h-96v360h-128z" />
    <glyph glyph-name="uni0443" unicode="&#x443;" horiz-adv-x="480" 
d="M241 145l119 303h104l-279 -688h-102l109 266l-176 422h104z" />
    <glyph glyph-name="uni0444" unicode="&#x444;" horiz-adv-x="672" 
d="M384 704v-248q105 -10 173 -74q67 -63 67 -158t-67 -158q-68 -64 -173 -74v-232h-96v232q-105 10 -173 74q-67 63 -67 158t67 158q68 64 173 74v248h96zM288 80v288q-65 -9 -104.5 -46.5t-39.5 -97.5t39.5 -97.5t104.5 -46.5zM384 368v-288q65 9 104.5 46.5t39.5 97.5
t-39.5 97.5t-104.5 46.5z" />
    <glyph glyph-name="uni0445" unicode="&#x445;" horiz-adv-x="496" 
d="M304 236l160 -236h-112l-104 161l-104 -161h-112l160 236l-144 212h112l88 -138l88 138h112z" />
    <glyph glyph-name="uni0446" unicode="&#x446;" horiz-adv-x="640" 
d="M480 448v-360h96v-184h-96v96h-400v448h96v-360h208v360h96z" />
    <glyph glyph-name="uni0447" unicode="&#x447;" horiz-adv-x="528" 
d="M238 144q-74 0 -124 45q-50 44 -50 147v112h96v-110q0 -54 20 -78t66 -28q50 -5 106 27v189h96v-448h-96v176q-56 -32 -114 -32z" />
    <glyph glyph-name="uni0448" unicode="&#x448;" horiz-adv-x="768" 
d="M592 88v360h96v-448h-608v448h96v-360h160v360h96v-360h160z" />
    <glyph glyph-name="uni0449" unicode="&#x449;" horiz-adv-x="848" 
d="M688 448v-360h96v-184h-96v96h-608v448h96v-360h160v360h96v-360h160v360h96z" />
    <glyph glyph-name="uni044A" unicode="&#x44a;" horiz-adv-x="560" 
d="M240 304h64q100 0 154 -38.5t54 -109.5q0 -76 -53.5 -116t-154.5 -40h-160v360h-96v88h192v-144zM240 88h80q96 0 96 64q0 30 -28.5 47t-67.5 17h-80v-128z" />
    <glyph glyph-name="uni044B" unicode="&#x44b;" horiz-adv-x="752" 
d="M240 0h-160v448h96v-144h64q100 0 154 -38.5t54 -109.5q0 -76 -53.5 -116t-154.5 -40zM672 0h-96v448h96v-448zM176 88h80q96 0 96 64q0 30 -28.5 47t-67.5 17h-80v-128z" />
    <glyph glyph-name="uni044C" unicode="&#x44c;" horiz-adv-x="496" 
d="M240 0h-160v448h96v-144h64q100 0 154 -38.5t54 -109.5q0 -76 -53.5 -116t-154.5 -40zM176 88h80q96 0 96 64q0 30 -28.5 47t-67.5 17h-80v-128z" />
    <glyph glyph-name="uni044D" unicode="&#x44d;" horiz-adv-x="480" 
d="M200 80q47 0 84 32t48 80h-156v64h156q-11 48 -48 80t-84 32q-63 0 -100 -40l-52 72q65 56 152 56q96 0 164 -68t68 -164t-68 -164t-164 -68q-87 0 -152 56l52 72q37 -40 100 -40z" />
    <glyph glyph-name="uni044E" unicode="&#x44e;" horiz-adv-x="800" 
d="M520 456q96 0 164 -68t68 -164t-68 -164t-164 -68q-86 0 -150 55q-66 57 -79 137h-115v-184h-96v448h96v-184h115q13 80 79 137q64 55 150 55zM425 123q40 -43 95 -43q56 0 96 43q40 41 40 101q0 59 -40 102q-40 42 -96 42q-54 0 -95 -42q-41 -44 -41 -102t41 -101z" />
    <glyph glyph-name="uni044F" unicode="&#x44f;" horiz-adv-x="512" 
d="M280 448h152v-448h-96v121h-32l-115 -121h-125l127 125q-45 6 -85 48q-42 41 -42 103q0 83 56.5 127.5t159.5 44.5zM336 360h-69q-48 0 -77.5 -19.5t-29.5 -59.5q0 -78 111 -78h65v157z" />
    <glyph glyph-name="uni0451" unicode="&#x451;" horiz-adv-x="512" 
d="M176 512q-23 0 -39.5 16.5t-16.5 39.5q0 24 16.5 40t39.5 16q24 0 40 -16t16 -40q0 -23 -16 -39.5t-40 -16.5zM352 512q-23 0 -39.5 16.5t-16.5 39.5q0 24 16.5 40t39.5 16q24 0 40 -16t16 -40q0 -23 -16 -39.5t-40 -16.5zM280 80q59 0 111 52l55 -70q-67 -70 -166 -70
q-96 0 -164 68t-68 164t68 164t164 68q75 0 128 -42.5t72 -115.5l-297 -172q14 -20 41.5 -33t55.5 -13zM280 368q-54 0 -95 -44t-41 -100q0 -2 2 -26l222 128q-32 42 -88 42z" />
    <glyph glyph-name="uni0452" unicode="&#x452;" 
d="M302 456q86 0 132 -57t46 -163v-238q0 -83 -24 -142q-18 -44 -57 -72q-26 -19 -66 -27q-5 -1 -29 -5l-24 88q51 10 77.5 43.5t26.5 100.5v252q0 67 -23.5 99.5t-76.5 32.5q-46 0 -77 -38.5t-31 -97.5v-232h-96v560h-48v48h48v128h96v-128h96v-48h-96v-168q14 26 48 45
t78 19z" />
    <glyph glyph-name="uni0453" unicode="&#x453;" horiz-adv-x="384" 
d="M208 512h-64l64 160h96zM336 360h-160v-360h-96v448h256v-88z" />
    <glyph glyph-name="uni0454" unicode="&#x454;" horiz-adv-x="480" 
d="M280 80q63 0 100 40l52 -72q-65 -56 -152 -56q-96 0 -164 68t-68 164t68 164t164 68q87 0 152 -56l-52 -72q-37 40 -100 40q-47 0 -84 -32t-48 -80h156v-64h-156q11 -48 48 -80t84 -32z" />
    <glyph glyph-name="uni0455" unicode="&#x455;" horiz-adv-x="432" 
d="M241 280q143 -33 143 -146q0 -63 -47 -102q-47 -40 -112 -40q-101 0 -177 76l48 70q58 -56 123 -58q31 -1 50 14t19 35q0 38 -62 55q-87 24 -120.5 55t-33.5 88q0 54 41.5 91.5t110.5 37.5q71 0 129 -46l-45 -70q-37 28 -84 28q-26 0 -41 -11t-15 -27q0 -19 15.5 -29.5
t57.5 -20.5z" />
    <glyph glyph-name="uni0456" unicode="&#x456;" horiz-adv-x="256" 
d="M179 549q-21 -21 -51 -21t-51 21t-21 51t21 51t51 21t51 -21t21 -51t-21 -51zM176 0h-96v448h96v-448z" />
    <glyph glyph-name="uni0457" unicode="&#x457;" horiz-adv-x="256" 
d="M40 512q-23 0 -39.5 16.5t-16.5 39.5q0 24 16.5 40t39.5 16q24 0 40 -16t16 -40q0 -23 -16 -39.5t-40 -16.5zM216 512q-23 0 -39.5 16.5t-16.5 39.5q0 24 16.5 40t39.5 16q24 0 40 -16t16 -40q0 -23 -16 -39.5t-40 -16.5zM176 0h-96v448h96v-448z" />
    <glyph glyph-name="uni0458" unicode="&#x458;" horiz-adv-x="256" 
d="M179 549q-21 -21 -51 -21t-51 21t-21 51t21 51t51 21t51 -21t21 -51t-21 -51zM176 -224l-96 -32v704h96v-672z" />
    <glyph glyph-name="uni0459" unicode="&#x459;" horiz-adv-x="816" 
d="M512 280h64q192 0 192 -140t-192 -140h-160v360h-150l-28 -203q-22 -165 -139 -165q-43 0 -83 24l30 74q80 -41 96 65l42 293h328v-168zM512 88h78q35 0 58.5 13t23.5 39q0 52 -82 52h-78v-104z" />
    <glyph glyph-name="uni045A" unicode="&#x45a;" horiz-adv-x="784" 
d="M480 280h64q192 0 192 -140t-192 -140h-160v192h-208v-192h-96v448h96v-168h208v168h96v-168zM480 88h78q35 0 58.5 13t23.5 39q0 52 -82 52h-78v-104z" />
    <glyph glyph-name="uni045B" unicode="&#x45b;" 
d="M302 456q86 0 132 -57t46 -163v-236h-96v236q0 67 -23.5 99.5t-76.5 32.5q-46 0 -77 -38.5t-31 -97.5v-232h-96v560h-48v48h48v128h96v-128h96v-48h-96v-168q14 26 48 45t78 19z" />
    <glyph glyph-name="uni045C" unicode="&#x45c;" horiz-adv-x="496" 
d="M248 672h96l-96 -160h-64zM273 251l207 -251h-120l-149 187l-35 -36v-151h-96v448h96v-180l168 180h120z" />
    <glyph glyph-name="uni045E" unicode="&#x45e;" horiz-adv-x="480" 
d="M312 640h56q0 -53 -37 -90q-38 -38 -91 -38q-52 0 -90 38t-38 90h56q0 -30 21 -51t51 -21t51 21t21 51zM241 145l119 303h104l-279 -688h-102l109 266l-176 422h104z" />
    <glyph glyph-name="uni045F" unicode="&#x45f;" horiz-adv-x="560" 
d="M384 88v360h96v-448h-152v-96h-96v96h-152v448h96v-360h208z" />
    <glyph glyph-name="uni0462" unicode="&#x462;" horiz-adv-x="560" 
d="M208 456h48q121 0 188.5 -60.5t67.5 -161.5q0 -98 -65 -166q-66 -68 -177 -68h-158v576h-80v64h80v96h96v-96h128v-64h-128v-120zM208 88h71q55 0 96 41t41 105q0 68 -44 101t-99 33h-65v-280z" />
    <glyph glyph-name="uni0463" unicode="&#x463;" horiz-adv-x="496" 
d="M176 304h64q100 0 154 -38.5t54 -109.5q0 -76 -53.5 -116t-154.5 -40h-160v368h-48v48h48v64h96v-64h96v-48h-96v-64zM176 88h80q96 0 96 64q0 30 -28.5 47t-67.5 17h-80v-128z" />
    <glyph glyph-name="uni0472" unicode="&#x472;" horiz-adv-x="816" 
d="M154 607q105 105 254 105q148 0 255 -105q105 -107 105 -255q0 -149 -105 -254q-106 -106 -255 -106t-254 106q-106 105 -106 254t106 255zM408 624q-102 0 -176 -69q-76 -70 -86 -172q48 39 115 42.5t145 -31.5q190 -85 257 29q-22 88 -93 145q-71 56 -162 56zM408 80
q102 0 178 71q74 70 85 174q-98 -87 -260 -14q-55 25 -100 32.5t-75.5 -1.5t-50 -24t-32.5 -37q22 -88 94 -144q71 -57 161 -57z" />
    <glyph glyph-name="uni0473" unicode="&#x473;" horiz-adv-x="560" 
d="M116 388q68 68 164 68t164 -68t68 -164t-68 -164t-164 -68t-164 68t-68 164t68 164zM280 368q-47 0 -84 -31t-48 -80q57 31 126 2q100 -48 135 9q-14 46 -49.5 73t-79.5 27zM280 80q47 0 83.5 30.5t48.5 79.5q-56 -30 -126 0q-102 45 -135 -10q14 -46 49.5 -73t79.5 -27z
" />
    <glyph glyph-name="uni0474" unicode="&#x474;" horiz-adv-x="720" 
d="M590 701q23 14 64 11q40 -4 66 -24l-32 -72q-37 14 -56.5 0.5t-43.5 -65.5l-252 -567l-320 720h104l216 -496l147 337q30 69 54 104t53 52z" />
    <glyph glyph-name="uni0475" unicode="&#x475;" horiz-adv-x="528" 
d="M382 445q23 14 64 11q40 -4 66 -24l-30 -72q-37 15 -59 0.5t-46 -65.5l-145 -311l-216 464h104l112 -248l40 89q56 124 110 156z" />
    <glyph glyph-name="uni0490" unicode="&#x490;" horiz-adv-x="448" 
d="M320 704v80h80v-168h-224v-616h-96v704h240z" />
    <glyph glyph-name="uni0491" unicode="&#x491;" horiz-adv-x="384" 
d="M256 448v80h80v-168h-160v-360h-96v448h176z" />
    <glyph glyph-name="uni0492" unicode="&#x492;" horiz-adv-x="464" 
d="M416 704v-88h-224v-264h64v-48h-64v-304h-96v304h-64v48h64v352h320z" />
    <glyph glyph-name="uni0493" unicode="&#x493;" horiz-adv-x="384" 
d="M336 448v-88h-160v-136h96v-48h-96v-176h-96v176h-48v48h48v224h256z" />
    <glyph glyph-name="uni0496" unicode="&#x496;" horiz-adv-x="864" 
d="M596 384l182 -296h54v-168h-80v80h-40l-177 297l-55 -81v-216h-96v216l-55 81l-177 -297h-120l236 384l-220 320h112l224 -332v332h96v-332l224 332h112z" />
    <glyph glyph-name="uni0497" unicode="&#x497;" horiz-adv-x="736" 
d="M510 254l127 -166h67v-168h-80v80h-40l-136 186l-32 -35v-151h-96v151l-32 35l-136 -186h-120l194 254l-178 194h120l152 -180v180h96v-180l152 180h120z" />
    <glyph glyph-name="uni049A" unicode="&#x49a;" horiz-adv-x="560" 
d="M289 389l173 -301h50v-168h-80v80h-40l-163 297l-53 -81v-216h-96v704h96v-332l208 332h112z" />
    <glyph glyph-name="uni049B" unicode="&#x49b;" horiz-adv-x="496" 
d="M273 251l135 -163h72v-168h-80v80h-40l-149 187l-35 -36v-151h-96v448h96v-180l168 180h120z" />
    <glyph glyph-name="uni04A2" unicode="&#x4a2;" horiz-adv-x="592" 
d="M496 704v-616h80v-168h-80v80h-96v276h-224v-276h-96v704h96v-340h224v340h96z" />
    <glyph glyph-name="uni04A3" unicode="&#x4a3;" horiz-adv-x="576" 
d="M480 448v-360h80v-168h-80v80h-96v176h-208v-176h-96v448h96v-176h208v176h96z" />
    <glyph glyph-name="uni04AE" unicode="&#x4ae;" horiz-adv-x="608" 
d="M304 381l180 323h108l-240 -419v-285h-96v285l-240 419h108z" />
    <glyph glyph-name="uni04AF" unicode="&#x4af;" horiz-adv-x="512" 
d="M392 448h104l-192 -393v-295h-96v295l-192 393h104l136 -280z" />
    <glyph glyph-name="uni04B0" unicode="&#x4b0;" horiz-adv-x="608" 
d="M592 704l-240 -419v-61h64v-48h-64v-176h-96v176h-64v48h64v61l-240 419h108l180 -323l180 323h108z" />
    <glyph glyph-name="uni04B1" unicode="&#x4b1;" horiz-adv-x="512" 
d="M496 448l-192 -393v-103h64v-48h-64v-144h-96v144h-64v48h64v103l-192 393h104l136 -280l136 280h104z" />
    <glyph glyph-name="uni04B2" unicode="&#x4b2;" horiz-adv-x="592" 
d="M352 366l158 -278h50v-168h-80v80h-28l-156 280l-156 -280h-108l208 366l-192 338h107l141 -254l141 254h107z" />
    <glyph glyph-name="uni04B3" unicode="&#x4b3;" horiz-adv-x="496" 
d="M304 236l100 -148h60v-168h-80v80h-32l-104 161l-104 -161h-112l160 236l-144 212h112l88 -138l88 138h112z" />
    <glyph glyph-name="uni04B6" unicode="&#x4b6;" horiz-adv-x="592" 
d="M496 704v-616h80v-168h-80v80h-96v280q-73 -32 -144 -32q-88 0 -140 60.5t-52 179.5v216h96v-214q0 -82 26.5 -118t93.5 -36q62 0 120 30v338h96z" />
    <glyph glyph-name="uni04B7" unicode="&#x4b7;" 
d="M448 448v-360h80v-168h-80v80h-96v176q-56 -32 -114 -32q-74 0 -124 45q-50 44 -50 147v112h96v-110q0 -54 20 -78t66 -28q50 -5 106 27v189h96z" />
    <glyph glyph-name="uni04BA" unicode="&#x4ba;" horiz-adv-x="576" 
d="M320 456q88 0 140 -60.5t52 -179.5v-216h-96v214q0 82 -26.5 118t-93.5 36q-62 0 -120 -30v-338h-96v704h96v-280q73 32 144 32z" />
    <glyph glyph-name="uni04BB" unicode="&#x4bb;" 
d="M302 456q86 0 132 -57t46 -163v-236h-96v236q0 67 -23.5 99.5t-76.5 32.5q-46 0 -77 -38.5t-31 -97.5v-232h-96v736h96v-344q14 26 48 45t78 19z" />
    <glyph glyph-name="uni04C0" unicode="&#x4c0;" horiz-adv-x="256" 
d="M176 704v-704h-96v704h96z" />
    <glyph glyph-name="uni04CF" unicode="&#x4cf;" horiz-adv-x="256" 
d="M176 0h-96v448h96v-448z" />
    <glyph glyph-name="uni04D8" unicode="&#x4d8;" horiz-adv-x="816" 
d="M408 712q148 0 255 -105q105 -107 105 -255q0 -149 -105 -254q-106 -106 -255 -106t-254 106q-106 105 -106 254q0 20 3 44h617q-17 98 -89 158q-74 62 -171 62q-85 0 -153 -56l-55 80q90 72 208 72zM237 150q74 -62 171 -62t171 62q73 61 90 158h-522q17 -97 90 -158z
" />
    <glyph glyph-name="uni04D9" unicode="&#x4d9;" horiz-adv-x="560" 
d="M280 456q96 0 164 -68t68 -164t-68 -164t-164 -68t-164 68t-68 164q0 6 2 32h362q-11 48 -48 80t-84 32q-55 0 -94 -41l-59 71q65 58 153 58zM196 112q39 -32 84 -32t84 32t48 80h-264q11 -49 48 -80z" />
    <glyph glyph-name="uni04E2" unicode="&#x4e2;" horiz-adv-x="640" 
d="M432 848v-64h-224v64h224zM160 0h-80v704h96v-506l304 506h80v-704h-96v506z" />
    <glyph glyph-name="uni04E3" unicode="&#x4e3;" 
d="M384 592v-64h-224v64h224zM80 448h96v-282l208 282h80v-448h-96v282l-208 -282h-80v448z" />
    <glyph glyph-name="uni04E8" unicode="&#x4e8;" horiz-adv-x="816" 
d="M154 607q105 105 254 105q148 0 255 -105q105 -107 105 -255q0 -149 -105 -254q-106 -106 -255 -106t-254 106q-106 105 -106 254t106 255zM580 560q-73 64 -172 64t-172 -64t-88 -164h520q-15 100 -88 164zM236 145q74 -65 172 -65t172 65q73 64 88 163h-520
q15 -99 88 -163z" />
    <glyph glyph-name="uni04E9" unicode="&#x4e9;" horiz-adv-x="560" 
d="M116 388q68 68 164 68t164 -68t68 -164t-68 -164t-164 -68t-164 68t-68 164t68 164zM364 336q-39 32 -84 32t-84 -32t-48 -80h264q-11 49 -48 80zM196 112q39 -32 84 -32t84 32t48 80h-264q11 -49 48 -80z" />
    <glyph glyph-name="uni04EE" unicode="&#x4ee;" horiz-adv-x="576" 
d="M408 848v-64h-224v64h224zM300 386l156 318h104l-348 -704h-104l140 282l-216 422h104z" />
    <glyph glyph-name="uni04EF" unicode="&#x4ef;" horiz-adv-x="480" 
d="M352 592v-64h-224v64h224zM241 145l119 303h104l-279 -688h-102l109 266l-176 422h104z" />
    <glyph glyph-name="Wgrave" unicode="&#x1e80;" horiz-adv-x="928" 
d="M432 928l64 -160h-64l-96 160h96zM808 704h104l-312 -720l-135 328l-137 -328l-312 720h104l208 -486l88 214l-110 272h102l192 -486z" />
    <glyph glyph-name="wgrave" unicode="&#x1e81;" horiz-adv-x="688" 
d="M328 672l64 -160h-64l-96 160h96zM568 448h104l-232 -464l-93 204l-99 -204l-232 464h104l128 -268l53 108l-73 160h96l116 -268z" />
    <glyph glyph-name="Wacute" unicode="&#x1e82;" horiz-adv-x="928" 
d="M496 768h-64l64 160h96zM808 704h104l-312 -720l-135 328l-137 -328l-312 720h104l208 -486l88 214l-110 272h102l192 -486z" />
    <glyph glyph-name="wacute" unicode="&#x1e83;" horiz-adv-x="688" 
d="M360 512h-64l64 160h96zM568 448h104l-232 -464l-93 204l-99 -204l-232 464h104l128 -268l53 108l-73 160h96l116 -268z" />
    <glyph glyph-name="Wdieresis" unicode="&#x1e84;" horiz-adv-x="928" 
d="M376 768q-23 0 -39.5 16.5t-16.5 39.5q0 24 16.5 40t39.5 16q24 0 40 -16t16 -40q0 -23 -16 -39.5t-40 -16.5zM552 768q-23 0 -39.5 16.5t-16.5 39.5q0 24 16.5 40t39.5 16q24 0 40 -16t16 -40q0 -23 -16 -39.5t-40 -16.5zM808 704h104l-312 -720l-135 328l-137 -328
l-312 720h104l208 -486l88 214l-110 272h102l192 -486z" />
    <glyph glyph-name="wdieresis" unicode="&#x1e85;" horiz-adv-x="688" 
d="M256 512q-23 0 -39.5 16.5t-16.5 39.5q0 24 16.5 40t39.5 16q24 0 40 -16t16 -40q0 -23 -16 -39.5t-40 -16.5zM432 512q-23 0 -39.5 16.5t-16.5 39.5q0 24 16.5 40t39.5 16q24 0 40 -16t16 -40q0 -23 -16 -39.5t-40 -16.5zM568 448h104l-232 -464l-93 204l-99 -204
l-232 464h104l128 -268l53 108l-73 160h96l116 -268z" />
    <glyph glyph-name="Ygrave" unicode="&#x1ef2;" horiz-adv-x="608" 
d="M280 928l64 -160h-64l-96 160h96zM304 381l180 323h108l-240 -419v-285h-96v285l-240 419h108z" />
    <glyph glyph-name="ygrave" unicode="&#x1ef3;" horiz-adv-x="480" 
d="M226 672l64 -160h-64l-96 160h96zM241 145l119 303h104l-279 -688h-102l109 266l-176 422h104z" />
    <glyph glyph-name="endash" unicode="&#x2013;" horiz-adv-x="528" 
d="M464 296v-80h-400v80h400z" />
    <glyph glyph-name="emdash" unicode="&#x2014;" horiz-adv-x="624" 
d="M560 296v-80h-496v80h496z" />
    <glyph glyph-name="quoteleft" unicode="&#x2018;" horiz-adv-x="256" 
d="M104 704h72v-192h-112z" />
    <glyph glyph-name="quoteright" unicode="&#x2019;" horiz-adv-x="256" 
d="M152 512h-72v192h112z" />
    <glyph glyph-name="quotesinglbase" unicode="&#x201a;" horiz-adv-x="256" 
d="M152 -80h-72v192h112z" />
    <glyph glyph-name="quotedblleft" unicode="&#x201c;" horiz-adv-x="464" 
d="M104 704h72v-192h-112zM312 704h72v-192h-112z" />
    <glyph glyph-name="quotedblright" unicode="&#x201d;" horiz-adv-x="464" 
d="M152 512h-72v192h112zM360 512h-72v192h112z" />
    <glyph glyph-name="quotedblbase" unicode="&#x201e;" horiz-adv-x="464" 
d="M152 -80h-72v192h112zM360 -80h-72v192h112z" />
    <glyph glyph-name="dagger" unicode="&#x2020;" horiz-adv-x="608" 
d="M352 736v-244h192v-88h-192v-644h-96v644h-192v88h192v244h96z" />
    <glyph glyph-name="daggerdbl" unicode="&#x2021;" horiz-adv-x="608" 
d="M544 492v-88h-192v-136h192v-88h-192v-420h-96v420h-192v88h192v136h-192v88h192v244h96v-244h192z" />
    <glyph glyph-name="bullet" unicode="&#x2022;" horiz-adv-x="800" 
d="M332 404q28 28 68 28t68 -28t28 -68t-28 -68t-68 -28t-68 28t-28 68t28 68z" />
    <glyph glyph-name="ellipsis" unicode="&#x2026;" horiz-adv-x="816" 
d="M136 -8q-30 0 -51 21t-21 51q0 31 21 51.5t51 20.5q31 0 51.5 -20.5t20.5 -51.5q0 -30 -20.5 -51t-51.5 -21zM408 -8q-30 0 -51 21t-21 51q0 31 21 51.5t51 20.5q31 0 51.5 -20.5t20.5 -51.5q0 -30 -20.5 -51t-51.5 -21zM680 -8q-30 0 -51 21t-21 51q0 31 21 51.5
t51 20.5q31 0 51.5 -20.5t20.5 -51.5q0 -30 -20.5 -51t-51.5 -21z" />
    <glyph glyph-name="perthousand" unicode="&#x2030;" horiz-adv-x="1168" 
d="M209 424q-61 0 -103 42q-42 40 -42 102q0 60 42 102t103 42q60 0 102 -42q41 -43 41 -102q0 -61 -41 -102q-42 -42 -102 -42zM664 704l-448 -704h-80l448 704h80zM163 523q19 -19 45 -19t45 19t19 45t-19 45t-45 19t-45 -19t-19 -45t19 -45zM593 -8q-61 0 -103 42
q-42 40 -42 102q0 60 42 102t103 42q60 0 102 -42q41 -43 41 -102q0 -61 -41 -102q-42 -42 -102 -42zM961 -8q-61 0 -103 42q-42 40 -42 102q0 60 42 102t103 42q60 0 102 -42q41 -43 41 -102q0 -61 -41 -102q-42 -42 -102 -42zM547 91q19 -19 45 -19t45 19t19 45t-19 45
t-45 19t-45 -19t-19 -45t19 -45zM915 91q19 -19 45 -19t45 19t19 45t-19 45t-45 19t-45 -19t-19 -45t19 -45z" />
    <glyph glyph-name="guilsinglleft" unicode="&#x2039;" horiz-adv-x="336" 
d="M176 448l64 -40l-88 -144l88 -144l-64 -40l-112 184z" />
    <glyph glyph-name="guilsinglright" unicode="&#x203a;" horiz-adv-x="336" 
d="M184 264l-88 144l64 40l112 -184l-112 -184l-64 40z" />
    <glyph glyph-name="fraction" unicode="&#x2044;" horiz-adv-x="128" 
d="M328 704l-448 -704h-80l448 704h80z" />
    <glyph glyph-name="uni2070" unicode="&#x2070;" horiz-adv-x="395" 
d="M92 753q44 47 106 47t106 -47q43 -46 43 -117t-43 -117q-44 -47 -106 -47t-106 47t-44 117t44 117zM148 570q20 -26 50 -26t50 26t20 66t-20 66t-50 26t-50 -26t-20 -66t20 -66z" />
    <glyph glyph-name="uni2074" unicode="&#x2074;" horiz-adv-x="337" 
d="M175 533h-143l94 259h78l-67 -187h38v52h79v-52h35v-72h-35v-53h-79v53z" />
    <glyph glyph-name="uni2075" unicode="&#x2075;" horiz-adv-x="332" 
d="M146 720l-5 -33q49 17 96 -9t47 -95q0 -46 -34 -78.5t-84 -32.5q-49 0 -82 28t-36 64l72 15q8 -35 42 -35q18 0 30.5 12.5t12.5 29.5q0 27 -25 36.5t-51 -7.5l-70 17l25 160h164v-72h-102z" />
    <glyph glyph-name="uni2076" unicode="&#x2076;" horiz-adv-x="339" 
d="M246 792l-66 -92q47 -1 79 -34.5t32 -79.5q0 -49 -34.5 -81.5t-87.5 -32.5q-54 0 -87.5 32.5t-33.5 81.5q0 32 19 66q19 33 94 140h85zM139 556q17 -20 46.5 -8.5t26.5 38.5q0 18 -12 30t-31 12q-28 0 -39 -26t9 -46z" />
    <glyph glyph-name="uni2077" unicode="&#x2077;" horiz-adv-x="292" 
d="M48 720v72h228l-121 -312h-82l95 240h-120z" />
    <glyph glyph-name="uni2078" unicode="&#x2078;" horiz-adv-x="332" 
d="M248 644q36 -28 36 -72q0 -42 -34 -71t-84 -29q-51 0 -84.5 29t-33.5 71q0 46 36 74q-25 25 -25 61q0 40 30 66.5t77 26.5q45 0 76 -27t31 -66q0 -37 -25 -63zM146 720q-5 -5 -7 -10.5t-1.5 -10.5t3 -10t6 -8.5t8.5 -6t10 -3t10.5 1.5t10.5 7q12 12 7 27.5t-19 19.5
t-28 -7zM139 555q18 -16 42 -7.5t24 31.5q1 22 -19 31.5t-40 0t-19 -31.5q0 -13 12 -24z" />
    <glyph glyph-name="uni2079" unicode="&#x2079;" horiz-adv-x="339" 
d="M93 480l66 92q-47 1 -79 34.5t-32 79.5q0 49 34.5 81.5t87.5 32.5q54 0 87.5 -32.5t33.5 -81.5q0 -32 -19 -66q-19 -33 -94 -140h-85zM201 716q-18 20 -47.5 8.5t-26.5 -38.5q0 -18 12 -30t31 -12q28 0 39 26t-8 46z" />
    <glyph glyph-name="Euro" unicode="&#x20ac;" horiz-adv-x="672" 
d="M409 80q96 0 163 56l52 -72q-41 -33 -99.5 -52.5t-116.5 -19.5q-149 0 -254 106q-106 105 -106 254t106 255q105 105 254 105q58 0 116.5 -19.5t99.5 -52.5l-52 -72q-67 56 -163 56q-90 0 -161 -56q-71 -58 -95 -144h303l-13 -48h-298q-2 -24 0 -48h286l-13 -48h-265
q24 -87 95 -143q70 -57 161 -57z" />
    <glyph glyph-name="trademark" unicode="&#x2122;" horiz-adv-x="848" 
d="M592 490l192 222v-424h-80v216l-112 -127l-112 127v-216h-80v424zM64 632v72h272v-72h-96v-344h-80v344h-96z" />
    <glyph glyph-name="oneeighth" unicode="&#x215b;" horiz-adv-x="748" 
d="M192 392h-79v221l-49 -17v72l128 44v-320zM88 0l448 704h80l-448 -704h-80zM664 164q36 -28 36 -72q0 -42 -34 -71t-84 -29q-51 0 -84.5 29t-33.5 71q0 46 36 74q-25 25 -25 61q0 40 30 66.5t77 26.5q45 0 76 -27t31 -66q0 -37 -25 -63zM562 240q-4 -4 -6 -9t-2 -9.5
t1 -9t4 -8.5t7 -7t8.5 -4t9 -1t9.5 2t9 6q5 5 7 11.5t1 12.5t-4.5 11t-8.5 8.5t-11 4.5t-12.5 -1t-11.5 -7zM555 75q18 -16 42 -7.5t24 31.5q1 22 -19 31.5t-40 0t-19 -31.5q0 -13 12 -24z" />
    <glyph glyph-name="threeeighths" unicode="&#x215c;" horiz-adv-x="792" 
d="M284 494q0 -48 -33.5 -79t-87.5 -31q-47 0 -80 28t-35 64l72 15q2 -15 14 -25t29 -10q18 0 30 11t12 28q0 28 -24 37q-25 9 -44 -6l-39 50l45 56h-77v72h210l-83 -113q41 -2 66 -27.5t25 -69.5zM132 0l448 704h80l-448 -704h-80zM708 164q36 -28 36 -72q0 -42 -34 -71
t-84 -29q-51 0 -84.5 29t-33.5 71q0 46 36 74q-25 25 -25 61q0 40 30 66.5t77 26.5q45 0 76 -27t31 -66q0 -37 -25 -63zM606 240q-4 -4 -6 -9t-2 -9.5t1 -9t4 -8.5t7 -7t8.5 -4t9 -1t9.5 2t9 6q20 20 0 40t-40 0zM599 75q18 -16 42 -7.5t24 31.5q1 22 -19 31.5t-40 0
t-19 -31.5q0 -13 12 -24z" />
    <glyph glyph-name="fiveeighths" unicode="&#x215d;" horiz-adv-x="792" 
d="M284 495q0 -46 -34 -78.5t-84 -32.5q-49 0 -82 28t-36 64l72 15q8 -35 42 -35q18 0 30.5 12.5t12.5 29.5q0 27 -25 36.5t-51 -7.5l-70 17l25 160h164v-72h-102l-5 -33q49 17 96 -9t47 -95zM132 0l448 704h80l-448 -704h-80zM708 164q36 -28 36 -72q0 -42 -34 -71t-84 -29
q-51 0 -84.5 29t-33.5 71q0 46 36 74q-25 25 -25 61q0 40 30 66.5t77 26.5q45 0 76 -27t31 -66q0 -37 -25 -63zM606 240q-4 -4 -6 -9t-2 -9.5t1 -9t4 -8.5t7 -7t8.5 -4t9 -1t9.5 2t9 6q20 20 0 40t-40 0zM599 75q18 -16 42 -7.5t24 31.5q1 22 -19 31.5t-40 0t-19 -31.5
q0 -13 12 -24z" />
    <glyph glyph-name="seveneighths" unicode="&#x215e;" horiz-adv-x="752" 
d="M276 704l-121 -312h-82l95 240h-120v72h228zM92 0l448 704h80l-448 -704h-80zM668 164q36 -28 36 -72q0 -42 -34 -71t-84 -29q-51 0 -84.5 29t-33.5 71q0 46 36 74q-25 25 -25 61q0 40 30 66.5t77 26.5q45 0 76 -27t31 -66q0 -37 -25 -63zM566 240q-12 -12 -7 -27.5
t19 -19.5t28 7q6 6 7.5 13.5t-0.5 14t-7.5 12t-12 7.5t-14 0.5t-13.5 -7.5zM559 75q18 -16 42 -7.5t24 31.5q1 22 -19 31.5t-40 0t-19 -31.5q0 -13 12 -24z" />
    <glyph glyph-name="arrowleft" unicode="&#x2190;" horiz-adv-x="992" 
d="M280 63l-232 233l232 233l55 -55l-140 -138h733v-80h-733l140 -138z" />
    <glyph glyph-name="arrowup" unicode="&#x2191;" horiz-adv-x="560" 
d="M48 584l232 232l232 -232l-56 -56l-136 141v-733h-80v733l-136 -141z" />
    <glyph glyph-name="arrowright" unicode="&#x2192;" horiz-adv-x="992" 
d="M712 529l232 -233l-232 -233l-55 55l140 138h-733v80h733l-140 138z" />
    <glyph glyph-name="arrowdown" unicode="&#x2193;" horiz-adv-x="560" 
d="M512 120l-232 -232l-232 232l56 56l136 -141v733h80v-733l136 141z" />
    <glyph glyph-name="arrowboth" unicode="&#x2194;" horiz-adv-x="1024" 
d="M689 474l55 55l232 -233l-232 -233l-55 55l138 138h-632l140 -138l-55 -55l-232 233l232 233l55 -55l-140 -138h632z" />
    <glyph glyph-name="arrowupdn" unicode="&#x2195;" horiz-adv-x="560" 
d="M320 669v-634l136 141l56 -56l-232 -232l-232 232l56 56l136 -141v634l-136 -141l-56 56l232 232l232 -232l-56 -56z" />
    <glyph glyph-name="uni2196" unicode="&#x2196;" horiz-adv-x="785" 
d="M64 376v328h328v-79l-196 3l541 -540l-56 -56l-541 540l3 -196h-79z" />
    <glyph glyph-name="uni2197" unicode="&#x2197;" horiz-adv-x="785" 
d="M393 704h328v-328h-79l3 196l-541 -540l-56 56l541 540l-196 -3v79z" />
    <glyph glyph-name="uni2198" unicode="&#x2198;" horiz-adv-x="785" 
d="M721 328v-328h-328v79l196 -3l-541 540l56 56l541 -540l-3 196h79z" />
    <glyph glyph-name="uni2199" unicode="&#x2199;" horiz-adv-x="785" 
d="M392 0h-328v328h79l-3 -196l541 540l56 -56l-541 -540l196 3v-79z" />
    <glyph glyph-name="partialdiff" unicode="&#x2202;" horiz-adv-x="592" 
d="M108 712l36 88q172 -81 278 -237q106 -157 106 -339q0 -96 -68 -164t-164 -68t-164 68t-68 164t68 164t164 68q56 0 96 -29q-34 97 -120 177q-85 78 -164 108zM201 123q40 -43 95 -43q56 0 96 43q40 41 40 101q0 59 -40 102q-40 42 -96 42q-54 0 -95 -42
q-41 -44 -41 -102t41 -101z" />
    <glyph glyph-name="emptyset" unicode="&#x2205;" horiz-adv-x="664" 
 />
    <glyph glyph-name="product" unicode="&#x220f;" horiz-adv-x="608" 
d="M80 704h448v-944h-96v856h-256v-856h-96v944z" />
    <glyph glyph-name="summation" unicode="&#x2211;" horiz-adv-x="662" 
d="M582 616h-338l226 -384l-226 -384h338v-88h-502l278 472l-278 472h502v-88z" />
    <glyph glyph-name="minus" unicode="&#x2212;" horiz-adv-x="480" 
d="M64 304v80h352v-80h-352z" />
    <glyph glyph-name="radical" unicode="&#x221a;" horiz-adv-x="880" 
d="M492 704h340v-88h-277l-291 -632l-216 464h104l112 -248z" />
    <glyph glyph-name="infinity" unicode="&#x221e;" horiz-adv-x="752" 
d="M513 520q73 0 124 -51q51 -53 51 -125q0 -73 -51 -124q-51 -52 -124 -52q-83 0 -137 64q-52 -64 -135 -64q-74 0 -125 52q-52 51 -52 124t52 125q53 51 125 51q83 0 135 -64q54 64 137 64zM172 276q28 -28 68 -28t68 28t28 68t-28 68t-68 28t-68 -28t-28 -68t28 -68z
M444 276q28 -28 68 -28t68 28t28 68t-28 68t-68 28t-68 -28t-28 -68t28 -68z" />
    <glyph glyph-name="integral" unicode="&#x222b;" horiz-adv-x="352" 
d="M128 -81v581q0 114 35.5 163t124.5 49v-88q-29 0 -46.5 -21.5t-17.5 -57.5v-581q0 -114 -35.5 -163t-124.5 -49v88q29 0 46.5 21.5t17.5 57.5z" />
    <glyph glyph-name="approxequal" unicode="&#x2248;" horiz-adv-x="528" 
d="M411 472l53 -56q-44 -56 -115 -56q-43 0 -128 32q-63 23 -104 -32l-53 56q44 56 115 56q36 0 84 -19t85 -19q34 0 63 38zM411 312l53 -56q-44 -56 -115 -56q-43 0 -128 32q-63 23 -104 -32l-53 56q44 56 115 56q36 0 84 -19t85 -19q34 0 63 38z" />
    <glyph glyph-name="notequal" unicode="&#x2260;" horiz-adv-x="480" 
d="M416 464v-80h-126l-20 -80h146v-80h-167l-49 -192h-80l49 192h-105v80h126l20 80h-146v80h167l49 192h80l-49 -192h105z" />
    <glyph glyph-name="lessequal" unicode="&#x2264;" horiz-adv-x="496" 
d="M432 280v-88l-368 184v64l368 184v-88l-278 -128zM64 144h368v-80h-368v80z" />
    <glyph glyph-name="greaterequal" unicode="&#x2265;" horiz-adv-x="496" 
d="M432 376l-368 -184v88l278 128l-278 128v88l368 -184v-64zM64 64v80h368v-80h-368z" />
    <glyph glyph-name="lozenge" unicode="&#x25ca;" horiz-adv-x="672" 
d="M336 720l272 -368l-272 -368l-272 368zM336 114l176 238l-176 238l-174 -238z" />
    <glyph glyph-name="NULL" horiz-adv-x="0" 
 />
    <glyph glyph-name="Q.ss01" horiz-adv-x="816" 
d="M437 -7q60 -58 120 -74q72 -19 151 65l60 -64q-147 -125 -269 -74q-60 24 -116 79q-116 113 -215 27l-56 64q41 41 81 47q-68 51 -106.5 127t-38.5 162q0 149 106 255q105 105 254 105q148 0 255 -105q105 -107 105 -255q0 -140 -96 -244q-97 -105 -235 -115zM221 545
q-77 -80 -77 -193q0 -112 77 -192t187 -80t187 80t77 192q0 113 -77 193q-76 79 -187 79t-187 -79z" />
    <glyph glyph-name="a.ss01" horiz-adv-x="592" 
d="M416 392v56h96v-448h-96v56q-55 -64 -144 -64q-93 0 -158 68q-66 68 -66 164t66 164q65 68 158 68q89 0 144 -64zM184 122q39 -42 96 -42q56 0 97 42q39 42 39 102t-39 102q-41 42 -97 42q-57 0 -96 -42q-40 -41 -40 -102t40 -102z" />
    <glyph glyph-name="aacute.ss01" horiz-adv-x="592" 
d="M328 512h-64l64 160h96zM416 392v56h96v-448h-96v56q-55 -64 -144 -64q-93 0 -158 68q-66 68 -66 164t66 164q65 68 158 68q89 0 144 -64zM184 122q39 -42 96 -42q56 0 97 42q39 42 39 102t-39 102q-41 42 -97 42q-57 0 -96 -42q-40 -41 -40 -102t40 -102z" />
    <glyph glyph-name="abreve.ss01" horiz-adv-x="592" 
d="M376 640h56q0 -53 -37 -90q-38 -38 -91 -38q-52 0 -90 38t-38 90h56q0 -30 21 -51t51 -21t51 21t21 51zM416 392v56h96v-448h-96v56q-55 -64 -144 -64q-93 0 -158 68q-66 68 -66 164t66 164q65 68 158 68q89 0 144 -64zM184 122q39 -42 96 -42q56 0 97 42q39 42 39 102
t-39 102q-41 42 -97 42q-57 0 -96 -42q-40 -41 -40 -102t40 -102z" />
    <glyph glyph-name="acircumflex.ss01" horiz-adv-x="592" 
d="M432 512h-72l-56 80l-56 -80h-72l128 168zM416 392v56h96v-448h-96v56q-55 -64 -144 -64q-93 0 -158 68q-66 68 -66 164t66 164q65 68 158 68q89 0 144 -64zM184 122q39 -42 96 -42q56 0 97 42q39 42 39 102t-39 102q-41 42 -97 42q-57 0 -96 -42q-40 -41 -40 -102
t40 -102z" />
    <glyph glyph-name="adieresis.ss01" horiz-adv-x="592" 
d="M216 512q-23 0 -39.5 16.5t-16.5 39.5q0 24 16.5 40t39.5 16q24 0 40 -16t16 -40q0 -23 -16 -39.5t-40 -16.5zM392 512q-23 0 -39.5 16.5t-16.5 39.5q0 24 16.5 40t39.5 16q24 0 40 -16t16 -40q0 -23 -16 -39.5t-40 -16.5zM416 392v56h96v-448h-96v56q-55 -64 -144 -64
q-93 0 -158 68q-66 68 -66 164t66 164q65 68 158 68q89 0 144 -64zM184 122q39 -42 96 -42q56 0 97 42q39 42 39 102t-39 102q-41 42 -97 42q-57 0 -96 -42q-40 -41 -40 -102t40 -102z" />
    <glyph glyph-name="agrave.ss01" horiz-adv-x="592" 
d="M320 672l64 -160h-64l-96 160h96zM416 392v56h96v-448h-96v56q-55 -64 -144 -64q-93 0 -158 68q-66 68 -66 164t66 164q65 68 158 68q89 0 144 -64zM184 122q39 -42 96 -42q56 0 97 42q39 42 39 102t-39 102q-41 42 -97 42q-57 0 -96 -42q-40 -41 -40 -102t40 -102z" />
    <glyph glyph-name="amacron.ss01" horiz-adv-x="592" 
d="M416 592v-64h-224v64h224zM416 392v56h96v-448h-96v56q-55 -64 -144 -64q-93 0 -158 68q-66 68 -66 164t66 164q65 68 158 68q89 0 144 -64zM184 122q39 -42 96 -42q56 0 97 42q39 42 39 102t-39 102q-41 42 -97 42q-57 0 -96 -42q-40 -41 -40 -102t40 -102z" />
    <glyph glyph-name="aogonek.ss01" horiz-adv-x="592" 
d="M552 -126l24 -50q-12 -13 -37 -22.5t-45 -9.5q-53 0 -85.5 35t-32.5 89q0 55 40 92v48q-55 -64 -144 -64q-93 0 -158 68q-66 68 -66 164t66 164q65 68 158 68q89 0 144 -64v56h96v-448q-32 0 -56 -23.5t-24 -60.5q-2 -51 44.5 -65.5t75.5 23.5zM184 122q39 -42 96 -42
q56 0 97 42q39 42 39 102t-39 102q-41 42 -97 42q-57 0 -96 -42q-40 -41 -40 -102t40 -102z" />
    <glyph glyph-name="aring.ss01" horiz-adv-x="592" 
d="M241 671q33 33 79 33t79 -33t33 -79t-33 -79t-79 -33t-79 33t-33 79t33 79zM281 553q17 -17 40 -17t39 17t16 40t-16 39t-39 16t-40 -16t-17 -39t17 -40zM416 392v56h96v-448h-96v56q-55 -64 -144 -64q-93 0 -158 68q-66 68 -66 164t66 164q65 68 158 68q89 0 144 -64z
M184 122q39 -42 96 -42q56 0 97 42q39 42 39 102t-39 102q-41 42 -97 42q-57 0 -96 -42q-40 -41 -40 -102t40 -102z" />
    <glyph glyph-name="aringacute.ss01" horiz-adv-x="592" 
d="M336 736h-64l64 160h96zM241 671q33 33 79 33t79 -33t33 -79t-33 -79t-79 -33t-79 33t-33 79t33 79zM281 553q17 -17 40 -17t39 17t16 40t-16 39t-39 16t-40 -16t-17 -39t17 -40zM416 392v56h96v-448h-96v56q-55 -64 -144 -64q-93 0 -158 68q-66 68 -66 164t66 164
q65 68 158 68q89 0 144 -64zM184 122q39 -42 96 -42q56 0 97 42q39 42 39 102t-39 102q-41 42 -97 42q-57 0 -96 -42q-40 -41 -40 -102t40 -102z" />
    <glyph glyph-name="atilde.ss01" horiz-adv-x="592" 
d="M427 608l45 -40q-36 -56 -94 -56q-35 0 -68 14q-97 46 -129 -14l-45 40q36 56 94 56q39 0 68 -13q97 -48 129 13zM416 392v56h96v-448h-96v56q-55 -64 -144 -64q-93 0 -158 68q-66 68 -66 164t66 164q65 68 158 68q89 0 144 -64zM184 122q39 -42 96 -42q56 0 97 42
q39 42 39 102t-39 102q-41 42 -97 42q-57 0 -96 -42q-40 -41 -40 -102t40 -102z" />
    <glyph glyph-name="ae.ss01" horiz-adv-x="896" 
d="M664 80q59 0 111 52l55 -70q-67 -70 -166 -70q-88 0 -152 57v-49h-96v56q-55 -64 -144 -64q-93 0 -158 68q-66 68 -66 164t66 164q65 68 158 68q89 0 144 -64v56h96v-49q64 57 152 57q75 0 128 -42.5t72 -115.5l-297 -172q14 -20 41.5 -33t55.5 -13zM184 122
q39 -42 96 -42q56 0 97 42q39 42 39 102t-39 102q-41 42 -97 42q-57 0 -96 -42q-40 -41 -40 -102t40 -102zM528 224q0 -2 2 -26l222 128q-32 42 -88 42q-54 0 -95 -44t-41 -100z" />
    <glyph glyph-name="aeacute.ss01" horiz-adv-x="896" 
d="M480 672h96l-96 -160h-64zM664 80q59 0 111 52l55 -70q-67 -70 -166 -70q-88 0 -152 57v-49h-96v56q-55 -64 -144 -64q-93 0 -158 68q-66 68 -66 164t66 164q65 68 158 68q89 0 144 -64v56h96v-49q64 57 152 57q75 0 128 -42.5t72 -115.5l-297 -172q14 -20 41.5 -33
t55.5 -13zM184 122q39 -42 96 -42q56 0 97 42q39 42 39 102t-39 102q-41 42 -97 42q-57 0 -96 -42q-40 -41 -40 -102t40 -102zM528 224q0 -2 2 -26l222 128q-32 42 -88 42q-54 0 -95 -44t-41 -100z" />
    <glyph glyph-name="f_f.dlig" horiz-adv-x="768" 
d="M576 570v-122h144v-88h-144v-360h-96v360h-272v-360h-96v360h-64v88h64v122q0 84 38.5 129t105.5 45q50 0 96 -32l-44 -72q-20 16 -45 16q-55 0 -55 -86v-122h272v122q0 84 38.5 129t105.5 45q50 0 96 -32l-44 -72q-20 16 -45 16q-55 0 -55 -86z" />
    <glyph glyph-name="f_f_i.dlig" horiz-adv-x="960" 
d="M576 448h336v-448h-96v360h-240v-360h-96v360h-272v-360h-96v360h-64v88h64v122q0 84 38.5 129t105.5 45q50 0 96 -32l-44 -72q-20 16 -45 16q-55 0 -55 -86v-122h272v122q0 84 38.5 129t105.5 45q50 0 96 -32l-44 -72q-20 16 -45 16q-55 0 -55 -86v-122z" />
    <glyph glyph-name="f_f_j.dlig" horiz-adv-x="992" 
d="M576 448h336v-672l-96 -32v616h-240v-360h-96v360h-272v-360h-96v360h-64v88h64v122q0 84 38.5 129t105.5 45q50 0 96 -32l-44 -72q-20 16 -45 16q-55 0 -55 -86v-122h272v122q0 84 38.5 129t105.5 45q50 0 96 -32l-44 -72q-20 16 -45 16q-55 0 -55 -86v-122z" />
    <glyph glyph-name="uni041B.loclBGR" horiz-adv-x="672" 
d="M656 0h-104l-216 496l-216 -496h-104l320 720z" />
    <glyph glyph-name="uni0432.de-cy.loclBGR" 
d="M358 412q58 -15 98 -70t40 -128q0 -88 -59 -155q-58 -67 -165 -67q-94 0 -151 55.5t-57 152.5v320q0 155 106 206q31 15 70 18h20q81 0 137 -53q54 -53 54 -127q0 -52 -25.5 -91.5t-67.5 -60.5zM160 536v-332q0 -61 31 -92.5t79 -31.5q52 0 92 38q38 38 38 98
q0 73 -56.5 112.5t-151.5 39.5v80q160 0 160 112q0 43 -29 69.5t-65 26.5q-47 0 -72.5 -33.5t-25.5 -86.5z" />
    <glyph glyph-name="uni0433.de-cy.loclBGR" horiz-adv-x="432" 
d="M191 280q42 10 57.5 20.5t15.5 29.5q0 16 -15 27t-41 11q-47 0 -84 -28l-45 70q58 46 129 46q69 0 110.5 -37.5t41.5 -91.5q0 -57 -33.5 -88t-120.5 -55q-62 -17 -62 -55q0 -20 19 -35t50 -14q65 2 123 58l48 -70q-76 -76 -177 -76q-65 0 -111 40q-48 39 -48 102
q0 113 143 146z" />
    <glyph glyph-name="uni0434.de-cy.loclBGR" horiz-adv-x="592" 
d="M416 392v56h96v-422q0 -140 -69 -208q-69 -66 -179 -66q-45 0 -96 17q-48 16 -72 40l43 78q53 -47 125 -47q73 0 112.5 45t39.5 127v44q-55 -64 -144 -64q-93 0 -158 68q-66 68 -66 164t66 164q65 68 158 68q89 0 144 -64zM184 122q39 -42 96 -42q56 0 97 42
q39 42 39 102t-39 102q-41 42 -97 42q-57 0 -96 -42q-40 -41 -40 -102t40 -102z" />
    <glyph glyph-name="uni0436.de-cy.loclBGR" horiz-adv-x="736" 
d="M510 254l194 -254h-120l-136 186l-32 -35v-151h-96v151l-32 35l-136 -186h-120l194 254l-178 194h120l152 -180v468h96v-468l152 180h120z" />
    <glyph glyph-name="uni0437.de-cy.loclBGR" horiz-adv-x="496" 
d="M192 80v80q55 0 91.5 28.5t36.5 79.5q0 48 -28 74t-70 26q-13 0 -25 -2.5t-21 -5.5t-18 -8.5t-14 -9.5t-11.5 -12t-9 -11t-7.5 -10.5t-6 -8.5l-48 68q64 88 163 88q78 0 135 -48q56 -48 56 -140q0 -46 -25.5 -85t-67.5 -57q109 -42 109 -170q0 -88 -60 -146
q-59 -58 -147 -58q-111 0 -177 90l54 68q1 -2 5.5 -8t5.5 -7.5t4.5 -6.5t5 -6t5.5 -5t6.5 -6t7 -5t9.5 -6t11 -6q28 -14 62 -14q46 0 79 33t33 83q0 124 -144 124z" />
    <glyph glyph-name="uni0438.de-cy.loclBGR" 
d="M242 -8q-86 0 -132 57t-46 163v236h96v-244q0 -124 100 -124q46 0 77 40t31 104v224h96v-448h-96v56q-14 -26 -48 -45t-78 -19z" />
    <glyph glyph-name="uni0439.de-cy.loclBGR" 
d="M336 640h56q0 -53 -37 -90q-38 -38 -91 -38q-52 0 -90 38t-38 90h56q0 -30 21 -51t51 -21t51 21t21 51zM242 -8q-86 0 -132 57t-46 163v236h96v-244q0 -124 100 -124q46 0 77 40t31 104v224h96v-448h-96v56q-14 -26 -48 -45t-78 -19z" />
    <glyph glyph-name="uni043A.de-cy.loclBGR" horiz-adv-x="496" 
d="M273 251l207 -251h-120l-149 187l-35 -36v-151h-96v736h96v-468l168 180h120z" />
    <glyph glyph-name="uni043B.de-cy.loclBGR" horiz-adv-x="496" 
d="M200 448h96l184 -448h-104l-128 326l-128 -326h-104z" />
    <glyph glyph-name="uni043F.de-cy.loclBGR" 
d="M302 456q86 0 132 -57t46 -163v-236h-96v236q0 67 -23.5 99.5t-76.5 32.5q-46 0 -77 -38.5t-31 -97.5v-232h-96v448h96v-56q14 26 48 45t78 19z" />
    <glyph glyph-name="uni0442.de-cy.loclBGR" horiz-adv-x="816" 
d="M582 456q81 0 125.5 -57.5t44.5 -162.5v-236h-96v236q0 132 -92 132q-44 0 -72 -37.5t-28 -98.5v-232h-96v236q0 132 -92 132q-44 0 -72 -37.5t-28 -98.5v-232h-96v448h96v-56q16 22 28 33t35 21t55 10q95 0 138 -76q33 42 66.5 59t83.5 17z" />
    <glyph glyph-name="uni0448.de-cy.loclBGR" horiz-adv-x="816" 
d="M234 -8q-81 0 -125.5 57.5t-44.5 162.5v236h96v-236q0 -132 92 -132q44 0 72 37.5t28 98.5v232h96v-236q0 -132 92 -132q44 0 72 37.5t28 98.5v232h96v-448h-96v56q-15 -22 -27 -32.5t-35 -20.5q-23 -11 -56 -11q-95 0 -138 76q-33 -42 -66.5 -59t-83.5 -17z" />
    <glyph glyph-name="uni0449.de-cy.loclBGR" horiz-adv-x="896" 
d="M736 448v-360h96v-184h-96v96h-96v56q-15 -22 -27 -32.5t-35 -20.5q-23 -11 -56 -11q-95 0 -138 76q-33 -42 -66.5 -59t-83.5 -17q-81 0 -125.5 57.5t-44.5 162.5v236h96v-236q0 -132 92 -132q44 0 72 37.5t28 98.5v232h96v-236q0 -132 92 -132q44 0 72 37.5t28 98.5v232
h96z" />
    <glyph glyph-name="uni044C.de-cy.loclBGR" horiz-adv-x="496" 
d="M80 146v302h96v-156q122 31 198 -7q74 -39 74 -133q0 -79 -55 -119q-56 -41 -134 -41q-75 0 -127 40q-52 39 -52 114zM352 148q0 101 -176 60v-62q2 -37 30.5 -52.5t56.5 -13.5q42 0 65.5 19t23.5 49z" />
    <glyph glyph-name="uni044A.de-cy.loclBGR" horiz-adv-x="560" 
d="M240 448v-156q122 31 198 -7q74 -39 74 -133q0 -79 -55 -119q-56 -41 -134 -41q-75 0 -127 40q-52 39 -52 114v214h-96v88h192zM327 80q42 0 65.5 19t23.5 49q0 101 -176 60v-62q2 -37 30.5 -52.5t56.5 -13.5z" />
    <glyph glyph-name="uni044E.de-cy.loclBGR" horiz-adv-x="800" 
d="M520 456q96 0 164 -68t68 -164t-68 -164t-164 -68q-86 0 -150 55q-66 57 -79 137h-115v-184h-96v736h96v-472h115q13 80 79 137q64 55 150 55zM425 123q40 -43 95 -43q56 0 96 43q40 41 40 101q0 59 -40 102q-40 42 -96 42q-54 0 -95 -42q-41 -44 -41 -102t41 -101z" />
    <glyph glyph-name="uni0430.ss01" horiz-adv-x="592" 
d="M416 392v56h96v-448h-96v56q-55 -64 -144 -64q-93 0 -158 68q-66 68 -66 164t66 164q65 68 158 68q89 0 144 -64zM184 122q39 -42 96 -42q56 0 97 42q39 42 39 102t-39 102q-41 42 -97 42q-57 0 -96 -42q-40 -41 -40 -102t40 -102z" />
    <glyph glyph-name="zero.subs" horiz-adv-x="395" 
d="M92 65q44 47 106 47t106 -47q43 -46 43 -117t-43 -117q-44 -47 -106 -47t-106 47t-44 117t44 117zM148 -118q20 -26 50 -26t50 26q20 25 20 65.5t-20 66.5t-50 26t-50 -26q-20 -25 -20 -65.5t20 -66.5z" />
    <glyph glyph-name="one.subs" horiz-adv-x="288" 
d="M64 -4v72l128 44v-320h-79v221z" />
    <glyph glyph-name="two.subs" horiz-adv-x="331" 
d="M237 -94l-33 -42h79v-72h-231l91 108q36 44 48.5 65.5t12.5 39.5q0 14 -11.5 24.5t-26.5 10.5q-16 0 -27.5 -10.5t-11.5 -24.5q0 -17 9 -31l-68 -28q-20 26 -20 59q0 44 34 75.5t84 31.5q48 0 82.5 -31t34.5 -76q0 -41 -46 -99z" />
    <glyph glyph-name="three.subs" horiz-adv-x="332" 
d="M276 104l-83 -113q41 -2 66 -27.5t25 -69.5q0 -48 -33.5 -79t-87.5 -31q-47 0 -80 28t-35 64l72 15q2 -15 14 -25t29 -10q18 0 30 11t12 28q0 28 -24 37q-25 9 -44 -6l-39 50l45 56h-77v72h210z" />
    <glyph glyph-name="four.subs" horiz-adv-x="337" 
d="M175 -155h-143l94 259h78l-67 -187h38v52h79v-52h35v-72h-35v-53h-79v53z" />
    <glyph glyph-name="five.subs" horiz-adv-x="332" 
d="M146 32l-5 -33q49 17 96 -9t47 -95q0 -46 -34 -78.5t-84 -32.5q-49 0 -82 28t-36 64l72 15q8 -35 42 -35q18 0 30.5 12.5t12.5 29.5q0 27 -25 36.5t-51 -7.5l-70 17l25 160h164v-72h-102z" />
    <glyph glyph-name="six.subs" horiz-adv-x="339" 
d="M246 104l-66 -92q47 -1 79 -34.5t32 -79.5q0 -49 -34.5 -81.5t-87.5 -32.5q-54 0 -87.5 32.5t-33.5 81.5q0 32 19 66q19 33 94 140h85zM139 -132q17 -20 46.5 -8.5t26.5 38.5q0 18 -12 30t-31 12q-28 0 -39 -26t9 -46z" />
    <glyph glyph-name="seven.subs" horiz-adv-x="292" 
d="M48 32v72h228l-121 -312h-82l95 240h-120z" />
    <glyph glyph-name="eight.subs" horiz-adv-x="332" 
d="M248 -44q36 -28 36 -72q0 -42 -34 -71t-84 -29q-51 0 -84.5 29t-33.5 71q0 46 36 74q-25 25 -25 61q0 40 30 66.5t77 26.5q45 0 76 -27t31 -66q0 -37 -25 -63zM146 32q-4 -4 -6 -9t-2 -9.5t1 -9t4 -8.5t7 -7t8.5 -4t9 -1t9.5 2t9 6q12 12 7 27.5t-19 19.5t-28 -7z
M139 -134q18 -16 42 -7t24 32q1 22 -19 31.5t-40 0t-19 -31.5q0 -15 12 -25z" />
    <glyph glyph-name="nine.subs" horiz-adv-x="339" 
d="M93 -208l66 92q-47 1 -79 34.5t-32 79.5q0 49 34.5 81.5t87.5 32.5q54 0 87.5 -32.5t33.5 -81.5q0 -32 -19 -66q-19 -33 -94 -140h-85zM201 28q-18 20 -47.5 8.5t-26.5 -38.5q0 -18 12 -30t31 -12q28 0 39 26t-8 46z" />
    <glyph glyph-name="zero.tf" horiz-adv-x="672" 
d="M336 712q133 0 219 -104q85 -103 85 -256t-85 -256q-86 -104 -219 -104q-135 0 -219 104q-85 103 -85 256t85 256q86 104 219 104zM189 160q62 -80 147 -80t147 80q61 79 61 192q0 114 -61 193t-147 79t-147 -79t-61 -193q0 -113 61 -192z" />
    <glyph glyph-name="one.tf" horiz-adv-x="672" 
d="M416 720v-632h144v-88h-384v88h144v504l-144 -48v96z" />
    <glyph glyph-name="two.tf" horiz-adv-x="672" 
d="M440 256l-136 -168h256v-88h-448l198 244q92 111 123 162q31 50 31 93q0 54 -35.5 89.5t-92.5 35.5q-56 0 -92 -36t-36 -91q0 -20 8.5 -45t20.5 -37l-79 -45q-46 53 -46 127q0 90 64 153q64 62 160 62t161 -60q63 -61 63 -155q0 -68 -44 -137q-7 -10 -14.5 -22t-12.5 -19
t-8 -11q-21 -27 -41 -52z" />
    <glyph glyph-name="three.tf" horiz-adv-x="672" 
d="M560 704l-204 -254q90 0 154.5 -56.5t65.5 -161.5q0 -99 -67 -169q-68 -71 -173 -71q-57 0 -103.5 20.5t-74.5 52.5t-44 67t-18 68l89 27q9 -68 50 -107.5t101 -39.5t102 42t42 109q0 41 -21 71t-52 43t-68 11.5t-68 -19.5l-59 79l162 200h-246v88h432z" />
    <glyph glyph-name="four.tf" horiz-adv-x="672" 
d="M368 148h-288l228 556h102l-187 -468h145v164h96v-164h96v-88h-96v-148h-96v148z" />
    <glyph glyph-name="five.tf" horiz-adv-x="672" 
d="M263 616l-29 -190q52 29 111.5 29.5t108.5 -23.5t81.5 -77t32.5 -125q0 -97 -65 -168q-64 -70 -167 -70q-54 0 -99.5 20.5t-72.5 52.5t-42.5 67t-17.5 68l89 27q9 -68 47.5 -107.5t95.5 -39.5q58 0 97 41.5t39 107.5q2 47 -23 82t-63 49t-85.5 4.5t-87.5 -43.5l-83 31
l54 352h305v-88h-226z" />
    <glyph glyph-name="six.tf" horiz-adv-x="672" 
d="M568 224q0 -96 -68 -164t-164 -68t-164 68t-68 164q0 43 18 101q10 34 53 103q11 18 41 59q27 38 47 62q6 8 25.5 32.5t32.5 41.5q58 74 64 81h117l-201 -256q22 8 51 8q87 0 152 -65q64 -64 64 -167zM241 123q40 -43 95 -43q56 0 96 43q40 41 40 101q0 59 -40 102
q-40 42 -96 42q-54 0 -95 -42q-41 -44 -41 -102t41 -101z" />
    <glyph glyph-name="seven.tf" horiz-adv-x="672" 
d="M112 616v88h464l-272 -704h-104l244 616h-332z" />
    <glyph glyph-name="eight.tf" horiz-adv-x="672" 
d="M476 383q100 -59 100 -171q0 -92 -69 -156q-70 -64 -171 -64q-106 0 -173 64q-67 63 -67 156q0 114 96 172q-64 49 -64 136q0 81 59 137q58 55 149 55q87 0 148 -56q60 -56 60 -136q0 -84 -68 -137zM415 595q-23 23 -57.5 27.5t-64 -6.5t-50.5 -36t-19 -56
q0 -42 32.5 -72t79.5 -30t79.5 30t32.5 72q0 41 -33 71zM336 80q58 0 102 38q42 38 42 90q0 54 -41 92q-43 38 -103 38q-61 0 -102 -38q-42 -38 -42 -92q0 -52 42 -90q43 -38 102 -38z" />
    <glyph glyph-name="nine.tf" horiz-adv-x="672" 
d="M104 480q0 96 68 164t164 68t164 -68t68 -164q0 -40 -17 -100q-9 -31 -53 -104q-20 -29 -42 -59q-11 -15 -26.5 -35t-19.5 -26q-32 -40 -59 -74q-13 -16 -34.5 -43.5t-29.5 -38.5h-117l201 256q-22 -8 -51 -8q-86 0 -151 65t-65 167zM432 582q-40 42 -96 42
q-54 0 -95 -42q-41 -44 -41 -102t41 -101q40 -43 95 -43q56 0 96 43q40 41 40 101q0 59 -40 102z" />
    <glyph glyph-name="zero.zero" horiz-adv-x="736" 
d="M368 712q133 0 219 -104q85 -103 85 -256t-85 -256q-86 -104 -219 -104q-135 0 -219 104q-85 103 -85 256t85 256q86 104 219 104zM368 624q-86 0 -147 -79t-61 -193q0 -56 18 -112l350 286q-63 98 -160 98zM368 80q85 0 147 80q61 79 61 192q0 60 -19 113l-349 -286
q62 -99 160 -99z" />
    <glyph glyph-name="zero.tf.zero" horiz-adv-x="672" 
d="M336 712q133 0 219 -104q85 -103 85 -256t-85 -256q-86 -104 -219 -104q-135 0 -219 104q-85 103 -85 256t85 256q86 104 219 104zM336 624q-86 0 -147 -79t-61 -193q0 -56 18 -112l350 286q-63 98 -160 98zM336 80q85 0 147 80q61 79 61 192q0 60 -19 113l-349 -286
q61 -99 160 -99z" />
    <glyph glyph-name="zero.dnom" horiz-adv-x="395" 
d="M92 273q44 47 106 47t106 -47q43 -46 43 -117t-43 -117q-44 -47 -106 -47t-106 47t-44 117t44 117zM148 90q20 -26 50 -26t50 26t20 66t-20 66t-50 26t-50 -26t-20 -66t20 -66z" />
    <glyph glyph-name="one.dnom" horiz-adv-x="288" 
d="M64 204v72l128 44v-320h-79v221z" />
    <glyph glyph-name="two.dnom" horiz-adv-x="331" 
d="M237 114l-33 -42h79v-72h-231l91 108q36 44 48.5 65.5t12.5 39.5q0 14 -11.5 24.5t-26.5 10.5q-16 0 -27.5 -10.5t-11.5 -24.5q0 -18 9 -31l-68 -28q-20 26 -20 59q0 44 34 75.5t84 31.5q48 0 82.5 -31t34.5 -76q0 -41 -46 -99z" />
    <glyph glyph-name="three.dnom" horiz-adv-x="332" 
d="M276 312l-83 -113q41 -2 66 -27.5t25 -69.5q0 -48 -33.5 -79t-87.5 -31q-47 0 -80 28t-35 64l72 15q2 -15 14 -25t29 -10q18 0 30 11t12 28q0 28 -24 37q-25 9 -44 -6l-39 50l45 56h-77v72h210z" />
    <glyph glyph-name="four.dnom" horiz-adv-x="337" 
d="M175 53h-143l94 259h78l-67 -187h38v52h79v-52h35v-72h-35v-53h-79v53z" />
    <glyph glyph-name="five.dnom" horiz-adv-x="332" 
d="M146 240l-5 -33q49 17 96 -9t47 -95q0 -46 -34 -78.5t-84 -32.5q-49 0 -82 28t-36 64l72 15q8 -35 42 -35q18 0 30.5 12.5t12.5 29.5q0 27 -25 36.5t-51 -7.5l-70 17l25 160h164v-72h-102z" />
    <glyph glyph-name="six.dnom" horiz-adv-x="339" 
d="M246 312l-66 -92q47 -1 79 -34.5t32 -79.5q0 -49 -34.5 -81.5t-87.5 -32.5q-54 0 -87.5 32.5t-33.5 81.5q0 32 19 66q19 33 94 140h85zM139 76q17 -20 46.5 -8.5t26.5 38.5q0 18 -12 30t-31 12q-28 0 -39 -26t9 -46z" />
    <glyph glyph-name="seven.dnom" horiz-adv-x="292" 
d="M48 240v72h228l-121 -312h-82l95 240h-120z" />
    <glyph glyph-name="eight.dnom" horiz-adv-x="332" 
d="M248 164q36 -28 36 -72q0 -42 -34 -71t-84 -29q-51 0 -84.5 29t-33.5 71q0 46 36 74q-25 25 -25 61q0 40 30 66.5t77 26.5q45 0 76 -27t31 -66q0 -37 -25 -63zM146 240q-7 -7 -8 -16.5t3.5 -16.5t11.5 -11.5t16.5 -3.5t16.5 8q12 12 7 27.5t-19 19.5t-28 -7zM139 75
q18 -16 42 -7.5t24 31.5q1 22 -19 31.5t-40 0t-19 -31.5q0 -13 12 -24z" />
    <glyph glyph-name="nine.dnom" horiz-adv-x="339" 
d="M93 0l66 92q-47 1 -79 34.5t-32 79.5q0 49 34.5 81.5t87.5 32.5q54 0 87.5 -32.5t33.5 -81.5q0 -32 -19 -66q-19 -33 -94 -140h-85zM201 236q-18 20 -47.5 8.5t-26.5 -38.5q0 -18 12 -30t31 -12q28 0 39 26t-8 46z" />
    <glyph glyph-name="zero.numr" horiz-adv-x="395" 
d="M92 665q44 47 106 47t106 -47q43 -46 43 -117t-43 -117q-44 -47 -106 -47t-106 47t-44 117t44 117zM148 482q20 -26 50 -26t50 26t20 66t-20 66t-50 26t-50 -26t-20 -66t20 -66z" />
    <glyph glyph-name="one.numr" horiz-adv-x="288" 
d="M64 596v72l128 44v-320h-79v221z" />
    <glyph glyph-name="two.numr" horiz-adv-x="331" 
d="M237 506l-33 -42h79v-72h-231l91 108q36 44 48.5 65.5t12.5 39.5q0 14 -11.5 24.5t-26.5 10.5q-16 0 -27.5 -10.5t-11.5 -24.5q0 -17 9 -31l-68 -28q-20 26 -20 59q0 44 34 75.5t84 31.5q48 0 82.5 -31t34.5 -76q0 -41 -46 -99z" />
    <glyph glyph-name="three.numr" horiz-adv-x="332" 
d="M276 704l-83 -113q41 -2 66 -27.5t25 -69.5q0 -48 -33.5 -79t-87.5 -31q-47 0 -80 28t-35 64l72 15q2 -15 14 -25t29 -10q18 0 30 11t12 28q0 28 -24 37q-25 9 -44 -6l-39 50l45 56h-77v72h210z" />
    <glyph glyph-name="four.numr" horiz-adv-x="337" 
d="M175 445h-143l94 259h78l-67 -187h38v52h79v-52h35v-72h-35v-53h-79v53z" />
    <glyph glyph-name="five.numr" horiz-adv-x="332" 
d="M146 632l-5 -33q49 17 96 -9t47 -95q0 -46 -34 -78.5t-84 -32.5q-49 0 -82 28t-36 64l72 15q8 -35 42 -35q18 0 30.5 12.5t12.5 29.5q0 27 -25 36.5t-51 -7.5l-70 17l25 160h164v-72h-102z" />
    <glyph glyph-name="six.numr" horiz-adv-x="339" 
d="M246 704l-66 -92q47 -1 79 -34.5t32 -79.5q0 -49 -34.5 -81.5t-87.5 -32.5q-54 0 -87.5 32.5t-33.5 81.5q0 32 19 66q19 33 94 140h85zM139 468q17 -20 46.5 -8.5t26.5 38.5q0 18 -12 30t-31 12q-28 0 -39 -26t9 -46z" />
    <glyph glyph-name="seven.numr" horiz-adv-x="292" 
d="M48 632v72h228l-121 -312h-82l95 240h-120z" />
    <glyph glyph-name="eight.numr" horiz-adv-x="332" 
d="M248 556q36 -28 36 -72q0 -42 -34 -71t-84 -29q-51 0 -84.5 29t-33.5 71q0 46 36 74q-25 25 -25 61q0 40 30 66.5t77 26.5q45 0 76 -27t31 -66q0 -37 -25 -63zM146 632q-6 -6 -7.5 -13.5t0.5 -14t7.5 -12t12 -7.5t14 -0.5t13.5 7.5q4 4 6 9t2 9.5t-1 9t-4 8.5t-7 7
t-8.5 4t-9 1t-9.5 -2t-9 -6zM139 467q18 -16 42 -7.5t24 31.5q1 22 -19 31.5t-40 0t-19 -31.5q0 -13 12 -24z" />
    <glyph glyph-name="nine.numr" horiz-adv-x="339" 
d="M93 392l66 92q-47 1 -79 34.5t-32 79.5q0 49 34.5 81.5t87.5 32.5q54 0 87.5 -32.5t33.5 -81.5q0 -32 -19 -66q-19 -33 -94 -140h-85zM201 628q-18 20 -47.5 8.5t-26.5 -38.5q0 -18 12 -30t31 -12q28 0 39 26t-8 46z" />
    <glyph glyph-name="exclam.case" horiz-adv-x="304" 
d="M192 208h-80l-16 496h112zM152 -8q-30 0 -51 21t-21 51t21 51t51 21q31 0 51.5 -21t20.5 -51t-20.5 -51t-51.5 -21z" />
    <glyph glyph-name="exclamdown.case" horiz-adv-x="304" 
d="M152 712q31 0 51.5 -21t20.5 -51t-20.5 -51t-51.5 -21q-30 0 -51 21t-21 51t21 51t51 21zM96 0l16 496h80l16 -496h-112z" />
    <glyph glyph-name="question.case" horiz-adv-x="496" 
d="M232 712q89 0 144 -52q56 -53 56 -132q5 -73 -58 -143q-19 -21 -35 -35q-7 -6 -12.5 -12t-10.5 -11l-6 -6q-34 -35 -34 -113h-88q-12 86 30 147q18 28 74 76q44 38 44 91q0 47 -28.5 74.5t-74.5 27.5q-70 0 -107 -52l-62 62q62 78 168 78zM232 136q31 0 51.5 -21
t20.5 -51t-20.5 -51t-51.5 -21q-30 0 -51 21t-21 51t21 51t51 21z" />
    <glyph glyph-name="questiondown.case" horiz-adv-x="496" 
d="M264 568q-31 0 -51.5 21t-20.5 51t20.5 51t51.5 21q30 0 51 -21t21 -51t-21 -51t-51 -21zM264 -8q-89 0 -144 52q-56 53 -56 132q-5 75 59 144q17 19 34 35q8 7 29 28q34 35 34 113h88q12 -86 -30 -147q-18 -28 -74 -76q-44 -38 -44 -91q0 -47 28.5 -74.5t74.5 -27.5
q70 0 107 52l62 -62q-62 -78 -168 -78z" />
    <glyph glyph-name="braceleft.case" horiz-adv-x="344" 
d="M64 312v80q29 1 46.5 22t17.5 50v250q0 157 112 182l40 -80q-31 -9 -43.5 -34t-12.5 -72v-212q0 -118 -67 -146q67 -28 67 -146v-212q0 -47 12.5 -72t43.5 -34l-40 -80q-112 25 -112 182v250q0 29 -17.5 50t-46.5 22z" />
    <glyph glyph-name="braceright.case" horiz-adv-x="344" 
d="M280 392v-80q-29 -1 -46.5 -22t-17.5 -50v-250q0 -157 -112 -182l-40 80q31 9 43.5 34t12.5 72v212q0 118 67 146q-67 28 -67 146v212q0 47 -12.5 72t-43.5 34l40 80q112 -25 112 -182v-250q0 -29 17.5 -50t46.5 -22z" />
    <glyph glyph-name="bracketleft.case" horiz-adv-x="352" 
d="M272 792h-96v-880h96v-88h-192v1056h192v-88z" />
    <glyph glyph-name="bracketright.case" horiz-adv-x="352" 
d="M176 -88v880h-96v88h192v-1056h-192v88h96z" />
    <glyph glyph-name="parenleft.case" horiz-adv-x="320" 
d="M184 832l88 -52q-54 -89 -83 -204.5t-29 -223.5t29 -223.5t83 -204.5l-88 -52q-120 212 -120 480t120 480z" />
    <glyph glyph-name="parenright.case" horiz-adv-x="320" 
d="M48 780l88 52q120 -212 120 -480t-120 -480l-88 52q54 89 83 204.5t29 223.5t-29 223.5t-83 204.5z" />
    <glyph glyph-name="emdash.case" horiz-adv-x="624" 
d="M560 392v-80h-496v80h496z" />
    <glyph glyph-name="endash.case" horiz-adv-x="528" 
d="M464 392v-80h-400v80h400z" />
    <glyph glyph-name="hyphen.case" horiz-adv-x="400" 
d="M336 392v-80h-272v80h272z" />
    <glyph glyph-name="guillemotleft.case" horiz-adv-x="560" 
d="M176 536l64 -40l-88 -144l88 -144l-64 -40l-112 184zM400 536l64 -40l-88 -144l88 -144l-64 -40l-112 184z" />
    <glyph glyph-name="guillemotright.case" horiz-adv-x="560" 
d="M184 352l-88 144l64 40l112 -184l-112 -184l-64 40zM408 352l-88 144l64 40l112 -184l-112 -184l-64 40z" />
    <glyph glyph-name="guilsinglleft.case" horiz-adv-x="336" 
d="M176 536l64 -40l-88 -144l88 -144l-64 -40l-112 184z" />
    <glyph glyph-name="guilsinglright.case" horiz-adv-x="336" 
d="M184 352l-88 144l64 40l112 -184l-112 -184l-64 40z" />
    <glyph glyph-name="parenleft_one_parenright.dlig" horiz-adv-x="848" 
d="M168 608q104 104 256 104t256 -104t104 -256t-104 -256t-256 -104q-153 0 -256 105q-104 104 -104 255q0 152 104 256zM226 154q81 -82 198 -82t199 82q81 81 81 198q0 116 -81 199q-83 81 -199 81q-117 0 -198 -81q-82 -82 -82 -199t82 -198zM392 457l-72 -26v74l152 55
v-400h-80v297z" />
    <glyph glyph-name="parenleft_two_parenright.dlig" horiz-adv-x="848" 
d="M680 96q-104 -104 -256 -104q-153 0 -256 105q-104 104 -104 255q0 152 104 256t256 104t256 -104t104 -256t-104 -256zM226 154q81 -82 198 -82t199 82q81 81 81 198q0 116 -81 199q-83 81 -199 81q-117 0 -198 -81q-82 -82 -82 -199t82 -198zM494 295l-51 -63h114v-74
h-269l110 136q50 62 64 86q15 24 15 48q0 22 -16 37.5t-41 15.5t-41.5 -16.5t-16.5 -37.5q0 -29 16 -46l-70 -25q-26 29 -26 71q0 53 41 91q40 37 97 37q58 0 97.5 -36t39.5 -92q0 -55 -63 -132z" />
    <glyph glyph-name="parenleft_three_parenright.dlig" horiz-adv-x="848" 
d="M680 96q-104 -104 -256 -104q-153 0 -256 105q-104 104 -104 255q0 152 104 256t256 104t256 -104t104 -256t-104 -256zM226 154q81 -82 198 -82t199 82q81 81 81 198q0 116 -81 199q-83 81 -199 81q-117 0 -198 -81q-82 -82 -82 -199t82 -198zM566 547l-113 -138
q53 -2 87.5 -35t34.5 -90q0 -50 -42 -92t-110 -42t-107 43q-40 43 -43 89l74 15q13 -73 76 -73q32 0 52 18t20 45q0 41 -36 54t-72 -7l-41 52l71 87h-110v74h259z" />
    <glyph glyph-name="parenleft_four_parenright.dlig" horiz-adv-x="848" 
d="M680 96q-104 -104 -256 -104q-153 0 -256 105q-104 104 -104 255q0 152 104 256t256 104t256 -104t104 -256t-104 -256zM226 154q81 -82 198 -82t199 82q81 81 81 198q0 116 -81 199q-83 81 -199 81q-117 0 -198 -81q-82 -82 -82 -199t82 -198zM435 227h-176l126 321h81
l-94 -247h63v78h80v-78h53v-74h-53v-71h-80v71z" />
    <glyph glyph-name="parenleft_five_parenright.dlig" horiz-adv-x="848" 
d="M168 608q104 104 256 104t256 -104t104 -256t-104 -256t-256 -104q-153 0 -256 105q-104 104 -104 255q0 152 104 256zM226 154q81 -82 198 -82t199 82q81 81 81 198q0 116 -81 199q-83 81 -199 81q-117 0 -198 -81q-82 -82 -82 -199t82 -198zM387 472l-11 -66
q30 14 64 14.5t63.5 -12t49 -43.5t19.5 -75q0 -58 -41 -99t-107 -41q-68 0 -105 39q-39 39 -43 85l77 15q11 -65 71 -65q29 0 48.5 19.5t19.5 47.5q0 29 -21 46.5t-53.5 14t-61.5 -30.5l-66 25l31 200h199v-74h-133z" />
    <glyph glyph-name="parenleft_six_parenright.dlig" horiz-adv-x="848" 
d="M680 96q-104 -104 -256 -104q-153 0 -256 105q-104 104 -104 255q0 152 104 256t256 104t256 -104t104 -256t-104 -256zM226 154q81 -82 198 -82t199 82q81 81 81 198q0 116 -81 199q-83 81 -199 81q-117 0 -198 -81q-82 -82 -82 -199t82 -198zM568 283q0 -55 -42 -94
t-106 -39t-106 39t-42 94q0 33 18 73q6 14 24 40q13 20 29 40q3 4 8.5 11.5t14.5 19t17 21.5q7 9 17 21.5t17 21t12 15.5h91l-101 -130q67 4 108 -32.5t41 -100.5zM372 240q20 -19 48 -19t48 19q20 18 20 45t-20 46t-48 19t-48 -19t-20 -46t20 -45z" />
    <glyph glyph-name="parenleft_seven_parenright.dlig" horiz-adv-x="848" 
d="M680 96q-104 -104 -256 -104q-153 0 -256 105q-104 104 -104 255q0 152 104 256t256 104t256 -104t104 -256t-104 -256zM226 154q81 -82 198 -82t199 82q81 81 81 198q0 116 -81 199q-83 81 -199 81q-117 0 -198 -81q-82 -82 -82 -199t82 -198zM299 474v74h266l-151 -392
h-85l124 318h-154z" />
    <glyph glyph-name="parenleft_eight_parenright.dlig" horiz-adv-x="848" 
d="M168 608q104 104 256 104t256 -104t104 -256t-104 -256t-256 -104q-153 0 -256 105q-104 104 -104 255q0 152 104 256zM226 154q81 -82 198 -82t199 82q81 81 81 198q0 116 -81 199q-83 81 -199 81q-117 0 -198 -81q-82 -82 -82 -199t82 -198zM518 370q53 -38 53 -94
q0 -52 -43 -88q-44 -36 -104 -36q-63 0 -105 36t-42 88q0 59 50 94q-32 30 -32 73q0 46 36.5 77.5t92.5 31.5q54 0 92 -32q37 -31 37 -77q0 -43 -35 -73zM459 469q-23 17 -53.5 7t-30.5 -33q-4 -24 22.5 -34t53 0t22.5 34q0 15 -14 26zM377 240q21 -15 47 -15t47.5 15
t19.5 36q0 23 -18.5 37t-48.5 14t-48.5 -14t-18.5 -37q0 -21 20 -36z" />
    <glyph glyph-name="parenleft_nine_parenright.dlig" horiz-adv-x="848" 
d="M680 96q-104 -104 -256 -104q-153 0 -256 105q-104 104 -104 255q0 152 104 256t256 104t256 -104t104 -256t-104 -256zM226 154q81 -82 198 -82t199 82q81 81 81 198q0 116 -81 199q-83 81 -199 81q-117 0 -198 -81q-82 -82 -82 -199t82 -198zM280 421q0 55 42 94
t106 39t106 -39t42 -94q0 -31 -17 -73q-6 -13 -24 -40q-6 -9 -16 -22.5t-13 -17.5l-15 -18q-15 -19 -26 -33q-9 -12 -24.5 -31.5t-21.5 -27.5h-91l101 130q-67 -4 -108 32.5t-41 100.5zM476 465q-20 18 -48 18t-48 -18q-20 -19 -20 -46t20 -46t48 -19t48 19t20 46t-20 46z
" />
    <glyph glyph-name="copyright.ss02" horiz-adv-x="536" 
d="M413 363q-59 -59 -145 -59t-145 60q-59 59 -59 144q0 86 59 145t145 59t145 -59t59 -145t-59 -145zM156 396q47 -47 112 -47q66 0 113 47q46 46 46 112q0 67 -46 113t-113 46q-66 0 -112 -46q-47 -47 -47 -113q0 -65 47 -112zM266 430q30 0 47 15l24 -32q-27 -24 -70 -24
q-51 0 -84.5 34t-33.5 85t33.5 85t84.5 34q43 0 70 -24l-24 -32q-17 15 -47 15q-31 0 -51.5 -23t-20.5 -55t20.5 -55t51.5 -23z" />
    <glyph glyph-name="registered.ss02" horiz-adv-x="536" 
d="M123 653q59 59 145 59t145 -59t59 -145t-59 -145t-145 -59t-145 60q-59 59 -59 144q0 86 59 145zM156 396q47 -47 112 -47q66 0 113 47q46 46 46 112q0 67 -46 113t-113 46q-66 0 -112 -46q-47 -47 -47 -113q0 -65 47 -112zM345 541q0 -46 -38 -69l43 -77h-51l-35 65h-23
v-65h-46v226h64q41 0 63.5 -22t22.5 -58zM254 579h-13v-77h14q19 0 32 10.5t13 28.5q0 38 -46 38z" />
    <glyph glyph-name="trademark.ss02" horiz-adv-x="672" 
d="M463 542l145 168v-320h-60v163l-85 -96l-84 96v-163h-60v320zM64 650v54h205v-54h-72v-260h-61v260h-72z" />
    </font>
</defs>
</svg>
