<?xml version="1.0" standalone="no"?>
<!DOCTYPE svg PUBLIC "-//W3C//DTD SVG 1.1//EN" "http://www.w3.org/Graphics/SVG/1.1/DTD/svg11.dtd" >
<svg xmlns="http://www.w3.org/2000/svg" xmlns:xlink="http://www.w3.org/1999/xlink" version="1.1">
<metadata>
Created by FontForge 20170812 at Sat Nov 19 00:29:16 2016
 By www-data
Copyright (c) Milos Mitrovic, 2016. All rights reserved.
</metadata>
<defs>
<font id="BergenSans-SemiBold" horiz-adv-x="512" >
  <font-face 
    font-family="Bergen Sans Semi Bold"
    font-weight="600"
    font-stretch="normal"
    units-per-em="1000"
    panose-1="0 0 7 0 0 0 0 0 0 0"
    ascent="732"
    descent="-268"
    x-height="464"
    cap-height="704"
    bbox="-208 -304 1152 1024"
    underline-thickness="50"
    underline-position="-200"
    unicode-range="U+0020-25CA"
  />
<missing-glyph horiz-adv-x="528" 
d="M98 800h335v-1056h-335v1056zM352 694v35h-175v-35h69v-39h-70v-35h176v35h-70v39h70zM282 519v74h-106v-110h176v36h-70zM211 557h35v-38h-35v38zM352 420v35h-176v-35h70v-39h-70v-35h106v74h70zM352 286v105h-35v-69h-141v-36h176zM352 143v119h-106v-59h36v25h35v-50
h-106v84h-35v-119h176zM352 -40v120h-176v-120h176zM211 45h106v-50h-106v50zM352 -99v35h-176v-35h74l-74 -49v-35h176v35h-108l74 49h34z" />
    <glyph glyph-name=".notdef" horiz-adv-x="528" 
d="M98 800h335v-1056h-335v1056zM352 694v35h-175v-35h69v-39h-70v-35h176v35h-70v39h70zM282 519v74h-106v-110h176v36h-70zM211 557h35v-38h-35v38zM352 420v35h-176v-35h70v-39h-70v-35h106v74h70zM352 286v105h-35v-69h-141v-36h176zM352 143v119h-106v-59h36v25h35v-50
h-106v84h-35v-119h176zM352 -40v120h-176v-120h176zM211 45h106v-50h-106v50zM352 -99v35h-176v-35h74l-74 -49v-35h176v35h-108l74 49h34z" />
    <glyph glyph-name=".null" horiz-adv-x="0" 
 />
    <glyph glyph-name="nonmarkingreturn" horiz-adv-x="333" 
 />
    <glyph glyph-name="space" unicode=" " horiz-adv-x="304" 
 />
    <glyph glyph-name="exclam" unicode="!" horiz-adv-x="288" 
d="M200 224h-112l-16 480h144zM201 15q-23 -23 -57 -23t-57 23t-23 57t23 57t57 23t57 -23t23 -57t-23 -57z" />
    <glyph glyph-name="quotedbl" unicode="&#x22;" horiz-adv-x="432" 
d="M176 704v-240h-128v240h128zM384 704v-240h-128v240h128z" />
    <glyph glyph-name="numbersign" unicode="#" horiz-adv-x="688" 
d="M640 512v-96h-113l-14 -128h111v-96h-122l-22 -192h-112l22 192h-128l-22 -192h-112l22 192h-102v96h113l14 128h-111v96h122l22 192h112l-22 -192h128l22 192h112l-22 -192h102zM273 288h128l14 128h-128z" />
    <glyph glyph-name="dollar" unicode="$" horiz-adv-x="544" 
d="M512 202q0 -76 -53 -135q-52 -58 -139 -72v-91h-80v90q-77 11 -132 53q-57 42 -76 73l74 90q36 -47 81 -72.5t89 -25.5q46 0 77 25.5t31 58.5q0 80 -96 117q-115 44 -165.5 94.5t-50.5 127.5q0 66 46.5 114t121.5 60v91h80v-90q80 -9 153 -76l-70 -94q-58 52 -123 52
q-32 0 -56 -16t-24 -41q0 -29 19 -48.5t61 -35.5q41 -16 71 -30q27 -13 61 -34q34 -23 54 -45q46 -59 46 -140z" />
    <glyph glyph-name="percent" unicode="%" horiz-adv-x="816" 
d="M209 392q-67 0 -114 47t-47 113q0 67 47 114q46 46 114 46q67 0 113 -46t46 -114q0 -67 -46 -113q-47 -47 -113 -47zM680 704l-448 -704h-96l448 704h96zM163 507q19 -19 45 -19t45 19t19 45t-19 45t-45 19t-45 -19t-19 -45t19 -45zM609 -8q-67 0 -114 47t-47 113
q0 67 47 114q46 46 114 46q67 0 113 -46t46 -114q0 -67 -46 -113q-47 -47 -113 -47zM563 107q19 -19 45 -19t45 19t19 45t-19 45t-45 19t-45 -19t-19 -45t19 -45z" />
    <glyph glyph-name="ampersand" unicode="&#x26;" horiz-adv-x="609" 
d="M336 320h241v-96h-65q12 -92 -52 -162t-172 -70q-104 0 -172 62t-68 170q0 54 26.5 102t65.5 74q-60 50 -60 136q0 72 58 124q56 52 158 52q94 0 160 -68l-72 -93q-33 41 -85 41q-58 2 -81.5 -33.5t1 -74t85.5 -44.5v-96q-59 -4 -93.5 -37.5t-34.5 -82.5q0 -50 30 -81
t82 -31q58 0 82 40q23 40 13 72h-47v96z" />
    <glyph glyph-name="quotesingle" unicode="'" horiz-adv-x="224" 
d="M176 704v-240h-128v240h128z" />
    <glyph glyph-name="parenleft" unicode="(" horiz-adv-x="304" 
d="M168 800l104 -64q-96 -195 -96 -416t96 -416l-104 -64q-120 212 -120 480t120 480z" />
    <glyph glyph-name="parenright" unicode=")" horiz-adv-x="304" 
d="M32 736l104 64q120 -212 120 -480t-120 -480l-104 64q96 195 96 416t-96 416z" />
    <glyph glyph-name="asterisk" unicode="*" horiz-adv-x="432" 
d="M262 704l-6 -107l94 43l34 -85l-102 -32l66 -82l-73 -53l-59 86l-58 -86l-75 53l68 82l-103 32l34 85l95 -43l-5 107h90z" />
    <glyph glyph-name="plus" unicode="+" horiz-adv-x="464" 
d="M280 392h136v-96h-136v-136h-96v136h-136v96h136v136h96v-136z" />
    <glyph glyph-name="comma" unicode="," horiz-adv-x="240" 
d="M144 -128h-80v256h128z" />
    <glyph glyph-name="hyphen" unicode="-" horiz-adv-x="400" 
d="M352 304v-96h-304v96h304z" />
    <glyph glyph-name="period" unicode="." horiz-adv-x="256" 
d="M185 15q-23 -23 -57 -23t-57 23t-23 57t23 57t57 23t57 -23t23 -57t-23 -57z" />
    <glyph glyph-name="slash" unicode="/" horiz-adv-x="544" 
d="M496 784l-336 -864h-112l336 864h112z" />
    <glyph glyph-name="zero" unicode="0" horiz-adv-x="720" 
d="M139 609q90 103 221 103t222 -103q90 -103 90 -257q0 -152 -90 -256q-92 -104 -222 -104q-131 0 -221 104q-91 103 -91 256q0 154 91 257zM230 180q53 -68 130 -68t131 68q53 68 53 172t-53 172q-54 68 -131 68t-130 -68q-54 -67 -54 -172q0 -104 54 -172z" />
    <glyph glyph-name="one" unicode="1" horiz-adv-x="368" 
d="M32 508v120l240 92v-720h-128v551z" />
    <glyph glyph-name="two" unicode="2" horiz-adv-x="576" 
d="M424 256l-112 -136h216v-120h-480l214 244q84 96 111 147t27 94q0 46 -32.5 76.5t-79.5 30.5t-79.5 -30.5t-32.5 -76.5t29 -78l-107 -53q-50 62 -50 135q0 92 67 158q67 65 173 65q103 0 171 -64q69 -64 69 -159q0 -108 -104 -233z" />
    <glyph glyph-name="three" unicode="3" horiz-adv-x="592" 
d="M528 704l-200 -254q88 -1 153 -59q63 -59 63 -159q0 -107 -70 -173q-70 -67 -184 -67q-108 0 -170 62t-72 138l114 30q8 -50 43.5 -80t84.5 -30q51 0 89 35q37 34 37 85q0 63 -62 92q-61 28 -130 -1l-64 93l130 168h-210v120h448z" />
    <glyph glyph-name="four" unicode="4" horiz-adv-x="576" 
d="M320 140h-288l220 564h126l-165 -444h107v140h128v-140h80v-120h-80v-140h-128v140z" />
    <glyph glyph-name="five" unicode="5" horiz-adv-x="576" 
d="M231 584l-21 -133q36 17 78.5 21t84.5 -9t77 -40.5t56.5 -78t21.5 -116.5q0 -102 -67 -169t-173 -67q-104 0 -165 60q-63 60 -75 140l122 34q9 -54 39.5 -84t78.5 -30q49 0 80.5 33t31.5 83q2 58 -34.5 92.5t-87.5 32.5t-90 -40l-116 31l56 360h321v-120h-218z" />
    <glyph glyph-name="six" unicode="6" horiz-adv-x="592" 
d="M440 704l-160 -233q109 10 187 -54q77 -66 77 -177q0 -106 -72 -177q-73 -71 -176 -71q-113 0 -180 70q-68 71 -68 178q0 75 43 155q47 86 203 309h146zM210 147q33 -35 86 -35q52 0 87 35q33 35 33 85q0 52 -33 86q-34 34 -87 34t-86 -34q-34 -34 -34 -86q0 -51 34 -85z
" />
    <glyph glyph-name="seven" unicode="7" horiz-adv-x="528" 
d="M48 584v120h480l-272 -704h-140l230 584h-298z" />
    <glyph glyph-name="eight" unicode="8" horiz-adv-x="576" 
d="M450 372q78 -62 78 -158q0 -92 -69 -157q-71 -65 -171 -65q-106 0 -173 64t-67 158q0 100 75 158q-59 56 -59 138q0 86 63 144q62 58 161 58q94 0 159 -59t65 -143q0 -82 -62 -138zM220 568q-28 -25 -28 -60t28 -59q28 -25 68 -25t68 25q28 24 28 59t-28 60
q-28 24 -68 24t-68 -24zM209 141q32 -29 79 -29q46 0 80 29q32 29 32 71t-32 71q-34 29 -80 29q-47 0 -79 -29q-33 -29 -33 -71t33 -71z" />
    <glyph glyph-name="nine" unicode="9" horiz-adv-x="592" 
d="M152 0l160 233q-110 -11 -186 55q-78 64 -78 176q0 106 72 177q73 71 176 71q114 0 181 -70t67 -178q0 -75 -43 -154q-46 -85 -203 -310h-146zM383 558q-34 34 -87 34t-86 -34q-34 -34 -34 -86q0 -51 34 -85q33 -35 86 -35q52 0 87 35q33 35 33 85q0 52 -33 86z" />
    <glyph glyph-name="colon" unicode=":" horiz-adv-x="256" 
d="M185 335q-23 -23 -57 -23t-57 23t-23 57t23 57t57 23t57 -23t23 -57t-23 -57zM185 15q-23 -23 -57 -23t-57 23t-23 57t23 57t57 23t57 -23t23 -57t-23 -57z" />
    <glyph glyph-name="semicolon" unicode=";" horiz-adv-x="256" 
d="M185 335q-23 -23 -57 -23t-57 23t-23 57t23 57t57 23t57 -23t23 -57t-23 -57zM152 -128h-80v256h128z" />
    <glyph glyph-name="less" unicode="&#x3c;" horiz-adv-x="466" 
d="M418 240v-112l-370 176v80l370 176v-112l-242 -104z" />
    <glyph glyph-name="equal" unicode="=" horiz-adv-x="464" 
d="M48 384v96h368v-96h-368zM48 208v96h368v-96h-368z" />
    <glyph glyph-name="greater" unicode="&#x3e;" horiz-adv-x="466" 
d="M418 304l-370 -176v112l242 104l-242 104v112l370 -176v-80z" />
    <glyph glyph-name="question" unicode="?" horiz-adv-x="480" 
d="M218 712q103 0 158 -58q56 -59 56 -138q0 -78 -49 -136q-21 -23 -53 -52q-48 -44 -50 -104h-112q-4 75 32 131q10 15 43.5 48.5t44.5 48.5q16 22 16 54q0 39 -24.5 62.5t-65.5 23.5q-29 0 -53.5 -14.5t-36.5 -36.5l-76 80q58 91 170 91zM167 129q23 23 57 23t57 -23
t23 -57t-23 -57t-57 -23t-57 23t-23 57t23 57z" />
    <glyph glyph-name="at" unicode="@" horiz-adv-x="1072" 
d="M544 785q196 0 339 -134q141 -133 141 -320q0 -118 -61 -192q-61 -75 -168 -75q-59 0 -101 29t-59 72q-55 -69 -147 -69q-83 0 -131 60q-48 61 -38 144q11 83 71 139q60 57 138 57q74 0 114 -60l6 44h96l-29 -223q-6 -42 21.5 -69.5t71.5 -27.5q43 0 81.5 39t38.5 132
q0 151 -111 255q-112 103 -273 103q-170 0 -285 -117q-115 -116 -115 -283t114 -284t278 -117q112 0 183 39l41 -83q-40 -25 -103 -40q-63 -13 -121 -12q-205 4 -347 148q-141 143 -141 349q-3 132 63 247.5t182 183.5t251 65zM619 295q5 45 -20 77t-66 32q-48 0 -80.5 -31
t-37.5 -78q-6 -45 21 -76t72 -31q43 0 74 30.5t37 76.5z" />
    <glyph glyph-name="A" unicode="A" horiz-adv-x="640" 
d="M640 0h-138l-40 96h-284l-40 -96h-138l320 720zM320 432l-94 -224h188z" />
    <glyph glyph-name="B" unicode="B" horiz-adv-x="544" 
d="M375 369q56 -18 88.5 -63.5t32.5 -103.5q0 -91 -59 -146.5t-163 -55.5h-210v704h152q118 0 183 -50t65 -142q0 -46 -25.5 -85.5t-63.5 -57.5zM221 584h-29v-168h29q52 0 80 24.5t28 64.5q0 79 -108 79zM192 120h55q59 0 90 24.5t31 67.5q0 41 -32.5 66.5t-88.5 25.5h-55
v-184z" />
    <glyph glyph-name="C" unicode="C" horiz-adv-x="640" 
d="M412 112q81 0 144 48l68 -96q-88 -72 -213 -72q-159 0 -269 105t-110 255t110 255t269 105q125 0 213 -72l-68 -96q-68 48 -144 48q-103 0 -177 -65q-75 -65 -75 -175t75 -175q74 -65 177 -65z" />
    <glyph glyph-name="D" unicode="D" horiz-adv-x="608" 
d="M64 704h151q116 0 200.5 -48.5t123.5 -129.5q37 -77 37 -174q0 -150 -94 -250q-94 -102 -267 -102h-151v704zM192 120h46q91 0 151 70q59 71 59 162t-59 162q-60 70 -151 70h-46v-464z" />
    <glyph glyph-name="E" unicode="E" horiz-adv-x="480" 
d="M432 704v-120h-240v-212h176v-120h-176v-132h240v-120h-368v704h368z" />
    <glyph glyph-name="F" unicode="F" horiz-adv-x="464" 
d="M192 0h-128v704h368v-120h-240v-212h176v-120h-176v-252z" />
    <glyph glyph-name="G" unicode="G" horiz-adv-x="784" 
d="M384 372h367q1 -9 1 -34q0 -146 -99 -246t-244 -100q-160 0 -268 105q-109 105 -109 255t110 255t269 105q125 0 213 -72l-68 -96q-68 48 -144 48q-103 0 -177 -65q-75 -65 -75 -175t74 -175t176 -65q76 0 131 42q54 39 71 98h-228v120z" />
    <glyph glyph-name="H" unicode="H" horiz-adv-x="592" 
d="M400 372v332h128v-704h-128v252h-208v-252h-128v704h128v-332h208z" />
    <glyph glyph-name="I" unicode="I" horiz-adv-x="256" 
d="M192 704v-704h-128v704h128z" />
    <glyph glyph-name="J" unicode="J" horiz-adv-x="432" 
d="M256 234v470h128v-456q0 -256 -217 -256q-38 0 -75.5 12.5t-59.5 31.5l72 96q23 -20 58 -20q44 0 69 31.5t25 90.5z" />
    <glyph glyph-name="K" unicode="K" horiz-adv-x="560" 
d="M312 390l232 -390h-160l-152 274l-40 -58v-216h-128v704h128v-280l184 280h152z" />
    <glyph glyph-name="L" unicode="L" horiz-adv-x="464" 
d="M64 0v704h128v-584h240v-120h-368z" />
    <glyph glyph-name="M" unicode="M" horiz-adv-x="752" 
d="M376 344l312 376v-720h-128v384l-184 -216l-184 216v-384h-128v720z" />
    <glyph glyph-name="N" unicode="N" horiz-adv-x="624" 
d="M432 312v392h128v-720l-368 408v-392h-128v720z" />
    <glyph glyph-name="O" unicode="O" horiz-adv-x="784" 
d="M138 607q105 105 254 105q148 0 255 -105q105 -107 105 -255q0 -149 -105 -254q-106 -106 -255 -106t-254 106q-106 105 -106 254t106 255zM228 182q67 -70 164 -70t164 70q68 71 68 170t-68 170q-67 70 -164 70t-164 -70q-68 -71 -68 -170t68 -170z" />
    <glyph glyph-name="P" unicode="P" 
d="M64 704h142q134 0 205 -69q69 -71 69 -175q0 -101 -71 -172q-72 -72 -187 -72h-30v-216h-128v704zM192 336h37q52 0 87.5 36t35.5 88q0 56 -34.5 90t-88.5 34h-37v-248z" />
    <glyph glyph-name="Q" unicode="Q" horiz-adv-x="784" 
d="M752 352q0 -116 -68 -210q36 -55 68 -142h-136q-9 23 -24 52q-90 -60 -200 -60q-149 0 -254 106q-106 105 -106 254t106 255q105 105 254 105q148 0 255 -105q105 -107 105 -255zM556 522q-67 70 -164 70t-164 -70q-68 -71 -68 -170v-15q276 57 440 -92q24 51 24 107
q0 99 -68 170zM194 227q31 -54 83.5 -84.5t114.5 -30.5q68 0 127 39q-127 121 -325 76z" />
    <glyph glyph-name="R" unicode="R" horiz-adv-x="528" 
d="M361 251l135 -251h-144l-107 217q-5 -1 -23 -1h-30v-216h-128v704h142q134 0 205 -69q69 -71 69 -175q0 -65 -31.5 -120.5t-87.5 -88.5zM192 584v-248h37q52 0 87.5 36t35.5 88q0 56 -34.5 90t-88.5 34h-37z" />
    <glyph glyph-name="S" unicode="S" horiz-adv-x="544" 
d="M280 451q41 -16 71 -30q27 -13 61 -34q34 -23 54 -45q46 -59 46 -140q0 -86 -66 -148q-67 -62 -170 -62q-96 0 -166 54q-59 45 -78 74l74 90q36 -47 81 -72.5t89 -25.5q46 0 77 25.5t31 58.5q0 80 -96 117q-115 44 -165.5 94.5t-50.5 127.5q0 76 61 127q61 50 149 50
q106 0 191 -78l-70 -94q-58 52 -123 52q-32 0 -56 -16t-24 -41q0 -29 19 -48.5t61 -35.5z" />
    <glyph glyph-name="T" unicode="T" horiz-adv-x="480" 
d="M32 584v120h416v-120h-144v-584h-128v584h-144z" />
    <glyph glyph-name="U" unicode="U" horiz-adv-x="608" 
d="M416 256v448h128v-440q0 -126 -68 -199q-67 -73 -172 -73q-106 0 -173 73q-67 71 -67 199v440h128v-448q0 -72 30.5 -108t81.5 -36q48 0 80 36.5t32 107.5z" />
    <glyph glyph-name="V" unicode="V" horiz-adv-x="640" 
d="M320 288l176 416h144l-320 -720l-320 720h144z" />
    <glyph glyph-name="W" unicode="W" horiz-adv-x="912" 
d="M768 704h144l-312 -720l-144 347l-144 -347l-312 720h144l168 -400l80 187l-84 213h140l152 -400z" />
    <glyph glyph-name="X" unicode="X" horiz-adv-x="608" 
d="M386 362l206 -362h-154l-134 245l-134 -245h-154l206 362l-190 342h147l125 -226l125 226h147z" />
    <glyph glyph-name="Y" unicode="Y" horiz-adv-x="576" 
d="M288 424l144 280h144l-224 -420v-284h-128v284l-224 420h144z" />
    <glyph glyph-name="Z" unicode="Z" horiz-adv-x="528" 
d="M480 120v-120h-448l272 584h-256v120h448l-272 -584h256z" />
    <glyph glyph-name="bracketleft" unicode="[" horiz-adv-x="336" 
d="M272 728h-80v-816h80v-120h-208v1056h208v-120z" />
    <glyph glyph-name="backslash" unicode="\" horiz-adv-x="544" 
d="M496 -80h-112l-336 864h112z" />
    <glyph glyph-name="bracketright" unicode="]" horiz-adv-x="336" 
d="M144 -88v816h-80v120h208v-1056h-208v120h80z" />
    <glyph glyph-name="asciicircum" unicode="^" horiz-adv-x="496" 
d="M160 480h-112l152 224h96l152 -224h-112l-88 134z" />
    <glyph glyph-name="underscore" unicode="_" horiz-adv-x="576" 
d="M544 -32v-96h-512v96h512z" />
    <glyph glyph-name="a" unicode="a" 
d="M464 226v-226h-128v48q-54 -56 -130 -56q-79 0 -126.5 44t-47.5 111q0 58 44.5 98.5t113.5 48.5q68 8 144 -12q-6 74 -94 74q-51 0 -104 -31l-48 99q74 48 168 48q96 0 152 -61.5t56 -184.5zM336 187q-75 24 -125 12q-51 -13 -51 -52q0 -24 20 -39.5t50 -15.5q36 0 67 27
t39 68z" />
    <glyph glyph-name="b" unicode="b" horiz-adv-x="592" 
d="M64 736h128v-320q54 56 138 56q98 0 164 -68q66 -69 66 -172q0 -104 -66 -171q-66 -69 -164 -69q-83 0 -138 58v-50h-128v736zM227 147q35 -35 85 -35t85 35t35 85t-35 85t-85 35t-85 -35t-35 -85t35 -85z" />
    <glyph glyph-name="c" unicode="c" horiz-adv-x="480" 
d="M283 112q57 0 97 48l68 -94q-68 -74 -167 -74q-113 0 -181 69q-68 68 -68 171q0 102 68 172q68 68 181 68q99 0 167 -74l-68 -94q-40 48 -97 48q-52 0 -87.5 -35t-35.5 -85t35.5 -85t87.5 -35z" />
    <glyph glyph-name="d" unicode="d" horiz-adv-x="592" 
d="M400 416v320h128v-736h-128v50q-55 -58 -138 -58q-98 0 -164 69q-66 67 -66 171q0 103 66 172q66 68 164 68q84 0 138 -56zM195 147q35 -35 85 -35t85 35t35 85t-35 85t-85 35t-85 -35t-35 -85t35 -85z" />
    <glyph glyph-name="e" unicode="e" 
d="M283 112q68 0 113 48l68 -94q-77 -74 -183 -74q-113 0 -180 70q-69 69 -69 170q0 102 68 172q68 68 181 68q56 0 117 -35q72 -43 98 -141l-278 -169q26 -15 65 -15zM283 352q-53 0 -88 -34.5t-35 -85.5q0 -2 2 -18l186 109q-26 29 -65 29z" />
    <glyph glyph-name="f" unicode="f" horiz-adv-x="416" 
d="M32 344v120h64v72q0 96 46 152t134 56q56 0 108 -36l-48 -99q-26 13 -51 15.5t-43 -19.5t-18 -65v-76h160v-120h-160v-344h-128v344h-64z" />
    <glyph glyph-name="g" unicode="g" horiz-adv-x="592" 
d="M400 416v48h128v-432q0 -142 -67.5 -219t-188.5 -77q-119 0 -192 64l60 100q59 -44 123 -44q63 0 100 44t37 117v33q-55 -58 -138 -58q-98 0 -164 69q-66 67 -66 171q0 103 66 172q66 68 164 68q84 0 138 -56zM195 147q35 -35 85 -35t85 35t35 85t-35 85t-85 35t-85 -35
t-35 -85t35 -85z" />
    <glyph glyph-name="h" unicode="h" horiz-adv-x="544" 
d="M312 472q84 0 134 -56t50 -160v-256h-128v256q0 96 -88 96q-36 0 -62 -29.5t-26 -82.5v-240h-128v736h128v-320q47 56 120 56z" />
    <glyph glyph-name="i" unicode="i" horiz-adv-x="256" 
d="M185 568q-24 -24 -57 -24t-56 24q-24 23 -24 56t24 57q23 23 56 23t57 -23q23 -24 23 -57t-23 -56zM192 0h-128v464h128v-464z" />
    <glyph glyph-name="j" unicode="j" horiz-adv-x="256" 
d="M185 568q-24 -24 -57 -24t-56 24q-24 23 -24 56t24 57q23 23 56 23t57 -23q23 -24 23 -57t-23 -56zM192 -224l-128 -48v736h128v-688z" />
    <glyph glyph-name="k" unicode="k" 
d="M317 263l195 -263h-156l-121 170l-43 -48v-122h-128v736h128v-438l152 166h152z" />
    <glyph glyph-name="l" unicode="l" horiz-adv-x="256" 
d="M64 0v736h128v-736h-128z" />
    <glyph glyph-name="m" unicode="m" horiz-adv-x="816" 
d="M580 472q88 0 138 -55t50 -161v-256h-128v256q0 96 -80 96q-34 0 -57 -27.5t-23 -84.5v-240h-128v256q0 96 -76 96q-36 0 -60 -28t-24 -84v-240h-128v464h128v-48q48 56 128 56q81 0 125 -65q51 65 135 65z" />
    <glyph glyph-name="n" unicode="n" horiz-adv-x="544" 
d="M312 472q84 0 134 -56t50 -160v-256h-128v256q0 96 -88 96q-36 0 -62 -29.5t-26 -82.5v-240h-128v464h128v-48q47 56 120 56z" />
    <glyph glyph-name="o" unicode="o" horiz-adv-x="560" 
d="M280 472q105 0 176 -70q72 -70 72 -170q0 -99 -71 -170q-71 -70 -177 -70q-109 0 -178 70q-70 69 -70 170t68 171q68 69 180 69zM195 147q35 -35 85 -35q51 0 86 35q34 34 34 85t-34 85q-35 35 -86 35q-50 0 -85 -35t-35 -85t35 -85z" />
    <glyph glyph-name="p" unicode="p" horiz-adv-x="592" 
d="M64 464h128v-48q54 56 138 56q98 0 164 -68q66 -69 66 -172q0 -104 -66 -171q-66 -69 -164 -69q-83 0 -138 58v-306h-128v720zM227 147q35 -35 85 -35t85 35t35 85t-35 85t-85 35t-85 -35t-35 -85t35 -85z" />
    <glyph glyph-name="q" unicode="q" horiz-adv-x="592" 
d="M400 416v48h128v-720h-128v306q-55 -58 -138 -58q-98 0 -164 69q-66 67 -66 171q0 103 66 172q66 68 164 68q84 0 138 -56zM195 147q35 -35 85 -35t85 35t35 85t-35 85t-85 35t-85 -35t-35 -85t35 -85z" />
    <glyph glyph-name="r" unicode="r" horiz-adv-x="400" 
d="M192 464v-89q49 90 176 97v-152q-45 12 -88 0q-40 -12 -64 -47t-24 -88v-185h-128v464h128z" />
    <glyph glyph-name="s" unicode="s" horiz-adv-x="448" 
d="M242 295q90 -22 132 -56.5t42 -95.5q0 -67 -52 -109t-146 -42q-112 0 -186 74l65 95q53 -43 114 -51q35 -4 56 3.5t21 21.5q0 15 -35 26q-2 0 -7.5 1.5l-16.5 4.5l-22 6q-159 41 -159 155q0 62 50.5 103t136.5 41q76 0 150 -50l-59 -99q-41 26 -88 31q-62 5 -62 -24
q0 -12 14 -19t52 -16z" />
    <glyph glyph-name="t" unicode="t" horiz-adv-x="400" 
d="M240 0h-128v344h-80v120h80v152l128 40v-192h128v-120h-128v-344z" />
    <glyph glyph-name="u" unicode="u" horiz-adv-x="544" 
d="M232 -8q-84 0 -134 56t-50 160v256h128v-256q0 -96 88 -96q36 0 62 29.5t26 82.5v240h128v-464h-128v48q-47 -56 -120 -56z" />
    <glyph glyph-name="v" unicode="v" horiz-adv-x="480" 
d="M240 -16l-240 480h144l96 -208l96 208h144z" />
    <glyph glyph-name="w" unicode="w" horiz-adv-x="736" 
d="M600 464h136l-248 -480l-119 241l-121 -241l-248 480h136l112 -218l53 118l-49 100h132l104 -218z" />
    <glyph glyph-name="x" unicode="x" 
d="M336 244l160 -244h-148l-92 144l-92 -144h-148l160 244l-144 220h148l76 -122l76 122h148z" />
    <glyph glyph-name="y" unicode="y" 
d="M256 188l112 276h144l-304 -720h-144l123 282l-187 438h144z" />
    <glyph glyph-name="z" unicode="z" horiz-adv-x="480" 
d="M432 120v-120h-400l200 344h-184v120h400l-200 -344h184z" />
    <glyph glyph-name="braceleft" unicode="{" horiz-adv-x="352" 
d="M48 276v88q30 1 47 18.5t17 45.5v254q0 156 144 182l48 -92q-64 -16 -64 -106v-200q0 -114 -75 -146q75 -32 75 -146v-200q0 -90 64 -106l-48 -92q-144 26 -144 182v254q0 28 -17 45.5t-47 18.5z" />
    <glyph glyph-name="bar" unicode="|" horiz-adv-x="224" 
d="M160 736v-992h-96v992h96z" />
    <glyph glyph-name="braceright" unicode="}" horiz-adv-x="352" 
d="M304 364v-88q-30 -1 -47 -18.5t-17 -45.5v-254q0 -156 -144 -182l-48 92q64 16 64 106v200q0 114 75 146q-75 32 -75 146v200q0 90 -64 106l48 92q144 -26 144 -182v-254q0 -28 17 -45.5t47 -18.5z" />
    <glyph glyph-name="asciitilde" unicode="~" 
d="M399 408l65 -64q-45 -64 -119 -64q-23 0 -62 11q-15 4 -38 10.5t-27 7.5q-27 10 -57.5 3t-47.5 -32l-65 64q45 64 119 64q25 0 79 -17t91 -17q38 0 62 34z" />
    <glyph glyph-name="exclamdown" unicode="&#xa1;" horiz-adv-x="288" 
d="M87 449q23 23 57 23t57 -23t23 -57t-23 -57t-57 -23t-57 23t-23 57t23 57zM72 -240l16 480h112l16 -480h-144z" />
    <glyph glyph-name="cent" unicode="&#xa2;" horiz-adv-x="480" 
d="M283 112q57 0 97 48l68 -94q-53 -57 -128 -71v-91h-80v91q-97 14 -152 79q-56 65 -56 158q0 92 56 159q55 64 152 78v91h80v-91q75 -14 128 -71l-68 -94q-40 48 -97 48q-52 0 -87.5 -35t-35.5 -85t35.5 -85t87.5 -35z" />
    <glyph glyph-name="sterling" unicode="&#xa3;" horiz-adv-x="528" 
d="M368 312h-126q16 -109 -14 -192h268v-120h-464q119 130 85 312h-69v80h48q-16 60 -16 102q0 99 63 158.5t170 59.5q111 0 183 -80l-80 -92q-42 52 -102 52q-46 0 -74.5 -25.5t-31.5 -68.5q-2 -24 6 -53q1 -6 5.5 -27t5.5 -26h143v-80z" />
    <glyph glyph-name="currency" unicode="&#xa4;" horiz-adv-x="526" 
d="M95 97l-47 48l79 81q-25 39 -25 86t25 86l-79 82l49 47l78 -81q43 26 88 26q47 0 88 -27l78 82l49 -47l-81 -82q25 -39 25 -86t-25 -86l81 -80l-47 -49l-82 80q-39 -25 -86 -25t-88 25zM217 267q19 -19 45 -19t45 19t19 45t-19 45t-45 19t-45 -19t-19 -45t19 -45z" />
    <glyph glyph-name="yen" unicode="&#xa5;" horiz-adv-x="640" 
d="M608 704l-224 -420v-16h80v-56h-80v-56h80v-56h-80v-100h-128v100h-80v56h80v56h-80v56h80v16l-224 420h144l144 -280l144 280h144z" />
    <glyph glyph-name="brokenbar" unicode="&#xa6;" horiz-adv-x="224" 
d="M160 736v-336h-96v336h96zM160 80v-336h-96v336h96z" />
    <glyph glyph-name="section" unicode="&#xa7;" horiz-adv-x="576" 
d="M528 202q0 -104 -86 -165q46 -49 46 -124q0 -76 -60 -127q-62 -50 -150 -50q-106 0 -191 78l70 94q58 -52 123 -52q32 0 56 16t24 41q0 29 -19 48.5t-61 35.5q-41 16 -71 30q-28 13 -60 34q-36 23 -54 45q-47 58 -47 140q0 104 87 165q-47 50 -47 124q0 76 61 127
q61 50 149 50q106 0 191 -78l-70 -94q-58 52 -123 52q-32 0 -56 -16t-24 -41q0 -29 19 -48.5t61 -35.5q41 -16 71 -30q27 -13 61 -34q34 -23 54 -45q46 -59 46 -140zM272 135q2 -1 49 -20q35 7 57 30t22 51q0 80 -96 117q-3 1 -49 20q-35 -7 -57 -30t-22 -51q0 -80 96 -117z
" />
    <glyph glyph-name="copyright" unicode="&#xa9;" horiz-adv-x="816" 
d="M664 96q-104 -104 -256 -104q-153 0 -256 105q-104 104 -104 255q0 152 104 256t256 104t256 -104t104 -256t-104 -256zM221 165q77 -77 187 -77q111 0 188 77q76 76 76 187q0 112 -76 188t-188 76q-111 0 -187 -76q-77 -77 -77 -188q0 -110 77 -187zM415 230q45 0 77 27
l48 -73q-52 -42 -126 -42q-90 0 -154 62q-64 61 -64 148q0 88 64 149q62 61 154 61q74 0 126 -42l-48 -73q-32 27 -77 27q-50 0 -87 -35q-36 -36 -36 -87q0 -52 36 -86q36 -36 87 -36z" />
    <glyph glyph-name="ordfeminine" unicode="&#xaa;" horiz-adv-x="296" 
d="M264 581v-117h-68v22q-30 -30 -71 -30q-43 0 -68 23t-25 60q0 48 51 69q49 21 111 3q-3 39 -49 39q-32 0 -58 -16l-25 52q41 26 91 26q52 0 81.5 -32.5t29.5 -98.5zM196 561q-40 12 -68 5.5t-28 -27.5q0 -14 10.5 -22t26.5 -8q20 0 37.5 15t21.5 37z" />
    <glyph glyph-name="guillemotleft" unicode="&#xab;" horiz-adv-x="576" 
d="M48 272l120 200l88 -52l-94 -148l94 -156l-88 -44zM408 472l88 -52l-94 -148l94 -156l-88 -44l-120 200z" />
    <glyph glyph-name="logicalnot" unicode="&#xac;" horiz-adv-x="592" 
d="M48 392h496v-208h-96v112h-400v96z" />
    <glyph glyph-name="registered" unicode="&#xae;" horiz-adv-x="816" 
d="M664 96q-104 -104 -256 -104q-153 0 -256 105q-104 104 -104 255q0 152 104 256t256 104t256 -104t104 -256t-104 -256zM221 165q77 -77 187 -77q111 0 188 77q76 76 76 187q0 112 -76 188t-188 76q-111 0 -187 -76q-77 -77 -77 -188q0 -110 77 -187zM480 286l76 -134
h-106l-58 110h-16v-110h-96v400h104q78 0 121 -39.5t43 -102.5q0 -83 -68 -124zM384 467h-8v-120h8q30 0 49 17t19 43q0 28 -18.5 44t-49.5 16z" />
    <glyph glyph-name="degree" unicode="&#xb0;" horiz-adv-x="416" 
d="M209 392q-67 0 -114 47t-47 113q0 67 47 114q46 46 114 46q67 0 113 -46t46 -114q0 -67 -46 -113q-47 -47 -113 -47zM163 507q19 -19 45 -19t45 19t19 45t-19 45t-45 19t-45 -19t-19 -45t19 -45z" />
    <glyph glyph-name="plusminus" unicode="&#xb1;" horiz-adv-x="464" 
d="M280 480h136v-96h-136v-136h-96v136h-136v96h136v136h96v-136zM48 56v96h368v-96h-368z" />
    <glyph glyph-name="uni00B2" unicode="&#xb2;" horiz-adv-x="339" 
d="M236 582l-20 -22h75v-80h-243l95 109q61 68 61 97q0 15 -9.5 24.5t-24.5 9.5q-16 0 -25.5 -9.5t-9.5 -24.5q0 -12 10 -28l-74 -32q-23 32 -23 68q0 45 34.5 75.5t87.5 30.5q51 0 86 -30.5t35 -75.5q0 -53 -55 -112z" />
    <glyph glyph-name="uni00B3" unicode="&#xb3;" horiz-adv-x="340" 
d="M284 792l-75 -110q34 -4 58.5 -29.5t24.5 -69.5q0 -49 -36 -80t-90 -31q-49 0 -82 30q-34 28 -36 63l79 22q8 -35 39 -35q18 0 28.5 11t10.5 26q0 23 -22.5 31.5t-41.5 -6.5l-35 49l39 49h-83v80h222z" />
    <glyph glyph-name="paragraph" unicode="&#xb6;" horiz-adv-x="704" 
d="M656 704v-104h-96v-856h-96v856h-128v-856h-96v560q-82 0 -137 58t-55 142t55 142t137 58h416z" />
    <glyph glyph-name="middot" unicode="&#xb7;" horiz-adv-x="256" 
d="M185 279q-23 -23 -57 -23t-57 23t-23 57t23 57t57 23t57 -23t23 -57t-23 -57z" />
    <glyph glyph-name="uni00B9" unicode="&#xb9;" horiz-adv-x="296" 
d="M64 676v80l136 44v-320h-87v212z" />
    <glyph glyph-name="ordmasculine" unicode="&#xba;" horiz-adv-x="328" 
d="M164 712q57 0 94 -37q38 -38 38 -91q0 -52 -38 -90t-94 -38q-57 0 -94.5 37t-37.5 91q0 55 36.5 91.5t95.5 36.5zM119 539q20 -19 45 -19t45.5 19t18.5 45q0 27 -18.5 45.5t-45.5 18.5t-45.5 -18.5t-18.5 -45.5q0 -26 19 -45z" />
    <glyph glyph-name="guillemotright" unicode="&#xbb;" horiz-adv-x="576" 
d="M174 272l-94 148l88 52l120 -200l-120 -200l-88 44zM320 420l88 52l120 -200l-120 -200l-88 44l94 156z" />
    <glyph glyph-name="onequarter" unicode="&#xbc;" horiz-adv-x="783" 
d="M200 392h-87v212l-49 -16v80l136 44v-320zM88 0l448 704h96l-448 -704h-96zM694 177v-41h41v-80h-41v-56h-87v56h-151l94 256h86l-63 -176h34v41h87z" />
    <glyph glyph-name="onehalf" unicode="&#xbd;" horiz-adv-x="763" 
d="M200 392h-87v212l-49 -16v80l136 44v-320zM88 0l448 704h96l-448 -704h-96zM660 102l-20 -22h75v-80h-243l95 109q61 68 61 97q0 15 -9.5 24.5t-24.5 9.5q-16 0 -25.5 -9.5t-9.5 -24.5q0 -12 10 -28l-74 -32q-23 32 -23 68q0 45 34.5 75.5t87.5 30.5q51 0 86 -30.5
t35 -75.5q0 -53 -55 -112z" />
    <glyph glyph-name="threequarters" unicode="&#xbe;" horiz-adv-x="827" 
d="M284 704l-75 -110q34 -4 58.5 -29.5t24.5 -69.5q0 -49 -36 -80t-90 -31q-49 0 -82 30q-34 28 -36 63l79 22q8 -35 39 -35q18 0 28.5 11t10.5 26q0 23 -22.5 31.5t-41.5 -6.5l-35 49l39 49h-83v80h222zM676 704l-448 -704h-96l448 704h96zM651 56h-151l94 256h86l-63 -176
h34v41h87v-41h41v-80h-41v-56h-87v56z" />
    <glyph glyph-name="questiondown" unicode="&#xbf;" horiz-adv-x="480" 
d="M313 335q-23 -23 -57 -23t-57 23t-23 57t23 57t57 23t57 -23t23 -57t-23 -57zM262 -248q-103 0 -158 58q-56 59 -56 138q0 80 50 136q17 20 52 52q48 44 50 104h112q4 -75 -32 -131q-10 -15 -43 -48.5t-44 -48.5q-17 -23 -17 -54q0 -39 24.5 -62.5t65.5 -23.5
q29 0 53.5 14.5t36.5 36.5l76 -80q-58 -91 -170 -91z" />
    <glyph glyph-name="Agrave" unicode="&#xc0;" horiz-adv-x="640" 
d="M304 928l64 -160h-80l-96 160h112zM640 0h-138l-40 96h-284l-40 -96h-138l320 720zM320 432l-94 -224h188z" />
    <glyph glyph-name="Aacute" unicode="&#xc1;" horiz-adv-x="640" 
d="M336 928h112l-96 -160h-80zM640 0h-138l-40 96h-284l-40 -96h-138l320 720zM320 432l-94 -224h188z" />
    <glyph glyph-name="Acircumflex" unicode="&#xc2;" horiz-adv-x="640" 
d="M376 768l-56 72l-56 -72h-80l136 160l136 -160h-80zM640 0h-138l-40 96h-284l-40 -96h-138l320 720zM320 432l-94 -224h188z" />
    <glyph glyph-name="Atilde" unicode="&#xc3;" horiz-adv-x="640" 
d="M327 783q-114 38 -143 -15l-56 53q42 59 110 59q36 0 75 -14q108 -43 143 14l56 -53q-42 -59 -110 -59q-34 0 -75 15zM640 0h-138l-40 96h-284l-40 -96h-138l320 720zM320 432l-94 -224h188z" />
    <glyph glyph-name="Adieresis" unicode="&#xc4;" horiz-adv-x="640" 
d="M270 787q-19 -19 -46 -19t-45 19q-19 18 -19 45t19 46q18 18 45 18t46 -18q18 -19 18 -46t-18 -45zM462 787q-19 -19 -46 -19t-45 19q-19 18 -19 45t19 46q18 18 45 18t46 -18q18 -19 18 -46t-18 -45zM640 0h-138l-40 96h-284l-40 -96h-138l320 720zM320 432l-94 -224
h188z" />
    <glyph glyph-name="Aring" unicode="&#xc5;" horiz-adv-x="640" 
d="M640 0h-138l-40 96h-284l-40 -96h-138l269 603q-31 14 -50 43.5t-19 65.5q0 50 35 85t85 35t85 -35t35 -85q0 -35 -19 -65t-49 -44zM359 751q-17 17 -39 17t-39 -17t-17 -39t17 -39t39 -17t39 17t17 39t-17 39zM320 432l-94 -224h188z" />
    <glyph glyph-name="AE" unicode="&#xc6;" horiz-adv-x="784" 
d="M736 704v-120h-240v-212h176v-120h-176v-132h240v-120h-368v96h-182l-48 -96h-138l368 704h368zM368 464l-127 -256h127v256z" />
    <glyph glyph-name="Ccedilla" unicode="&#xc7;" horiz-adv-x="640" 
d="M556 160l68 -96q-87 -71 -208 -72v-40q39 -3 76 -34q36 -30 36 -86q0 -61 -40 -98q-41 -38 -96 -38q-41 0 -72.5 17.5t-47.5 45.5l48 45q18 -44 72 -44q31 0 51.5 21.5t20.5 51.5q0 39 -33.5 57t-78.5 6v100q-138 19 -229 121q-91 100 -91 235q0 150 110 255t269 105
q125 0 213 -72l-68 -96q-68 48 -144 48q-103 0 -177 -65q-75 -65 -75 -175t75 -175q74 -65 177 -65q81 0 144 48z" />
    <glyph glyph-name="Egrave" unicode="&#xc8;" horiz-adv-x="480" 
d="M256 928l64 -160h-80l-96 160h112zM432 704v-120h-240v-212h176v-120h-176v-132h240v-120h-368v704h368z" />
    <glyph glyph-name="Eacute" unicode="&#xc9;" horiz-adv-x="480" 
d="M256 768h-80l64 160h112zM432 704v-120h-240v-212h176v-120h-176v-132h240v-120h-368v704h368z" />
    <glyph glyph-name="Ecircumflex" unicode="&#xca;" horiz-adv-x="480" 
d="M376 768h-80l-56 72l-56 -72h-80l136 160zM432 704v-120h-240v-212h176v-120h-176v-132h240v-120h-368v704h368z" />
    <glyph glyph-name="Edieresis" unicode="&#xcb;" horiz-adv-x="480" 
d="M190 787q-19 -19 -46 -19t-45 19q-19 18 -19 45t19 46q18 18 45 18t46 -18q18 -19 18 -46t-18 -45zM382 787q-19 -19 -46 -19t-45 19q-19 18 -19 45t19 46q18 18 45 18t46 -18q18 -19 18 -46t-18 -45zM432 704v-120h-240v-212h176v-120h-176v-132h240v-120h-368v704h368z
" />
    <glyph glyph-name="Igrave" unicode="&#xcc;" horiz-adv-x="256" 
d="M128 928l64 -160h-80l-96 160h112zM192 0h-128v704h128v-704z" />
    <glyph glyph-name="Iacute" unicode="&#xcd;" horiz-adv-x="256" 
d="M144 768h-80l64 160h112zM192 704v-704h-128v704h128z" />
    <glyph glyph-name="Icircumflex" unicode="&#xce;" horiz-adv-x="256" 
d="M264 768h-80l-56 72l-56 -72h-80l136 160zM192 0h-128v704h128v-704z" />
    <glyph glyph-name="Idieresis" unicode="&#xcf;" horiz-adv-x="256" 
d="M78 787q-19 -19 -46 -19t-46 19q-18 18 -18 45t18 46q19 18 46 18t46 -18q18 -19 18 -46t-18 -45zM270 787q-19 -19 -46 -19t-45 19q-19 18 -19 45t19 46q18 18 45 18t46 -18q18 -19 18 -46t-18 -45zM192 704v-704h-128v704h128z" />
    <glyph glyph-name="Eth" unicode="&#xd0;" horiz-adv-x="608" 
d="M64 704h151q116 0 200.5 -48.5t123.5 -129.5q37 -77 37 -174q0 -150 -94 -250q-94 -102 -267 -102h-151v312h-48v80h48v312zM192 120h46q91 0 151 70q59 71 59 162t-59 162q-60 70 -151 70h-46v-192h96v-80h-96v-192z" />
    <glyph glyph-name="Ntilde" unicode="&#xd1;" horiz-adv-x="624" 
d="M448 880l56 -53q-42 -59 -110 -59q-34 0 -75 15q-114 38 -143 -15l-56 53q42 59 110 59q36 0 75 -14q108 -43 143 14zM432 312v392h128v-720l-368 408v-392h-128v720z" />
    <glyph glyph-name="Ograve" unicode="&#xd2;" horiz-adv-x="784" 
d="M384 928l64 -160h-80l-96 160h112zM138 607q105 105 254 105q148 0 255 -105q105 -107 105 -255q0 -149 -105 -254q-106 -106 -255 -106t-254 106q-106 105 -106 254t106 255zM228 182q67 -70 164 -70t164 70q68 71 68 170t-68 170q-67 70 -164 70t-164 -70
q-68 -71 -68 -170t68 -170z" />
    <glyph glyph-name="Oacute" unicode="&#xd3;" horiz-adv-x="784" 
d="M416 768h-80l64 160h112zM138 607q105 105 254 105q148 0 255 -105q105 -107 105 -255q0 -149 -105 -254q-106 -106 -255 -106t-254 106q-106 105 -106 254t106 255zM228 182q67 -70 164 -70t164 70q68 71 68 170t-68 170q-67 70 -164 70t-164 -70q-68 -71 -68 -170
t68 -170z" />
    <glyph glyph-name="Ocircumflex" unicode="&#xd4;" horiz-adv-x="784" 
d="M528 768h-80l-56 72l-56 -72h-80l136 160zM138 607q105 105 254 105q148 0 255 -105q105 -107 105 -255q0 -149 -105 -254q-106 -106 -255 -106t-254 106q-106 105 -106 254t106 255zM228 182q67 -70 164 -70t164 70q68 71 68 170t-68 170q-67 70 -164 70t-164 -70
q-68 -71 -68 -170t68 -170z" />
    <glyph glyph-name="Otilde" unicode="&#xd5;" horiz-adv-x="784" 
d="M528 880l56 -53q-42 -59 -110 -59q-34 0 -75 15q-114 38 -143 -15l-56 53q42 59 110 59q36 0 75 -14q108 -43 143 14zM138 607q105 105 254 105q148 0 255 -105q105 -107 105 -255q0 -149 -105 -254q-106 -106 -255 -106t-254 106q-106 105 -106 254t106 255zM228 182
q67 -70 164 -70t164 70q68 71 68 170t-68 170q-67 70 -164 70t-164 -70q-68 -71 -68 -170t68 -170z" />
    <glyph glyph-name="Odieresis" unicode="&#xd6;" horiz-adv-x="784" 
d="M342 787q-19 -19 -46 -19t-45 19q-19 18 -19 45t19 46q18 18 45 18t46 -18q18 -19 18 -46t-18 -45zM534 787q-19 -19 -46 -19t-45 19q-19 18 -19 45t19 46q18 18 45 18t46 -18q18 -19 18 -46t-18 -45zM138 607q105 105 254 105q148 0 255 -105q105 -107 105 -255
q0 -149 -105 -254q-106 -106 -255 -106t-254 106q-106 105 -106 254t106 255zM228 182q67 -70 164 -70t164 70q68 71 68 170t-68 170q-67 70 -164 70t-164 -70q-68 -71 -68 -170t68 -170z" />
    <glyph glyph-name="multiply" unicode="&#xd7;" horiz-adv-x="464" 
d="M232 412l116 116l68 -68l-116 -116l116 -116l-68 -68l-116 116l-116 -116l-68 68l116 116l-116 116l68 68z" />
    <glyph glyph-name="Oslash" unicode="&#xd8;" horiz-adv-x="784" 
d="M138 607q105 105 254 105q148 0 255 -105q105 -107 105 -255q0 -149 -105 -254q-106 -106 -255 -106t-254 106q-106 105 -106 254t106 255zM392 592q-97 0 -164 -70q-68 -71 -68 -170q0 -86 53 -153l305 355q-58 38 -126 38zM392 112q97 0 164 70q68 71 68 170
q0 85 -52 152l-304 -355q58 -37 124 -37z" />
    <glyph glyph-name="Ugrave" unicode="&#xd9;" horiz-adv-x="608" 
d="M296 928l64 -160h-80l-96 160h112zM416 256v448h128v-440q0 -126 -68 -199q-67 -73 -172 -73q-106 0 -173 73q-67 71 -67 199v440h128v-448q0 -72 30.5 -108t81.5 -36q48 0 80 36.5t32 107.5z" />
    <glyph glyph-name="Uacute" unicode="&#xda;" horiz-adv-x="608" 
d="M328 768h-80l64 160h112zM416 256v448h128v-440q0 -126 -68 -199q-67 -73 -172 -73q-106 0 -173 73q-67 71 -67 199v440h128v-448q0 -72 30.5 -108t81.5 -36q48 0 80 36.5t32 107.5z" />
    <glyph glyph-name="Ucircumflex" unicode="&#xdb;" horiz-adv-x="608" 
d="M440 768h-80l-56 72l-56 -72h-80l136 160zM416 256v448h128v-440q0 -126 -68 -199q-67 -73 -172 -73q-106 0 -173 73q-67 71 -67 199v440h128v-448q0 -72 30.5 -108t81.5 -36q48 0 80 36.5t32 107.5z" />
    <glyph glyph-name="Udieresis" unicode="&#xdc;" horiz-adv-x="608" 
d="M254 787q-19 -19 -46 -19t-45 19q-19 18 -19 45t19 46q18 18 45 18t46 -18q18 -19 18 -46t-18 -45zM446 787q-19 -19 -46 -19t-45 19q-19 18 -19 45t19 46q18 18 45 18t46 -18q18 -19 18 -46t-18 -45zM416 256v448h128v-440q0 -126 -68 -199q-67 -73 -172 -73
q-106 0 -173 73q-67 71 -67 199v440h128v-448q0 -72 30.5 -108t81.5 -36q48 0 80 36.5t32 107.5z" />
    <glyph glyph-name="Yacute" unicode="&#xdd;" horiz-adv-x="576" 
d="M312 768h-80l64 160h112zM288 424l144 280h144l-224 -420v-284h-128v284l-224 420h144z" />
    <glyph glyph-name="Thorn" unicode="&#xde;" 
d="M192 600h14q134 0 205 -69q69 -71 69 -175q0 -101 -71 -172q-72 -72 -187 -72h-30v-112h-128v704h128v-104zM192 232h37q52 0 87.5 36t35.5 88q0 56 -34.5 90t-88.5 34h-37v-248z" />
    <glyph glyph-name="germandbls" unicode="&#xdf;" horiz-adv-x="544" 
d="M176 -192h-128v712q0 148 118 203q46 21 91 21q92 0 150 -55q57 -55 57 -137q0 -53 -25.5 -95.5t-62.5 -64.5q54 -14 95 -64q41 -53 41 -123q0 -90 -61 -151q-62 -62 -167 -62q-41 0 -76 16l40 108q60 -13 98 13t38 83q0 56 -48 88t-128 32v88q49 0 89 34q39 33 39 82
q0 39 -22.5 63.5t-57.5 24.5t-57.5 -25t-22.5 -65v-726z" />
    <glyph glyph-name="agrave" unicode="&#xe0;" 
d="M272 688l64 -160h-80l-96 160h112zM464 226v-226h-128v48q-54 -56 -130 -56q-79 0 -126.5 44t-47.5 111q0 58 44.5 98.5t113.5 48.5q68 8 144 -12q-6 74 -94 74q-51 0 -104 -31l-48 99q74 48 168 48q96 0 152 -61.5t56 -184.5zM336 187q-75 24 -125 12q-51 -13 -51 -52
q0 -24 20 -39.5t50 -15.5q36 0 67 27t39 68z" />
    <glyph glyph-name="aacute" unicode="&#xe1;" 
d="M272 528h-80l64 160h112zM464 226v-226h-128v48q-54 -56 -130 -56q-79 0 -126.5 44t-47.5 111q0 58 44.5 98.5t113.5 48.5q68 8 144 -12q-6 74 -94 74q-51 0 -104 -31l-48 99q74 48 168 48q96 0 152 -61.5t56 -184.5zM336 187q-75 24 -125 12q-51 -13 -51 -52
q0 -24 20 -39.5t50 -15.5q36 0 67 27t39 68z" />
    <glyph glyph-name="acircumflex" unicode="&#xe2;" 
d="M392 528h-80l-56 72l-56 -72h-80l136 160zM464 226v-226h-128v48q-54 -56 -130 -56q-79 0 -126.5 44t-47.5 111q0 58 44.5 98.5t113.5 48.5q68 8 144 -12q-6 74 -94 74q-51 0 -104 -31l-48 99q74 48 168 48q96 0 152 -61.5t56 -184.5zM336 187q-75 24 -125 12
q-51 -13 -51 -52q0 -24 20 -39.5t50 -15.5q36 0 67 27t39 68z" />
    <glyph glyph-name="atilde" unicode="&#xe3;" 
d="M384 640l56 -53q-42 -59 -110 -59q-34 0 -75 15q-114 38 -143 -15l-56 53q42 59 110 59q36 0 75 -14q108 -43 143 14zM464 226v-226h-128v48q-54 -56 -130 -56q-79 0 -126.5 44t-47.5 111q0 58 44.5 98.5t113.5 48.5q68 8 144 -12q-6 74 -94 74q-51 0 -104 -31l-48 99
q74 48 168 48q96 0 152 -61.5t56 -184.5zM336 187q-75 24 -125 12q-51 -13 -51 -52q0 -24 20 -39.5t50 -15.5q36 0 67 27t39 68z" />
    <glyph glyph-name="adieresis" unicode="&#xe4;" 
d="M206 547q-19 -19 -46 -19t-45 19q-19 18 -19 45t19 46q18 18 45 18t46 -18q18 -19 18 -46t-18 -45zM398 547q-19 -19 -46 -19t-45 19q-19 18 -19 45t19 46q18 18 45 18t46 -18q18 -19 18 -46t-18 -45zM464 226v-226h-128v48q-54 -56 -130 -56q-79 0 -126.5 44t-47.5 111
q0 58 44.5 98.5t113.5 48.5q68 8 144 -12q-6 74 -94 74q-51 0 -104 -31l-48 99q74 48 168 48q96 0 152 -61.5t56 -184.5zM336 187q-75 24 -125 12q-51 -13 -51 -52q0 -24 20 -39.5t50 -15.5q36 0 67 27t39 68z" />
    <glyph glyph-name="aring" unicode="&#xe5;" 
d="M171 701q35 35 85 35t85 -35t35 -85t-35 -85t-85 -35t-85 35t-35 85t35 85zM217 577q17 -17 39 -17t39 17t17 39t-17 39t-39 17t-39 -17t-17 -39t17 -39zM464 226v-226h-128v48q-54 -56 -130 -56q-79 0 -126.5 44t-47.5 111q0 58 44.5 98.5t113.5 48.5q68 8 144 -12
q-6 74 -94 74q-51 0 -104 -31l-48 99q74 48 168 48q96 0 152 -61.5t56 -184.5zM336 187q-75 24 -125 12q-51 -13 -51 -52q0 -24 20 -39.5t50 -15.5q36 0 67 27t39 68z" />
    <glyph glyph-name="ae" unicode="&#xe6;" horiz-adv-x="816" 
d="M587 112q68 0 113 48l68 -94q-77 -74 -183 -74q-120 0 -187 82q-72 -82 -192 -82q-79 0 -126.5 44t-47.5 111q0 58 44.5 98.5t113.5 48.5q68 8 144 -12q-6 74 -94 74q-51 0 -104 -31l-48 99q74 48 168 48q101 0 155 -65q68 65 174 65q56 0 117 -35q72 -43 98 -141
l-278 -169q26 -15 65 -15zM587 352q-53 0 -88 -34.5t-35 -85.5q0 -2 2 -18l186 109q-26 29 -65 29zM230 92q36 0 67 27t39 68q-75 24 -125 12q-51 -13 -51 -52q0 -24 20 -39.5t50 -15.5z" />
    <glyph glyph-name="ccedilla" unicode="&#xe7;" horiz-adv-x="480" 
d="M283 112q57 0 97 48l68 -94q-63 -68 -152 -74v-40q39 -3 76 -34q36 -30 36 -86q0 -61 -40 -98q-41 -38 -96 -38q-41 0 -72.5 17.5t-47.5 45.5l48 45q18 -44 72 -44q31 0 51.5 21.5t20.5 51.5q0 39 -33.5 57t-78.5 6v100q-94 15 -146 81q-54 65 -54 155q0 102 68 172
q68 68 181 68q99 0 167 -74l-68 -94q-40 48 -97 48q-52 0 -87.5 -35t-35.5 -85t35.5 -85t87.5 -35z" />
    <glyph glyph-name="egrave" unicode="&#xe8;" 
d="M264 688l64 -160h-80l-96 160h112zM283 112q68 0 113 48l68 -94q-77 -74 -183 -74q-113 0 -180 70q-69 69 -69 170q0 102 68 172q68 68 181 68q56 0 117 -35q72 -43 98 -141l-278 -169q26 -15 65 -15zM283 352q-53 0 -88 -34.5t-35 -85.5q0 -2 2 -18l186 109
q-26 29 -65 29z" />
    <glyph glyph-name="eacute" unicode="&#xe9;" 
d="M264 688h112l-96 -160h-80zM283 112q68 0 113 48l68 -94q-77 -74 -183 -74q-113 0 -180 70q-69 69 -69 170q0 102 68 172q68 68 181 68q56 0 117 -35q72 -43 98 -141l-278 -169q26 -15 65 -15zM283 352q-53 0 -88 -34.5t-35 -85.5q0 -2 2 -18l186 109q-26 29 -65 29z" />
    <glyph glyph-name="ecircumflex" unicode="&#xea;" 
d="M320 528l-56 72l-56 -72h-80l136 160l136 -160h-80zM283 112q68 0 113 48l68 -94q-77 -74 -183 -74q-113 0 -180 70q-69 69 -69 170q0 102 68 172q68 68 181 68q56 0 117 -35q72 -43 98 -141l-278 -169q26 -15 65 -15zM283 352q-53 0 -88 -34.5t-35 -85.5q0 -2 2 -18
l186 109q-26 29 -65 29z" />
    <glyph glyph-name="edieresis" unicode="&#xeb;" 
d="M214 547q-19 -19 -46 -19t-45 19q-19 18 -19 45t19 46q18 18 45 18t46 -18q18 -19 18 -46t-18 -45zM406 547q-19 -19 -46 -19t-45 19q-19 18 -19 45t19 46q18 18 45 18t46 -18q18 -19 18 -46t-18 -45zM283 112q68 0 113 48l68 -94q-77 -74 -183 -74q-113 0 -180 70
q-69 69 -69 170q0 102 68 172q68 68 181 68q56 0 117 -35q72 -43 98 -141l-278 -169q26 -15 65 -15zM283 352q-53 0 -88 -34.5t-35 -85.5q0 -2 2 -18l186 109q-26 29 -65 29z" />
    <glyph glyph-name="igrave" unicode="&#xec;" horiz-adv-x="256" 
d="M128 688l64 -160h-80l-96 160h112zM192 0h-128v464h128v-464z" />
    <glyph glyph-name="iacute" unicode="&#xed;" horiz-adv-x="256" 
d="M144 528h-80l64 160h112zM192 0h-128v464h128v-464z" />
    <glyph glyph-name="icircumflex" unicode="&#xee;" horiz-adv-x="256" 
d="M264 528h-80l-56 72l-56 -72h-80l136 160zM192 0h-128v464h128v-464z" />
    <glyph glyph-name="idieresis" unicode="&#xef;" horiz-adv-x="256" 
d="M78 547q-19 -19 -46 -19t-46 19q-18 18 -18 45t18 46q19 18 46 18t46 -18q18 -19 18 -46t-18 -45zM270 547q-19 -19 -46 -19t-45 19q-19 18 -19 45t19 46q18 18 45 18t46 -18q18 -19 18 -46t-18 -45zM192 0h-128v464h128v-464z" />
    <glyph glyph-name="eth" unicode="&#xf0;" horiz-adv-x="560" 
d="M308 590l137 -152q83 -92 83 -206q0 -99 -71 -170q-71 -70 -177 -70q-109 0 -178 70q-70 69 -70 170q0 98 63 166t168 74l-61 71l-106 -47v72l61 27l-95 109h144l56 -62l106 47v-72zM195 147q35 -35 85 -35q51 0 86 35q34 34 34 85t-34 85q-35 35 -86 35q-50 0 -85 -35
t-35 -85t35 -85z" />
    <glyph glyph-name="ntilde" unicode="&#xf1;" horiz-adv-x="544" 
d="M408 640l56 -53q-42 -59 -110 -59q-34 0 -75 15q-114 38 -143 -15l-56 53q42 59 110 59q36 0 75 -14q108 -43 143 14zM312 472q84 0 134 -56t50 -160v-256h-128v256q0 96 -88 96q-36 0 -62 -29.5t-26 -82.5v-240h-128v464h128v-48q47 56 120 56z" />
    <glyph glyph-name="ograve" unicode="&#xf2;" horiz-adv-x="560" 
d="M272 688l64 -160h-80l-96 160h112zM280 472q105 0 176 -70q72 -70 72 -170q0 -99 -71 -170q-71 -70 -177 -70q-109 0 -178 70q-70 69 -70 170t68 171q68 69 180 69zM195 147q35 -35 85 -35q51 0 86 35q34 34 34 85t-34 85q-35 35 -86 35q-50 0 -85 -35t-35 -85t35 -85z
" />
    <glyph glyph-name="oacute" unicode="&#xf3;" horiz-adv-x="560" 
d="M304 528h-80l64 160h112zM280 472q105 0 176 -70q72 -70 72 -170q0 -99 -71 -170q-71 -70 -177 -70q-109 0 -178 70q-70 69 -70 170t68 171q68 69 180 69zM195 147q35 -35 85 -35q51 0 86 35q34 34 34 85t-34 85q-35 35 -86 35q-50 0 -85 -35t-35 -85t35 -85z" />
    <glyph glyph-name="ocircumflex" unicode="&#xf4;" horiz-adv-x="560" 
d="M416 528h-80l-56 72l-56 -72h-80l136 160zM280 472q105 0 176 -70q72 -70 72 -170q0 -99 -71 -170q-71 -70 -177 -70q-109 0 -178 70q-70 69 -70 170t68 171q68 69 180 69zM195 147q35 -35 85 -35q51 0 86 35q34 34 34 85t-34 85q-35 35 -86 35q-50 0 -85 -35t-35 -85
t35 -85z" />
    <glyph glyph-name="otilde" unicode="&#xf5;" horiz-adv-x="560" 
d="M416 640l56 -53q-42 -59 -110 -59q-34 0 -75 15q-114 38 -143 -15l-56 53q42 59 110 59q36 0 75 -14q108 -43 143 14zM280 472q105 0 176 -70q72 -70 72 -170q0 -99 -71 -170q-71 -70 -177 -70q-109 0 -178 70q-70 69 -70 170t68 171q68 69 180 69zM195 147
q35 -35 85 -35q51 0 86 35q34 34 34 85t-34 85q-35 35 -86 35q-50 0 -85 -35t-35 -85t35 -85z" />
    <glyph glyph-name="odieresis" unicode="&#xf6;" horiz-adv-x="560" 
d="M230 547q-19 -19 -46 -19t-45 19q-19 18 -19 45t19 46q18 18 45 18t46 -18q18 -19 18 -46t-18 -45zM422 547q-19 -19 -46 -19t-45 19q-19 18 -19 45t19 46q18 18 45 18t46 -18q18 -19 18 -46t-18 -45zM280 472q105 0 176 -70q72 -70 72 -170q0 -99 -71 -170
q-71 -70 -177 -70q-109 0 -178 70q-70 69 -70 170t68 171q68 69 180 69zM195 147q35 -35 85 -35q51 0 86 35q34 34 34 85t-34 85q-35 35 -86 35q-50 0 -85 -35t-35 -85t35 -85z" />
    <glyph glyph-name="divide" unicode="&#xf7;" horiz-adv-x="464" 
d="M289 503q-23 -23 -57 -23t-57 23t-23 57t23 57t57 23t57 -23t23 -57t-23 -57zM48 296v96h368v-96h-368zM289 71q-23 -23 -57 -23t-57 23t-23 57t23 57t57 23t57 -23t23 -57t-23 -57z" />
    <glyph glyph-name="oslash" unicode="&#xf8;" horiz-adv-x="560" 
d="M280 472q105 0 176 -70q72 -70 72 -170q0 -99 -71 -170q-71 -70 -177 -70q-109 0 -178 70q-70 69 -70 170t68 171q68 69 180 69zM280 352q-51 0 -85.5 -35t-34.5 -85q0 -34 17 -63l150 174q-21 9 -47 9zM280 112q51 0 85.5 35t34.5 85q0 34 -17 63l-150 -174q21 -9 47 -9
z" />
    <glyph glyph-name="ugrave" unicode="&#xf9;" horiz-adv-x="544" 
d="M256 688l64 -160h-80l-96 160h112zM232 -8q-84 0 -134 56t-50 160v256h128v-256q0 -96 88 -96q36 0 62 29.5t26 82.5v240h128v-464h-128v48q-47 -56 -120 -56z" />
    <glyph glyph-name="uacute" unicode="&#xfa;" horiz-adv-x="544" 
d="M288 528h-80l64 160h112zM232 -8q-84 0 -134 56t-50 160v256h128v-256q0 -96 88 -96q36 0 62 29.5t26 82.5v240h128v-464h-128v48q-47 -56 -120 -56z" />
    <glyph glyph-name="ucircumflex" unicode="&#xfb;" horiz-adv-x="544" 
d="M400 528h-80l-56 72l-56 -72h-80l136 160zM232 -8q-84 0 -134 56t-50 160v256h128v-256q0 -96 88 -96q36 0 62 29.5t26 82.5v240h128v-464h-128v48q-47 -56 -120 -56z" />
    <glyph glyph-name="udieresis" unicode="&#xfc;" horiz-adv-x="544" 
d="M214 547q-19 -19 -46 -19t-45 19q-19 18 -19 45t19 46q18 18 45 18t46 -18q18 -19 18 -46t-18 -45zM406 547q-19 -19 -46 -19t-45 19q-19 18 -19 45t19 46q18 18 45 18t46 -18q18 -19 18 -46t-18 -45zM232 -8q-84 0 -134 56t-50 160v256h128v-256q0 -96 88 -96
q36 0 62 29.5t26 82.5v240h128v-464h-128v48q-47 -56 -120 -56z" />
    <glyph glyph-name="yacute" unicode="&#xfd;" 
d="M272 528h-80l64 160h112zM256 188l112 276h144l-304 -720h-144l123 282l-187 438h144z" />
    <glyph glyph-name="thorn" unicode="&#xfe;" horiz-adv-x="592" 
d="M64 704h128v-288q54 56 138 56q98 0 164 -68q66 -69 66 -172q0 -104 -66 -171q-66 -69 -164 -69q-83 0 -138 58v-306h-128v960zM227 147q35 -35 85 -35t85 35t35 85t-35 85t-85 35t-85 -35t-35 -85t35 -85z" />
    <glyph glyph-name="ydieresis" unicode="&#xff;" 
d="M206 547q-19 -19 -46 -19t-45 19q-19 18 -19 45t19 46q18 18 45 18t46 -18q18 -19 18 -46t-18 -45zM398 547q-19 -19 -46 -19t-45 19q-19 18 -19 45t19 46q18 18 45 18t46 -18q18 -19 18 -46t-18 -45zM256 188l112 276h144l-304 -720h-144l123 282l-187 438h144z" />
    <glyph glyph-name="Amacron" unicode="&#x100;" horiz-adv-x="640" 
d="M192 864h256v-80h-256v80zM640 0h-138l-40 96h-284l-40 -96h-138l320 720zM320 432l-94 -224h188z" />
    <glyph glyph-name="amacron" unicode="&#x101;" 
d="M384 624v-80h-256v80h256zM464 226v-226h-128v48q-54 -56 -130 -56q-79 0 -126.5 44t-47.5 111q0 58 44.5 98.5t113.5 48.5q68 8 144 -12q-6 74 -94 74q-51 0 -104 -31l-48 99q74 48 168 48q96 0 152 -61.5t56 -184.5zM336 187q-75 24 -125 12q-51 -13 -51 -52
q0 -24 20 -39.5t50 -15.5q36 0 67 27t39 68z" />
    <glyph glyph-name="Abreve" unicode="&#x102;" horiz-adv-x="640" 
d="M417 808q-40 -40 -97 -40t-96 40q-40 39 -40 96h64q0 -29 21.5 -50.5t50.5 -21.5t50.5 21.5t21.5 50.5h64q0 -56 -39 -96zM640 0h-138l-40 96h-284l-40 -96h-138l320 720zM320 432l-94 -224h188z" />
    <glyph glyph-name="abreve" unicode="&#x103;" 
d="M328 664h64q0 -56 -39 -96q-40 -40 -97 -40t-96 40q-40 39 -40 96h64q0 -29 21.5 -50.5t50.5 -21.5t50.5 21.5t21.5 50.5zM464 226v-226h-128v48q-54 -56 -130 -56q-79 0 -126.5 44t-47.5 111q0 58 44.5 98.5t113.5 48.5q68 8 144 -12q-6 74 -94 74q-51 0 -104 -31
l-48 99q74 48 168 48q96 0 152 -61.5t56 -184.5zM336 187q-75 24 -125 12q-51 -13 -51 -52q0 -24 20 -39.5t50 -15.5q36 0 67 27t39 68z" />
    <glyph glyph-name="Aogonek" unicode="&#x104;" horiz-adv-x="640" 
d="M630 -122l26 -54q-13 -13 -35.5 -22.5t-42.5 -9.5q-51 0 -82.5 32.5t-31.5 81.5q0 53 38 94l-40 96h-284l-40 -96h-138l320 720l320 -720q-42 0 -77 -27t-35 -63q0 -42 37 -52q36 -10 65 20zM320 432l-94 -224h188z" />
    <glyph glyph-name="aogonek" unicode="&#x105;" 
d="M454 -122l26 -54q-13 -13 -35.5 -22.5t-42.5 -9.5q-51 0 -82.5 32.5t-31.5 81.5q0 28 14 57t34 45v40q-54 -56 -130 -56q-79 0 -126.5 44t-47.5 111q0 58 44.5 98.5t113.5 48.5q68 8 144 -12q-6 74 -94 74q-51 0 -104 -31l-48 99q74 48 168 48q96 0 152 -61.5t56 -184.5
v-226q-42 0 -77 -27t-35 -63q0 -42 37 -52q36 -10 65 20zM230 92q36 0 67 27t39 68q-75 24 -125 12q-51 -13 -51 -52q0 -24 20 -39.5t50 -15.5z" />
    <glyph glyph-name="Cacute" unicode="&#x106;" horiz-adv-x="640" 
d="M416 768h-80l64 160h112zM412 112q81 0 144 48l68 -96q-88 -72 -213 -72q-159 0 -269 105t-110 255t110 255t269 105q125 0 213 -72l-68 -96q-68 48 -144 48q-103 0 -177 -65q-75 -65 -75 -175t75 -175q74 -65 177 -65z" />
    <glyph glyph-name="cacute" unicode="&#x107;" horiz-adv-x="480" 
d="M288 528h-80l64 160h112zM283 112q57 0 97 48l68 -94q-68 -74 -167 -74q-113 0 -181 69q-68 68 -68 171q0 102 68 172q68 68 181 68q99 0 167 -74l-68 -94q-40 48 -97 48q-52 0 -87.5 -35t-35.5 -85t35.5 -85t87.5 -35z" />
    <glyph glyph-name="Cdotaccent" unicode="&#x10a;" horiz-adv-x="640" 
d="M457 776q-24 -24 -57 -24t-56 24q-24 23 -24 56t24 57q23 23 56 23t57 -23q23 -24 23 -57t-23 -56zM412 112q81 0 144 48l68 -96q-88 -72 -213 -72q-159 0 -269 105t-110 255t110 255t269 105q125 0 213 -72l-68 -96q-68 48 -144 48q-103 0 -177 -65q-75 -65 -75 -175
t75 -175q74 -65 177 -65z" />
    <glyph glyph-name="cdotaccent" unicode="&#x10b;" horiz-adv-x="480" 
d="M329 536q-24 -24 -57 -24t-56 24q-24 23 -24 56t24 57q23 23 56 23t57 -23q23 -24 23 -57t-23 -56zM283 112q57 0 97 48l68 -94q-68 -74 -167 -74q-113 0 -181 69q-68 68 -68 171q0 102 68 172q68 68 181 68q99 0 167 -74l-68 -94q-40 48 -97 48q-52 0 -87.5 -35
t-35.5 -85t35.5 -85t87.5 -35z" />
    <glyph glyph-name="Ccaron" unicode="&#x10c;" horiz-adv-x="640" 
d="M392 856l56 72h80l-136 -160l-136 160h80zM412 112q81 0 144 48l68 -96q-88 -72 -213 -72q-159 0 -269 105t-110 255t110 255t269 105q125 0 213 -72l-68 -96q-68 48 -144 48q-103 0 -177 -65q-75 -65 -75 -175t75 -175q74 -65 177 -65z" />
    <glyph glyph-name="ccaron" unicode="&#x10d;" horiz-adv-x="480" 
d="M272 616l56 72h80l-136 -160l-136 160h80zM283 112q57 0 97 48l68 -94q-68 -74 -167 -74q-113 0 -181 69q-68 68 -68 171q0 102 68 172q68 68 181 68q99 0 167 -74l-68 -94q-40 48 -97 48q-52 0 -87.5 -35t-35.5 -85t35.5 -85t87.5 -35z" />
    <glyph glyph-name="Dcaron" unicode="&#x10e;" horiz-adv-x="608" 
d="M280 856l56 72h80l-136 -160l-136 160h80zM64 704h151q116 0 200.5 -48.5t123.5 -129.5q37 -77 37 -174q0 -150 -94 -250q-94 -102 -267 -102h-151v704zM192 120h46q91 0 151 70q59 71 59 162t-59 162q-60 70 -151 70h-46v-464z" />
    <glyph glyph-name="dcaron" unicode="&#x10f;" horiz-adv-x="720" 
d="M400 416v320h128v-736h-128v50q-55 -58 -138 -58q-98 0 -164 69q-66 67 -66 171q0 103 66 172q66 68 164 68q84 0 138 -56zM656 560h-80v144h112zM195 147q35 -35 85 -35t85 35t35 85t-35 85t-85 35t-85 -35t-35 -85t35 -85z" />
    <glyph glyph-name="Dcroat" unicode="&#x110;" horiz-adv-x="608" 
d="M64 704h151q116 0 200.5 -48.5t123.5 -129.5q37 -77 37 -174q0 -150 -94 -250q-94 -102 -267 -102h-151v312h-48v80h48v312zM192 120h46q91 0 151 70q59 71 59 162t-59 162q-60 70 -151 70h-46v-192h96v-80h-96v-192z" />
    <glyph glyph-name="dslash" unicode="&#x111;" horiz-adv-x="608" 
d="M528 632h48v-64h-48v-568h-128v50q-55 -58 -138 -58q-98 0 -164 69q-66 67 -66 171q0 103 66 172q66 68 164 68q84 0 138 -56v152h-96v64h96v104h128v-104zM195 147q35 -35 85 -35t85 35t35 85t-35 85t-85 35t-85 -35t-35 -85t35 -85z" />
    <glyph glyph-name="Emacron" unicode="&#x112;" horiz-adv-x="480" 
d="M368 864v-80h-256v80h256zM432 704v-120h-240v-212h176v-120h-176v-132h240v-120h-368v704h368z" />
    <glyph glyph-name="emacron" unicode="&#x113;" 
d="M136 624h256v-80h-256v80zM283 112q68 0 113 48l68 -94q-77 -74 -183 -74q-113 0 -180 70q-69 69 -69 170q0 102 68 172q68 68 181 68q56 0 117 -35q72 -43 98 -141l-278 -169q26 -15 65 -15zM283 352q-53 0 -88 -34.5t-35 -85.5q0 -2 2 -18l186 109q-26 29 -65 29z" />
    <glyph glyph-name="Edotaccent" unicode="&#x116;" horiz-adv-x="480" 
d="M305 776q-24 -24 -57 -24t-56 24q-24 23 -24 56t24 57q23 23 56 23t57 -23q23 -24 23 -57t-23 -56zM432 704v-120h-240v-212h176v-120h-176v-132h240v-120h-368v704h368z" />
    <glyph glyph-name="edotaccent" unicode="&#x117;" 
d="M321 536q-24 -24 -57 -24t-56 24q-24 23 -24 56t24 57q23 23 56 23t57 -23q23 -24 23 -57t-23 -56zM283 112q68 0 113 48l68 -94q-77 -74 -183 -74q-113 0 -180 70q-69 69 -69 170q0 102 68 172q68 68 181 68q56 0 117 -35q72 -43 98 -141l-278 -169q26 -15 65 -15z
M283 352q-53 0 -88 -34.5t-35 -85.5q0 -2 2 -18l186 109q-26 29 -65 29z" />
    <glyph glyph-name="Eogonek" unicode="&#x118;" horiz-adv-x="480" 
d="M422 -122l26 -54q-13 -13 -35.5 -22.5t-42.5 -9.5q-51 0 -82.5 32.5t-31.5 81.5q0 53 40 94h-232v704h368v-120h-240v-212h176v-120h-176v-132h240v-120q-42 0 -77 -27t-35 -63q0 -42 37 -52q36 -10 65 20z" />
    <glyph glyph-name="eogonek" unicode="&#x119;" 
d="M350 0q-78 -32 -78 -90q0 -42 37 -52q36 -10 65 20l26 -54q-13 -13 -35.5 -22.5t-42.5 -9.5q-38 -2 -66.5 18.5t-40 51t-5.5 67.5t31 66q-97 12 -152 79q-57 68 -57 158q0 102 68 172q68 68 181 68q56 0 117 -35q72 -43 98 -141l-278 -169q26 -15 65 -15q68 0 113 48
l68 -94q-46 -46 -114 -66zM283 352q-53 0 -88 -34.5t-35 -85.5q0 -2 2 -18l186 109q-26 29 -65 29z" />
    <glyph glyph-name="Ecaron" unicode="&#x11a;" horiz-adv-x="480" 
d="M240 856l56 72h80l-136 -160l-136 160h80zM432 704v-120h-240v-212h176v-120h-176v-132h240v-120h-368v704h368z" />
    <glyph glyph-name="ecaron" unicode="&#x11b;" 
d="M320 688h80l-136 -160l-136 160h80l56 -72zM283 112q68 0 113 48l68 -94q-77 -74 -183 -74q-113 0 -180 70q-69 69 -69 170q0 102 68 172q68 68 181 68q56 0 117 -35q72 -43 98 -141l-278 -169q26 -15 65 -15zM283 352q-53 0 -88 -34.5t-35 -85.5q0 -2 2 -18l186 109
q-26 29 -65 29z" />
    <glyph glyph-name="Gbreve" unicode="&#x11e;" horiz-adv-x="784" 
d="M464 904h64q0 -56 -39 -96q-40 -40 -97 -40t-96 40q-40 39 -40 96h64q0 -29 21.5 -50.5t50.5 -21.5t50.5 21.5t21.5 50.5zM384 372h367q1 -9 1 -34q0 -146 -99 -246t-244 -100q-160 0 -268 105q-109 105 -109 255t110 255t269 105q125 0 213 -72l-68 -96q-68 48 -144 48
q-103 0 -177 -65q-75 -65 -75 -175t74 -175t176 -65q76 0 131 42q54 39 71 98h-228v120z" />
    <glyph glyph-name="gbreve" unicode="&#x11f;" horiz-adv-x="592" 
d="M376 664h64q0 -56 -39 -96q-40 -40 -97 -40t-96 40q-40 39 -40 96h64q0 -29 21.5 -50.5t50.5 -21.5t50.5 21.5t21.5 50.5zM400 416v48h128v-432q0 -142 -67.5 -219t-188.5 -77q-119 0 -192 64l60 100q59 -44 123 -44q63 0 100 44t37 117v33q-55 -58 -138 -58
q-98 0 -164 69q-66 67 -66 171q0 103 66 172q66 68 164 68q84 0 138 -56zM195 147q35 -35 85 -35t85 35t35 85t-35 85t-85 35t-85 -35t-35 -85t35 -85z" />
    <glyph glyph-name="Gdotaccent" unicode="&#x120;" horiz-adv-x="784" 
d="M457 776q-24 -24 -57 -24t-56 24q-24 23 -24 56t24 57q23 23 56 23t57 -23q23 -24 23 -57t-23 -56zM384 372h367q1 -9 1 -34q0 -146 -99 -246t-244 -100q-160 0 -268 105q-109 105 -109 255t110 255t269 105q125 0 213 -72l-68 -96q-68 48 -144 48q-103 0 -177 -65
q-75 -65 -75 -175t74 -175t176 -65q76 0 131 42q54 39 71 98h-228v120z" />
    <glyph glyph-name="gdotaccent" unicode="&#x121;" horiz-adv-x="592" 
d="M353 536q-24 -24 -57 -24t-56 24q-24 23 -24 56t24 57q23 23 56 23t57 -23q23 -24 23 -57t-23 -56zM400 416v48h128v-432q0 -142 -67.5 -219t-188.5 -77q-119 0 -192 64l60 100q59 -44 123 -44q63 0 100 44t37 117v33q-55 -58 -138 -58q-98 0 -164 69q-66 67 -66 171
q0 103 66 172q66 68 164 68q84 0 138 -56zM195 147q35 -35 85 -35t85 35t35 85t-35 85t-85 35t-85 -35t-35 -85t35 -85z" />
    <glyph glyph-name="Gcommaaccent" unicode="&#x122;" horiz-adv-x="784" 
d="M384 372h367q1 -9 1 -34q0 -146 -99 -246t-244 -100q-160 0 -268 105q-109 105 -109 255t110 255t269 105q125 0 213 -72l-68 -96q-68 48 -144 48q-103 0 -177 -65q-75 -65 -75 -175t74 -175t176 -65q76 0 131 42q54 39 71 98h-228v120zM424 -208h-80v144h112z" />
    <glyph glyph-name="gcommaaccent" unicode="&#x123;" horiz-adv-x="592" 
d="M288 672h80v-144h-112zM400 416v48h128v-432q0 -142 -67.5 -219t-188.5 -77q-119 0 -192 64l60 100q59 -44 123 -44q63 0 100 44t37 117v33q-55 -58 -138 -58q-98 0 -164 69q-66 67 -66 171q0 103 66 172q66 68 164 68q84 0 138 -56zM195 147q35 -35 85 -35t85 35t35 85
t-35 85t-85 35t-85 -35t-35 -85t35 -85z" />
    <glyph glyph-name="Hbar" unicode="&#x126;" horiz-adv-x="592" 
d="M400 584v120h128v-704h-128v252h-208v-252h-128v704h128v-120h208zM192 372h208v148h-208v-148z" />
    <glyph glyph-name="hbar" unicode="&#x127;" horiz-adv-x="544" 
d="M312 472q84 0 134 -56t50 -160v-256h-128v256q0 96 -88 96q-36 0 -62 -29.5t-26 -82.5v-240h-128v568h-48v64h48v104h128v-104h96v-64h-96v-152q47 56 120 56z" />
    <glyph glyph-name="Imacron" unicode="&#x12a;" horiz-adv-x="256" 
d="M256 864v-80h-256v80h256zM192 704v-704h-128v704h128z" />
    <glyph glyph-name="imacron" unicode="&#x12b;" horiz-adv-x="256" 
d="M256 624v-80h-256v80h256zM192 0h-128v464h128v-464z" />
    <glyph glyph-name="Iogonek" unicode="&#x12e;" horiz-adv-x="256" 
d="M182 -122l26 -54q-13 -13 -35.5 -22.5t-42.5 -9.5q-51 0 -82.5 32.5t-31.5 81.5q0 28 14 57t34 45v696h128v-704q-42 0 -77 -27t-35 -63q0 -42 37 -52q36 -10 65 20z" />
    <glyph glyph-name="iogonek" unicode="&#x12f;" horiz-adv-x="256" 
d="M185 568q-24 -24 -57 -24t-56 24q-24 23 -24 56t24 57q23 23 56 23t57 -23q23 -24 23 -57t-23 -56zM80 -90q0 -42 37 -52q36 -10 65 20l26 -54q-13 -13 -35.5 -22.5t-42.5 -9.5q-51 0 -82.5 32.5t-31.5 81.5q0 28 14 57t34 45v456h128v-464q-42 0 -77 -27t-35 -63z" />
    <glyph glyph-name="Idot" unicode="&#x130;" horiz-adv-x="256" 
d="M185 776q-24 -24 -57 -24t-56 24q-24 23 -24 56t24 57q23 23 56 23t57 -23q23 -24 23 -57t-23 -56zM192 704v-704h-128v704h128z" />
    <glyph glyph-name="dotlessi" unicode="&#x131;" horiz-adv-x="256" 
d="M192 0h-128v464h128v-464z" />
    <glyph glyph-name="IJ" unicode="&#x132;" horiz-adv-x="688" 
d="M192 704v-704h-128v704h128zM512 234v470h128v-456q0 -256 -217 -256q-38 0 -75.5 12.5t-59.5 31.5l72 96q23 -20 58 -20q44 0 69 31.5t25 90.5z" />
    <glyph glyph-name="ij" unicode="&#x133;" horiz-adv-x="504" 
d="M185 568q-24 -24 -57 -24t-56 24q-24 23 -24 56t24 57q23 23 56 23t57 -23q23 -24 23 -57t-23 -56zM433 568q-24 -24 -57 -24t-56 24q-24 23 -24 56t24 57q23 23 56 23t57 -23q23 -24 23 -57t-23 -56zM192 0h-128v464h128v-464zM440 -224l-128 -48v736h128v-688z" />
    <glyph glyph-name="Kcommaaccent" unicode="&#x136;" horiz-adv-x="560" 
d="M528 704l-216 -314l232 -390h-160l-152 274l-40 -58v-216h-128v704h128v-280l184 280h152zM288 -208h-80v144h112z" />
    <glyph glyph-name="kcommaaccent" unicode="&#x137;" 
d="M496 464l-179 -201l195 -263h-156l-121 170l-43 -48v-122h-128v736h128v-438l152 166h152zM280 -208h-80v144h112z" />
    <glyph glyph-name="Lacute" unicode="&#x139;" horiz-adv-x="464" 
d="M144 768h-80l64 160h112zM64 0v704h128v-584h240v-120h-368z" />
    <glyph glyph-name="lacute" unicode="&#x13a;" horiz-adv-x="256" 
d="M144 800h-80l64 160h112zM64 0v736h128v-736h-128z" />
    <glyph glyph-name="Lcommaaccent" unicode="&#x13b;" horiz-adv-x="464" 
d="M64 0v704h128v-584h240v-120h-368zM272 -208h-80v144h112z" />
    <glyph glyph-name="lcommaaccent" unicode="&#x13c;" horiz-adv-x="256" 
d="M64 0v736h128v-736h-128zM152 -208h-80v144h112z" />
    <glyph glyph-name="Lcaron" unicode="&#x13d;" horiz-adv-x="464" 
d="M64 0v704h128v-584h240v-120h-368zM400 560h-80v144h112z" />
    <glyph glyph-name="lcaron" unicode="&#x13e;" horiz-adv-x="384" 
d="M64 0v736h128v-736h-128zM320 560h-80v144h112z" />
    <glyph glyph-name="Ldot" unicode="&#x13f;" horiz-adv-x="464" 
d="M64 0v704h128v-584h240v-120h-368zM425 327q-23 -23 -57 -23t-57 23t-23 57t23 57t57 23t57 -23t23 -57t-23 -57z" />
    <glyph glyph-name="ldot" unicode="&#x140;" horiz-adv-x="416" 
d="M64 0v736h128v-736h-128zM377 319q-23 -23 -57 -23t-57 23t-23 57t23 57t57 23t57 -23t23 -57t-23 -57z" />
    <glyph glyph-name="Lslash" unicode="&#x141;" horiz-adv-x="464" 
d="M192 346v-226h240v-120h-368v310l-48 -14v64l48 14v330h128v-294l48 14v-64z" />
    <glyph glyph-name="lslash" unicode="&#x142;" horiz-adv-x="256" 
d="M192 418l48 14v-64l-48 -14v-354h-128v318l-48 -14v64l48 14v354h128v-318z" />
    <glyph glyph-name="Nacute" unicode="&#x143;" horiz-adv-x="624" 
d="M320 768h-80l64 160h112zM432 312v392h128v-720l-368 408v-392h-128v720z" />
    <glyph glyph-name="nacute" unicode="&#x144;" horiz-adv-x="544" 
d="M288 528h-80l64 160h112zM312 472q84 0 134 -56t50 -160v-256h-128v256q0 96 -88 96q-36 0 -62 -29.5t-26 -82.5v-240h-128v464h128v-48q47 56 120 56z" />
    <glyph glyph-name="Ncommaaccent" unicode="&#x145;" horiz-adv-x="624" 
d="M432 312v392h128v-720l-368 408v-392h-128v720zM336 -208h-80v144h112z" />
    <glyph glyph-name="ncommaaccent" unicode="&#x146;" horiz-adv-x="544" 
d="M312 472q84 0 134 -56t50 -160v-256h-128v256q0 96 -88 96q-36 0 -62 -29.5t-26 -82.5v-240h-128v464h128v-48q47 56 120 56zM296 -208h-80v144h112z" />
    <glyph glyph-name="Ncaron" unicode="&#x147;" horiz-adv-x="624" 
d="M312 856l56 72h80l-136 -160l-136 160h80zM432 312v392h128v-720l-368 408v-392h-128v720z" />
    <glyph glyph-name="ncaron" unicode="&#x148;" horiz-adv-x="544" 
d="M272 616l56 72h80l-136 -160l-136 160h80zM312 472q84 0 134 -56t50 -160v-256h-128v256q0 96 -88 96q-36 0 -62 -29.5t-26 -82.5v-240h-128v464h128v-48q47 56 120 56z" />
    <glyph glyph-name="Eng" unicode="&#x14a;" horiz-adv-x="624" 
d="M432 312v392h128v-704q0 -73 -18 -126.5t-49 -82t-66 -42t-75 -13.5l-28 120q48 1 78 35t30 93v142l-240 266v-392h-128v720z" />
    <glyph glyph-name="eng" unicode="&#x14b;" horiz-adv-x="544" 
d="M312 472q84 0 134 -56t50 -160v-256q0 -73 -18 -126.5t-49 -82t-66 -42t-75 -13.5l-28 120q48 1 78 35t30 93v272q0 96 -88 96q-36 0 -62 -29.5t-26 -82.5v-240h-128v464h128v-48q47 56 120 56z" />
    <glyph glyph-name="Omacron" unicode="&#x14c;" horiz-adv-x="784" 
d="M520 864v-80h-256v80h256zM138 607q105 105 254 105q148 0 255 -105q105 -107 105 -255q0 -149 -105 -254q-106 -106 -255 -106t-254 106q-106 105 -106 254t106 255zM228 182q67 -70 164 -70t164 70q68 71 68 170t-68 170q-67 70 -164 70t-164 -70q-68 -71 -68 -170
t68 -170z" />
    <glyph glyph-name="omacron" unicode="&#x14d;" horiz-adv-x="560" 
d="M408 624v-80h-256v80h256zM280 472q105 0 176 -70q72 -70 72 -170q0 -99 -71 -170q-71 -70 -177 -70q-109 0 -178 70q-70 69 -70 170t68 171q68 69 180 69zM195 147q35 -35 85 -35q51 0 86 35q34 34 34 85t-34 85q-35 35 -86 35q-50 0 -85 -35t-35 -85t35 -85z" />
    <glyph glyph-name="Ohungarumlaut" unicode="&#x150;" horiz-adv-x="784" 
d="M312 768h-72v144h104zM536 768h-72v144h104zM138 607q105 105 254 105q148 0 255 -105q105 -107 105 -255q0 -149 -105 -254q-106 -106 -255 -106t-254 106q-106 105 -106 254t106 255zM228 182q67 -70 164 -70t164 70q68 71 68 170t-68 170q-67 70 -164 70t-164 -70
q-68 -71 -68 -170t68 -170z" />
    <glyph glyph-name="ohungarumlaut" unicode="&#x151;" horiz-adv-x="560" 
d="M200 528h-72v144h104zM424 528h-72v144h104zM280 472q105 0 176 -70q72 -70 72 -170q0 -99 -71 -170q-71 -70 -177 -70q-109 0 -178 70q-70 69 -70 170t68 171q68 69 180 69zM195 147q35 -35 85 -35q51 0 86 35q34 34 34 85t-34 85q-35 35 -86 35q-50 0 -85 -35t-35 -85
t35 -85z" />
    <glyph glyph-name="OE" unicode="&#x152;" horiz-adv-x="1040" 
d="M992 704v-120h-240v-212h176v-120h-176v-132h240v-120h-368v77q-100 -85 -232 -85q-149 0 -254 106q-106 105 -106 254t106 255q105 105 254 105q132 0 232 -85v77h368zM228 182q67 -70 164 -70t164 70q68 71 68 170t-68 170q-67 70 -164 70t-164 -70q-68 -71 -68 -170
t68 -170z" />
    <glyph glyph-name="oe" unicode="&#x153;" horiz-adv-x="880" 
d="M651 112q68 0 113 48l68 -94q-77 -74 -183 -74q-117 0 -187 76q-73 -76 -182 -76t-178 70q-70 69 -70 170t68 171q68 69 180 69q108 0 181 -75q71 75 188 75q56 0 117 -35q72 -43 98 -141l-278 -169q26 -15 65 -15zM195 147q35 -35 85 -35q51 0 86 35q34 34 34 85t-34 85
q-35 35 -86 35q-50 0 -85 -35t-35 -85t35 -85zM651 352q-53 0 -88 -34.5t-35 -85.5q0 -2 2 -18l186 109q-26 29 -65 29z" />
    <glyph glyph-name="Racute" unicode="&#x154;" horiz-adv-x="528" 
d="M248 928h112l-96 -160h-80zM361 251l135 -251h-144l-107 217q-5 -1 -23 -1h-30v-216h-128v704h142q134 0 205 -69q69 -71 69 -175q0 -65 -31.5 -120.5t-87.5 -88.5zM192 584v-248h37q52 0 87.5 36t35.5 88q0 56 -34.5 90t-88.5 34h-37z" />
    <glyph glyph-name="racute" unicode="&#x155;" horiz-adv-x="400" 
d="M200 528h-80l64 160h112zM192 464v-89q49 90 176 97v-152q-45 12 -88 0q-40 -12 -64 -47t-24 -88v-185h-128v464h128z" />
    <glyph glyph-name="Rcommaaccent" unicode="&#x156;" horiz-adv-x="528" 
d="M361 251l135 -251h-144l-107 217q-5 -1 -23 -1h-30v-216h-128v704h142q134 0 205 -69q69 -71 69 -175q0 -65 -31.5 -120.5t-87.5 -88.5zM192 584v-248h37q52 0 87.5 36t35.5 88q0 56 -34.5 90t-88.5 34h-37zM280 -208h-80v144h112z" />
    <glyph glyph-name="rcommaaccent" unicode="&#x157;" horiz-adv-x="400" 
d="M192 464v-89q49 90 176 97v-152q-45 12 -88 0q-40 -12 -64 -47t-24 -88v-185h-128v464h128zM192 -208h-80v144h112z" />
    <glyph glyph-name="Rcaron" unicode="&#x158;" horiz-adv-x="528" 
d="M304 928h80l-136 -160l-136 160h80l56 -72zM361 251l135 -251h-144l-107 217q-5 -1 -23 -1h-30v-216h-128v704h142q134 0 205 -69q69 -71 69 -175q0 -65 -31.5 -120.5t-87.5 -88.5zM192 584v-248h37q52 0 87.5 36t35.5 88q0 56 -34.5 90t-88.5 34h-37z" />
    <glyph glyph-name="rcaron" unicode="&#x159;" horiz-adv-x="400" 
d="M200 616l56 72h80l-136 -160l-136 160h80zM192 464v-89q49 90 176 97v-152q-45 12 -88 0q-40 -12 -64 -47t-24 -88v-185h-128v464h128z" />
    <glyph glyph-name="Sacute" unicode="&#x15a;" horiz-adv-x="544" 
d="M296 768h-80l64 160h112zM280 451q41 -16 71 -30q27 -13 61 -34q34 -23 54 -45q46 -59 46 -140q0 -86 -66 -148q-67 -62 -170 -62q-96 0 -166 54q-59 45 -78 74l74 90q36 -47 81 -72.5t89 -25.5q46 0 77 25.5t31 58.5q0 80 -96 117q-115 44 -165.5 94.5t-50.5 127.5
q0 76 61 127q61 50 149 50q106 0 191 -78l-70 -94q-58 52 -123 52q-32 0 -56 -16t-24 -41q0 -29 19 -48.5t61 -35.5z" />
    <glyph glyph-name="sacute" unicode="&#x15b;" horiz-adv-x="448" 
d="M240 528h-80l64 160h112zM242 295q90 -22 132 -56.5t42 -95.5q0 -67 -52 -109t-146 -42q-112 0 -186 74l65 95q53 -43 114 -51q35 -4 56 3.5t21 21.5q0 15 -35 26q-2 0 -7.5 1.5l-16.5 4.5l-22 6q-159 41 -159 155q0 62 50.5 103t136.5 41q76 0 150 -50l-59 -99
q-41 26 -88 31q-62 5 -62 -24q0 -12 14 -19t52 -16z" />
    <glyph glyph-name="Scedilla" unicode="&#x15e;" horiz-adv-x="544" 
d="M512 202q0 -82 -60 -142q-59 -61 -156 -67v-41q39 -3 76 -34q36 -30 36 -86q0 -61 -40 -98q-41 -38 -96 -38q-41 0 -72.5 17.5t-47.5 45.5l48 45q18 -44 72 -44q31 0 51.5 21.5t20.5 51.5q0 39 -33.5 57t-78.5 6v100q-70 12 -127 53q-54 39 -73 71l74 90q36 -47 81 -72.5
t89 -25.5q46 0 77 25.5t31 58.5q0 80 -96 117q-115 44 -165.5 94.5t-50.5 127.5q0 76 61 127q61 50 149 50q106 0 191 -78l-70 -94q-58 52 -123 52q-32 0 -56 -16t-24 -41q0 -29 19 -48.5t61 -35.5q41 -16 71 -30q27 -13 61 -34q34 -23 54 -45q46 -59 46 -140z" />
    <glyph glyph-name="scedilla" unicode="&#x15f;" horiz-adv-x="448" 
d="M416 143q0 -62 -43.5 -102.5t-124.5 -47.5v-41q39 -3 76 -34q36 -30 36 -86q0 -61 -40 -98q-41 -38 -96 -38q-41 0 -72.5 17.5t-47.5 45.5l48 45q18 -44 72 -44q31 0 51.5 21.5t20.5 51.5q0 39 -33.5 57t-78.5 6v98q-92 12 -152 72l65 95q53 -43 114 -51q35 -4 56 3.5
t21 21.5q0 15 -35 26q-2 0 -7.5 1.5l-16.5 4.5l-22 6q-159 41 -159 155q0 62 50.5 103t136.5 41q76 0 150 -50l-59 -99q-41 26 -88 31q-62 5 -62 -24q0 -12 14 -19t52 -16q90 -22 132 -56.5t42 -95.5z" />
    <glyph glyph-name="Scaron" unicode="&#x160;" horiz-adv-x="544" 
d="M280 856l56 72h80l-136 -160l-136 160h80zM280 451q41 -16 71 -30q27 -13 61 -34q34 -23 54 -45q46 -59 46 -140q0 -86 -66 -148q-67 -62 -170 -62q-96 0 -166 54q-59 45 -78 74l74 90q36 -47 81 -72.5t89 -25.5q46 0 77 25.5t31 58.5q0 80 -96 117q-115 44 -165.5 94.5
t-50.5 127.5q0 76 61 127q61 50 149 50q106 0 191 -78l-70 -94q-58 52 -123 52q-32 0 -56 -16t-24 -41q0 -29 19 -48.5t61 -35.5z" />
    <glyph glyph-name="scaron" unicode="&#x161;" horiz-adv-x="448" 
d="M224 616l56 72h80l-136 -160l-136 160h80zM242 295q90 -22 132 -56.5t42 -95.5q0 -67 -52 -109t-146 -42q-112 0 -186 74l65 95q53 -43 114 -51q35 -4 56 3.5t21 21.5q0 15 -35 26q-2 0 -7.5 1.5l-16.5 4.5l-22 6q-159 41 -159 155q0 62 50.5 103t136.5 41q76 0 150 -50
l-59 -99q-41 26 -88 31q-62 5 -62 -24q0 -12 14 -19t52 -16z" />
    <glyph glyph-name="uni0162" unicode="&#x162;" horiz-adv-x="480" 
d="M304 584v-584h-32v-48q39 -3 76 -34q36 -30 36 -86q0 -61 -40 -98q-41 -38 -96 -38q-41 0 -72.5 17.5t-47.5 45.5l48 45q18 -44 72 -44q31 0 51.5 21.5t20.5 51.5q0 39 -33.5 57t-78.5 6v104h-32v584h-144v120h416v-120h-144z" />
    <glyph glyph-name="uni0163" unicode="&#x163;" horiz-adv-x="400" 
d="M240 344v-344h-32v-48q39 -3 76 -34q36 -30 36 -86q0 -61 -40 -98q-41 -38 -96 -38q-41 0 -72.5 17.5t-47.5 45.5l48 45q18 -44 72 -44q31 0 51.5 21.5t20.5 51.5q0 39 -33.5 57t-78.5 6v104h-32v344h-80v120h80v152l128 40v-192h128v-120h-128z" />
    <glyph glyph-name="Tcaron" unicode="&#x164;" horiz-adv-x="480" 
d="M240 856l56 72h80l-136 -160l-136 160h80zM32 584v120h416v-120h-144v-584h-128v584h-144z" />
    <glyph glyph-name="tcaron" unicode="&#x165;" 
d="M448 560h-80v144h112zM240 0h-128v344h-80v120h80v152l128 40v-192h128v-120h-128v-344z" />
    <glyph glyph-name="Tbar" unicode="&#x166;" horiz-adv-x="480" 
d="M448 704v-120h-144v-240h64v-64h-64v-280h-128v280h-64v64h64v240h-144v120h416z" />
    <glyph glyph-name="tbar" unicode="&#x167;" horiz-adv-x="400" 
d="M368 464v-120h-128v-80h96v-64h-96v-200h-128v200h-64v64h64v80h-80v120h80v152l128 40v-192h128z" />
    <glyph glyph-name="Umacron" unicode="&#x16a;" horiz-adv-x="608" 
d="M432 864v-80h-256v80h256zM416 256v448h128v-440q0 -126 -68 -199q-67 -73 -172 -73q-106 0 -173 73q-67 71 -67 199v440h128v-448q0 -72 30.5 -108t81.5 -36q48 0 80 36.5t32 107.5z" />
    <glyph glyph-name="umacron" unicode="&#x16b;" horiz-adv-x="544" 
d="M392 624v-80h-256v80h256zM232 -8q-84 0 -134 56t-50 160v256h128v-256q0 -96 88 -96q36 0 62 29.5t26 82.5v240h128v-464h-128v48q-47 -56 -120 -56z" />
    <glyph glyph-name="Uring" unicode="&#x16e;" horiz-adv-x="608" 
d="M424 712v-8h120v-440q0 -126 -68 -199q-67 -73 -172 -73q-106 0 -173 73q-67 71 -67 199v440h120v8q0 50 35 85t85 35t85 -35t35 -85zM343 751q-17 17 -39 17t-39 -17t-17 -39t17 -39t39 -17t39 17t17 39t-17 39zM304 112q48 0 80 36.5t32 107.5v412q-13 -34 -43 -55
t-69 -21t-69 21t-43 55v-412q0 -72 30.5 -108t81.5 -36z" />
    <glyph glyph-name="uring" unicode="&#x16f;" horiz-adv-x="544" 
d="M187 701q35 35 85 35t85 -35t35 -85t-35 -85t-85 -35t-85 35t-35 85t35 85zM233 577q17 -17 39 -17t39 17t17 39t-17 39t-39 17t-39 -17t-17 -39t17 -39zM232 -8q-84 0 -134 56t-50 160v256h128v-256q0 -96 88 -96q36 0 62 29.5t26 82.5v240h128v-464h-128v48
q-47 -56 -120 -56z" />
    <glyph glyph-name="Uhungarumlaut" unicode="&#x170;" horiz-adv-x="608" 
d="M216 768h-72v144h104zM440 768h-72v144h104zM416 256v448h128v-440q0 -126 -68 -199q-67 -73 -172 -73q-106 0 -173 73q-67 71 -67 199v440h128v-448q0 -72 30.5 -108t81.5 -36q48 0 80 36.5t32 107.5z" />
    <glyph glyph-name="uhungarumlaut" unicode="&#x171;" horiz-adv-x="544" 
d="M184 528h-72v144h104zM408 528h-72v144h104zM232 -8q-84 0 -134 56t-50 160v256h128v-256q0 -96 88 -96q36 0 62 29.5t26 82.5v240h128v-464h-128v48q-47 -56 -120 -56z" />
    <glyph glyph-name="Uogonek" unicode="&#x172;" horiz-adv-x="608" 
d="M416 256v448h128v-440q0 -98 -43.5 -166.5t-117.5 -93.5q-87 -32 -87 -94q0 -42 37 -52q36 -10 65 20l26 -54q-13 -13 -35.5 -22.5t-42.5 -9.5q-38 -2 -66.5 18.5t-40 51t-5.5 67.5t31 66q-92 13 -146.5 84.5t-54.5 184.5v440h128v-448q0 -72 30.5 -108t81.5 -36
q48 0 80 36.5t32 107.5z" />
    <glyph glyph-name="uogonek" unicode="&#x173;" horiz-adv-x="544" 
d="M470 -122l26 -54q-13 -13 -35.5 -22.5t-42.5 -9.5q-51 0 -82.5 32.5t-31.5 81.5q0 28 14 57t34 45v40q-47 -56 -120 -56q-84 0 -134 56t-50 160v256h128v-256q0 -96 88 -96q36 0 62 29.5t26 82.5v240h128v-464q-42 0 -77 -27t-35 -63q0 -42 37 -52q36 -10 65 20z" />
    <glyph glyph-name="Wcircumflex" unicode="&#x174;" horiz-adv-x="912" 
d="M592 768h-80l-56 72l-56 -72h-80l136 160zM768 704h144l-312 -720l-144 347l-144 -347l-312 720h144l168 -400l80 187l-84 213h140l152 -400z" />
    <glyph glyph-name="wcircumflex" unicode="&#x175;" horiz-adv-x="736" 
d="M424 528l-56 72l-56 -72h-80l136 160l136 -160h-80zM600 464h136l-248 -480l-119 241l-121 -241l-248 480h136l112 -218l53 118l-49 100h132l104 -218z" />
    <glyph glyph-name="Ycircumflex" unicode="&#x176;" horiz-adv-x="576" 
d="M424 768h-80l-56 72l-56 -72h-80l136 160zM288 424l144 280h144l-224 -420v-284h-128v284l-224 420h144z" />
    <glyph glyph-name="ycircumflex" unicode="&#x177;" 
d="M392 528h-80l-56 72l-56 -72h-80l136 160zM256 188l112 276h144l-304 -720h-144l123 282l-187 438h144z" />
    <glyph glyph-name="Ydieresis" unicode="&#x178;" horiz-adv-x="576" 
d="M238 787q-19 -19 -46 -19t-45 19q-19 18 -19 45t19 46q18 18 45 18t46 -18q18 -19 18 -46t-18 -45zM430 787q-19 -19 -46 -19t-45 19q-19 18 -19 45t19 46q18 18 45 18t46 -18q18 -19 18 -46t-18 -45zM288 424l144 280h144l-224 -420v-284h-128v284l-224 420h144z" />
    <glyph glyph-name="Zacute" unicode="&#x179;" horiz-adv-x="528" 
d="M280 768h-80l64 160h112zM480 120v-120h-448l272 584h-256v120h448l-272 -584h256z" />
    <glyph glyph-name="zacute" unicode="&#x17a;" horiz-adv-x="480" 
d="M256 528h-80l64 160h112zM432 120v-120h-400l200 344h-184v120h400l-200 -344h184z" />
    <glyph glyph-name="Zdotaccent" unicode="&#x17b;" horiz-adv-x="528" 
d="M321 776q-24 -24 -57 -24t-56 24q-24 23 -24 56t24 57q23 23 56 23t57 -23q23 -24 23 -57t-23 -56zM480 120v-120h-448l272 584h-256v120h448l-272 -584h256z" />
    <glyph glyph-name="zdotaccent" unicode="&#x17c;" horiz-adv-x="480" 
d="M297 536q-24 -24 -57 -24t-56 24q-24 23 -24 56t24 57q23 23 56 23t57 -23q23 -24 23 -57t-23 -56zM432 120v-120h-400l200 344h-184v120h400l-200 -344h184z" />
    <glyph glyph-name="Zcaron" unicode="&#x17d;" horiz-adv-x="528" 
d="M264 856l56 72h80l-136 -160l-136 160h80zM480 120v-120h-448l272 584h-256v120h448l-272 -584h256z" />
    <glyph glyph-name="zcaron" unicode="&#x17e;" horiz-adv-x="480" 
d="M240 616l56 72h80l-136 -160l-136 160h80zM432 120v-120h-400l200 344h-184v120h400l-200 -344h184z" />
    <glyph glyph-name="Aringacute" unicode="&#x1fa;" horiz-adv-x="640" 
d="M336 1024h112l-96 -160h-80zM640 0h-138l-40 96h-284l-40 -96h-138l269 603q-31 14 -50 43.5t-19 65.5q0 50 35 85t85 35t85 -35t35 -85q0 -35 -19 -65t-49 -44zM359 751q-17 17 -39 17t-39 -17t-17 -39t17 -39t39 -17t39 17t17 39t-17 39zM320 432l-94 -224h188z" />
    <glyph glyph-name="aringacute" unicode="&#x1fb;" 
d="M272 768h-80l64 160h112zM171 701q35 35 85 35t85 -35t35 -85t-35 -85t-85 -35t-85 35t-35 85t35 85zM217 577q17 -17 39 -17t39 17t17 39t-17 39t-39 17t-39 -17t-17 -39t17 -39zM464 226v-226h-128v48q-54 -56 -130 -56q-79 0 -126.5 44t-47.5 111q0 58 44.5 98.5
t113.5 48.5q68 8 144 -12q-6 74 -94 74q-51 0 -104 -31l-48 99q74 48 168 48q96 0 152 -61.5t56 -184.5zM336 187q-75 24 -125 12q-51 -13 -51 -52q0 -24 20 -39.5t50 -15.5q36 0 67 27t39 68z" />
    <glyph glyph-name="AEacute" unicode="&#x1fc;" horiz-adv-x="784" 
d="M448 928h112l-96 -160h-80zM736 704v-120h-240v-212h176v-120h-176v-132h240v-120h-368v96h-182l-48 -96h-138l368 704h368zM368 464l-127 -256h127v256z" />
    <glyph glyph-name="aeacute" unicode="&#x1fd;" horiz-adv-x="816" 
d="M408 688h112l-96 -160h-80zM587 112q68 0 113 48l68 -94q-77 -74 -183 -74q-120 0 -187 82q-72 -82 -192 -82q-79 0 -126.5 44t-47.5 111q0 58 44.5 98.5t113.5 48.5q68 8 144 -12q-6 74 -94 74q-51 0 -104 -31l-48 99q74 48 168 48q101 0 155 -65q68 65 174 65
q56 0 117 -35q72 -43 98 -141l-278 -169q26 -15 65 -15zM587 352q-53 0 -88 -34.5t-35 -85.5q0 -2 2 -18l186 109q-26 29 -65 29zM230 92q36 0 67 27t39 68q-75 24 -125 12q-51 -13 -51 -52q0 -24 20 -39.5t50 -15.5z" />
    <glyph glyph-name="Scommaaccent" unicode="&#x218;" horiz-adv-x="544" 
d="M280 451q41 -16 71 -30q27 -13 61 -34q34 -23 54 -45q46 -59 46 -140q0 -86 -66 -148q-67 -62 -170 -62q-96 0 -166 54q-59 45 -78 74l74 90q36 -47 81 -72.5t89 -25.5q46 0 77 25.5t31 58.5q0 80 -96 117q-115 44 -165.5 94.5t-50.5 127.5q0 76 61 127q61 50 149 50
q106 0 191 -78l-70 -94q-58 52 -123 52q-32 0 -56 -16t-24 -41q0 -29 19 -48.5t61 -35.5zM304 -208h-80v144h112z" />
    <glyph glyph-name="scommaaccent" unicode="&#x219;" horiz-adv-x="448" 
d="M242 295q90 -22 132 -56.5t42 -95.5q0 -67 -52 -109t-146 -42q-112 0 -186 74l65 95q53 -43 114 -51q35 -4 56 3.5t21 21.5q0 15 -35 26q-2 0 -7.5 1.5l-16.5 4.5l-22 6q-159 41 -159 155q0 62 50.5 103t136.5 41q76 0 150 -50l-59 -99q-41 26 -88 31q-62 5 -62 -24
q0 -12 14 -19t52 -16zM248 -208h-80v144h112z" />
    <glyph glyph-name="uni021A" unicode="&#x21a;" horiz-adv-x="480" 
d="M32 584v120h416v-120h-144v-584h-128v584h-144zM264 -208h-80v144h112z" />
    <glyph glyph-name="uni021B" unicode="&#x21b;" horiz-adv-x="400" 
d="M240 0h-128v344h-80v120h80v152l128 40v-192h128v-120h-128v-344zM216 -208h-80v144h112z" />
    <glyph glyph-name="Alphatonos" unicode="&#x386;" horiz-adv-x="640" 
d="M640 0h-138l-40 96h-284l-40 -96h-138l320 720zM32 704h112l-32 -144h-80v144zM320 432l-94 -224h188z" />
    <glyph glyph-name="Epsilontonos" unicode="&#x388;" horiz-adv-x="624" 
d="M112 560h-80v144h112zM576 704v-120h-240v-212h176v-120h-176v-132h240v-120h-368v704h368z" />
    <glyph glyph-name="Etatonos" unicode="&#x389;" horiz-adv-x="736" 
d="M112 560h-80v144h112zM544 372v332h128v-704h-128v252h-208v-252h-128v704h128v-332h208z" />
    <glyph glyph-name="Iotatonos" unicode="&#x38a;" horiz-adv-x="400" 
d="M112 560h-80v144h112zM336 704v-704h-128v704h128z" />
    <glyph glyph-name="Omicrontonos" unicode="&#x38c;" horiz-adv-x="864" 
d="M218 607q105 105 254 105q148 0 255 -105q105 -107 105 -255q0 -149 -105 -254q-106 -106 -255 -106t-254 106q-106 105 -106 254t106 255zM112 560h-80v144h112zM308 182q67 -70 164 -70t164 70q68 71 68 170t-68 170q-67 70 -164 70t-164 -70q-68 -71 -68 -170t68 -170
z" />
    <glyph glyph-name="Upsilontonos" unicode="&#x38e;" horiz-adv-x="752" 
d="M112 560h-80v144h112zM464 424l144 280h144l-224 -420v-284h-128v284l-224 420h144z" />
    <glyph glyph-name="Omegatonos" unicode="&#x38f;" horiz-adv-x="832" 
d="M784 408q0 -140 -121 -288h121v-120h-280v96q85 97 118 165q34 68 34 139q0 88 -55 140t-137 52t-137 -52t-55 -140q0 -69 35 -139q35 -71 117 -165v-96h-280v120h121q-121 148 -121 288q0 123 88 214q87 90 232 90q144 0 233 -90q87 -92 87 -214zM112 560h-80v144h112z
" />
    <glyph glyph-name="iotadieresistonos" unicode="&#x390;" horiz-adv-x="256" 
d="M160 528h-80v144h112zM30 547q-19 -19 -46 -19t-46 19q-18 18 -18 45t18 46q19 18 46 18t46 -18q18 -19 18 -46t-18 -45zM318 547q-19 -19 -46 -19t-45 19q-19 18 -19 45t19 46q18 18 45 18t46 -18q18 -19 18 -46t-18 -45zM192 0h-128v464h128v-464z" />
    <glyph glyph-name="Alpha" unicode="&#x391;" horiz-adv-x="640" 
d="M640 0h-138l-40 96h-284l-40 -96h-138l320 720zM320 432l-94 -224h188z" />
    <glyph glyph-name="Beta" unicode="&#x392;" horiz-adv-x="544" 
d="M375 369q56 -18 88.5 -63.5t32.5 -103.5q0 -91 -59 -146.5t-163 -55.5h-210v704h152q118 0 183 -50t65 -142q0 -46 -25.5 -85.5t-63.5 -57.5zM221 584h-29v-168h29q52 0 80 24.5t28 64.5q0 79 -108 79zM192 120h55q59 0 90 24.5t31 67.5q0 41 -32.5 66.5t-88.5 25.5h-55
v-184z" />
    <glyph glyph-name="Gamma" unicode="&#x393;" horiz-adv-x="464" 
d="M192 0h-128v704h368v-120h-240v-584z" />
    <glyph glyph-name="uni0394" unicode="&#x394;" horiz-adv-x="640" 
d="M0 0l320 720l320 -720h-640zM320 432l-131 -312h262z" />
    <glyph glyph-name="Epsilon" unicode="&#x395;" horiz-adv-x="480" 
d="M432 704v-120h-240v-212h176v-120h-176v-132h240v-120h-368v704h368z" />
    <glyph glyph-name="Zeta" unicode="&#x396;" horiz-adv-x="528" 
d="M480 120v-120h-448l272 584h-256v120h448l-272 -584h256z" />
    <glyph glyph-name="Eta" unicode="&#x397;" horiz-adv-x="592" 
d="M400 372v332h128v-704h-128v252h-208v-252h-128v704h128v-332h208z" />
    <glyph glyph-name="Theta" unicode="&#x398;" horiz-adv-x="784" 
d="M138 607q105 105 254 105q148 0 255 -105q105 -107 105 -255q0 -149 -105 -254q-106 -106 -255 -106t-254 106q-106 105 -106 254t106 255zM228 182q67 -70 164 -70t164 70q68 71 68 170t-68 170q-67 70 -164 70t-164 -70q-68 -71 -68 -170t68 -170zM544 312h-304v80h304
v-80z" />
    <glyph glyph-name="Iota" unicode="&#x399;" horiz-adv-x="256" 
d="M192 704v-704h-128v704h128z" />
    <glyph glyph-name="Kappa" unicode="&#x39a;" horiz-adv-x="560" 
d="M312 390l232 -390h-160l-152 274l-40 -58v-216h-128v704h128v-280l184 280h152z" />
    <glyph glyph-name="Lambda" unicode="&#x39b;" horiz-adv-x="640" 
d="M640 0h-138l-182 432l-182 -432h-138l320 720z" />
    <glyph glyph-name="Mu" unicode="&#x39c;" horiz-adv-x="752" 
d="M376 344l312 376v-720h-128v384l-184 -216l-184 216v-384h-128v720z" />
    <glyph glyph-name="Nu" unicode="&#x39d;" horiz-adv-x="624" 
d="M432 312v392h128v-720l-368 408v-392h-128v720z" />
    <glyph glyph-name="Xi" unicode="&#x39e;" horiz-adv-x="496" 
d="M448 584h-400v120h400v-120zM400 252h-304v120h304v-120zM448 0h-400v120h400v-120z" />
    <glyph glyph-name="Omicron" unicode="&#x39f;" horiz-adv-x="784" 
d="M138 607q105 105 254 105q148 0 255 -105q105 -107 105 -255q0 -149 -105 -254q-106 -106 -255 -106t-254 106q-106 105 -106 254t106 255zM228 182q67 -70 164 -70t164 70q68 71 68 170t-68 170q-67 70 -164 70t-164 -70q-68 -71 -68 -170t68 -170z" />
    <glyph glyph-name="Pi" unicode="&#x3a0;" horiz-adv-x="592" 
d="M64 704h464v-704h-128v584h-208v-584h-128v704z" />
    <glyph glyph-name="Rho" unicode="&#x3a1;" 
d="M64 704h142q134 0 205 -69q69 -71 69 -175q0 -101 -71 -172q-72 -72 -187 -72h-30v-216h-128v704zM192 336h37q52 0 87.5 36t35.5 88q0 56 -34.5 90t-88.5 34h-37v-248z" />
    <glyph glyph-name="Sigma" unicode="&#x3a3;" horiz-adv-x="528" 
d="M464 584h-214l144 -232l-144 -232h214v-120h-432l218 352l-218 352h432v-120z" />
    <glyph glyph-name="Tau" unicode="&#x3a4;" horiz-adv-x="480" 
d="M32 584v120h416v-120h-144v-584h-128v584h-144z" />
    <glyph glyph-name="Upsilon" unicode="&#x3a5;" horiz-adv-x="576" 
d="M288 424l144 280h144l-224 -420v-284h-128v284l-224 420h144z" />
    <glyph glyph-name="Phi" unicode="&#x3a6;" horiz-adv-x="768" 
d="M736 368q0 -86 -43 -156q-42 -68 -109 -107q-62 -36 -136 -41v-64h-128v64q-73 4 -137 42t-107 106q-44 71 -44 156q0 88 45 158q43 69 109 106q64 36 134 40v64h128v-64q72 -4 136 -41t108 -105q44 -71 44 -158zM320 184v368q-58 -5 -108 -53q-52 -49 -52 -131
q0 -83 52 -131q50 -48 108 -53zM448 552v-368q59 5 109 53q51 48 51 131q0 82 -51 131q-50 48 -109 53z" />
    <glyph glyph-name="Chi" unicode="&#x3a7;" horiz-adv-x="608" 
d="M386 362l206 -362h-154l-134 245l-134 -245h-154l206 362l-190 342h147l125 -226l125 226h147z" />
    <glyph glyph-name="Psi" unicode="&#x3a8;" horiz-adv-x="768" 
d="M576 448v256h128v-256q0 -133 -74 -209q-74 -75 -182 -83v-156h-128v156q-109 8 -181 83q-75 75 -75 209v256h128v-256q0 -81 41 -125q39 -42 87 -47v428h128v-428q49 5 88 47q40 43 40 125z" />
    <glyph glyph-name="uni03A9" unicode="&#x3a9;" horiz-adv-x="736" 
d="M688 408q0 -140 -121 -288h121v-120h-280v96q85 97 118 165q34 68 34 139q0 88 -55 140t-137 52t-137 -52t-55 -140q0 -69 35 -139q35 -71 117 -165v-96h-280v120h121q-121 148 -121 288q0 123 88 214q87 90 232 90q144 0 233 -90q87 -92 87 -214z" />
    <glyph glyph-name="Iotadieresis" unicode="&#x3aa;" horiz-adv-x="256" 
d="M78 787q-19 -19 -46 -19t-46 19q-18 18 -18 45t18 46q19 18 46 18t46 -18q18 -19 18 -46t-18 -45zM270 787q-19 -19 -46 -19t-45 19q-19 18 -19 45t19 46q18 18 45 18t46 -18q18 -19 18 -46t-18 -45zM192 704v-704h-128v704h128z" />
    <glyph glyph-name="Upsilondieresis" unicode="&#x3ab;" horiz-adv-x="576" 
d="M238 787q-19 -19 -46 -19t-45 19q-19 18 -19 45t19 46q18 18 45 18t46 -18q18 -19 18 -46t-18 -45zM430 787q-19 -19 -46 -19t-45 19q-19 18 -19 45t19 46q18 18 45 18t46 -18q18 -19 18 -46t-18 -45zM288 424l144 280h144l-224 -420v-284h-128v284l-224 420h144z" />
    <glyph glyph-name="alphatonos" unicode="&#x3ac;" horiz-adv-x="592" 
d="M344 528h-80v144h112zM400 416v48h128v-464h-128v50q-55 -58 -138 -58q-98 0 -164 69q-66 67 -66 171q0 103 66 172q66 68 164 68q84 0 138 -56zM195 147q35 -35 85 -35t85 35t35 85t-35 85t-85 35t-85 -35t-35 -85t35 -85z" />
    <glyph glyph-name="epsilontonos" unicode="&#x3ad;" horiz-adv-x="448" 
d="M272 528h-80v144h112zM256 104q55 0 116 40l44 -91q-85 -61 -177 -61q-79 0 -134 40q-57 39 -57 110q0 32 22 60t55 38q-30 10 -49.5 37t-19.5 61q0 68 55 101q54 33 131 33q96 0 170 -62l-44 -86q-60 36 -118 36q-28 0 -47 -10t-19 -27q0 -21 34 -34t86 -13v-80
q-57 0 -92.5 -12.5t-35.5 -35.5q0 -21 23 -32.5t57 -11.5z" />
    <glyph glyph-name="etatonos" unicode="&#x3ae;" horiz-adv-x="544" 
d="M304 528h-80v144h112zM312 472q84 0 134 -56t50 -160v-512h-128v512q0 96 -88 96q-36 0 -62 -29.5t-26 -82.5v-240h-128v464h128v-48q47 56 120 56z" />
    <glyph glyph-name="iotatonos" unicode="&#x3af;" horiz-adv-x="288" 
d="M160 528h-80v144h112zM192 0h-128v464h128v-464z" />
    <glyph glyph-name="upsilondieresistonos" unicode="&#x3b0;" horiz-adv-x="528" 
d="M296 528h-80v144h112zM166 547q-19 -19 -46 -19t-45 19q-19 18 -19 45t19 46q18 18 45 18t46 -18q18 -19 18 -46t-18 -45zM454 547q-19 -19 -46 -19t-45 19q-19 18 -19 45t19 46q18 18 45 18t46 -18q18 -19 18 -46t-18 -45zM352 222v242h128v-232q0 -114 -56 -177
t-160 -63t-160 63t-56 177v232h128v-242q0 -50 24.5 -80t63.5 -30t63.5 30t24.5 80z" />
    <glyph glyph-name="alpha" unicode="&#x3b1;" horiz-adv-x="592" 
d="M400 416v48h128v-464h-128v50q-55 -58 -138 -58q-98 0 -164 69q-66 67 -66 171q0 103 66 172q66 68 164 68q84 0 138 -56zM195 147q35 -35 85 -35t85 35t35 85t-35 85t-85 35t-85 -35t-35 -85t35 -85z" />
    <glyph glyph-name="beta" unicode="&#x3b2;" horiz-adv-x="544" 
d="M376 392q54 -14 95 -64q41 -53 41 -123q0 -90 -61 -151q-62 -62 -167 -62q-56 0 -108 28v-212h-128v712q0 148 118 203q46 21 91 21q92 0 150 -55q57 -55 57 -137q0 -53 -25.5 -95.5t-62.5 -64.5zM176 534v-398q73 -40 141 -16q67 24 67 92q0 56 -48 88t-128 32v88
q49 0 89 34q39 33 39 82q0 39 -22.5 63.5t-57.5 24.5t-57.5 -25t-22.5 -65z" />
    <glyph glyph-name="gamma" unicode="&#x3b3;" 
d="M368 464h144l-192 -426v-294h-128v294l-192 426h144l112 -264z" />
    <glyph glyph-name="delta" unicode="&#x3b4;" horiz-adv-x="560" 
d="M480 584h-167q215 -188 215 -352q0 -99 -71 -170q-71 -70 -177 -70q-109 0 -178 70q-70 69 -70 170q0 98 65 168q65 68 171 72q-76 88 -236 232h448v-120zM195 147q35 -35 85 -35q51 0 86 35q34 34 34 85t-34 85q-35 35 -86 35q-50 0 -85 -35t-35 -85t35 -85z" />
    <glyph glyph-name="epsilon" unicode="&#x3b5;" horiz-adv-x="448" 
d="M256 104q55 0 116 40l44 -91q-85 -61 -177 -61q-79 0 -134 40q-57 39 -57 110q0 32 22 60t55 38q-30 10 -49.5 37t-19.5 61q0 68 55 101q54 33 131 33q96 0 170 -62l-44 -86q-60 36 -118 36q-28 0 -47 -10t-19 -27q0 -21 34 -34t86 -13v-80q-57 0 -92.5 -12.5
t-35.5 -35.5q0 -21 23 -32.5t57 -11.5z" />
    <glyph glyph-name="zeta" unicode="&#x3b6;" horiz-adv-x="496" 
d="M292 112q87 0 129.5 -35.5t42.5 -116.5v-56h-112v45q0 43 -44 43q-260 0 -260 216q0 82 58 186q59 108 130 190h-172v120h416q-304 -344 -304 -484q0 -50 30.5 -79t85.5 -29z" />
    <glyph glyph-name="eta" unicode="&#x3b7;" horiz-adv-x="544" 
d="M312 472q84 0 134 -56t50 -160v-512h-128v512q0 96 -88 96q-36 0 -62 -29.5t-26 -82.5v-240h-128v464h128v-48q47 56 120 56z" />
    <glyph glyph-name="theta" unicode="&#x3b8;" horiz-adv-x="560" 
d="M101 610q69 102 179 102t179 -102t69 -258t-69 -258t-179 -102q-112 0 -180 102q-68 103 -68 258q0 156 69 258zM360 540q-33 52 -80 52q-48 0 -79 -52q-34 -53 -38 -140h234q-4 86 -37 140zM201 164q31 -52 79 -52q47 0 80 52q33 54 37 140h-234q4 -87 38 -140z" />
    <glyph glyph-name="iota" unicode="&#x3b9;" horiz-adv-x="256" 
d="M192 0h-128v464h128v-464z" />
    <glyph glyph-name="kappa" unicode="&#x3ba;" 
d="M317 263l195 -263h-156l-121 170l-43 -48v-122h-128v464h128v-166l152 166h152z" />
    <glyph glyph-name="lambda" unicode="&#x3bb;" 
d="M224 704l272 -704h-144l-106 288l-102 -288h-144l175 456l-95 248h144z" />
    <glyph glyph-name="uni03BC" unicode="&#x3bc;" horiz-adv-x="592" 
d="M400 224v240h128v-464h-128v48q-29 -56 -104 -56t-104 56v-304h-128v720h128v-240q-1 -42 20.5 -71.5t52.5 -36t62 0t52.5 36t20.5 71.5z" />
    <glyph glyph-name="nu" unicode="&#x3bd;" horiz-adv-x="480" 
d="M240 -16l-240 480h144l96 -208l96 208h144z" />
    <glyph glyph-name="xi" unicode="&#x3be;" 
d="M305 112q89 0 132 -35.5t43 -116.5v-56h-112v45q0 19 -16.5 31t-46.5 12q-127 0 -192 62t-65 154q0 58 31 104.5t78 61.5q-39 18 -66 60.5t-27 87.5q0 86 61 138q59 52 147 52q123 0 208 -88l-60 -88q-35 31 -62.5 43.5t-65.5 12.5q-41 0 -70.5 -20t-29.5 -58
q0 -42 47 -68t113 -26v-104q-81 0 -128.5 -27t-47.5 -78q0 -49 36.5 -74t92.5 -25z" />
    <glyph glyph-name="omicron" unicode="&#x3bf;" horiz-adv-x="560" 
d="M280 472q105 0 176 -70q72 -70 72 -170q0 -99 -71 -170q-71 -70 -177 -70q-109 0 -178 70q-70 69 -70 170t68 171q68 69 180 69zM195 147q35 -35 85 -35q51 0 86 35q34 34 34 85t-34 85q-35 35 -86 35q-50 0 -85 -35t-35 -85t35 -85z" />
    <glyph glyph-name="pi" unicode="&#x3c0;" horiz-adv-x="592" 
d="M560 464v-120h-64v-344h-128v344h-144v-344h-128v344h-64v120h528z" />
    <glyph glyph-name="rho" unicode="&#x3c1;" horiz-adv-x="592" 
d="M312 472q105 0 176 -70q72 -70 72 -170q0 -99 -71 -170q-71 -70 -177 -70q-62 0 -120 33v-281h-128v488q0 101 68 171q68 69 180 69zM227 147q35 -35 85 -35q51 0 86 35q34 34 34 85t-34 85q-35 35 -86 35q-50 0 -85 -35t-35 -85t35 -85z" />
    <glyph glyph-name="uni03C2" unicode="&#x3c2;" horiz-adv-x="496" 
d="M283 112q86 0 125.5 -35t39.5 -117v-56h-112v45q0 43 -53 43q-116 0 -184 68q-67 67 -67 172q0 102 68 172q68 68 181 68q99 0 167 -74l-68 -94q-40 48 -97 48q-52 0 -87.5 -35t-35.5 -85t35.5 -85t87.5 -35z" />
    <glyph glyph-name="sigma" unicode="&#x3c3;" horiz-adv-x="608" 
d="M576 464v-120h-78q30 -46 30 -112q0 -99 -71 -170q-71 -70 -177 -70q-109 0 -178 70q-70 69 -70 170t68 171q68 69 180 69q19 0 49 -2q54 -6 247 -6zM195 147q35 -35 85 -35q51 0 86 35q34 34 34 85t-34 85q-35 35 -86 35q-50 0 -85 -35t-35 -85t35 -85z" />
    <glyph glyph-name="tau" unicode="&#x3c4;" horiz-adv-x="448" 
d="M32 344v120h384v-120h-128v-344h-128v344h-128z" />
    <glyph glyph-name="upsilon" unicode="&#x3c5;" horiz-adv-x="528" 
d="M352 222v242h128v-232q0 -114 -56 -177t-160 -63t-160 63t-56 177v232h128v-242q0 -50 24.5 -80t63.5 -30t63.5 30t24.5 80z" />
    <glyph glyph-name="phi" unicode="&#x3c6;" horiz-adv-x="704" 
d="M32 228q0 90 61 148q60 59 139 81l24 -111q-96 -34 -96 -118q0 -46 37 -77.5t91 -38.5v355q33 5 64 5q131 0 225 -64q95 -65 95 -180q0 -101 -73 -162q-74 -62 -183 -74v-248h-128v248q-121 12 -188.5 73t-67.5 163zM416 352v-240q54 7 91 38.5t37 77.5q0 50 -39 84
q-38 34 -89 40z" />
    <glyph glyph-name="chi" unicode="&#x3c7;" 
d="M336 244l160 -244h-148l-92 144l-92 -144h-148l160 244l-144 220h148l76 -122l76 122h148z" />
    <glyph glyph-name="psi" unicode="&#x3c8;" horiz-adv-x="704" 
d="M528 262v202h128v-190q0 -126 -62 -198t-178 -84v-248h-128v248q-116 12 -178 84t-62 198v190h128v-202q0 -132 112 -150v352h128v-352q112 18 112 150z" />
    <glyph glyph-name="omega" unicode="&#x3c9;" horiz-adv-x="768" 
d="M551 434l112 30q57 -108 57 -225q0 -120 -54.5 -183.5t-145.5 -63.5q-93 0 -136 66q-44 -66 -136 -66q-91 0 -145.5 63.5t-54.5 183.5q0 117 57 225l112 -30q-41 -102 -41 -202q0 -55 21 -87.5t51 -32.5q32 0 52 26t20 76v170h128v-170q0 -50 20 -76t52 -26q30 0 51 32.5
t21 87.5q0 100 -41 202z" />
    <glyph glyph-name="iotadieresis" unicode="&#x3ca;" horiz-adv-x="256" 
d="M78 547q-19 -19 -46 -19t-46 19q-18 18 -18 45t18 46q19 18 46 18t46 -18q18 -19 18 -46t-18 -45zM270 547q-19 -19 -46 -19t-45 19q-19 18 -19 45t19 46q18 18 45 18t46 -18q18 -19 18 -46t-18 -45zM192 0h-128v464h128v-464z" />
    <glyph glyph-name="upsilondieresis" unicode="&#x3cb;" horiz-adv-x="528" 
d="M214 547q-19 -19 -46 -19t-45 19q-19 18 -19 45t19 46q18 18 45 18t46 -18q18 -19 18 -46t-18 -45zM406 547q-19 -19 -46 -19t-45 19q-19 18 -19 45t19 46q18 18 45 18t46 -18q18 -19 18 -46t-18 -45zM352 222v242h128v-232q0 -114 -56 -177t-160 -63t-160 63t-56 177
v232h128v-242q0 -50 24.5 -80t63.5 -30t63.5 30t24.5 80z" />
    <glyph glyph-name="omicrontonos" unicode="&#x3cc;" horiz-adv-x="560" 
d="M312 528h-80v144h112zM280 472q105 0 176 -70q72 -70 72 -170q0 -99 -71 -170q-71 -70 -177 -70q-109 0 -178 70q-70 69 -70 170t68 171q68 69 180 69zM195 147q35 -35 85 -35q51 0 86 35q34 34 34 85t-34 85q-35 35 -86 35q-50 0 -85 -35t-35 -85t35 -85z" />
    <glyph glyph-name="upsilontonos" unicode="&#x3cd;" horiz-adv-x="528" 
d="M296 528h-80v144h112zM352 222v242h128v-232q0 -114 -56 -177t-160 -63t-160 63t-56 177v232h128v-242q0 -50 24.5 -80t63.5 -30t63.5 30t24.5 80z" />
    <glyph glyph-name="omegatonos" unicode="&#x3ce;" horiz-adv-x="768" 
d="M416 528h-80v144h112zM551 434l112 30q57 -108 57 -225q0 -120 -54.5 -183.5t-145.5 -63.5q-93 0 -136 66q-44 -66 -136 -66q-91 0 -145.5 63.5t-54.5 183.5q0 117 57 225l112 -30q-41 -102 -41 -202q0 -55 21 -87.5t51 -32.5q32 0 52 26t20 76v170h128v-170
q0 -50 20 -76t52 -26q30 0 51 32.5t21 87.5q0 100 -41 202z" />
    <glyph glyph-name="uni0401" unicode="&#x401;" horiz-adv-x="480" 
d="M190 787q-19 -19 -46 -19t-45 19q-19 18 -19 45t19 46q18 18 45 18t46 -18q18 -19 18 -46t-18 -45zM382 787q-19 -19 -46 -19t-45 19q-19 18 -19 45t19 46q18 18 45 18t46 -18q18 -19 18 -46t-18 -45zM432 704v-120h-240v-212h176v-120h-176v-132h240v-120h-368v704h368z
" />
    <glyph glyph-name="uni0402" unicode="&#x402;" horiz-adv-x="656" 
d="M408 448q93 0 146.5 -62.5t53.5 -177.5v-208q0 -73 -18 -126.5t-49 -82t-66 -42t-75 -13.5l-28 120q48 1 78 35t30 93v232q0 112 -112 112q-44 0 -96 -24v-304h-128v584h-112v120h352v-120h-112v-164q69 28 136 28z" />
    <glyph glyph-name="uni0403" unicode="&#x403;" horiz-adv-x="464" 
d="M248 768h-80l64 160h112zM192 0h-128v704h368v-120h-240v-584z" />
    <glyph glyph-name="uni0404" unicode="&#x404;" horiz-adv-x="640" 
d="M412 112q81 0 144 48l68 -96q-88 -72 -213 -72q-159 0 -269 105t-110 255t110 255t269 105q125 0 213 -72l-68 -96q-68 48 -144 48q-89 0 -157 -49q-69 -49 -89 -135h242v-112h-242q20 -86 89 -135q68 -49 157 -49z" />
    <glyph glyph-name="uni0405" unicode="&#x405;" horiz-adv-x="544" 
d="M280 451q41 -16 71 -30q27 -13 61 -34q34 -23 54 -45q46 -59 46 -140q0 -86 -66 -148q-67 -62 -170 -62q-96 0 -166 54q-59 45 -78 74l74 90q36 -47 81 -72.5t89 -25.5q46 0 77 25.5t31 58.5q0 80 -96 117q-115 44 -165.5 94.5t-50.5 127.5q0 76 61 127q61 50 149 50
q106 0 191 -78l-70 -94q-58 52 -123 52q-32 0 -56 -16t-24 -41q0 -29 19 -48.5t61 -35.5z" />
    <glyph glyph-name="uni0406" unicode="&#x406;" horiz-adv-x="256" 
d="M192 704v-704h-128v704h128z" />
    <glyph glyph-name="uni0407" unicode="&#x407;" horiz-adv-x="256" 
d="M78 787q-19 -19 -46 -19t-46 19q-18 18 -18 45t18 46q19 18 46 18t46 -18q18 -19 18 -46t-18 -45zM270 787q-19 -19 -46 -19t-45 19q-19 18 -19 45t19 46q18 18 45 18t46 -18q18 -19 18 -46t-18 -45zM192 704v-704h-128v704h128z" />
    <glyph glyph-name="uni0408" unicode="&#x408;" horiz-adv-x="432" 
d="M256 234v470h128v-456q0 -256 -217 -256q-38 0 -75.5 12.5t-59.5 31.5l72 96q23 -20 58 -20q44 0 69 31.5t25 90.5z" />
    <glyph glyph-name="uni0409" unicode="&#x409;" horiz-adv-x="944" 
d="M624 372h36q252 0 252 -186q0 -92 -65 -139t-187 -47h-164v584h-136l-54 -372q-31 -220 -185 -220q-53 0 -105 32l44 112q47 -29 80.5 -8t43.5 88l72 488h368v-332zM624 120h67q93 0 93 66t-93 66h-67v-132z" />
    <glyph glyph-name="uni040A" unicode="&#x40a;" horiz-adv-x="848" 
d="M528 372h36q252 0 252 -186q0 -92 -65 -139t-187 -47h-164v252h-208v-252h-128v704h128v-332h208v332h128v-332zM528 120h67q93 0 93 66t-93 66h-67v-132z" />
    <glyph glyph-name="uni040B" unicode="&#x40b;" horiz-adv-x="656" 
d="M408 448q93 0 146.5 -62.5t53.5 -177.5v-208h-128v216q0 112 -112 112q-44 0 -96 -24v-304h-128v584h-112v120h352v-120h-112v-164q69 28 136 28z" />
    <glyph glyph-name="uni040C" unicode="&#x40c;" horiz-adv-x="560" 
d="M256 928h112l-96 -160h-80zM312 390l232 -390h-160l-152 274l-40 -58v-216h-128v704h128v-280l184 280h152z" />
    <glyph glyph-name="uni040E" unicode="&#x40e;" horiz-adv-x="576" 
d="M368 904h64q0 -56 -39 -96q-40 -40 -97 -40t-96 40q-40 39 -40 96h64q0 -29 21.5 -50.5t50.5 -21.5t50.5 21.5t21.5 50.5zM300 416l132 288h144l-336 -704h-144l128 265l-208 439h144z" />
    <glyph glyph-name="uni040F" unicode="&#x40f;" horiz-adv-x="592" 
d="M400 120v584h128v-704h-168v-112h-128v112h-168v704h128v-584h208z" />
    <glyph glyph-name="uni0410" unicode="&#x410;" horiz-adv-x="640" 
d="M640 0h-138l-40 96h-284l-40 -96h-138l320 720zM320 432l-94 -224h188z" />
    <glyph glyph-name="uni0411" unicode="&#x411;" 
d="M192 464h30q129 0 194 -65q64 -65 64 -167q0 -96 -66 -164q-68 -68 -176 -68h-174v704h336v-120h-208v-120zM192 120h41q51 0 85 32t34 80q0 51 -32.5 81.5t-86.5 30.5h-41v-224z" />
    <glyph glyph-name="uni0412" unicode="&#x412;" horiz-adv-x="544" 
d="M375 369q56 -18 88.5 -63.5t32.5 -103.5q0 -91 -59 -146.5t-163 -55.5h-210v704h152q118 0 183 -50t65 -142q0 -46 -25.5 -85.5t-63.5 -57.5zM221 584h-29v-168h29q52 0 80 24.5t28 64.5q0 79 -108 79zM192 120h55q59 0 90 24.5t31 67.5q0 41 -32.5 66.5t-88.5 25.5h-55
v-184z" />
    <glyph glyph-name="uni0413" unicode="&#x413;" horiz-adv-x="464" 
d="M192 0h-128v704h368v-120h-240v-584z" />
    <glyph glyph-name="uni0414" unicode="&#x414;" horiz-adv-x="736" 
d="M608 704v-584h96v-232h-128v112h-416v-112h-128v232h82l110 584h384zM324 584l-79 -464h235v464h-156z" />
    <glyph glyph-name="uni0415" unicode="&#x415;" horiz-adv-x="480" 
d="M432 704v-120h-240v-212h176v-120h-176v-132h240v-120h-368v704h368z" />
    <glyph glyph-name="uni0416" unicode="&#x416;" horiz-adv-x="864" 
d="M616 390l232 -390h-160l-152 274l-40 -58v-216h-128v216l-40 58l-152 -274h-160l232 390l-216 314h152l184 -280v280h128v-280l184 280h152z" />
    <glyph glyph-name="uni0417" unicode="&#x417;" 
d="M176 316v104q66 0 113 26t47 68q0 38 -29.5 58t-70.5 20q-38 0 -66.5 -12.5t-63.5 -43.5l-58 88q85 88 208 88q87 0 148 -52q60 -52 60 -138q0 -45 -27 -87.5t-66 -60.5q47 -15 78 -61.5t31 -104.5q0 -92 -63 -153q-65 -63 -176 -63q-126 0 -209 92l64 90q59 -62 140 -62
q42 0 79 24t37 75t-47.5 78t-128.5 27z" />
    <glyph glyph-name="uni0418" unicode="&#x418;" horiz-adv-x="624" 
d="M64 704h128v-442l264 442h104v-704h-128v442l-264 -442h-104v704z" />
    <glyph glyph-name="uni0419" unicode="&#x419;" horiz-adv-x="624" 
d="M384 904h64q0 -56 -39 -96q-40 -40 -97 -40t-96 40q-40 39 -40 96h64q0 -29 21.5 -50.5t50.5 -21.5t50.5 21.5t21.5 50.5zM64 704h128v-442l264 442h104v-704h-128v442l-264 -442h-104v704z" />
    <glyph glyph-name="uni041A" unicode="&#x41a;" horiz-adv-x="560" 
d="M312 390l232 -390h-160l-152 274l-40 -58v-216h-128v704h128v-280l184 280h152z" />
    <glyph glyph-name="uni041B" unicode="&#x41b;" horiz-adv-x="688" 
d="M256 704h368v-704h-128v584h-136l-54 -372q-31 -220 -185 -220q-53 0 -105 32l44 112q47 -29 80.5 -8t43.5 88z" />
    <glyph glyph-name="uni041C" unicode="&#x41c;" horiz-adv-x="752" 
d="M376 344l312 376v-720h-128v384l-184 -216l-184 216v-384h-128v720z" />
    <glyph glyph-name="uni041D" unicode="&#x41d;" horiz-adv-x="592" 
d="M400 372v332h128v-704h-128v252h-208v-252h-128v704h128v-332h208z" />
    <glyph glyph-name="uni041E" unicode="&#x41e;" horiz-adv-x="784" 
d="M138 607q105 105 254 105q148 0 255 -105q105 -107 105 -255q0 -149 -105 -254q-106 -106 -255 -106t-254 106q-106 105 -106 254t106 255zM228 182q67 -70 164 -70t164 70q68 71 68 170t-68 170q-67 70 -164 70t-164 -70q-68 -71 -68 -170t68 -170z" />
    <glyph glyph-name="uni041F" unicode="&#x41f;" horiz-adv-x="592" 
d="M64 704h464v-704h-128v584h-208v-584h-128v704z" />
    <glyph glyph-name="uni0420" unicode="&#x420;" 
d="M64 704h142q134 0 205 -69q69 -71 69 -175q0 -101 -71 -172q-72 -72 -187 -72h-30v-216h-128v704zM192 336h37q52 0 87.5 36t35.5 88q0 56 -34.5 90t-88.5 34h-37v-248z" />
    <glyph glyph-name="uni0421" unicode="&#x421;" horiz-adv-x="640" 
d="M412 112q81 0 144 48l68 -96q-88 -72 -213 -72q-159 0 -269 105t-110 255t110 255t269 105q125 0 213 -72l-68 -96q-68 48 -144 48q-103 0 -177 -65q-75 -65 -75 -175t75 -175q74 -65 177 -65z" />
    <glyph glyph-name="uni0422" unicode="&#x422;" horiz-adv-x="480" 
d="M32 584v120h416v-120h-144v-584h-128v584h-144z" />
    <glyph glyph-name="uni0423" unicode="&#x423;" horiz-adv-x="576" 
d="M300 416l132 288h144l-336 -704h-144l128 265l-208 439h144z" />
    <glyph glyph-name="uni0424" unicode="&#x424;" horiz-adv-x="768" 
d="M736 368q0 -86 -43 -156q-42 -68 -109 -107q-62 -36 -136 -41v-64h-128v64q-73 4 -137 42t-107 106q-44 71 -44 156q0 88 45 158q43 69 109 106q64 36 134 40v64h128v-64q72 -4 136 -41t108 -105q44 -71 44 -158zM320 184v368q-58 -5 -108 -53q-52 -49 -52 -131
q0 -83 52 -131q50 -48 108 -53zM448 552v-368q59 5 109 53q51 48 51 131q0 82 -51 131q-50 48 -109 53z" />
    <glyph glyph-name="uni0425" unicode="&#x425;" horiz-adv-x="608" 
d="M386 362l206 -362h-154l-134 245l-134 -245h-154l206 362l-190 342h147l125 -226l125 226h147z" />
    <glyph glyph-name="uni0426" unicode="&#x426;" horiz-adv-x="672" 
d="M528 704v-584h96v-232h-128v112h-432v704h128v-584h208v584h128z" />
    <glyph glyph-name="uni0427" unicode="&#x427;" horiz-adv-x="576" 
d="M248 224q-93 0 -146.5 62.5t-53.5 177.5v240h128v-248q0 -112 112 -112q44 0 96 24v336h128v-704h-128v252q-69 -28 -136 -28z" />
    <glyph glyph-name="uni0428" unicode="&#x428;" horiz-adv-x="848" 
d="M656 120v584h128v-704h-720v704h128v-584h168v584h128v-584h168z" />
    <glyph glyph-name="uni0429" unicode="&#x429;" horiz-adv-x="928" 
d="M784 704v-584h96v-232h-128v112h-688v704h128v-584h168v584h128v-584h168v584h128z" />
    <glyph glyph-name="uni042A" unicode="&#x42a;" horiz-adv-x="576" 
d="M256 464h30q129 0 194 -65q64 -65 64 -167q0 -96 -66 -164q-68 -68 -176 -68h-174v584h-96v120h224v-240zM256 120h41q51 0 85 32t34 80q0 51 -32.5 81.5t-86.5 30.5h-41v-224z" />
    <glyph glyph-name="uni042B" unicode="&#x42b;" horiz-adv-x="768" 
d="M192 464h30q129 0 194 -65q64 -65 64 -167q0 -96 -66 -164q-68 -68 -176 -68h-174v704h128v-240zM704 704v-704h-128v704h128zM192 120h41q51 0 85 32t34 80q0 51 -32.5 81.5t-86.5 30.5h-41v-224z" />
    <glyph glyph-name="uni042C" unicode="&#x42c;" 
d="M192 464h30q129 0 194 -65q64 -65 64 -167q0 -96 -66 -164q-68 -68 -176 -68h-174v704h128v-240zM192 120h41q51 0 85 32t34 80q0 51 -32.5 81.5t-86.5 30.5h-41v-224z" />
    <glyph glyph-name="uni042D" unicode="&#x42d;" horiz-adv-x="656" 
d="M245 712q161 0 270 -105t109 -255t-109 -255t-270 -105q-125 0 -213 72l68 96q63 -48 144 -48q88 0 158 49q68 49 88 135h-242v112h242q-20 86 -88 135q-70 49 -158 49q-76 0 -144 -48l-68 96q88 72 213 72z" />
    <glyph glyph-name="uni042E" unicode="&#x42e;" horiz-adv-x="1040" 
d="M648 712q148 0 255 -105q105 -107 105 -255q0 -149 -105 -254q-106 -106 -255 -106q-132 0 -233 86t-122 214h-101v-292h-128v704h128v-292h101q21 129 122 215q100 85 233 85zM484 182q67 -70 164 -70t164 70q68 71 68 170t-68 170q-67 70 -164 70t-164 -70
q-68 -71 -68 -170t68 -170z" />
    <glyph glyph-name="uni042F" unicode="&#x42f;" horiz-adv-x="528" 
d="M322 704h142v-704h-128v216h-30q-18 0 -23 1l-107 -217h-144l135 251q-56 33 -87.5 88.5t-31.5 120.5q0 105 70 175q69 69 204 69zM299 336h37v248h-37q-54 0 -88.5 -34t-34.5 -90q0 -52 35.5 -88t87.5 -36z" />
    <glyph glyph-name="uni0430" unicode="&#x430;" 
d="M464 226v-226h-128v48q-54 -56 -130 -56q-79 0 -126.5 44t-47.5 111q0 58 44.5 98.5t113.5 48.5q68 8 144 -12q-6 74 -94 74q-51 0 -104 -31l-48 99q74 48 168 48q96 0 152 -61.5t56 -184.5zM336 187q-75 24 -125 12q-51 -13 -51 -52q0 -24 20 -39.5t50 -15.5q36 0 67 27
t39 68z" />
    <glyph glyph-name="uni0431" unicode="&#x431;" horiz-adv-x="560" 
d="M280 472q108 0 179 -69q69 -71 69 -171q0 -99 -71 -170q-71 -70 -177 -70q-109 0 -178 70q-70 69 -70 170q0 99 43 173q41 74 131 159q50 47 70 73t36 67h136q-10 -87 -123 -168q-49 -39 -71 -66q24 2 26 2zM195 147q35 -35 85 -35q51 0 86 35q34 34 34 85t-34 85
q-35 35 -86 35q-50 0 -85 -35t-35 -85t35 -85z" />
    <glyph glyph-name="uni0432" unicode="&#x432;" 
d="M384 253q34 -9 57 -39t23 -66q0 -80 -54 -114t-174 -34h-172v464h156q118 0 173 -29.5t55 -94.5q0 -30 -18 -53.5t-46 -33.5zM264 360h-72v-72h72q56 0 56 36t-56 36zM192 112h87q23 0 40 12t17 32q0 21 -16.5 32.5t-40.5 11.5h-87v-88z" />
    <glyph glyph-name="uni0433" unicode="&#x433;" horiz-adv-x="400" 
d="M368 344h-176v-344h-128v464h304v-120z" />
    <glyph glyph-name="uni0434" unicode="&#x434;" horiz-adv-x="624" 
d="M512 464v-344h80v-232h-128v112h-304v-112h-128v232h68l76 344h336zM272 344l-43 -224h155v224h-112z" />
    <glyph glyph-name="uni0435" unicode="&#x435;" 
d="M283 112q68 0 113 48l68 -94q-77 -74 -183 -74q-113 0 -180 70q-69 69 -69 170q0 102 68 172q68 68 181 68q56 0 117 -35q72 -43 98 -141l-278 -169q26 -15 65 -15zM283 352q-53 0 -88 -34.5t-35 -85.5q0 -2 2 -18l186 109q-26 29 -65 29z" />
    <glyph glyph-name="uni0436" unicode="&#x436;" horiz-adv-x="800" 
d="M589 263l195 -263h-156l-121 170l-43 -48v-122h-128v122l-43 48l-121 -170h-156l195 263l-179 201h152l152 -166v166h128v-166l152 166h152z" />
    <glyph glyph-name="uni0437" unicode="&#x437;" horiz-adv-x="448" 
d="M192 104q34 0 57 11.5t23 32.5q0 23 -35.5 35.5t-92.5 12.5v80q52 0 86 13t34 34q0 17 -19 27t-47 10q-58 0 -118 -36l-44 86q74 62 170 62q76 0 132 -33q54 -33 54 -101q0 -34 -19.5 -61t-49.5 -37q33 -10 55 -38t22 -60q0 -71 -56 -110q-56 -40 -135 -40q-92 0 -177 61
l44 91q61 -40 116 -40z" />
    <glyph glyph-name="uni0438" unicode="&#x438;" horiz-adv-x="576" 
d="M64 464h128v-262l216 262h104v-464h-128v262l-216 -262h-104v464z" />
    <glyph glyph-name="uni0439" unicode="&#x439;" horiz-adv-x="576" 
d="M360 664h64q0 -56 -39 -96q-40 -40 -97 -40t-96 40q-40 39 -40 96h64q0 -29 21.5 -50.5t50.5 -21.5t50.5 21.5t21.5 50.5zM64 464h128v-262l216 262h104v-464h-128v262l-216 -262h-104v464z" />
    <glyph glyph-name="uni043A" unicode="&#x43a;" 
d="M317 263l195 -263h-156l-121 170l-43 -48v-122h-128v464h128v-166l152 166h152z" />
    <glyph glyph-name="uni043B" unicode="&#x43b;" horiz-adv-x="608" 
d="M144 184l42 280h358v-464h-128v344h-124l-22 -147q-16 -107 -57.5 -156t-116.5 -49q-55 0 -96 32l48 104q21 -9 40 -10.5t35 15.5t21 51z" />
    <glyph glyph-name="uni043C" unicode="&#x43c;" horiz-adv-x="640" 
d="M64 480l256 -271l256 271v-480h-128v182l-128 -134l-128 134v-182h-128v480z" />
    <glyph glyph-name="uni043D" unicode="&#x43d;" horiz-adv-x="560" 
d="M368 292v172h128v-464h-128v172h-176v-172h-128v464h128v-172h176z" />
    <glyph glyph-name="uni043E" unicode="&#x43e;" horiz-adv-x="560" 
d="M280 472q105 0 176 -70q72 -70 72 -170q0 -99 -71 -170q-71 -70 -177 -70q-109 0 -178 70q-70 69 -70 170t68 171q68 69 180 69zM195 147q35 -35 85 -35q51 0 86 35q34 34 34 85t-34 85q-35 35 -86 35q-50 0 -85 -35t-35 -85t35 -85z" />
    <glyph glyph-name="uni043F" unicode="&#x43f;" horiz-adv-x="560" 
d="M64 464h432v-464h-128v344h-176v-344h-128v464z" />
    <glyph glyph-name="uni0440" unicode="&#x440;" horiz-adv-x="592" 
d="M64 464h128v-48q54 56 138 56q98 0 164 -68q66 -69 66 -172q0 -104 -66 -171q-66 -69 -164 -69q-83 0 -138 58v-306h-128v720zM227 147q35 -35 85 -35t85 35t35 85t-35 85t-85 35t-85 -35t-35 -85t35 -85z" />
    <glyph glyph-name="uni0441" unicode="&#x441;" horiz-adv-x="480" 
d="M283 112q57 0 97 48l68 -94q-68 -74 -167 -74q-113 0 -181 69q-68 68 -68 171q0 102 68 172q68 68 181 68q99 0 167 -74l-68 -94q-40 48 -97 48q-52 0 -87.5 -35t-35.5 -85t35.5 -85t87.5 -35z" />
    <glyph glyph-name="uni0442" unicode="&#x442;" horiz-adv-x="448" 
d="M32 344v120h384v-120h-128v-344h-128v344h-128z" />
    <glyph glyph-name="uni0443" unicode="&#x443;" 
d="M256 188l112 276h144l-304 -720h-144l123 282l-187 438h144z" />
    <glyph glyph-name="uni0444" unicode="&#x444;" horiz-adv-x="704" 
d="M416 704v-232q110 -11 183 -70q73 -60 73 -170t-73 -170q-73 -59 -183 -70v-248h-128v248q-109 10 -182 70q-74 60 -74 170t74 170q73 60 182 70v232h128zM288 108v248q-57 -3 -92.5 -38t-35.5 -86t35.5 -86t92.5 -38zM416 356v-248q57 3 92.5 38t35.5 86t-35.5 86
t-92.5 38z" />
    <glyph glyph-name="uni0445" unicode="&#x445;" 
d="M336 244l160 -244h-148l-92 144l-92 -144h-148l160 244l-144 220h148l76 -122l76 122h148z" />
    <glyph glyph-name="uni0446" unicode="&#x446;" horiz-adv-x="640" 
d="M496 464v-344h96v-232h-128v112h-400v464h128v-344h176v344h128z" />
    <glyph glyph-name="uni0447" unicode="&#x447;" horiz-adv-x="528" 
d="M224 140q-82 0 -129 53.5t-47 154.5v116h128v-122q0 -82 76 -82q51 0 84 21v183h128v-464h-128v168q-55 -28 -112 -28z" />
    <glyph glyph-name="uni0448" unicode="&#x448;" horiz-adv-x="784" 
d="M592 120v344h128v-464h-656v464h128v-344h136v344h128v-344h136z" />
    <glyph glyph-name="uni0449" unicode="&#x449;" horiz-adv-x="864" 
d="M720 464v-344h96v-232h-128v112h-624v464h128v-344h136v344h128v-344h136v344h128z" />
    <glyph glyph-name="uni044A" unicode="&#x44a;" horiz-adv-x="576" 
d="M256 330h72q216 0 216 -160q0 -83 -58.5 -126.5t-157.5 -43.5h-200v344h-96v120h224v-134zM256 120h101q24 0 41.5 13t17.5 33t-17 32t-42 12h-101v-90z" />
    <glyph glyph-name="uni044B" unicode="&#x44b;" horiz-adv-x="768" 
d="M264 0h-200v464h128v-134h72q216 0 216 -160q0 -83 -58.5 -126.5t-157.5 -43.5zM704 0h-128v464h128v-464zM192 120h101q24 0 41.5 13t17.5 33t-17 32t-42 12h-101v-90z" />
    <glyph glyph-name="uni044C" unicode="&#x44c;" 
d="M264 0h-200v464h128v-134h72q216 0 216 -160q0 -83 -58.5 -126.5t-157.5 -43.5zM192 120h101q24 0 41.5 13t17.5 33t-17 32t-42 12h-101v-90z" />
    <glyph glyph-name="uni044D" unicode="&#x44d;" horiz-adv-x="480" 
d="M199 472q113 0 181 -68q68 -70 68 -172q0 -103 -68 -171q-68 -69 -181 -69q-99 0 -167 74l68 94q40 -48 97 -48q42 0 75 24.5t44 63.5h-140v64h140q-11 39 -44 63.5t-75 24.5q-57 0 -97 -48l-68 94q68 74 167 74z" />
    <glyph glyph-name="uni044E" unicode="&#x44e;" horiz-adv-x="800" 
d="M520 472q105 0 176 -70q72 -70 72 -170q0 -99 -71 -170q-71 -70 -177 -70q-90 0 -155.5 49.5t-85.5 130.5h-87v-172h-128v464h128v-172h87q19 81 83.5 130.5t157.5 49.5zM435 147q35 -35 85 -35q51 0 86 35q34 34 34 85t-34 85q-35 35 -86 35q-50 0 -85 -35t-35 -85
t35 -85z" />
    <glyph glyph-name="uni044F" unicode="&#x44f;" 
d="M264 464h184v-464h-128v118h-44l-80 -118h-148l101 137q-101 41 -101 153q0 85 58 129.5t158 44.5zM235 238h85v106h-85q-24 0 -41.5 -15.5t-17.5 -38.5t17 -37.5t42 -14.5z" />
    <glyph glyph-name="uni0451" unicode="&#x451;" 
d="M214 547q-19 -19 -46 -19t-45 19q-19 18 -19 45t19 46q18 18 45 18t46 -18q18 -19 18 -46t-18 -45zM406 547q-19 -19 -46 -19t-45 19q-19 18 -19 45t19 46q18 18 45 18t46 -18q18 -19 18 -46t-18 -45zM283 112q68 0 113 48l68 -94q-77 -74 -183 -74q-113 0 -180 70
q-69 69 -69 170q0 102 68 172q68 68 181 68q56 0 117 -35q72 -43 98 -141l-278 -169q26 -15 65 -15zM283 352q-53 0 -88 -34.5t-35 -85.5q0 -2 2 -18l186 109q-26 29 -65 29z" />
    <glyph glyph-name="uni0452" unicode="&#x452;" horiz-adv-x="544" 
d="M312 472q84 0 134 -56t50 -160v-256q0 -73 -18 -126.5t-49 -82t-66 -42t-75 -13.5l-28 120q48 1 78 35t30 93v272q0 96 -88 96q-36 0 -62 -29.5t-26 -82.5v-240h-128v568h-48v64h48v104h128v-104h96v-64h-96v-152q47 56 120 56z" />
    <glyph glyph-name="uni0453" unicode="&#x453;" horiz-adv-x="400" 
d="M208 528h-80l64 160h112zM368 344h-176v-344h-128v464h304v-120z" />
    <glyph glyph-name="uni0454" unicode="&#x454;" horiz-adv-x="480" 
d="M283 112q57 0 97 48l68 -94q-68 -74 -167 -74q-113 0 -181 69q-68 68 -68 171q0 102 68 172q68 68 181 68q99 0 167 -74l-68 -94q-40 48 -97 48q-42 0 -75 -24.5t-44 -63.5h140v-64h-140q11 -39 44 -63.5t75 -24.5z" />
    <glyph glyph-name="uni0455" unicode="&#x455;" horiz-adv-x="448" 
d="M242 295q90 -22 132 -56.5t42 -95.5q0 -67 -52 -109t-146 -42q-112 0 -186 74l65 95q53 -43 114 -51q35 -4 56 3.5t21 21.5q0 15 -35 26q-2 0 -7.5 1.5l-16.5 4.5l-22 6q-159 41 -159 155q0 62 50.5 103t136.5 41q76 0 150 -50l-59 -99q-41 26 -88 31q-62 5 -62 -24
q0 -12 14 -19t52 -16z" />
    <glyph glyph-name="uni0456" unicode="&#x456;" horiz-adv-x="256" 
d="M185 568q-24 -24 -57 -24t-56 24q-24 23 -24 56t24 57q23 23 56 23t57 -23q23 -24 23 -57t-23 -56zM192 0h-128v464h128v-464z" />
    <glyph glyph-name="uni0457" unicode="&#x457;" horiz-adv-x="256" 
d="M78 547q-19 -19 -46 -19t-46 19q-18 18 -18 45t18 46q19 18 46 18t46 -18q18 -19 18 -46t-18 -45zM270 547q-19 -19 -46 -19t-45 19q-19 18 -19 45t19 46q18 18 45 18t46 -18q18 -19 18 -46t-18 -45zM192 0h-128v464h128v-464z" />
    <glyph glyph-name="uni0458" unicode="&#x458;" horiz-adv-x="256" 
d="M185 568q-24 -24 -57 -24t-56 24q-24 23 -24 56t24 57q23 23 56 23t57 -23q23 -24 23 -57t-23 -56zM192 -224l-128 -48v736h128v-688z" />
    <glyph glyph-name="uni0459" unicode="&#x459;" horiz-adv-x="816" 
d="M544 304h24q102 0 159 -33t57 -115q0 -156 -216 -156h-152v344h-124l-22 -147q-16 -107 -57.5 -156t-116.5 -49q-55 0 -96 32l48 104q21 -9 40 -10.5t35 15.5t21 51l42 280h358v-160zM544 120h53q59 0 59 34q0 30 -59 30h-53v-64z" />
    <glyph glyph-name="uni045A" unicode="&#x45a;" horiz-adv-x="768" 
d="M496 304h24q102 0 159 -33t57 -115q0 -156 -216 -156h-152v184h-176v-184h-128v464h128v-160h176v160h128v-160zM496 120h53q59 0 59 34q0 30 -59 30h-53v-64z" />
    <glyph glyph-name="uni045B" unicode="&#x45b;" horiz-adv-x="544" 
d="M312 472q84 0 134 -56t50 -160v-256h-128v256q0 96 -88 96q-36 0 -62 -29.5t-26 -82.5v-240h-128v568h-48v64h48v104h128v-104h96v-64h-96v-152q47 56 120 56z" />
    <glyph glyph-name="uni045C" unicode="&#x45c;" 
d="M240 688h112l-96 -160h-80zM317 263l195 -263h-156l-121 170l-43 -48v-122h-128v464h128v-166l152 166h152z" />
    <glyph glyph-name="uni045E" unicode="&#x45e;" 
d="M328 664h64q0 -56 -39 -96q-40 -40 -97 -40t-96 40q-40 39 -40 96h64q0 -29 21.5 -50.5t50.5 -21.5t50.5 21.5t21.5 50.5zM256 188l112 276h144l-304 -720h-144l123 282l-187 438h144z" />
    <glyph glyph-name="uni045F" unicode="&#x45f;" horiz-adv-x="560" 
d="M368 120v344h128v-464h-152v-112h-128v112h-152v464h128v-344h176z" />
    <glyph glyph-name="uni0462" unicode="&#x462;" horiz-adv-x="544" 
d="M224 464h30q129 0 194 -65q64 -65 64 -167q0 -96 -66 -164q-68 -68 -176 -68h-174v544h-80v80h80v80h128v-80h128v-80h-128v-80zM224 120h41q51 0 85 32t34 80q0 51 -32.5 81.5t-86.5 30.5h-41v-224z" />
    <glyph glyph-name="uni0463" unicode="&#x463;" 
d="M192 330h72q216 0 216 -160q0 -83 -58.5 -126.5t-157.5 -43.5h-200v384h-48v64h48v48h128v-48h96v-64h-96v-54zM192 120h101q24 0 41.5 13t17.5 33t-17 32t-42 12h-101v-90z" />
    <glyph glyph-name="uni0472" unicode="&#x472;" horiz-adv-x="784" 
d="M138 607q105 105 254 105q148 0 255 -105q105 -107 105 -255q0 -149 -105 -254q-106 -106 -255 -106t-254 106q-106 105 -106 254t106 255zM392 592q-81 0 -143 -51q-62 -50 -82 -131q92 49 225 -10q153 -69 229 -8q-14 86 -78 143q-65 57 -151 57zM392 112q83 0 145 52
q63 52 81 132q-93 -51 -225 9q-153 69 -230 7q13 -85 79 -143q64 -57 150 -57z" />
    <glyph glyph-name="uni0473" unicode="&#x473;" horiz-adv-x="560" 
d="M280 472q105 0 176 -70q72 -70 72 -170q0 -99 -71 -170q-71 -70 -177 -70q-109 0 -178 70q-70 69 -70 170t68 171q68 69 180 69zM280 352q-39 0 -70 -22t-43 -57q52 18 107 -6q88 -37 123 -6q-10 40 -42.5 65.5t-74.5 25.5zM280 112q39 0 69.5 21.5t43.5 56.5
q-49 -16 -107 8q-87 39 -123 5q10 -40 42.5 -65.5t74.5 -25.5z" />
    <glyph glyph-name="uni0474" unicode="&#x474;" horiz-adv-x="688" 
d="M559 705q77 21 145 -23l-51 -108q-17 17 -41 14.5t-34 -24.5l-258 -580l-320 720h144l176 -416l112 265q31 73 59.5 107t67.5 45z" />
    <glyph glyph-name="uni0475" unicode="&#x475;" 
d="M428 472q49 0 84 -32l-40 -96q-41 23 -65 -24l-167 -336l-240 480h144l96 -208l32 70q42 82 57 100q37 46 99 46z" />
    <glyph glyph-name="uni0490" unicode="&#x490;" horiz-adv-x="464" 
d="M320 704v96h112v-216h-240v-584h-128v704h256z" />
    <glyph glyph-name="uni0491" unicode="&#x491;" horiz-adv-x="400" 
d="M256 464v96h112v-216h-176v-344h-128v464h192z" />
    <glyph glyph-name="uni0492" unicode="&#x492;" horiz-adv-x="480" 
d="M448 704v-120h-240v-232h64v-64h-64v-288h-128v288h-64v64h64v352h368z" />
    <glyph glyph-name="uni0493" unicode="&#x493;" horiz-adv-x="400" 
d="M368 464v-120h-176v-112h96v-64h-96v-168h-128v168h-48v64h48v232h304z" />
    <glyph glyph-name="uni0496" unicode="&#x496;" horiz-adv-x="864" 
d="M616 390l161 -270h71v-216h-112v96h-48l-152 274l-40 -58v-216h-128v216l-40 58l-152 -274h-160l232 390l-216 314h152l184 -280v280h128v-280l184 280h152z" />
    <glyph glyph-name="uni0497" unicode="&#x497;" horiz-adv-x="800" 
d="M589 263l106 -143h89v-216h-112v96h-44l-121 170l-43 -48v-122h-128v122l-43 48l-121 -170h-156l195 263l-179 201h152l152 -166v166h128v-166l152 166h152z" />
    <glyph glyph-name="uni049A" unicode="&#x49a;" horiz-adv-x="560" 
d="M312 390l161 -270h71v-216h-112v96h-48l-152 274l-40 -58v-216h-128v704h128v-280l184 280h152z" />
    <glyph glyph-name="uni049B" unicode="&#x49b;" 
d="M317 263l106 -143h89v-216h-112v96h-44l-121 170l-43 -48v-122h-128v464h128v-166l152 166h152z" />
    <glyph glyph-name="uni04A2" unicode="&#x4a2;" horiz-adv-x="640" 
d="M528 704v-584h112v-216h-112v96h-128v252h-208v-252h-128v704h128v-332h208v332h128z" />
    <glyph glyph-name="uni04A3" unicode="&#x4a3;" horiz-adv-x="608" 
d="M496 464v-344h112v-216h-112v96h-128v172h-176v-172h-128v464h128v-172h176v172h128z" />
    <glyph glyph-name="uni04AE" unicode="&#x4ae;" horiz-adv-x="576" 
d="M288 424l144 280h144l-224 -420v-284h-128v284l-224 420h144z" />
    <glyph glyph-name="uni04AF" unicode="&#x4af;" 
d="M368 464h144l-192 -426v-294h-128v294l-192 426h144l112 -264z" />
    <glyph glyph-name="uni04B0" unicode="&#x4b0;" horiz-adv-x="576" 
d="M576 704l-224 -420v-60h64v-64h-64v-160h-128v160h-64v64h64v60l-224 420h144l144 -280l144 280h144z" />
    <glyph glyph-name="uni04B1" unicode="&#x4b1;" 
d="M512 464l-192 -426v-86h64v-64h-64v-144h-128v144h-64v64h64v86l-192 426h144l112 -264l112 264h144z" />
    <glyph glyph-name="uni04B2" unicode="&#x4b2;" horiz-adv-x="608" 
d="M386 362l138 -242h68v-216h-112v96h-42l-134 245l-134 -245h-154l206 362l-190 342h147l125 -226l125 226h147z" />
    <glyph glyph-name="uni04B3" unicode="&#x4b3;" 
d="M336 244l81 -124h79v-216h-112v96h-36l-92 144l-92 -144h-148l160 244l-144 220h148l76 -122l76 122h148z" />
    <glyph glyph-name="uni04B6" unicode="&#x4b6;" horiz-adv-x="624" 
d="M512 704v-584h112v-216h-112v96h-128v252q-69 -28 -136 -28q-93 0 -146.5 62.5t-53.5 177.5v240h128v-248q0 -112 112 -112q44 0 96 24v336h128z" />
    <glyph glyph-name="uni04B7" unicode="&#x4b7;" horiz-adv-x="576" 
d="M464 464v-344h112v-216h-112v96h-128v168q-55 -28 -112 -28q-82 0 -129 53.5t-47 154.5v116h128v-122q0 -82 76 -82q51 0 84 21v183h128z" />
    <glyph glyph-name="uni04BA" unicode="&#x4ba;" horiz-adv-x="576" 
d="M328 480q93 0 146.5 -62.5t53.5 -177.5v-240h-128v248q0 112 -112 112q-44 0 -96 -24v-336h-128v704h128v-252q69 28 136 28z" />
    <glyph glyph-name="uni04BB" unicode="&#x4bb;" horiz-adv-x="544" 
d="M312 472q84 0 134 -56t50 -160v-256h-128v256q0 96 -88 96q-36 0 -62 -29.5t-26 -82.5v-240h-128v736h128v-320q47 56 120 56z" />
    <glyph glyph-name="uni04C0" unicode="&#x4c0;" horiz-adv-x="256" 
d="M192 704v-704h-128v704h128z" />
    <glyph glyph-name="uni04CF" unicode="&#x4cf;" horiz-adv-x="256" 
d="M192 0h-128v464h128v-464z" />
    <glyph glyph-name="uni04D8" unicode="&#x4d8;" horiz-adv-x="784" 
d="M392 712q148 0 255 -105q105 -107 105 -255q0 -149 -105 -254q-106 -106 -255 -106t-254 106q-106 105 -106 254q0 24 3 48h584q-17 84 -80 138q-65 54 -147 54q-84 0 -148 -55l-75 98q98 77 223 77zM245 167q64 -55 147 -55t147 55q63 53 80 137h-454q17 -84 80 -137z
" />
    <glyph glyph-name="uni04D9" unicode="&#x4d9;" horiz-adv-x="560" 
d="M280 472q105 0 176 -70q72 -70 72 -170q0 -99 -71 -170q-71 -70 -177 -70q-109 0 -178 70q-70 69 -70 170q0 20 3 40h358q-9 35 -42.5 57.5t-70.5 22.5t-70 -22l-81 97q61 45 151 45zM210 134q33 -22 70.5 -22t70.5 22.5t42 57.5h-226q12 -36 43 -58z" />
    <glyph glyph-name="uni04E2" unicode="&#x4e2;" horiz-adv-x="624" 
d="M440 864v-80h-256v80h256zM64 704h128v-442l264 442h104v-704h-128v442l-264 -442h-104v704z" />
    <glyph glyph-name="uni04E3" unicode="&#x4e3;" horiz-adv-x="576" 
d="M416 624v-80h-256v80h256zM64 464h128v-262l216 262h104v-464h-128v262l-216 -262h-104v464z" />
    <glyph glyph-name="uni04E8" unicode="&#x4e8;" horiz-adv-x="784" 
d="M138 607q105 105 254 105q148 0 255 -105q105 -107 105 -255q0 -149 -105 -254q-106 -106 -255 -106t-254 106q-106 105 -106 254t106 255zM539 538q-65 54 -147 54t-147 -54q-63 -54 -80 -138h454q-17 84 -80 138zM245 167q64 -55 147 -55t147 55q63 53 80 137h-454
q17 -84 80 -137z" />
    <glyph glyph-name="uni04E9" unicode="&#x4e9;" horiz-adv-x="560" 
d="M280 472q105 0 176 -70q72 -70 72 -170q0 -99 -71 -170q-71 -70 -177 -70q-109 0 -178 70q-70 69 -70 170t68 171q68 69 180 69zM354 328q-48 39 -112.5 17.5t-77.5 -81.5h232q-10 38 -42 64zM207 137q47 -40 111.5 -18.5t77.5 81.5h-232q10 -38 43 -63z" />
    <glyph glyph-name="uni04EE" unicode="&#x4ee;" horiz-adv-x="576" 
d="M424 864v-80h-256v80h256zM300 416l132 288h144l-336 -704h-144l128 265l-208 439h144z" />
    <glyph glyph-name="uni04EF" unicode="&#x4ef;" 
d="M384 624v-80h-256v80h256zM256 188l112 276h144l-304 -720h-144l123 282l-187 438h144z" />
    <glyph glyph-name="Wgrave" unicode="&#x1e80;" horiz-adv-x="912" 
d="M456 928l64 -160h-80l-96 160h112zM768 704h144l-312 -720l-144 347l-144 -347l-312 720h144l168 -400l80 187l-84 213h140l152 -400z" />
    <glyph glyph-name="wgrave" unicode="&#x1e81;" horiz-adv-x="736" 
d="M368 688l64 -160h-80l-96 160h112zM600 464h136l-248 -480l-119 241l-121 -241l-248 480h136l112 -218l53 118l-49 100h132l104 -218z" />
    <glyph glyph-name="Wacute" unicode="&#x1e82;" horiz-adv-x="912" 
d="M472 768h-80l64 160h112zM768 704h144l-312 -720l-144 347l-144 -347l-312 720h144l168 -400l80 187l-84 213h140l152 -400z" />
    <glyph glyph-name="wacute" unicode="&#x1e83;" horiz-adv-x="736" 
d="M368 688h112l-96 -160h-80zM600 464h136l-248 -480l-119 241l-121 -241l-248 480h136l112 -218l53 118l-49 100h132l104 -218z" />
    <glyph glyph-name="Wdieresis" unicode="&#x1e84;" horiz-adv-x="912" 
d="M406 787q-19 -19 -46 -19t-45 19q-19 18 -19 45t19 46q18 18 45 18t46 -18q18 -19 18 -46t-18 -45zM598 787q-19 -19 -46 -19t-45 19q-19 18 -19 45t19 46q18 18 45 18t46 -18q18 -19 18 -46t-18 -45zM768 704h144l-312 -720l-144 347l-144 -347l-312 720h144l168 -400
l80 187l-84 213h140l152 -400z" />
    <glyph glyph-name="wdieresis" unicode="&#x1e85;" horiz-adv-x="736" 
d="M318 547q-19 -19 -46 -19t-45 19q-19 18 -19 45t19 46q18 18 45 18t46 -18q18 -19 18 -46t-18 -45zM510 547q-19 -19 -46 -19t-45 19q-19 18 -19 45t19 46q18 18 45 18t46 -18q18 -19 18 -46t-18 -45zM600 464h136l-248 -480l-119 241l-121 -241l-248 480h136l112 -218
l53 118l-49 100h132l104 -218z" />
    <glyph glyph-name="Ygrave" unicode="&#x1ef2;" horiz-adv-x="576" 
d="M280 928l64 -160h-80l-96 160h112zM288 424l144 280h144l-224 -420v-284h-128v284l-224 420h144z" />
    <glyph glyph-name="ygrave" unicode="&#x1ef3;" 
d="M256 688l64 -160h-80l-96 160h112zM256 188l112 276h144l-304 -720h-144l123 282l-187 438h144z" />
    <glyph glyph-name="endash" unicode="&#x2013;" horiz-adv-x="528" 
d="M480 304v-96h-432v96h432z" />
    <glyph glyph-name="emdash" unicode="&#x2014;" horiz-adv-x="624" 
d="M576 304v-96h-528v96h528z" />
    <glyph glyph-name="quoteleft" unicode="&#x2018;" horiz-adv-x="240" 
d="M96 704h80v-224h-128z" />
    <glyph glyph-name="quoteright" unicode="&#x2019;" horiz-adv-x="240" 
d="M144 480h-80v224h128z" />
    <glyph glyph-name="quotesinglbase" unicode="&#x201a;" horiz-adv-x="240" 
d="M144 -96h-80v224h128z" />
    <glyph glyph-name="quotedblleft" unicode="&#x201c;" horiz-adv-x="464" 
d="M96 704h80v-224h-128zM320 704h80v-224h-128z" />
    <glyph glyph-name="quotedblright" unicode="&#x201d;" horiz-adv-x="464" 
d="M144 480h-80v224h128zM368 480h-80v224h128z" />
    <glyph glyph-name="quotedblbase" unicode="&#x201e;" horiz-adv-x="464" 
d="M144 -96h-80v224h128zM368 -96h-80v224h128z" />
    <glyph glyph-name="dagger" unicode="&#x2020;" horiz-adv-x="608" 
d="M368 736v-240h192v-112h-192v-640h-128v640h-192v112h192v240h128z" />
    <glyph glyph-name="daggerdbl" unicode="&#x2021;" horiz-adv-x="608" 
d="M560 496v-112h-192v-112h192v-112h-192v-416h-128v416h-192v112h192v112h-192v112h192v240h128v-240h192z" />
    <glyph glyph-name="bullet" unicode="&#x2022;" horiz-adv-x="800" 
d="M321 416q32 32 79 32q46 0 80 -32q32 -34 32 -80q0 -47 -32 -79q-33 -33 -80 -33q-48 0 -79 33q-33 31 -33 79q0 47 33 80z" />
    <glyph glyph-name="ellipsis" unicode="&#x2026;" horiz-adv-x="800" 
d="M185 15q-23 -23 -57 -23t-57 23t-23 57t23 57t57 23t57 -23t23 -57t-23 -57zM457 15q-23 -23 -57 -23t-57 23t-23 57t23 57t57 23t57 -23t23 -57t-23 -57zM729 15q-23 -23 -57 -23t-57 23t-23 57t23 57t57 23t57 -23t23 -57t-23 -57z" />
    <glyph glyph-name="perthousand" unicode="&#x2030;" horiz-adv-x="1200" 
d="M209 392q-67 0 -114 47t-47 113q0 67 47 114q46 46 114 46q67 0 113 -46t46 -114q0 -67 -46 -113q-47 -47 -113 -47zM680 704l-448 -704h-96l448 704h96zM163 507q19 -19 45 -19t45 19t19 45t-19 45t-45 19t-45 -19t-19 -45t19 -45zM609 -8q-67 0 -114 47t-47 113
q0 67 47 114q46 46 114 46q67 0 113 -46t46 -114q0 -67 -46 -113q-47 -47 -113 -47zM993 -8q-67 0 -114 47t-47 113q0 67 47 114q46 46 114 46q67 0 113 -46t46 -114q0 -67 -46 -113q-47 -47 -113 -47zM563 107q19 -19 45 -19t45 19t19 45t-19 45t-45 19t-45 -19t-19 -45
t19 -45zM947 107q19 -19 45 -19t45 19t19 45t-19 45t-45 19t-45 -19t-19 -45t19 -45z" />
    <glyph glyph-name="guilsinglleft" unicode="&#x2039;" horiz-adv-x="336" 
d="M48 272l120 200l88 -52l-94 -148l94 -156l-88 -44z" />
    <glyph glyph-name="guilsinglright" unicode="&#x203a;" horiz-adv-x="336" 
d="M174 272l-94 148l88 52l120 -200l-120 -200l-88 44z" />
    <glyph glyph-name="fraction" unicode="&#x2044;" horiz-adv-x="128" 
d="M336 704l-448 -704h-96l448 704h96z" />
    <glyph glyph-name="uni2070" unicode="&#x2070;" horiz-adv-x="395" 
d="M197 800q63 0 107 -47q43 -46 43 -117t-43 -117q-44 -47 -107 -47q-61 0 -105 47t-44 117t44 117t105 47zM153 576q18 -24 44 -24t45 24q18 23 18 60t-18 61q-19 23 -45 23t-44 -23q-18 -24 -18 -61t18 -60z" />
    <glyph glyph-name="uni2074" unicode="&#x2074;" horiz-adv-x="359" 
d="M183 536h-151l94 256h86l-63 -176h34v41h87v-41h41v-80h-41v-56h-87v56z" />
    <glyph glyph-name="uni2075" unicode="&#x2075;" horiz-adv-x="340" 
d="M153 712l-4 -25q46 14 94.5 -11t48.5 -94q0 -47 -35.5 -78.5t-90.5 -31.5q-52 0 -83 31q-32 32 -35 61l80 23q6 -35 38 -35q18 0 28.5 11t10.5 27q0 30 -29 36q-30 4 -43 -19l-74 25l25 160h172v-80h-103z" />
    <glyph glyph-name="uni2076" unicode="&#x2076;" horiz-adv-x="347" 
d="M260 792l-69 -96q48 -1 78 -32t30 -78q0 -48 -36 -81t-90 -33q-55 0 -90 32.5t-35 81.5q0 32 19 66q19 33 94 140h99zM173 552q24 0 34 19t0 38t-34 19q-23 1 -32.5 -18.5t0 -39t32.5 -18.5z" />
    <glyph glyph-name="uni2077" unicode="&#x2077;" horiz-adv-x="308" 
d="M48 712v80h244l-120 -312h-91l88 232h-121z" />
    <glyph glyph-name="uni2078" unicode="&#x2078;" horiz-adv-x="340" 
d="M252 646q40 -30 40 -74q0 -41 -35.5 -70.5t-86.5 -29.5q-53 0 -87.5 28.5t-34.5 71.5t37 74q-26 26 -26 61q0 39 31.5 66t79.5 27q46 0 78 -27.5t32 -65.5q0 -36 -28 -61zM138 700q0 -12 9 -20t23 -8q13 0 22 8t9 20q1 17 -15 24t-32.5 0t-15.5 -24zM170 544
q21 -1 29.5 15.5t0 32.5t-29.5 15q-15 0 -25 -9t-10 -22q0 -14 10 -23t25 -9z" />
    <glyph glyph-name="uni2079" unicode="&#x2079;" horiz-adv-x="347" 
d="M87 480l69 96q-48 1 -78 32t-30 78q0 48 36 81t90 33q55 0 90 -32.5t35 -81.5q0 -32 -19 -66q-19 -33 -94 -140h-99zM174 720q-24 0 -34 -19t0 -38t34 -19q23 -1 32.5 18.5t0 39t-32.5 18.5z" />
    <glyph glyph-name="Euro" unicode="&#x20ac;" horiz-adv-x="656" 
d="M412 112q81 0 144 48l68 -96q-88 -72 -213 -72q-159 0 -269 105t-110 255t110 255t269 105q125 0 213 -72l-68 -96q-68 48 -144 48q-83 0 -150 -43q-66 -43 -91 -121h277l-17 -56h-270q-2 -20 0 -40h261l-15 -56h-236q24 -77 91 -120q68 -44 150 -44z" />
    <glyph glyph-name="trademark" unicode="&#x2122;" horiz-adv-x="800" 
d="M560 510l192 202v-424h-96v202l-96 -107l-96 107v-202h-96v424zM48 618v86h272v-86h-88v-330h-96v330h-88z" />
    <glyph glyph-name="oneeighth" unicode="&#x215b;" horiz-adv-x="764" 
d="M200 392h-87v212l-49 -16v80l136 44v-320zM88 0l448 704h96l-448 -704h-96zM676 166q40 -30 40 -74q0 -41 -35.5 -70.5t-86.5 -29.5q-53 0 -87.5 28.5t-34.5 71.5t37 74q-26 26 -26 61q0 39 31.5 66t79.5 27q46 0 78 -27.5t32 -65.5q0 -36 -28 -61zM562 220q0 -12 9 -20
t23 -8q13 0 22 8t9 20q1 17 -15 24t-32.5 0t-15.5 -24zM594 64q21 -1 29.5 15.5t0 32.5t-29.5 15q-15 0 -25 -9t-10 -22q0 -14 10 -23t25 -9z" />
    <glyph glyph-name="threeeighths" unicode="&#x215c;" horiz-adv-x="808" 
d="M292 495q0 -49 -36 -80t-90 -31q-49 0 -82 30q-34 28 -36 63l79 22q8 -35 39 -35q18 0 28.5 11t10.5 26q0 23 -22.5 31.5t-41.5 -6.5l-35 49l39 49h-83v80h222l-75 -110q34 -4 58.5 -29.5t24.5 -69.5zM132 0l448 704h96l-448 -704h-96zM720 166q40 -30 40 -74
q0 -41 -35.5 -70.5t-86.5 -29.5q-53 0 -87.5 28.5t-34.5 71.5t37 74q-26 26 -26 61q0 39 31.5 66t79.5 27q46 0 78 -27.5t32 -65.5q0 -36 -28 -61zM606 220q0 -12 9 -20t23 -8q13 0 22 8t9 20q1 17 -15 24t-32.5 0t-15.5 -24zM638 64q21 -1 29.5 15.5t0 32.5t-29.5 15
q-15 0 -25 -9t-10 -22q0 -14 10 -23t25 -9z" />
    <glyph glyph-name="fiveeighths" unicode="&#x215d;" horiz-adv-x="808" 
d="M292 494q0 -47 -35.5 -78.5t-90.5 -31.5q-52 0 -83 31q-32 32 -35 61l80 23q6 -35 38 -35q18 0 28.5 11t10.5 27q0 30 -29 36q-30 4 -43 -19l-74 25l25 160h172v-80h-103l-4 -25q46 14 94.5 -11t48.5 -94zM132 0l448 704h96l-448 -704h-96zM720 166q40 -30 40 -74
q0 -41 -35.5 -70.5t-86.5 -29.5q-53 0 -87.5 28.5t-34.5 71.5t37 74q-26 26 -26 61q0 39 31.5 66t79.5 27q46 0 78 -27.5t32 -65.5q0 -36 -28 -61zM606 220q0 -12 9 -20t23 -8q13 0 22 8t9 20q1 17 -15 24t-32.5 0t-15.5 -24zM638 64q21 -1 29.5 15.5t0 32.5t-29.5 15
q-15 0 -25 -9t-10 -22q0 -14 10 -23t25 -9z" />
    <glyph glyph-name="seveneighths" unicode="&#x215e;" horiz-adv-x="776" 
d="M292 704l-120 -312h-91l88 232h-121v80h244zM100 0l448 704h96l-448 -704h-96zM688 166q40 -30 40 -74q0 -41 -35.5 -70.5t-86.5 -29.5q-53 0 -87.5 28.5t-34.5 71.5t37 74q-26 26 -26 61q0 39 31.5 66t79.5 27q46 0 78 -27.5t32 -65.5q0 -36 -28 -61zM574 220
q0 -12 9 -20t23 -8q13 0 22 8t9 20q1 17 -15 24t-32.5 0t-15.5 -24zM606 64q21 -1 29.5 15.5t0 32.5t-29.5 15q-15 0 -25 -9t-10 -22q0 -14 10 -23t25 -9z" />
    <glyph glyph-name="arrowleft" unicode="&#x2190;" horiz-adv-x="960" 
d="M264 63l-232 233l232 233l63 -63l-125 -122h710v-96h-710l125 -122z" />
    <glyph glyph-name="arrowup" unicode="&#x2191;" horiz-adv-x="530" 
d="M32 584l233 232l233 -232l-63 -63l-122 125v-710h-96v710l-123 -125z" />
    <glyph glyph-name="arrowright" unicode="&#x2192;" horiz-adv-x="960" 
d="M696 529l232 -233l-232 -233l-63 63l125 122h-710v96h710l-125 122z" />
    <glyph glyph-name="arrowdown" unicode="&#x2193;" horiz-adv-x="530" 
d="M498 120l-233 -232l-233 232l62 63l123 -125v710h96v-710l122 125z" />
    <glyph glyph-name="arrowboth" unicode="&#x2194;" horiz-adv-x="992" 
d="M790 248h-588l125 -122l-63 -63l-232 233l232 233l63 -62l-125 -123h588l-125 123l63 62l232 -233l-232 -233l-63 63z" />
    <glyph glyph-name="arrowupdn" unicode="&#x2195;" horiz-adv-x="530" 
d="M313 646v-588l122 125l63 -63l-233 -232l-233 232l62 63l123 -125v588l-123 -125l-62 63l233 232l233 -232l-63 -63z" />
    <glyph glyph-name="uni2196" unicode="&#x2196;" horiz-adv-x="752" 
d="M48 375v329h329v-89l-175 3l518 -518l-68 -68l-518 518l3 -175h-89z" />
    <glyph glyph-name="uni2197" unicode="&#x2197;" horiz-adv-x="752" 
d="M375 704h329v-329h-89l3 175l-518 -518l-68 68l518 518l-175 -3v89z" />
    <glyph glyph-name="uni2198" unicode="&#x2198;" horiz-adv-x="752" 
d="M704 329v-329h-329v89l175 -3l-518 518l68 68l518 -518l-3 175h89z" />
    <glyph glyph-name="uni2199" unicode="&#x2199;" horiz-adv-x="752" 
d="M377 0h-329v329h89l-3 -175l518 518l68 -68l-518 -518l175 3v-89z" />
    <glyph glyph-name="partialdiff" unicode="&#x2202;" horiz-adv-x="592" 
d="M103 688l45 112q181 -73 289 -231q107 -160 107 -337q0 -99 -71 -170q-71 -70 -177 -70q-109 0 -178 70q-70 69 -70 170t68 171q68 69 180 69q33 0 63 -11q-36 73 -103.5 132t-152.5 95zM211 147q35 -35 85 -35q51 0 86 35q34 34 34 85t-34 85q-35 35 -86 35
q-50 0 -85 -35t-35 -85t35 -85z" />
    <glyph glyph-name="emptyset" unicode="&#x2205;" horiz-adv-x="632" 
 />
    <glyph glyph-name="product" unicode="&#x220f;" horiz-adv-x="624" 
d="M64 704h496v-960h-128v840h-240v-840h-128v960z" />
    <glyph glyph-name="summation" unicode="&#x2211;" horiz-adv-x="656" 
d="M592 584h-312l216 -360l-216 -360h312v-120h-528l288 480l-288 480h528v-120z" />
    <glyph glyph-name="minus" unicode="&#x2212;" horiz-adv-x="464" 
d="M48 296v96h368v-96h-368z" />
    <glyph glyph-name="radical" unicode="&#x221a;" horiz-adv-x="896" 
d="M479 704h385v-120h-299l-293 -600l-240 480h144l96 -208z" />
    <glyph glyph-name="infinity" unicode="&#x221e;" horiz-adv-x="704" 
d="M481 520q73 0 124 -51q51 -53 51 -125q0 -73 -51 -124q-51 -52 -124 -52q-77 0 -129 55q-52 -55 -127 -55q-74 0 -125 52q-52 51 -52 124t52 125q52 51 125 51q75 0 127 -55q52 55 129 55zM168 288q23 -24 56 -24t57 24q23 23 23 56t-23 57q-24 23 -57 23t-56 -23
q-24 -24 -24 -57t24 -56zM424 288q23 -24 56 -24t57 24q23 23 23 56t-23 57q-24 23 -57 23t-56 -23q-24 -24 -24 -57t24 -56z" />
    <glyph glyph-name="integral" unicode="&#x222b;" horiz-adv-x="352" 
d="M112 -65v537q0 122 43.5 181t148.5 59v-120q-29 0 -46.5 -21.5t-17.5 -57.5v-537q0 -122 -43.5 -181t-148.5 -59v120q29 0 46.5 21.5t17.5 57.5z" />
    <glyph glyph-name="approxequal" unicode="&#x2248;" 
d="M399 496l65 -64q-45 -64 -119 -64q-23 0 -62 11q-15 4 -38 10.5t-27 7.5q-27 10 -57.5 3t-47.5 -32l-65 64q45 64 119 64q25 0 79 -17t91 -17q38 0 62 34zM399 320l65 -64q-45 -64 -119 -64q-23 0 -62 11q-15 4 -38 10.5t-27 7.5q-27 10 -57.5 3t-47.5 -32l-65 64
q45 64 119 64q25 0 79 -17t91 -17q38 0 62 34z" />
    <glyph glyph-name="notequal" unicode="&#x2260;" horiz-adv-x="464" 
d="M416 480v-96h-130l-20 -80h150v-96h-175l-45 -176h-88l45 176h-105v96h130l20 80h-150v96h175l45 176h88l-45 -176h105z" />
    <glyph glyph-name="lessequal" unicode="&#x2264;" horiz-adv-x="464" 
d="M416 312v-112l-368 176v80l368 176v-112l-240 -104zM48 152h368v-96h-368v96z" />
    <glyph glyph-name="greaterequal" unicode="&#x2265;" horiz-adv-x="464" 
d="M416 376l-368 -176v112l240 104l-240 104v112l368 -176v-80zM48 56v96h368v-96h-368z" />
    <glyph glyph-name="lozenge" unicode="&#x25ca;" horiz-adv-x="640" 
d="M320 720l272 -368l-272 -368l-272 368zM320 138l160 214l-160 214l-158 -214z" />
    <glyph glyph-name="NULL" horiz-adv-x="0" 
 />
    <glyph glyph-name="Q.ss01" horiz-adv-x="784" 
d="M469 0q33 -37 62.5 -51.5t67 -3.5t81.5 55l72 -88q-149 -124 -258 -74q-35 15 -56 31t-55 48q-112 108 -223 19l-72 88q37 37 73 51q-61 51 -95 123.5t-34 153.5q0 149 106 255q105 105 254 105q148 0 255 -105q105 -107 105 -255q0 -129 -80 -227q-80 -99 -203 -125z
M556 522q-67 70 -164 70t-164 -70q-68 -71 -68 -170t68 -170q67 -70 164 -70t164 70q68 71 68 170t-68 170z" />
    <glyph glyph-name="a.ss01" horiz-adv-x="592" 
d="M400 416v48h128v-464h-128v50q-55 -58 -138 -58q-98 0 -164 69q-66 67 -66 171q0 103 66 172q66 68 164 68q84 0 138 -56zM195 147q35 -35 85 -35t85 35t35 85t-35 85t-85 35t-85 -35t-35 -85t35 -85z" />
    <glyph glyph-name="aacute.ss01" horiz-adv-x="592" 
d="M328 528h-80l64 160h112zM400 416v48h128v-464h-128v50q-55 -58 -138 -58q-98 0 -164 69q-66 67 -66 171q0 103 66 172q66 68 164 68q84 0 138 -56zM195 147q35 -35 85 -35t85 35t35 85t-35 85t-85 35t-85 -35t-35 -85t35 -85z" />
    <glyph glyph-name="abreve.ss01" horiz-adv-x="592" 
d="M376 664h64q0 -56 -39 -96q-40 -40 -97 -40t-96 40q-40 39 -40 96h64q0 -29 21.5 -50.5t50.5 -21.5t50.5 21.5t21.5 50.5zM400 416v48h128v-464h-128v50q-55 -58 -138 -58q-98 0 -164 69q-66 67 -66 171q0 103 66 172q66 68 164 68q84 0 138 -56zM195 147q35 -35 85 -35
t85 35t35 85t-35 85t-85 35t-85 -35t-35 -85t35 -85z" />
    <glyph glyph-name="acircumflex.ss01" horiz-adv-x="592" 
d="M440 528h-80l-56 72l-56 -72h-80l136 160zM400 416v48h128v-464h-128v50q-55 -58 -138 -58q-98 0 -164 69q-66 67 -66 171q0 103 66 172q66 68 164 68q84 0 138 -56zM195 147q35 -35 85 -35t85 35t35 85t-35 85t-85 35t-85 -35t-35 -85t35 -85z" />
    <glyph glyph-name="adieresis.ss01" horiz-adv-x="592" 
d="M254 547q-19 -19 -46 -19t-45 19q-19 18 -19 45t19 46q18 18 45 18t46 -18q18 -19 18 -46t-18 -45zM446 547q-19 -19 -46 -19t-45 19q-19 18 -19 45t19 46q18 18 45 18t46 -18q18 -19 18 -46t-18 -45zM400 416v48h128v-464h-128v50q-55 -58 -138 -58q-98 0 -164 69
q-66 67 -66 171q0 103 66 172q66 68 164 68q84 0 138 -56zM195 147q35 -35 85 -35t85 35t35 85t-35 85t-85 35t-85 -35t-35 -85t35 -85z" />
    <glyph glyph-name="agrave.ss01" horiz-adv-x="592" 
d="M328 688l64 -160h-80l-96 160h112zM400 416v48h128v-464h-128v50q-55 -58 -138 -58q-98 0 -164 69q-66 67 -66 171q0 103 66 172q66 68 164 68q84 0 138 -56zM195 147q35 -35 85 -35t85 35t35 85t-35 85t-85 35t-85 -35t-35 -85t35 -85z" />
    <glyph glyph-name="amacron.ss01" horiz-adv-x="592" 
d="M440 624v-80h-256v80h256zM400 416v48h128v-464h-128v50q-55 -58 -138 -58q-98 0 -164 69q-66 67 -66 171q0 103 66 172q66 68 164 68q84 0 138 -56zM195 147q35 -35 85 -35t85 35t35 85t-35 85t-85 35t-85 -35t-35 -85t35 -85z" />
    <glyph glyph-name="aogonek.ss01" horiz-adv-x="592" 
d="M518 -122l26 -54q-13 -13 -35.5 -22.5t-42.5 -9.5q-51 0 -82.5 32.5t-31.5 81.5q0 28 14 57t34 45v42q-55 -58 -138 -58q-98 0 -164 69q-66 67 -66 171q0 103 66 172q66 68 164 68q84 0 138 -56v48h128v-464q-42 0 -77 -27t-35 -63q0 -42 37 -52q36 -10 65 20zM195 147
q35 -35 85 -35t85 35t35 85t-35 85t-85 35t-85 -35t-35 -85t35 -85z" />
    <glyph glyph-name="aring.ss01" horiz-adv-x="592" 
d="M227 701q35 35 85 35t85 -35t35 -85t-35 -85t-85 -35t-85 35t-35 85t35 85zM273 577q17 -17 39 -17t39 17t17 39t-17 39t-39 17t-39 -17t-17 -39t17 -39zM400 416v48h128v-464h-128v50q-55 -58 -138 -58q-98 0 -164 69q-66 67 -66 171q0 103 66 172q66 68 164 68
q84 0 138 -56zM195 147q35 -35 85 -35t85 35t35 85t-35 85t-85 35t-85 -35t-35 -85t35 -85z" />
    <glyph glyph-name="aringacute.ss01" horiz-adv-x="592" 
d="M328 768h-80l64 160h112zM227 701q35 35 85 35t85 -35t35 -85t-35 -85t-85 -35t-85 35t-35 85t35 85zM273 577q17 -17 39 -17t39 17t17 39t-17 39t-39 17t-39 -17t-17 -39t17 -39zM400 416v48h128v-464h-128v50q-55 -58 -138 -58q-98 0 -164 69q-66 67 -66 171
q0 103 66 172q66 68 164 68q84 0 138 -56zM195 147q35 -35 85 -35t85 35t35 85t-35 85t-85 35t-85 -35t-35 -85t35 -85z" />
    <glyph glyph-name="atilde.ss01" horiz-adv-x="592" 
d="M440 640l56 -53q-42 -59 -110 -59q-34 0 -75 15q-114 38 -143 -15l-56 53q42 59 110 59q36 0 75 -14q108 -43 143 14zM400 416v48h128v-464h-128v50q-55 -58 -138 -58q-98 0 -164 69q-66 67 -66 171q0 103 66 172q66 68 164 68q84 0 138 -56zM195 147q35 -35 85 -35
t85 35t35 85t-35 85t-85 35t-85 -35t-35 -85t35 -85z" />
    <glyph glyph-name="ae.ss01" horiz-adv-x="912" 
d="M683 112q68 0 113 48l68 -94q-77 -74 -183 -74q-99 0 -153 60v-52h-128v50q-55 -58 -138 -58q-98 0 -164 69q-66 67 -66 171q0 103 66 172q66 68 164 68q84 0 138 -56v48h128v-51q53 59 153 59q56 0 117 -35q72 -43 98 -141l-278 -169q26 -15 65 -15zM195 147
q35 -35 85 -35t85 35t35 85t-35 85t-85 35t-85 -35t-35 -85t35 -85zM683 352q-53 0 -88 -34.5t-35 -85.5q0 -2 2 -18l186 109q-26 29 -65 29z" />
    <glyph glyph-name="aeacute.ss01" horiz-adv-x="912" 
d="M464 688h112l-96 -160h-80zM683 112q68 0 113 48l68 -94q-77 -74 -183 -74q-99 0 -153 60v-52h-128v50q-55 -58 -138 -58q-98 0 -164 69q-66 67 -66 171q0 103 66 172q66 68 164 68q84 0 138 -56v48h128v-51q53 59 153 59q56 0 117 -35q72 -43 98 -141l-278 -169
q26 -15 65 -15zM195 147q35 -35 85 -35t85 35t35 85t-35 85t-85 35t-85 -35t-35 -85t35 -85zM683 352q-53 0 -88 -34.5t-35 -85.5q0 -2 2 -18l186 109q-26 29 -65 29z" />
    <glyph glyph-name="f_f.dlig" horiz-adv-x="800" 
d="M608 540v-76h160v-120h-160v-344h-128v344h-256v-344h-128v344h-64v120h64v72q0 96 46 152t134 56q56 0 108 -36l-48 -99q-26 13 -51 15.5t-43 -19.5t-18 -65v-76h256v72q0 96 46 152t134 56q56 0 108 -36l-48 -99q-26 13 -51 15.5t-43 -19.5t-18 -65z" />
    <glyph glyph-name="f_f_i.dlig" horiz-adv-x="1024" 
d="M608 464h352v-464h-128v344h-224v-344h-128v344h-256v-344h-128v344h-64v120h64v72q0 96 46 152t134 56q56 0 108 -36l-48 -99q-26 13 -51 15.5t-43 -19.5t-18 -65v-76h256v72q0 96 46 152t134 56q56 0 108 -36l-48 -99q-26 13 -51 15.5t-43 -19.5t-18 -65v-76z" />
    <glyph glyph-name="f_f_j.dlig" horiz-adv-x="1024" 
d="M608 464h352v-688l-128 -48v616h-224v-344h-128v344h-256v-344h-128v344h-64v120h64v72q0 96 46 152t134 56q56 0 108 -36l-48 -99q-26 13 -51 15.5t-43 -19.5t-18 -65v-76h256v72q0 96 46 152t134 56q56 0 108 -36l-48 -99q-26 13 -51 15.5t-43 -19.5t-18 -65v-76z" />
    <glyph glyph-name="uni041B.loclBGR" horiz-adv-x="640" 
d="M640 0h-138l-182 432l-182 -432h-138l320 720z" />
    <glyph glyph-name="uni0432.de-cy.loclBGR" horiz-adv-x="544" 
d="M376 392q54 -14 95 -64q41 -53 41 -123q0 -89 -65 -151q-67 -62 -171 -62q-105 0 -166.5 61t-61.5 166v301q0 148 118 203q46 21 91 21q92 0 150 -55q57 -55 57 -137q0 -53 -25.5 -95.5t-62.5 -64.5zM176 534v-317q0 -46 29 -74.5t71 -28.5q46 0 77 27t31 71q0 56 -48 88
t-128 32v88q49 0 89 34q39 33 39 82q0 39 -22.5 63.5t-57.5 24.5t-57.5 -25t-22.5 -65z" />
    <glyph glyph-name="uni0433.de-cy.loclBGR" horiz-adv-x="448" 
d="M206 295q38 9 52 16t14 19q0 29 -62 24q-47 -5 -88 -31l-59 99q31 21 68.5 34t60.5 14l21 2q86 0 136.5 -41t50.5 -103q0 -114 -159 -155q-64 -16 -75 -25q-6 -4 -6 -13q0 -14 21 -21.5t56 -3.5q61 8 114 51l65 -95q-74 -74 -186 -74q-94 0 -146 42t-52 109q0 61 42 95.5
t132 56.5z" />
    <glyph glyph-name="uni0434.de-cy.loclBGR" horiz-adv-x="592" 
d="M400 416v48h128v-432q0 -142 -67.5 -219t-188.5 -77q-119 0 -192 64l60 100q59 -44 123 -44q63 0 100 44t37 117v33q-55 -58 -138 -58q-98 0 -164 69q-66 67 -66 171q0 103 66 172q66 68 164 68q84 0 138 -56zM195 147q35 -35 85 -35t85 35t35 85t-35 85t-85 35t-85 -35
t-35 -85t35 -85z" />
    <glyph glyph-name="uni0436.de-cy.loclBGR" horiz-adv-x="800" 
d="M589 263l195 -263h-156l-121 170l-43 -48v-122h-128v122l-43 48l-121 -170h-156l195 263l-179 201h152l152 -166v438h128v-438l152 166h152z" />
    <glyph glyph-name="uni0437.de-cy.loclBGR" horiz-adv-x="496" 
d="M176 72v96q54 2 91 29.5t37 71.5q0 33 -22.5 57t-53.5 26q-69 5 -124 -56l-58 88q40 46 83.5 67t104.5 21q86 0 142 -54q56 -56 56 -147q0 -94 -85 -145q44 -16 72.5 -59.5t28.5 -102.5q0 -102 -64 -165t-159 -63q-122 0 -193 92l64 90q56 -66 126 -62q39 2 68.5 31.5
t29.5 67.5q0 56 -38 85.5t-106 31.5z" />
    <glyph glyph-name="uni0438.de-cy.loclBGR" horiz-adv-x="544" 
d="M232 -8q-84 0 -134 56t-50 160v256h128v-256q0 -96 88 -96q36 0 62 29.5t26 82.5v240h128v-464h-128v48q-47 -56 -120 -56z" />
    <glyph glyph-name="uni0439.de-cy.loclBGR" horiz-adv-x="544" 
d="M336 664h64q0 -56 -39 -96q-40 -40 -97 -40t-96 40q-40 39 -40 96h64q0 -29 21.5 -50.5t50.5 -21.5t50.5 21.5t21.5 50.5zM232 -8q-84 0 -134 56t-50 160v256h128v-256q0 -96 88 -96q36 0 62 29.5t26 82.5v240h128v-464h-128v48q-47 -56 -120 -56z" />
    <glyph glyph-name="uni043A.de-cy.loclBGR" 
d="M317 263l195 -263h-156l-121 170l-43 -48v-122h-128v736h128v-438l152 166h152z" />
    <glyph glyph-name="uni043B.de-cy.loclBGR" 
d="M144 0h-144l200 464h112l200 -464h-144l-112 290z" />
    <glyph glyph-name="uni043F.de-cy.loclBGR" horiz-adv-x="544" 
d="M312 472q84 0 134 -56t50 -160v-256h-128v256q0 96 -88 96q-36 0 -62 -29.5t-26 -82.5v-240h-128v464h128v-48q47 56 120 56z" />
    <glyph glyph-name="uni0442.de-cy.loclBGR" horiz-adv-x="816" 
d="M580 472q88 0 138 -55t50 -161v-256h-128v256q0 96 -80 96q-34 0 -57 -27.5t-23 -84.5v-240h-128v256q0 96 -76 96q-36 0 -60 -28t-24 -84v-240h-128v464h128v-48q48 56 128 56q81 0 125 -65q51 65 135 65z" />
    <glyph glyph-name="uni0448.de-cy.loclBGR" horiz-adv-x="816" 
d="M236 -8q-88 0 -138 55t-50 161v256h128v-256q0 -96 80 -96q34 0 57 27.5t23 84.5v240h128v-256q0 -96 76 -96q36 0 60 28t24 84v240h128v-464h-128v48q-48 -56 -128 -56q-81 0 -125 65q-51 -65 -135 -65z" />
    <glyph glyph-name="uni0449.de-cy.loclBGR" horiz-adv-x="896" 
d="M752 464v-344h96v-232h-128v112h-96v48q-48 -56 -128 -56q-81 0 -125 65q-51 -65 -135 -65q-88 0 -138 55t-50 161v256h128v-256q0 -96 80 -96q34 0 57 27.5t23 84.5v240h128v-256q0 -96 76 -96q36 0 60 28t24 84v240h128z" />
    <glyph glyph-name="uni044C.de-cy.loclBGR" 
d="M64 180v284h128v-144q130 30 210 -12q78 -42 78 -136q0 -85 -59 -132.5t-155 -47.5q-90 0 -146 50.5t-56 137.5zM192 217v-42q0 -30 22 -46.5t54 -16.5q35 0 59.5 16t24.5 40q0 44 -39.5 55.5t-120.5 -6.5z" />
    <glyph glyph-name="uni044A.de-cy.loclBGR" horiz-adv-x="576" 
d="M256 464v-144q130 30 210 -12q78 -42 78 -136q0 -85 -59 -132.5t-155 -47.5q-90 0 -146 50.5t-56 137.5v164h-96v120h224zM332 112q35 0 59.5 16t24.5 40q0 44 -39.5 55.5t-120.5 -6.5v-42q0 -30 22 -46.5t54 -16.5z" />
    <glyph glyph-name="uni044E.de-cy.loclBGR" horiz-adv-x="800" 
d="M520 472q105 0 176 -70q72 -70 72 -170q0 -99 -71 -170q-71 -70 -177 -70q-90 0 -155.5 49.5t-85.5 130.5h-87v-172h-128v736h128v-444h87q19 81 83.5 130.5t157.5 49.5zM435 147q35 -35 85 -35q51 0 86 35q34 34 34 85t-34 85q-35 35 -86 35q-50 0 -85 -35t-35 -85
t35 -85z" />
    <glyph glyph-name="uni0430.ss01" horiz-adv-x="592" 
d="M400 416v48h128v-464h-128v50q-55 -58 -138 -58q-98 0 -164 69q-66 67 -66 171q0 103 66 172q66 68 164 68q84 0 138 -56zM195 147q35 -35 85 -35t85 35t35 85t-35 85t-85 35t-85 -35t-35 -85t35 -85z" />
    <glyph glyph-name="zero.subs" horiz-adv-x="395" 
d="M197 112q63 0 107 -47q43 -46 43 -117t-43 -117q-44 -47 -107 -47q-61 0 -105 47t-44 117t44 117t105 47zM153 -113q18 -23 44 -23t45 23q18 24 18 61t-18 61q-19 23 -45 23t-44 -23q-18 -24 -18 -61t18 -61z" />
    <glyph glyph-name="one.subs" horiz-adv-x="296" 
d="M64 -12v80l136 44v-320h-87v212z" />
    <glyph glyph-name="two.subs" horiz-adv-x="339" 
d="M236 -106l-20 -22h75v-80h-243l95 109q61 68 61 97q0 15 -9.5 24.5t-24.5 9.5q-16 0 -25.5 -9.5t-9.5 -24.5q0 -12 10 -28l-74 -32q-23 32 -23 68q0 45 34.5 75.5t87.5 30.5q51 0 86 -30.5t35 -75.5q0 -53 -55 -112z" />
    <glyph glyph-name="three.subs" horiz-adv-x="340" 
d="M284 104l-75 -110q34 -4 58.5 -29.5t24.5 -69.5q0 -49 -36 -80t-90 -31q-48 0 -82 29q-35 30 -36 64l79 22q8 -35 39 -35q18 0 28.5 11t10.5 26q0 23 -22.5 31.5t-41.5 -6.5l-35 49l39 49h-83v80h222z" />
    <glyph glyph-name="four.subs" horiz-adv-x="359" 
d="M183 -152h-151l94 256h86l-63 -176h34v41h87v-41h41v-80h-41v-56h-87v56z" />
    <glyph glyph-name="five.subs" horiz-adv-x="340" 
d="M153 24l-4 -25q46 14 94.5 -11t48.5 -94q0 -47 -35.5 -78.5t-90.5 -31.5q-52 0 -83 31q-32 32 -35 61l80 23q6 -35 38 -35q18 0 28.5 11t10.5 27q0 30 -29 35q-30 6 -43 -18l-74 25l25 160h172v-80h-103z" />
    <glyph glyph-name="six.subs" horiz-adv-x="347" 
d="M260 104l-69 -96q48 -1 78 -32t30 -78q0 -48 -36 -81t-90 -33q-55 0 -90 32.5t-35 81.5q0 32 19 66q19 33 94 140h99zM173 -136q24 0 34 19t0 38t-34 19q-23 1 -32.5 -18.5t0 -39t32.5 -18.5z" />
    <glyph glyph-name="seven.subs" horiz-adv-x="308" 
d="M48 24v80h244l-120 -312h-91l88 232h-121z" />
    <glyph glyph-name="eight.subs" horiz-adv-x="340" 
d="M252 -42q40 -30 40 -74q0 -41 -35.5 -70.5t-86.5 -29.5q-53 0 -87.5 28.5t-34.5 71.5t37 74q-26 26 -26 61q0 39 31.5 66t79.5 27q46 0 78 -27.5t32 -65.5q0 -36 -28 -61zM138 12q0 -12 9 -20t23 -8q13 0 22 8t9 20q1 17 -15 24t-32.5 0t-15.5 -24zM170 -144
q21 -1 29.5 15.5t0 32.5t-29.5 15q-15 0 -25 -9t-10 -22q0 -14 10 -23t25 -9z" />
    <glyph glyph-name="nine.subs" horiz-adv-x="347" 
d="M87 -208l69 96q-48 1 -78 32t-30 78q0 48 36 81t90 33q55 0 90 -32.5t35 -81.5q0 -32 -19 -66q-19 -33 -94 -140h-99zM174 32q-24 0 -34 -19t0 -38t34 -19q23 -1 32.5 18.5t0 39t-32.5 18.5z" />
    <glyph glyph-name="zero.tf" horiz-adv-x="672" 
d="M115 609q90 103 221 103t222 -103q90 -103 90 -257q0 -152 -90 -256q-92 -104 -222 -104q-131 0 -221 104q-91 103 -91 256q0 154 91 257zM206 180q53 -68 130 -68t131 68q53 68 53 172t-53 172q-54 68 -131 68t-130 -68q-54 -67 -54 -172q0 -104 54 -172z" />
    <glyph glyph-name="one.tf" horiz-adv-x="672" 
d="M432 720v-600h136v-120h-400v120h136v440l-136 -40v120z" />
    <glyph glyph-name="two.tf" horiz-adv-x="672" 
d="M472 256l-112 -136h216v-120h-480l214 244q84 96 111 147t27 94q0 46 -32.5 76.5t-79.5 30.5t-79.5 -30.5t-32.5 -76.5t29 -78l-107 -53q-50 62 -50 135q0 92 67 158q67 65 173 65q103 0 171 -64q69 -64 69 -159q0 -108 -104 -233z" />
    <glyph glyph-name="three.tf" horiz-adv-x="672" 
d="M568 704l-200 -254q88 -1 153 -59q63 -59 63 -159q0 -107 -70 -173q-70 -67 -184 -67q-108 0 -170 62t-72 138l114 30q8 -50 43.5 -80t84.5 -30q51 0 89 35q37 34 37 85q0 63 -62 92q-61 28 -130 -1l-64 93l130 168h-210v120h448z" />
    <glyph glyph-name="four.tf" horiz-adv-x="672" 
d="M352 140h-288l220 564h126l-165 -444h107v140h128v-140h80v-120h-80v-140h-128v140z" />
    <glyph glyph-name="five.tf" horiz-adv-x="672" 
d="M279 584l-21 -133q36 17 78.5 21t84.5 -9t77 -40.5t56.5 -78t21.5 -116.5q0 -102 -67 -169t-173 -67q-104 0 -165 60q-63 60 -75 140l122 34q9 -54 39.5 -84t78.5 -30q49 0 80.5 33t31.5 83q2 58 -34.5 92.5t-87.5 32.5t-90 -40l-116 31l56 360h321v-120h-218z" />
    <glyph glyph-name="six.tf" horiz-adv-x="672" 
d="M480 704l-160 -233q109 10 187 -54q77 -66 77 -177q0 -106 -72 -177q-73 -71 -176 -71q-113 0 -180 70q-68 71 -68 178q0 75 43 155q47 86 203 309h146zM250 147q33 -35 86 -35q52 0 87 35q33 34 33 85q0 52 -33 86q-34 34 -87 34t-86 -34q-34 -34 -34 -86q0 -51 34 -85z
" />
    <glyph glyph-name="seven.tf" horiz-adv-x="672" 
d="M112 584v120h480l-272 -704h-140l230 584h-298z" />
    <glyph glyph-name="eight.tf" horiz-adv-x="672" 
d="M498 372q78 -62 78 -158q0 -92 -69 -157q-71 -65 -171 -65q-106 0 -173 64t-67 158q0 100 75 158q-59 56 -59 138q0 86 63 144q62 58 161 58q94 0 159 -59t65 -143q0 -82 -62 -138zM268 568q-28 -25 -28 -60t28 -59q28 -25 68 -25t68 25q28 24 28 59t-28 60
q-28 24 -68 24t-68 -24zM257 141q32 -29 79 -29q46 0 80 29q32 29 32 71t-32 71q-34 29 -80 29q-47 0 -79 -29q-33 -29 -33 -71t33 -71z" />
    <glyph glyph-name="nine.tf" horiz-adv-x="672" 
d="M192 0l160 233q-110 -11 -186 55q-78 64 -78 176q0 106 72 177q73 71 176 71q114 0 181 -70t67 -178q0 -75 -43 -154q-46 -85 -203 -310h-146zM423 558q-34 34 -87 34t-86 -34q-34 -34 -34 -86q0 -51 34 -85q33 -35 86 -35q52 0 87 35q33 35 33 85q0 52 -33 86z" />
    <glyph glyph-name="zero.zero" horiz-adv-x="720" 
d="M139 609q90 103 221 103t222 -103q90 -103 90 -257q0 -152 -90 -256q-92 -104 -222 -104q-131 0 -221 104q-91 103 -91 256q0 154 91 257zM360 592q-77 0 -130 -68q-54 -67 -54 -172q0 -50 13 -93l310 254q-54 79 -139 79zM360 112q77 0 131 68q53 68 53 172q0 49 -13 94
l-310 -254q54 -80 139 -80z" />
    <glyph glyph-name="zero.tf.zero" horiz-adv-x="672" 
d="M115 609q90 103 221 103t222 -103q90 -103 90 -257q0 -152 -90 -256q-92 -104 -222 -104q-131 0 -221 104q-91 103 -91 256q0 154 91 257zM336 592q-77 0 -130 -68q-54 -67 -54 -172q0 -50 13 -93l310 254q-54 79 -139 79zM336 112q77 0 131 68q53 68 53 172q0 49 -13 94
l-310 -254q54 -80 139 -80z" />
    <glyph glyph-name="zero.dnom" horiz-adv-x="395" 
d="M197 320q63 0 107 -47q43 -46 43 -117t-43 -117q-44 -47 -107 -47q-61 0 -105 47t-44 117t44 117t105 47zM153 96q18 -24 44 -24t45 24q18 23 18 60t-18 61q-19 23 -45 23t-44 -23q-18 -24 -18 -61t18 -60z" />
    <glyph glyph-name="one.dnom" horiz-adv-x="296" 
d="M64 196v80l136 44v-320h-87v212z" />
    <glyph glyph-name="two.dnom" horiz-adv-x="339" 
d="M236 102l-20 -22h75v-80h-243l95 109q61 68 61 97q0 15 -9.5 24.5t-24.5 9.5q-16 0 -25.5 -9.5t-9.5 -24.5q0 -12 10 -28l-74 -32q-23 32 -23 68q0 45 34.5 75.5t87.5 30.5q51 0 86 -30.5t35 -75.5q0 -53 -55 -112z" />
    <glyph glyph-name="three.dnom" horiz-adv-x="340" 
d="M284 312l-75 -110q34 -4 58.5 -29.5t24.5 -69.5q0 -49 -36 -80t-90 -31q-49 0 -82 30q-34 28 -36 63l79 22q8 -35 39 -35q18 0 28.5 11t10.5 26q0 23 -22.5 31.5t-41.5 -6.5l-35 49l39 49h-83v80h222z" />
    <glyph glyph-name="four.dnom" horiz-adv-x="359" 
d="M183 56h-151l94 256h86l-63 -176h34v41h87v-41h41v-80h-41v-56h-87v56z" />
    <glyph glyph-name="five.dnom" horiz-adv-x="340" 
d="M153 232l-4 -25q46 14 94.5 -11t48.5 -94q0 -47 -35.5 -78.5t-90.5 -31.5q-52 0 -83 31q-32 32 -35 61l80 23q6 -35 38 -35q18 0 28.5 11t10.5 27q0 30 -29 36q-30 4 -43 -19l-74 25l25 160h172v-80h-103z" />
    <glyph glyph-name="six.dnom" horiz-adv-x="347" 
d="M260 312l-69 -96q48 -1 78 -32t30 -78q0 -48 -36 -81t-90 -33q-55 0 -90 32.5t-35 81.5q0 32 19 66q19 33 94 140h99zM173 72q24 0 34 19t0 38t-34 19q-23 1 -32.5 -18.5t0 -39t32.5 -18.5z" />
    <glyph glyph-name="seven.dnom" horiz-adv-x="308" 
d="M48 232v80h244l-120 -312h-91l88 232h-121z" />
    <glyph glyph-name="eight.dnom" horiz-adv-x="340" 
d="M252 166q40 -30 40 -74q0 -41 -35.5 -70.5t-86.5 -29.5q-53 0 -87.5 28.5t-34.5 71.5t37 74q-26 26 -26 61q0 39 31.5 66t79.5 27q46 0 78 -27.5t32 -65.5q0 -36 -28 -61zM138 220q0 -12 9 -20t23 -8q13 0 22 8t9 20q1 17 -15 24t-32.5 0t-15.5 -24zM170 64
q21 -1 29.5 15.5t0 32.5t-29.5 15q-15 0 -25 -9t-10 -22q0 -14 10 -23t25 -9z" />
    <glyph glyph-name="nine.dnom" horiz-adv-x="347" 
d="M87 0l69 96q-48 1 -78 32t-30 78q0 48 36 81t90 33q55 0 90 -32.5t35 -81.5q0 -32 -19 -66q-19 -33 -94 -140h-99zM174 240q-24 0 -34 -19t0 -38t34 -19q23 -1 32.5 18.5t0 39t-32.5 18.5z" />
    <glyph glyph-name="zero.numr" horiz-adv-x="395" 
d="M197 712q63 0 107 -47q43 -46 43 -117t-43 -117q-44 -47 -107 -47q-61 0 -105 47t-44 117t44 117t105 47zM153 488q18 -24 44 -24t45 24q18 23 18 60t-18 61q-19 23 -45 23t-44 -23q-18 -24 -18 -61t18 -60z" />
    <glyph glyph-name="one.numr" horiz-adv-x="296" 
d="M64 588v80l136 44v-320h-87v212z" />
    <glyph glyph-name="two.numr" horiz-adv-x="339" 
d="M236 494l-20 -22h75v-80h-243l95 109q61 68 61 97q0 15 -9.5 24.5t-24.5 9.5q-16 0 -25.5 -9.5t-9.5 -24.5q0 -12 10 -28l-74 -32q-23 32 -23 68q0 45 34.5 75.5t87.5 30.5q51 0 86 -30.5t35 -75.5q0 -53 -55 -112z" />
    <glyph glyph-name="three.numr" horiz-adv-x="340" 
d="M284 704l-75 -110q34 -4 58.5 -29.5t24.5 -69.5q0 -49 -36 -80t-90 -31q-49 0 -82 30q-34 28 -36 63l79 22q8 -35 39 -35q18 0 28.5 11t10.5 26q0 23 -22.5 31.5t-41.5 -6.5l-35 49l39 49h-83v80h222z" />
    <glyph glyph-name="four.numr" horiz-adv-x="359" 
d="M183 448h-151l94 256h86l-63 -176h34v41h87v-41h41v-80h-41v-56h-87v56z" />
    <glyph glyph-name="five.numr" horiz-adv-x="340" 
d="M153 624l-4 -25q46 14 94.5 -11t48.5 -94q0 -47 -35.5 -78.5t-90.5 -31.5q-52 0 -83 31q-32 32 -35 61l80 23q6 -35 38 -35q18 0 28.5 11t10.5 27q0 30 -29 36q-30 4 -43 -19l-74 25l25 160h172v-80h-103z" />
    <glyph glyph-name="six.numr" horiz-adv-x="347" 
d="M260 704l-69 -96q48 -1 78 -32t30 -78q0 -48 -36 -81t-90 -33q-55 0 -90 32.5t-35 81.5q0 32 19 66q19 33 94 140h99zM173 464q24 0 34 19t0 38t-34 19q-23 1 -32.5 -18.5t0 -39t32.5 -18.5z" />
    <glyph glyph-name="seven.numr" horiz-adv-x="308" 
d="M48 624v80h244l-120 -312h-91l88 232h-121z" />
    <glyph glyph-name="eight.numr" horiz-adv-x="340" 
d="M252 558q40 -30 40 -74q0 -41 -35.5 -70.5t-86.5 -29.5q-53 0 -87.5 28.5t-34.5 71.5t37 74q-26 26 -26 61q0 39 31.5 66t79.5 27q46 0 78 -27.5t32 -65.5q0 -36 -28 -61zM138 612q0 -12 9 -20t23 -8q13 0 22 8t9 20q1 17 -15 24t-32.5 0t-15.5 -24zM170 456
q21 -1 29.5 15.5t0 32.5t-29.5 15q-15 0 -25 -9t-10 -22q0 -14 10 -23t25 -9z" />
    <glyph glyph-name="nine.numr" horiz-adv-x="347" 
d="M87 392l69 96q-48 1 -78 32t-30 78q0 48 36 81t90 33q55 0 90 -32.5t35 -81.5q0 -32 -19 -66q-19 -33 -94 -140h-99zM174 632q-24 0 -34 -19t0 -38t34 -19q23 -1 32.5 18.5t0 39t-32.5 18.5z" />
    <glyph glyph-name="exclam.case" horiz-adv-x="288" 
d="M200 224h-112l-16 480h144zM201 15q-23 -23 -57 -23t-57 23t-23 57t23 57t57 23t57 -23t23 -57t-23 -57z" />
    <glyph glyph-name="exclamdown.case" horiz-adv-x="288" 
d="M87 689q23 23 57 23t57 -23t23 -57t-23 -57t-57 -23t-57 23t-23 57t23 57zM72 0l16 480h112l16 -480h-144z" />
    <glyph glyph-name="question.case" horiz-adv-x="480" 
d="M218 712q103 0 158 -58q56 -59 56 -138q0 -78 -49 -136q-21 -23 -53 -52q-48 -44 -50 -104h-112q-4 75 32 131q10 15 43.5 48.5t44.5 48.5q16 22 16 54q0 39 -24.5 62.5t-65.5 23.5q-29 0 -53.5 -14.5t-36.5 -36.5l-76 80q58 91 170 91zM167 129q23 23 57 23t57 -23
t23 -57t-23 -57t-57 -23t-57 23t-23 57t23 57z" />
    <glyph glyph-name="questiondown.case" horiz-adv-x="480" 
d="M313 575q-23 -23 -57 -23t-57 23t-23 57t23 57t57 23t57 -23t23 -57t-23 -57zM262 -8q-103 0 -158 58q-56 59 -56 138q0 80 50 136q17 20 52 52q48 44 50 104h112q4 -75 -32 -131q-10 -15 -43 -48.5t-44 -48.5q-17 -23 -17 -54q0 -39 24.5 -62.5t65.5 -23.5
q29 0 53.5 14.5t36.5 36.5l76 -80q-58 -91 -170 -91z" />
    <glyph glyph-name="braceleft.case" horiz-adv-x="352" 
d="M48 308v88q30 1 47 18.5t17 45.5v254q0 156 144 182l48 -92q-64 -16 -64 -106v-200q0 -114 -75 -146q75 -32 75 -146v-200q0 -90 64 -106l-48 -92q-144 26 -144 182v254q0 28 -17 45.5t-47 18.5z" />
    <glyph glyph-name="braceright.case" horiz-adv-x="352" 
d="M304 396v-88q-30 -1 -47 -18.5t-17 -45.5v-254q0 -156 -144 -182l-48 92q64 16 64 106v200q0 114 75 146q-75 32 -75 146v200q0 90 -64 106l48 92q144 -26 144 -182v-254q0 -28 17 -45.5t47 -18.5z" />
    <glyph glyph-name="bracketleft.case" horiz-adv-x="336" 
d="M272 760h-80v-816h80v-120h-208v1056h208v-120z" />
    <glyph glyph-name="bracketright.case" horiz-adv-x="336" 
d="M144 -56v816h-80v120h208v-1056h-208v120h80z" />
    <glyph glyph-name="parenleft.case" horiz-adv-x="304" 
d="M168 832l104 -64q-96 -195 -96 -416t96 -416l-104 -64q-120 212 -120 480t120 480z" />
    <glyph glyph-name="parenright.case" horiz-adv-x="304" 
d="M32 768l104 64q120 -212 120 -480t-120 -480l-104 64q96 195 96 416t-96 416z" />
    <glyph glyph-name="emdash.case" horiz-adv-x="624" 
d="M576 400v-96h-528v96h528z" />
    <glyph glyph-name="endash.case" horiz-adv-x="528" 
d="M480 400v-96h-432v96h432z" />
    <glyph glyph-name="hyphen.case" horiz-adv-x="400" 
d="M352 400v-96h-304v96h304z" />
    <glyph glyph-name="guillemotleft.case" horiz-adv-x="576" 
d="M48 352l120 200l88 -52l-94 -148l94 -156l-88 -44zM408 552l88 -52l-94 -148l94 -156l-88 -44l-120 200z" />
    <glyph glyph-name="guillemotright.case" horiz-adv-x="576" 
d="M174 352l-94 148l88 52l120 -200l-120 -200l-88 44zM320 500l88 52l120 -200l-120 -200l-88 44l94 156z" />
    <glyph glyph-name="guilsinglleft.case" horiz-adv-x="336" 
d="M168 552l88 -52l-94 -148l94 -156l-88 -44l-120 200z" />
    <glyph glyph-name="guilsinglright.case" horiz-adv-x="336" 
d="M174 352l-94 148l88 52l120 -200l-120 -200l-88 44z" />
    <glyph glyph-name="parenleft_one_parenright.dlig" horiz-adv-x="832" 
d="M154 614q106 106 262 106t262 -106t106 -262t-106 -262t-262 -106q-154 0 -261 107t-107 261q0 156 106 262zM223 159q79 -79 193 -79t193 79t79 193t-79 193t-193 79t-193 -79t-79 -193t79 -193zM380 438l-64 -21v88l160 55v-400h-96v278z" />
    <glyph glyph-name="parenleft_two_parenright.dlig" horiz-adv-x="832" 
d="M416 -16q-154 0 -261 107t-107 261q0 156 106 262t262 106t262 -106t106 -262t-106 -262t-262 -106zM223 159q79 -79 193 -79t193 79t79 193t-79 193t-193 79t-193 -79t-79 -193t79 -193zM506 302l-49 -62h104v-80h-291l119 136q45 52 60.5 79.5t15.5 51.5q0 38 -33 50
t-57 -10q-16 -14 -17 -40t11 -41l-82 -34q-25 31 -25 75q0 54 42 94q41 40 108 40q62 0 106 -39q43 -39 43 -95q0 -55 -55 -125z" />
    <glyph glyph-name="parenleft_three_parenright.dlig" horiz-adv-x="832" 
d="M416 -16q-154 0 -261 107t-107 261q0 156 106 262t262 106t262 -106t106 -262t-106 -262t-262 -106zM223 159q79 -79 193 -79t193 79t79 193t-79 193t-193 79t-193 -79t-79 -193t79 -193zM556 545l-104 -142q48 -2 80.5 -34.5t32.5 -86.5q0 -59 -43 -98q-43 -40 -110 -40
q-65 0 -103 37q-39 36 -42 79l87 18q3 -23 19.5 -38.5t38.5 -15.5q25 0 41 15.5t16 42.5q0 35 -33 47t-56 -6l-44 61l62 81h-114v80h272z" />
    <glyph glyph-name="parenleft_four_parenright.dlig" horiz-adv-x="832" 
d="M416 -16q-154 0 -261 107t-107 261q0 156 106 262t262 106t262 -106t106 -262t-106 -262t-262 -106zM223 159q79 -79 193 -79t193 79t79 193t-79 193t-193 79t-193 -79t-79 -193t79 -193zM421 228h-176l118 320h95l-84 -240h47v71h96v-71h36v-80h-36v-72h-96v72z" />
    <glyph glyph-name="parenleft_five_parenright.dlig" horiz-adv-x="832" 
d="M154 614q106 106 262 106t262 -106t106 -262t-106 -262t-262 -106q-154 0 -261 107t-107 261q0 156 106 262zM223 159q79 -79 193 -79t193 79t79 193t-79 193t-193 79t-193 -79t-79 -193t79 -193zM386 464l-7 -52q26 12 58 8t60.5 -16t48 -44.5t19.5 -77.5q0 -58 -43 -98
t-110 -40q-65 0 -104 36t-42 80l88 17q3 -23 19.5 -38t38.5 -15q25 0 41 16t16 42q0 42 -33 56q-34 14 -71 -13l-86 19l31 200h212v-80h-136z" />
    <glyph glyph-name="parenleft_six_parenright.dlig" horiz-adv-x="832" 
d="M416 -16q-154 0 -261 107t-107 261q0 156 106 262t262 106t262 -106t106 -262t-106 -262t-262 -106zM223 159q79 -79 193 -79t193 79t79 193t-79 193t-193 79t-193 -79t-79 -193t79 -193zM503 544l-83 -116q64 -2 105 -42q41 -43 41 -100q0 -61 -43 -101
q-44 -41 -111 -41t-111 41q-43 40 -43 101q0 40 24 82q24 43 117 176h104zM371 242q17 -18 42 -18t41 18t16 44t-16 44t-41 18t-42 -18t-17 -44t17 -44z" />
    <glyph glyph-name="parenleft_seven_parenright.dlig" horiz-adv-x="832" 
d="M416 -16q-154 0 -261 107t-107 261q0 156 106 262t262 106t262 -106t106 -262t-106 -262t-262 -106zM223 159q79 -79 193 -79t193 79t79 193t-79 193t-193 79t-193 -79t-79 -193t79 -193zM286 468v80h283l-151 -392h-101l120 312h-151z" />
    <glyph glyph-name="parenleft_eight_parenright.dlig" horiz-adv-x="832" 
d="M154 614q106 106 262 106t262 -106t106 -262t-106 -262t-262 -106q-154 0 -261 107t-107 261q0 156 106 262zM223 159q79 -79 193 -79t193 79t79 193t-79 193t-193 79t-193 -79t-79 -193t79 -193zM519 362q46 -36 46 -90q0 -52 -43 -88q-44 -36 -106 -36q-65 0 -107 35.5
t-42 88.5q0 55 44 90q-35 33 -35 79q0 49 40 82t100 33q58 0 99 -33q41 -35 41 -82q0 -45 -37 -79zM372 436q0 -16 13 -28t31 -12t31 12t13 28q1 24 -21.5 34.5t-45 0t-21.5 -34.5zM379 242q24 -22 57 -10t33 44q0 21 -15.5 35t-37.5 14t-37.5 -14t-15.5 -35t16 -34z" />
    <glyph glyph-name="parenleft_nine_parenright.dlig" horiz-adv-x="832" 
d="M416 -16q-154 0 -261 107t-107 261q0 156 106 262t262 106t262 -106t106 -262t-106 -262t-262 -106zM223 159q79 -79 193 -79t193 79t79 193t-79 193t-193 79t-193 -79t-79 -193t79 -193zM329 160l83 116q-65 2 -105 43q-41 41 -41 99q0 60 44 101t110 41q67 0 111 -41
q43 -40 43 -101q0 -40 -23 -81q-26 -46 -118 -177h-104zM462 462q-16 18 -41 18t-42 -18t-17 -44t17 -44t42 -18t41 18t16 44t-16 44z" />
    <glyph glyph-name="copyright.ss02" horiz-adv-x="504" 
d="M397 363q-59 -59 -145 -59t-145 60q-59 59 -59 144q0 86 59 145t145 59t145 -59t59 -145t-59 -145zM146 402q44 -44 106 -44q63 0 107 44q43 43 43 106q0 64 -43 107t-107 43q-63 0 -106 -43q-44 -44 -44 -107q0 -62 44 -106zM256 439q24 0 44 15l27 -41q-30 -24 -72 -24
q-50 0 -87 35q-36 34 -36 84t36 84q37 35 87 35q43 0 72 -24l-27 -41q-20 15 -44 15q-29 0 -49.5 -20t-20.5 -49t20.5 -49t49.5 -20z" />
    <glyph glyph-name="registered.ss02" horiz-adv-x="504" 
d="M397 363q-59 -59 -145 -59t-145 60q-59 59 -59 144q0 86 59 145t145 59t145 -59t59 -145t-59 -145zM146 402q44 -44 106 -44q63 0 107 44q43 43 43 106q0 64 -43 107t-107 43q-63 0 -106 -43q-44 -44 -44 -107q0 -62 44 -106zM293 471l43 -76h-60l-33 62h-9v-62h-55v226
h59q45 0 69 -22t24 -58q0 -49 -38 -70zM238 573h-4v-68h4q18 0 28.5 9.5t10.5 24.5q0 34 -39 34z" />
    <glyph glyph-name="trademark.ss02" horiz-adv-x="628" 
d="M435 558l145 152v-320h-72v152l-73 -80l-72 80v-152h-72v320zM48 639v65h205v-65h-66v-249h-73v249h-66z" />
    </font>
</defs>
</svg>
