<?xml version="1.0" standalone="no"?>
<!DOCTYPE svg PUBLIC "-//W3C//DTD SVG 1.1//EN" "http://www.w3.org/Graphics/SVG/1.1/DTD/svg11.dtd" >
<svg xmlns="http://www.w3.org/2000/svg" xmlns:xlink="http://www.w3.org/1999/xlink" version="1.1">
<metadata>
Created by FontForge 20170812 at Sat Nov 19 00:29:14 2016
 By www-data
Copyright (c) Milos Mitrovic, 2016. All rights reserved.
</metadata>
<defs>
<font id="BergenSans-Bold" horiz-adv-x="640" >
  <font-face 
    font-family="Bergen Sans Bold"
    font-weight="700"
    font-stretch="normal"
    units-per-em="1000"
    panose-1="0 0 8 0 0 0 0 0 0 0"
    ascent="734"
    descent="-266"
    x-height="480"
    cap-height="704"
    bbox="-216 -304 1184 1024"
    underline-thickness="50"
    underline-position="-200"
    unicode-range="U+0020-25CA"
  />
<missing-glyph horiz-adv-x="528" 
d="M98 800h335v-1056h-335v1056zM352 694v35h-175v-35h69v-39h-70v-35h176v35h-70v39h70zM282 519v74h-106v-110h176v36h-70zM211 557h35v-38h-35v38zM352 420v35h-176v-35h70v-39h-70v-35h106v74h70zM352 286v105h-35v-69h-141v-36h176zM352 143v119h-106v-59h36v25h35v-50
h-106v84h-35v-119h176zM352 -40v120h-176v-120h176zM211 45h106v-50h-106v50zM352 -99v35h-176v-35h74l-74 -49v-35h176v35h-108l74 49h34z" />
    <glyph glyph-name=".notdef" horiz-adv-x="528" 
d="M98 800h335v-1056h-335v1056zM352 694v35h-175v-35h69v-39h-70v-35h176v35h-70v39h70zM282 519v74h-106v-110h176v36h-70zM211 557h35v-38h-35v38zM352 420v35h-176v-35h70v-39h-70v-35h106v74h70zM352 286v105h-35v-69h-141v-36h176zM352 143v119h-106v-59h36v25h35v-50
h-106v84h-35v-119h176zM352 -40v120h-176v-120h176zM211 45h106v-50h-106v50zM352 -99v35h-176v-35h74l-74 -49v-35h176v35h-108l74 49h34z" />
    <glyph glyph-name=".null" horiz-adv-x="0" 
 />
    <glyph glyph-name="nonmarkingreturn" horiz-adv-x="333" 
 />
    <glyph glyph-name="space" unicode=" " horiz-adv-x="304" 
 />
    <glyph glyph-name="exclam" unicode="!" horiz-adv-x="304" 
d="M216 224h-128l-16 480h160zM215 10q-25 -26 -62 -26t-63 26t-26 63t26 62t63 25t62 -25t25 -62t-25 -63z" />
    <glyph glyph-name="quotedbl" unicode="&#x22;" horiz-adv-x="448" 
d="M192 704v-256h-144v256h144zM400 704v-256h-144v256h144z" />
    <glyph glyph-name="numbersign" unicode="#" horiz-adv-x="704" 
d="M656 528v-112h-113l-14 -128h111v-112h-124l-20 -176h-120l20 176h-128l-20 -176h-120l20 176h-100v112h113l14 128h-111v112h124l20 176h120l-20 -176h128l20 176h120l-20 -176h100zM281 288h128l14 128h-128z" />
    <glyph glyph-name="dollar" unicode="$" horiz-adv-x="560" 
d="M528 218q0 -83 -52 -147t-140 -82v-85h-80v81q-88 6 -154 58q-49 38 -70 69l89 112q73 -96 159 -96q38 0 63 24.5t25 55.5q0 35 -18.5 56t-61.5 37q-116 43 -165 93q-51 50 -51 132q0 76 50.5 127.5t133.5 63.5v83h80v-82q85 -9 158 -76l-86 -118q-49 52 -112 52
q-27 0 -45.5 -14t-18.5 -33q0 -42 64 -66q40 -16 52 -20q8 -2 46 -20q33 -16 45 -25q4 -3 35 -30q28 -26 39 -60t15 -90z" />
    <glyph glyph-name="percent" unicode="%" horiz-adv-x="848" 
d="M336 433q-48 -49 -119 -49t-120 49q-49 48 -49 119q0 69 50 119q49 49 119 49t119 -49q48 -49 48 -119q0 -71 -48 -119zM704 704l-448 -704h-112l448 704h112zM177 513q17 -17 39 -17t39 17t17 39t-17 39t-39 17t-39 -17t-17 -39t17 -39zM752 33q-48 -49 -119 -49
t-120 49q-49 48 -49 119q0 69 50 119q49 49 119 49t119 -49q48 -50 48 -119q0 -71 -48 -119zM593 113q17 -17 39 -17t39 17t17 39t-17 39t-39 17t-39 -17t-17 -39t17 -39z" />
    <glyph glyph-name="ampersand" unicode="&#x26;" horiz-adv-x="641" 
d="M352 336h257v-112h-65q13 -94 -55 -167q-67 -73 -185 -73q-114 0 -185 65t-71 175q0 55 23 101.5t61 74.5q-52 48 -52 136q0 74 60 130q60 54 172 54q110 0 176 -68l-88 -117q-32 41 -85 41q-33 0 -54 -17t-21 -44q0 -25 20.5 -43t59.5 -24v-112q-49 -1 -80 -34
q-32 -34 -32 -74q0 -47 26.5 -73.5t69.5 -26.5q49 0 71 34t10 62h-33v112z" />
    <glyph glyph-name="quotesingle" unicode="'" horiz-adv-x="240" 
d="M192 704v-256h-144v256h144z" />
    <glyph glyph-name="parenleft" unicode="(" horiz-adv-x="320" 
d="M168 800l120 -72q-45 -90 -71 -202q-25 -107 -25 -206t25 -206q26 -112 71 -202l-120 -72q-120 212 -120 480t120 480z" />
    <glyph glyph-name="parenright" unicode=")" horiz-adv-x="320" 
d="M32 728l120 72q120 -212 120 -480t-120 -480l-120 72q45 90 71 202q25 107 25 206t-25 206q-26 112 -71 202z" />
    <glyph glyph-name="asterisk" unicode="*" horiz-adv-x="432" 
d="M266 704l-5 -99l88 39l35 -93l-94 -30l62 -79l-81 -55l-55 79l-54 -79l-83 55l64 79l-95 30l35 93l89 -39l-4 99h98z" />
    <glyph glyph-name="plus" unicode="+" horiz-adv-x="480" 
d="M296 400h136v-112h-136v-136h-112v136h-136v112h136v136h112v-136z" />
    <glyph glyph-name="comma" unicode="," horiz-adv-x="272" 
d="M176 -128h-112v272h160z" />
    <glyph glyph-name="hyphen" unicode="-" horiz-adv-x="400" 
d="M352 312v-112h-304v112h304z" />
    <glyph glyph-name="period" unicode="." horiz-adv-x="272" 
d="M199 10q-25 -26 -62 -26t-63 26t-26 63t26 62t63 25t62 -25t25 -62t-25 -63z" />
    <glyph glyph-name="slash" unicode="/" horiz-adv-x="560" 
d="M512 784l-336 -864h-128l336 864h128z" />
    <glyph glyph-name="zero" unicode="0" horiz-adv-x="768" 
d="M146 615q98 105 238 105q142 0 239 -105q97 -106 97 -263q0 -158 -97 -262q-97 -106 -239 -106q-141 0 -238 106q-98 106 -98 262t98 263zM259 191q51 -63 125 -63t125 63t51 161t-51 161t-125 63t-125 -63t-51 -161t51 -161z" />
    <glyph glyph-name="one" unicode="1" horiz-adv-x="400" 
d="M32 496v144l272 80v-720h-160v529z" />
    <glyph glyph-name="two" unicode="2" horiz-adv-x="608" 
d="M456 256l-95 -112h199v-144h-512l214 244q83 93 111 145q27 49 27 92t-28 69t-68 26t-68 -26t-28 -69q0 -45 21 -74l-135 -61q-20 24 -33 62.5t-13 72.5q0 99 72 169q70 70 184 70q108 0 182 -69t74 -170t-104 -225z" />
    <glyph glyph-name="three" unicode="3" horiz-adv-x="608" 
d="M544 704l-188 -254q82 -1 144 -59q60 -59 60 -159q0 -106 -75 -177q-76 -71 -189 -71q-109 0 -176 65q-67 64 -72 143l144 32q5 -41 34.5 -68.5t69.5 -27.5q46 0 75 27.5t29 76.5q0 41 -28.5 67.5t-65.5 24.5q-34 -1 -66 -19l-80 111l112 144h-192v144h464z" />
    <glyph glyph-name="four" unicode="4" horiz-adv-x="608" 
d="M336 128h-304l212 576h158l-151 -432h85v128h160v-128h64v-144h-64v-128h-160v128z" />
    <glyph glyph-name="five" unicode="5" horiz-adv-x="608" 
d="M253 560l-13 -93q38 13 80.5 14t85.5 -13t77 -41.5t55.5 -78t21.5 -116.5q0 -102 -76 -175t-188 -73q-109 0 -176 65q-67 64 -72 143l144 32q5 -41 34.5 -68.5t69.5 -27.5q44 0 74 29t30 75q0 75 -59 101q-61 26 -128 -23l-141 34l56 360h353v-144h-228z" />
    <glyph glyph-name="six" unicode="6" horiz-adv-x="624" 
d="M476 704l-149 -208q109 -2 179 -76q70 -76 70 -180q0 -108 -75 -182q-76 -74 -189 -74q-117 0 -191 74q-73 73 -73 182q0 71 43 147q41 75 211 317h174zM237 161q29 -33 75 -33t75 33q29 32 29 79q0 46 -29 80q-29 32 -75 32t-75 -32q-29 -34 -29 -80q0 -47 29 -79z" />
    <glyph glyph-name="seven" unicode="7" horiz-adv-x="544" 
d="M48 560v144h496l-272 -704h-168l216 560h-272z" />
    <glyph glyph-name="eight" unicode="8" horiz-adv-x="608" 
d="M481 370q79 -64 79 -162q0 -94 -74 -159t-182 -65q-111 0 -184 65q-72 65 -72 159q0 99 76 163q-60 59 -60 141q0 88 68 148t172 60q100 0 170 -61t70 -147q0 -80 -63 -142zM248 555q-24 -21 -24 -51t24 -51q23 -21 56 -21t57 21q23 21 23 51t-23 51q-24 21 -57 21
t-56 -21zM236 154q28 -26 68 -26t68 26t28 62.5t-28 62.5q-28 25 -68 25t-68 -25q-28 -26 -28 -62.5t28 -62.5z" />
    <glyph glyph-name="nine" unicode="9" horiz-adv-x="624" 
d="M148 0l149 208q-108 2 -178 77q-71 76 -71 179q0 108 75 182q76 74 189 74q118 0 191 -73t73 -183q0 -70 -42 -147q-45 -79 -212 -317h-174zM387 544q-29 32 -75 32t-75 -32q-29 -34 -29 -80q0 -47 29 -79q29 -33 75 -33t75 33q29 32 29 79q0 46 -29 80z" />
    <glyph glyph-name="colon" unicode=":" horiz-adv-x="272" 
d="M199 346q-25 -26 -62 -26t-63 26t-26 63t26 62t63 25t62 -25t25 -62t-25 -63zM199 10q-25 -26 -62 -26t-63 26t-26 63t26 62t63 25t62 -25t25 -62t-25 -63z" />
    <glyph glyph-name="semicolon" unicode=";" horiz-adv-x="272" 
d="M199 346q-25 -26 -62 -26t-63 26t-26 63t26 62t63 25t62 -25t25 -62t-25 -63zM176 -128h-112v272h160z" />
    <glyph glyph-name="less" unicode="&#x3c;" horiz-adv-x="482" 
d="M432 248v-128l-384 184v80l384 184v-128l-240 -96z" />
    <glyph glyph-name="equal" unicode="=" horiz-adv-x="480" 
d="M48 376v112h384v-112h-384zM48 200v112h384v-112h-384z" />
    <glyph glyph-name="greater" unicode="&#x3e;" horiz-adv-x="480" 
d="M432 304l-384 -184v128l240 96l-240 96v128l384 -184v-80z" />
    <glyph glyph-name="question" unicode="?" horiz-adv-x="512" 
d="M232 720q112 0 172 -60t60 -140q0 -66 -36 -113q-20 -25 -33 -39q-32 -31 -41 -40q-48 -44 -50 -104h-128q-4 75 32 131q9 13 40 48t42 51q14 23 14 52q0 28 -23 49t-56 21q-52 0 -85 -46l-92 99q27 39 75.5 65t108.5 26zM178 135q26 25 63 25t62 -25t25 -62t-25 -63
t-62 -26t-63 26t-26 63t26 62z" />
    <glyph glyph-name="at" unicode="@" horiz-adv-x="1072" 
d="M544 785q196 0 339 -134q141 -133 141 -320q0 -115 -67 -191t-174 -76q-58 0 -97.5 29t-55.5 72q-26 -30 -66.5 -49.5t-83.5 -19.5q-83 0 -131 60q-48 61 -38 144q11 83 71 139q60 57 138 57q83 0 121 -62l7 46h104l-29 -223q-5 -38 15.5 -59.5t57.5 -21.5q42 0 79 36
t37 117q0 145 -106 245q-107 99 -262 99q-164 0 -273 -112q-111 -113 -111 -272q0 -160 109 -272q109 -113 267 -113q110 0 176 36l48 -96q-40 -24 -104 -39q-67 -14 -120 -13q-205 4 -347 148q-141 143 -141 349q-3 132 63 247.5t182 183.5t251 65zM619 295q5 43 -20 74
t-66 31q-44 0 -76 -30.5t-37 -74.5q-6 -42 19.5 -72.5t68.5 -30.5q44 0 74.5 29t36.5 74z" />
    <glyph glyph-name="A" unicode="A" horiz-adv-x="672" 
d="M672 0h-176l-33 80h-254l-33 -80h-176l336 720zM336 392l-69 -168h138z" />
    <glyph glyph-name="B" unicode="B" horiz-adv-x="576" 
d="M407 369q56 -18 88.5 -63.5t32.5 -103.5q0 -91 -59 -146.5t-163 -55.5h-242v704h184q118 0 183 -50t65 -142q0 -46 -25.5 -85.5t-63.5 -57.5zM248 560h-24v-128h24q88 0 88 68q0 60 -88 60zM224 144h40q104 0 104 72q0 34 -27 53t-77 19h-40v-144z" />
    <glyph glyph-name="C" unicode="C" horiz-adv-x="656" 
d="M418 128q81 0 142 52l80 -122q-43 -35 -104 -54.5t-119 -19.5q-159 0 -272 108t-113 260t113 260t272 108q58 0 119 -19.5t104 -54.5l-80 -122q-61 52 -142 52q-92 0 -159 -65q-67 -66 -67 -159q0 -94 67 -158q66 -66 159 -66z" />
    <glyph glyph-name="D" unicode="D" 
d="M64 704h175q175 0 273 -101q96 -102 96 -251q0 -204 -167 -302q-86 -50 -202 -50h-175v704zM224 144h26q90 0 144 62t54 146t-54 146t-144 62h-26v-416z" />
    <glyph glyph-name="E" unicode="E" horiz-adv-x="512" 
d="M464 704v-144h-240v-176h176v-144h-176v-96h240v-144h-400v704h400z" />
    <glyph glyph-name="F" unicode="F" horiz-adv-x="496" 
d="M224 0h-160v704h400v-144h-240v-176h176v-144h-176v-240z" />
    <glyph glyph-name="G" unicode="G" horiz-adv-x="784" 
d="M384 384h365q3 -22 3 -48q0 -146 -99 -249t-244 -103q-157 0 -267 108q-110 107 -110 260q0 152 113 260t272 108q58 0 119 -19.5t104 -54.5l-80 -122q-61 52 -142 52q-92 0 -159 -65q-67 -66 -67 -159q0 -94 63 -159q62 -65 155 -65q61 0 108 30.5t62 81.5h-196v144z
" />
    <glyph glyph-name="H" unicode="H" horiz-adv-x="624" 
d="M400 384v320h160v-704h-160v240h-176v-240h-160v704h160v-320h176z" />
    <glyph glyph-name="I" unicode="I" horiz-adv-x="288" 
d="M224 704v-704h-160v704h160z" />
    <glyph glyph-name="J" unicode="J" horiz-adv-x="464" 
d="M256 242v462h160v-456q0 -132 -64 -198t-185 -66q-38 0 -75.5 12.5t-59.5 31.5l80 120q23 -20 50 -20q94 0 94 114z" />
    <glyph glyph-name="K" unicode="K" horiz-adv-x="608" 
d="M362 388l230 -388h-192l-135 244l-41 -60v-184h-160v704h160v-272l168 272h184z" />
    <glyph glyph-name="L" unicode="L" horiz-adv-x="496" 
d="M64 0v704h160v-560h240v-144h-400z" />
    <glyph glyph-name="M" unicode="M" horiz-adv-x="768" 
d="M384 376l320 344v-720h-160v344l-160 -184l-160 184v-344h-160v720z" />
    <glyph glyph-name="N" unicode="N" horiz-adv-x="656" 
d="M432 360v344h160v-720l-368 360v-344h-160v720z" />
    <glyph glyph-name="O" unicode="O" horiz-adv-x="816" 
d="M142 612q110 108 266 108t266 -108t110 -260t-110 -260t-266 -108t-266 108t-110 260t110 260zM256 194q63 -66 152 -66q88 0 153 66q63 64 63 158q0 93 -63 159q-65 65 -153 65q-89 0 -152 -65q-64 -65 -64 -159t64 -158z" />
    <glyph glyph-name="P" unicode="P" horiz-adv-x="560" 
d="M64 704h190q134 0 205 -71q69 -71 69 -177q0 -104 -69 -180q-70 -76 -189 -76h-46v-200h-160v704zM224 344h29q50 0 82.5 31t32.5 77q0 50 -31.5 79t-83.5 29h-29v-216z" />
    <glyph glyph-name="Q" unicode="Q" horiz-adv-x="816" 
d="M784 352q0 -116 -68 -211q38 -59 68 -141h-156q-8 24 -17 42q-91 -58 -203 -58q-156 0 -266 108t-110 260t110 260t266 108t266 -108t110 -260zM408 576q-88 0 -151 -63q-64 -65 -65 -155q247 52 416 -90q16 41 16 84q0 93 -63 159q-65 65 -153 65zM225 234
q30 -49 78.5 -77.5t104.5 -28.5q62 0 115 35q-121 109 -298 71z" />
    <glyph glyph-name="R" unicode="R" horiz-adv-x="576" 
d="M415 240l129 -240h-176l-98 200h-46v-200h-160v704h190q134 0 205 -71q69 -71 69 -177q0 -67 -30 -125t-83 -91zM253 560h-29v-216h29q50 0 82.5 31t32.5 77q0 50 -31.5 79t-83.5 29z" />
    <glyph glyph-name="S" unicode="S" horiz-adv-x="560" 
d="M296 463q40 -16 52 -20q8 -2 46 -20q33 -16 45 -25q4 -3 35 -30q28 -26 39 -60t15 -90q0 -96 -69 -165q-71 -69 -179 -69q-100 0 -171 54q-57 43 -77 74l89 112q73 -96 159 -96q38 0 63 24.5t25 55.5q0 35 -18.5 56t-61.5 37q-116 43 -165 93q-51 50 -51 132q0 87 65 141
q65 53 161 53q110 0 196 -78l-86 -118q-49 52 -112 52q-27 0 -45.5 -14t-18.5 -33q0 -42 64 -66z" />
    <glyph glyph-name="T" unicode="T" horiz-adv-x="512" 
d="M32 560v144h448v-144h-144v-560h-160v560h-144z" />
    <glyph glyph-name="U" unicode="U" 
d="M416 248v456h160v-440q0 -133 -70 -206q-71 -74 -186 -74q-119 0 -187.5 73.5t-68.5 206.5v440h160v-456q0 -60 26.5 -90t69.5 -30q41 0 68.5 31t27.5 89z" />
    <glyph glyph-name="V" unicode="V" horiz-adv-x="672" 
d="M336 328l160 376h176l-336 -720l-336 720h176z" />
    <glyph glyph-name="W" unicode="W" horiz-adv-x="944" 
d="M768 704h176l-320 -720l-145 353l-159 -353l-320 720h176l144 -360l82 181l-70 179h156l136 -360z" />
    <glyph glyph-name="X" unicode="X" horiz-adv-x="656" 
d="M434 362l206 -362h-184l-128 237l-128 -237h-184l206 362l-190 342h177l119 -218l119 218h177z" />
    <glyph glyph-name="Y" unicode="Y" 
d="M320 432l136 272h184l-240 -432v-272h-160v272l-240 432h184z" />
    <glyph glyph-name="Z" unicode="Z" horiz-adv-x="560" 
d="M512 144v-144h-480l264 560h-248v144h480l-264 -560h248z" />
    <glyph glyph-name="bracketleft" unicode="[" horiz-adv-x="336" 
d="M272 704h-64v-768h64v-144h-208v1056h208v-144z" />
    <glyph glyph-name="backslash" unicode="\" horiz-adv-x="560" 
d="M512 -80h-128l-336 864h128z" />
    <glyph glyph-name="bracketright" unicode="]" horiz-adv-x="336" 
d="M128 -64v768h-64v144h208v-1056h-208v144h64z" />
    <glyph glyph-name="asciicircum" unicode="^" horiz-adv-x="528" 
d="M184 480h-136l160 224h112l160 -224h-136l-80 122z" />
    <glyph glyph-name="underscore" unicode="_" horiz-adv-x="576" 
d="M544 -32v-112h-512v112h512z" />
    <glyph glyph-name="a" unicode="a" horiz-adv-x="544" 
d="M496 250v-250h-160v40q-50 -56 -130 -56q-81 0 -127 49q-47 49 -47 118q0 63 47 104t114 48q69 6 141 -13q-2 34 -24.5 54t-61.5 20q-59 0 -112 -31l-48 115q74 48 184 48q96 0 161 -60q63 -60 63 -186zM336 190q-54 19 -100 8q-44 -11 -44 -50q0 -23 16.5 -37.5
t40.5 -14.5q32 0 57 25.5t30 68.5z" />
    <glyph glyph-name="b" unicode="b" 
d="M64 736h160v-304q54 64 143 64q101 0 172 -74q69 -75 69 -182q0 -108 -69 -181q-71 -75 -172 -75q-89 0 -143 64v-48h-160v736zM257 161q33 -33 79 -33t79 33t33 79t-33 79t-79 33t-79 -33t-33 -79t33 -79z" />
    <glyph glyph-name="c" unicode="c" horiz-adv-x="512" 
d="M308 128q54 0 90 42l82 -107q-73 -79 -180 -79q-122 0 -195 73t-73 183t73 183t195 73q107 0 180 -79l-82 -107q-36 42 -90 42q-49 0 -82.5 -32.5t-33.5 -79.5t33.5 -79.5t82.5 -32.5z" />
    <glyph glyph-name="d" unicode="d" 
d="M416 432v304h160v-736h-160v48q-54 -64 -143 -64q-102 0 -171 75q-70 73 -70 181t70 182q69 74 171 74q89 0 143 -64zM225 161q33 -33 79 -33t79 33t33 79t-33 79t-79 33t-79 -33t-33 -79t33 -79z" />
    <glyph glyph-name="e" unicode="e" horiz-adv-x="544" 
d="M294 124q71 0 120 46l82 -107q-82 -79 -196 -79q-122 0 -195 73t-73 183t73 183t195 73q30 0 60.5 -8t64.5 -27.5t62 -60t41 -96.5l-284 -170q16 -10 50 -10zM300 356q-54 0 -87.5 -35.5t-26.5 -89.5l166 99q-17 26 -52 26z" />
    <glyph glyph-name="f" unicode="f" horiz-adv-x="448" 
d="M32 336v144h64v64q0 91 52 149q53 59 144 59q66 0 124 -36l-48 -123q-38 26 -75 10t-37 -71v-52h160v-144h-160v-336h-160v336h-64z" />
    <glyph glyph-name="g" unicode="g" 
d="M416 432v48h160v-440q0 -151 -76 -231.5t-212 -80.5q-119 0 -192 64l64 120q58 -40 119 -40q63 0 100 41t37 108v27q-54 -64 -143 -64q-102 0 -171 75q-70 73 -70 181t70 182q69 74 171 74q89 0 143 -64zM225 161q33 -33 79 -33t79 33t33 79t-33 79t-79 33t-79 -33
t-33 -79t33 -79z" />
    <glyph glyph-name="h" unicode="h" horiz-adv-x="592" 
d="M352 496q82 0 137 -58t55 -166v-272h-160v256q0 96 -80 96q-33 0 -56.5 -29.5t-23.5 -82.5v-240h-160v736h160v-304q42 64 128 64z" />
    <glyph glyph-name="i" unicode="i" horiz-adv-x="288" 
d="M212 572q-28 -28 -68 -28t-68 28t-28 68t28 68t68 28t68 -28t28 -68t-28 -68zM224 0h-160v480h160v-480z" />
    <glyph glyph-name="j" unicode="j" horiz-adv-x="288" 
d="M212 572q-28 -28 -68 -28t-68 28t-28 68t28 68t68 28t68 -28t28 -68t-28 -68zM224 -224l-160 -48v752h160v-704z" />
    <glyph glyph-name="k" unicode="k" horiz-adv-x="560" 
d="M362 267l198 -267h-192l-105 152l-39 -46v-106h-160v736h160v-420l128 164h192z" />
    <glyph glyph-name="l" unicode="l" horiz-adv-x="288" 
d="M64 0v736h160v-736h-160z" />
    <glyph glyph-name="m" unicode="m" horiz-adv-x="864" 
d="M628 496q80 0 134 -58t54 -166v-272h-160v256q0 52 -16 74t-48 22t-52 -27t-20 -85v-240h-160v256q0 52 -16 74t-48 22t-52 -27t-20 -85v-240h-160v480h160v-48q29 34 56.5 49t67.5 15q82 0 129 -65q57 65 151 65z" />
    <glyph glyph-name="n" unicode="n" horiz-adv-x="592" 
d="M352 496q82 0 137 -58t55 -166v-272h-160v256q0 96 -80 96q-33 0 -56.5 -29.5t-23.5 -82.5v-240h-160v480h160v-48q42 64 128 64z" />
    <glyph glyph-name="o" unicode="o" horiz-adv-x="608" 
d="M304 496q113 0 193 -74q79 -75 79 -182q0 -108 -78 -181q-80 -75 -194 -75q-118 0 -195 74t-77 182q0 110 76 183t196 73zM225 161q33 -33 79 -33t79 33t33 79t-33 79t-79 33t-79 -33t-33 -79t33 -79z" />
    <glyph glyph-name="p" unicode="p" 
d="M64 480h160v-48q54 64 143 64q101 0 172 -74q69 -75 69 -182q0 -108 -69 -181q-71 -75 -172 -75q-89 0 -143 64v-304h-160v736zM257 161q33 -33 79 -33t79 33t33 79t-33 79t-79 33t-79 -33t-33 -79t33 -79z" />
    <glyph glyph-name="q" unicode="q" 
d="M416 432v48h160v-736h-160v304q-54 -64 -143 -64q-102 0 -171 75q-70 73 -70 181t70 182q69 74 171 74q89 0 143 -64zM225 161q33 -33 79 -33t79 33t33 79t-33 79t-79 33t-79 -33t-33 -79t33 -79z" />
    <glyph glyph-name="r" unicode="r" horiz-adv-x="432" 
d="M224 480v-89q25 51 66 75.5t110 29.5v-176q-42 13 -88 0q-38 -10 -63 -49t-25 -94v-177h-160v480h160z" />
    <glyph glyph-name="s" unicode="s" horiz-adv-x="496" 
d="M266 317q198 -33 198 -165q0 -75 -58.5 -121.5t-163.5 -46.5q-67 0 -123.5 22t-86.5 52l64 120q62 -50 123 -56q85 -9 85 23q0 15 -14 21t-48 12q-2 0 -5.5 1t-5.5 1q-113 23 -147 72q-28 41 -28 88q0 64 54 111q52 45 149 45q34 0 89 -15q47 -15 77 -35l-61 -119
q-40 31 -94 36t-54 -18q0 -12 10 -17.5t40 -10.5z" />
    <glyph glyph-name="t" unicode="t" horiz-adv-x="432" 
d="M272 0h-160v336h-80v144h80v144l160 48v-192h128v-144h-128v-336z" />
    <glyph glyph-name="u" unicode="u" horiz-adv-x="592" 
d="M240 -16q-80 0 -136 59t-56 165v272h160v-256q0 -96 80 -96q33 0 56.5 29.5t23.5 82.5v240h160v-480h-160v48q-42 -64 -128 -64z" />
    <glyph glyph-name="v" unicode="v" horiz-adv-x="544" 
d="M272 -16l-272 496h176l96 -202l96 202h176z" />
    <glyph glyph-name="w" unicode="w" horiz-adv-x="768" 
d="M600 480h168l-264 -496l-113 233l-127 -233l-264 496h168l96 -202l53 92l-53 110h144l96 -202z" />
    <glyph glyph-name="x" unicode="x" horiz-adv-x="560" 
d="M380 252l164 -252h-180l-84 141l-84 -141h-180l164 252l-148 228h180l68 -118l68 118h180z" />
    <glyph glyph-name="y" unicode="y" horiz-adv-x="544" 
d="M272 214l96 266h176l-304 -736h-176l129 286l-193 450h176z" />
    <glyph glyph-name="z" unicode="z" horiz-adv-x="496" 
d="M448 144v-144h-416l184 336h-168v144h416l-184 -336h168z" />
    <glyph glyph-name="braceleft" unicode="{" horiz-adv-x="368" 
d="M48 272v96q30 1 47 18.5t17 45.5v250q0 158 160 182l48 -96q-64 -16 -64 -106v-196q0 -114 -75 -146q75 -32 75 -146v-196q0 -90 64 -106l-48 -96q-160 24 -160 182v250q0 28 -17 45.5t-47 18.5z" />
    <glyph glyph-name="bar" unicode="|" horiz-adv-x="240" 
d="M176 736v-992h-112v992h112z" />
    <glyph glyph-name="braceright" unicode="}" horiz-adv-x="368" 
d="M320 368v-96q-30 -1 -47 -18.5t-17 -45.5v-250q0 -158 -160 -182l-48 96q64 16 64 106v196q0 114 75 146q-75 32 -75 146v196q0 90 -64 106l48 96q160 -24 160 -182v-250q0 -28 17 -45.5t47 -18.5z" />
    <glyph glyph-name="asciitilde" unicode="~" horiz-adv-x="528" 
d="M399 416l81 -80q-45 -64 -119 -64q-23 0 -62 11q-15 4 -37.5 10.5t-27.5 7.5q-27 10 -57.5 3t-47.5 -32l-81 80q45 64 119 64q25 0 79 -17t91 -17q38 0 62 34z" />
    <glyph glyph-name="exclamdown" unicode="&#xa1;" horiz-adv-x="304" 
d="M90 471q26 25 63 25t62 -25t25 -62t-25 -63t-62 -26t-63 26t-26 63t26 62zM72 -224l16 480h128l16 -480h-160z" />
    <glyph glyph-name="cent" unicode="&#xa2;" horiz-adv-x="512" 
d="M308 128q54 0 90 42l82 -107q-58 -64 -144 -76v-83h-80v83q-104 14 -164 84q-60 71 -60 169q0 100 60 170q59 69 164 83v83h80v-83q86 -12 144 -76l-82 -107q-36 42 -90 42q-49 0 -82.5 -32.5t-33.5 -79.5t33.5 -79.5t82.5 -32.5z" />
    <glyph glyph-name="sterling" unicode="&#xa3;" horiz-adv-x="560" 
d="M400 304h-134q14 -97 -14 -160h276v-144h-496q118 132 84 304h-68v96h45q-13 51 -13 94q0 98 68 163q68 63 181 63q127 0 199 -80l-88 -116q-42 52 -102 52q-40 0 -67 -26t-31 -68q-2 -26 9 -82h151v-96z" />
    <glyph glyph-name="currency" unicode="&#xa4;" horiz-adv-x="526" 
d="M95 105l-47 48l79 81q-25 39 -25 86t25 86l-79 82l49 47l78 -81q43 26 88 26q47 0 88 -27l78 82l49 -47l-81 -82q25 -39 25 -86t-25 -86l81 -80l-47 -49l-82 80q-39 -25 -86 -25t-88 25zM228 286q14 -14 34 -14t34 14t14 34t-14 34t-34 14t-34 -14t-14 -34t14 -34z" />
    <glyph glyph-name="yen" unicode="&#xa5;" horiz-adv-x="704" 
d="M488 704h184l-240 -432h80v-64h-80v-48h80v-64h-80v-96h-160v96h-80v64h80v48h-80v64h80l-240 432h184l136 -272z" />
    <glyph glyph-name="brokenbar" unicode="&#xa6;" horiz-adv-x="240" 
d="M176 736v-336h-112v336h112zM176 80v-336h-112v336h112z" />
    <glyph glyph-name="section" unicode="&#xa7;" horiz-adv-x="592" 
d="M544 218q0 -107 -82 -174q42 -48 42 -122q0 -87 -64 -141q-65 -53 -162 -53q-110 0 -196 78l86 118q49 -52 112 -52q27 0 45.5 14t18.5 33q0 42 -64 66q-45 18 -51 20q-13 4 -46 20q-30 14 -46 26q-10 8 -34 30q-28 25 -39.5 59t-15.5 90q0 106 82 173q-42 49 -42 123
q0 87 65 141q65 53 161 53q110 0 196 -78l-86 -118q-49 52 -112 52q-27 0 -45.5 -14t-18.5 -33q0 -42 64 -66q40 -16 52 -20q7 -2 46 -20q33 -16 45 -25q4 -3 35 -30q28 -26 39 -60t15 -90zM208 240q0 -35 18.5 -56t61.5 -37l37 -15q27 9 43 30.5t16 45.5q0 35 -18.5 56
t-61.5 37l-37 15q-27 -9 -43 -30.5t-16 -45.5z" />
    <glyph glyph-name="copyright" unicode="&#xa9;" horiz-adv-x="832" 
d="M416 -16q-154 0 -261 107t-107 261q0 156 106 262t262 106t262 -106t106 -262t-106 -262t-262 -106zM235 171q74 -75 181 -75t182 75q74 74 74 181q0 106 -74 182q-76 74 -182 74q-107 0 -181 -74q-75 -75 -75 -182q0 -108 75 -181zM421 246q48 0 74 23l51 -85
q-52 -42 -124 -42q-90 0 -154 62q-64 61 -64 148q0 88 64 149q62 61 154 61q72 0 124 -42l-51 -85q-26 23 -74 23q-45 0 -75 -30.5t-30 -75.5t30 -75.5t75 -30.5z" />
    <glyph glyph-name="ordfeminine" unicode="&#xaa;" horiz-adv-x="296" 
d="M264 589v-125h-80v20q-25 -28 -65 -28q-41 0 -63 25q-24 24 -24 59q0 48 48 67q46 19 103 2q-1 37 -43 37q-31 0 -56 -15l-24 57q37 24 92 24q51 0 81.5 -31t30.5 -92zM184 559q-19 6 -35 6t-26.5 -7t-10.5 -20q0 -11 8.5 -18.5t20.5 -7.5q16 0 28.5 13t14.5 34z" />
    <glyph glyph-name="guillemotleft" unicode="&#xab;" horiz-adv-x="592" 
d="M48 272l128 208l96 -56l-96 -152l96 -152l-96 -56zM416 480l96 -56l-96 -152l96 -152l-96 -56l-128 208z" />
    <glyph glyph-name="logicalnot" unicode="&#xac;" horiz-adv-x="608" 
d="M48 400h512v-216h-112v104h-400v112z" />
    <glyph glyph-name="registered" unicode="&#xae;" horiz-adv-x="832" 
d="M416 -16q-154 0 -261 107t-107 261q0 156 106 262t262 106t262 -106t106 -262t-106 -262t-262 -106zM235 171q74 -75 181 -75t182 75q74 74 74 181q0 106 -74 182q-76 74 -182 74q-107 0 -181 -74q-75 -75 -75 -182q0 -108 75 -181zM503 287l70 -135h-122l-51 112h-7
v-112h-112v400h112q83 0 127.5 -39.5t44.5 -104.5q0 -77 -62 -121zM393 450v-96q29 0 44.5 13t15.5 35q0 48 -60 48z" />
    <glyph glyph-name="degree" unicode="&#xb0;" horiz-adv-x="432" 
d="M336 433q-48 -49 -119 -49t-120 49q-49 48 -49 119q0 69 50 119q49 49 119 49t119 -49q48 -49 48 -119q0 -71 -48 -119zM177 513q17 -17 39 -17t39 17t17 39t-17 39t-39 17t-39 -17t-17 -39t17 -39z" />
    <glyph glyph-name="plusminus" unicode="&#xb1;" horiz-adv-x="480" 
d="M296 488h136v-112h-136v-136h-112v136h-136v112h136v136h112v-136zM48 48v112h384v-112h-384z" />
    <glyph glyph-name="uni00B2" unicode="&#xb2;" horiz-adv-x="355" 
d="M252 583l-17 -19h72v-84h-251l95 109q40 46 53 68q8 14 8 25q0 15 -9.5 24.5t-24.5 9.5q-16 0 -25.5 -9.5t-9.5 -24.5q0 -12 10 -28l-82 -32q-23 32 -23 64q0 47 36.5 80.5t93.5 33.5q56 0 93 -34q36 -34 36 -80q0 -41 -24 -68q-9 -12 -21 -24q-5 -6 -10 -11z" />
    <glyph glyph-name="uni00B3" unicode="&#xb3;" horiz-adv-x="356" 
d="M300 792l-72 -102q33 -7 56.5 -33t23.5 -68q0 -51 -38 -84t-96 -33q-54 0 -88 31q-35 32 -38 66l87 26q7 -39 39 -39q17 0 28 10t11 24q0 21 -22 28q-22 6 -35 -6l-41 47l37 49h-90v84h238z" />
    <glyph glyph-name="paragraph" unicode="&#xb6;" horiz-adv-x="720" 
d="M672 704v-112h-96v-848h-112v848h-112v-848h-112v560q-82 0 -137 58t-55 142t55 142t137 58h432z" />
    <glyph glyph-name="middot" unicode="&#xb7;" horiz-adv-x="272" 
d="M199 274q-25 -26 -62 -26t-63 26t-26 63t26 62t63 25t62 -25t25 -62t-25 -63z" />
    <glyph glyph-name="uni00B9" unicode="&#xb9;" horiz-adv-x="304" 
d="M64 672v84l144 44v-320h-95v207z" />
    <glyph glyph-name="ordmasculine" unicode="&#xba;" horiz-adv-x="336" 
d="M168 712q57 0 97 -37q39 -37 39 -91t-39 -91q-40 -37 -97 -37q-59 0 -97.5 37t-38.5 91q0 55 38.5 91.5t97.5 36.5zM129 545q17 -17 40 -17t39 17t16 40t-16 39t-39 16t-40 -16t-17 -39t17 -40z" />
    <glyph glyph-name="guillemotright" unicode="&#xbb;" horiz-adv-x="592" 
d="M176 272l-96 152l96 56l128 -208l-128 -208l-96 56zM320 424l96 56l128 -208l-128 -208l-96 56l96 152z" />
    <glyph glyph-name="onequarter" unicode="&#xbc;" horiz-adv-x="799" 
d="M208 392h-95v207l-49 -15v84l144 44v-320zM88 0l448 704h112l-448 -704h-112zM714 177v-47h37v-84h-37v-46h-95v46h-155l94 266h94l-59 -182h26v47h95z" />
    <glyph glyph-name="onehalf" unicode="&#xbd;" horiz-adv-x="787" 
d="M208 392h-95v207l-49 -15v84l144 44v-320zM88 0l448 704h112l-448 -704h-112zM684 103l-17 -19h72v-84h-251l95 109q40 46 53 68q8 14 8 25q0 15 -9.5 24.5t-24.5 9.5q-16 0 -25.5 -9.5t-9.5 -24.5q0 -12 10 -28l-82 -32q-23 32 -23 64q0 47 36.5 80.5t93.5 33.5
q56 0 93 -34q36 -35 36 -80q0 -41 -24 -68q-9 -12 -21 -24q-5 -6 -10 -11z" />
    <glyph glyph-name="threequarters" unicode="&#xbe;" horiz-adv-x="851" 
d="M300 704l-72 -102q33 -7 56.5 -33t23.5 -68q0 -51 -38 -84t-96 -33q-54 0 -88 31q-35 32 -38 66l87 26q7 -39 39 -39q17 0 28 10t11 24q0 21 -22 28q-22 6 -35 -6l-41 47l37 49h-90v84h238zM700 704l-448 -704h-112l448 704h112zM671 46h-155l94 266h94l-59 -182h26v47
h95v-47h37v-84h-37v-46h-95v46z" />
    <glyph glyph-name="questiondown" unicode="&#xbf;" horiz-adv-x="512" 
d="M335 346q-25 -26 -62 -26t-63 26t-26 63t26 62t63 25t62 -25t25 -62t-25 -63zM280 -240q-112 0 -172 60t-60 140q0 66 37 114q23 30 32 39q22 22 41 39q48 44 50 104h128q4 -75 -32 -131q-8 -12 -39.5 -47t-41.5 -52q-15 -22 -15 -52q0 -28 23 -49t56 -21q52 0 85 46
l92 -99q-27 -39 -75.5 -65t-108.5 -26z" />
    <glyph glyph-name="Agrave" unicode="&#xc0;" horiz-adv-x="672" 
d="M328 928l64 -160h-96l-96 160h128zM672 0h-176l-33 80h-254l-33 -80h-176l336 720zM336 392l-69 -168h138z" />
    <glyph glyph-name="Aacute" unicode="&#xc1;" horiz-adv-x="672" 
d="M376 768h-96l64 160h128zM672 0h-176l-33 80h-254l-33 -80h-176l336 720zM336 392l-69 -168h138z" />
    <glyph glyph-name="Acircumflex" unicode="&#xc2;" horiz-adv-x="672" 
d="M480 768h-96l-48 64l-48 -64h-96l144 160zM672 0h-176l-33 80h-254l-33 -80h-176l336 720zM336 392l-69 -168h138z" />
    <glyph glyph-name="Atilde" unicode="&#xc3;" horiz-adv-x="672" 
d="M479 896l65 -64q-45 -64 -119 -64q-36 0 -81 16q-116 44 -151 -16l-65 64q45 64 119 64q37 0 81 -15q115 -46 151 15zM672 0h-176l-33 80h-254l-33 -80h-176l336 720zM336 392l-69 -168h138z" />
    <glyph glyph-name="Adieresis" unicode="&#xc4;" horiz-adv-x="672" 
d="M283 789q-21 -21 -51 -21t-51 21t-21 51t21 51t51 21t51 -21t21 -51t-21 -51zM491 789q-21 -21 -51 -21t-51 21t-21 51t21 51t51 21t51 -21t21 -51t-21 -51zM672 0h-176l-33 80h-254l-33 -80h-176l336 720zM336 392l-69 -168h138z" />
    <glyph glyph-name="Aring" unicode="&#xc5;" horiz-adv-x="672" 
d="M390 605l282 -605h-176l-33 80h-254l-33 -80h-176l282 604q-30 15 -48 44t-18 64q0 50 35 85t85 35t85 -35t35 -85q0 -35 -18 -64t-48 -43zM370 746q-14 14 -34 14t-34 -14t-14 -34t14 -34t34 -14t34 14t14 34t-14 34zM336 392l-69 -168h138z" />
    <glyph glyph-name="AE" unicode="&#xc6;" horiz-adv-x="816" 
d="M768 704v-144h-240v-176h176v-144h-176v-96h240v-144h-400v80h-154l-38 -80h-176l368 704h400zM368 408l-87 -184h87v184z" />
    <glyph glyph-name="Ccedilla" unicode="&#xc7;" horiz-adv-x="656" 
d="M560 180l80 -122q-42 -33 -101.5 -53t-116.5 -21v-32q37 -3 71 -34q35 -30 35 -86q0 -61 -40 -98q-41 -38 -96 -38q-41 0 -72.5 17.5t-47.5 45.5l48 45q18 -44 72 -44q31 0 51.5 21.5t20.5 51.5q0 39 -33.5 57t-78.5 6v93q-136 23 -228 126t-92 237q0 152 113 260
t272 108q58 0 119 -19.5t104 -54.5l-80 -122q-61 52 -142 52q-92 0 -159 -65q-67 -66 -67 -159q0 -94 67 -158q66 -66 159 -66q81 0 142 52z" />
    <glyph glyph-name="Egrave" unicode="&#xc8;" horiz-adv-x="512" 
d="M280 928l64 -160h-96l-96 160h128zM464 704v-144h-240v-176h176v-144h-176v-96h240v-144h-400v704h400z" />
    <glyph glyph-name="Eacute" unicode="&#xc9;" horiz-adv-x="512" 
d="M280 768h-96l64 160h128zM464 704v-144h-240v-176h176v-144h-176v-96h240v-144h-400v704h400z" />
    <glyph glyph-name="Ecircumflex" unicode="&#xca;" horiz-adv-x="512" 
d="M400 768h-96l-48 64l-48 -64h-96l144 160zM464 704v-144h-240v-176h176v-144h-176v-96h240v-144h-400v704h400z" />
    <glyph glyph-name="Edieresis" unicode="&#xcb;" horiz-adv-x="512" 
d="M203 789q-21 -21 -51 -21t-51 21t-21 51t21 51t51 21t51 -21t21 -51t-21 -51zM411 789q-21 -21 -51 -21t-51 21t-21 51t21 51t51 21t51 -21t21 -51t-21 -51zM464 704v-144h-240v-176h176v-144h-176v-96h240v-144h-400v704h400z" />
    <glyph glyph-name="Igrave" unicode="&#xcc;" horiz-adv-x="288" 
d="M160 928l64 -160h-96l-96 160h128zM224 0h-160v704h160v-704z" />
    <glyph glyph-name="Iacute" unicode="&#xcd;" horiz-adv-x="288" 
d="M160 768h-96l64 160h128zM224 704v-704h-160v704h160z" />
    <glyph glyph-name="Icircumflex" unicode="&#xce;" horiz-adv-x="288" 
d="M288 768h-96l-48 64l-48 -64h-96l144 160zM224 704v-704h-160v704h160z" />
    <glyph glyph-name="Idieresis" unicode="&#xcf;" horiz-adv-x="288" 
d="M91 789q-21 -21 -51 -21t-51 21t-21 51t21 51t51 21t51 -21t21 -51t-21 -51zM299 789q-21 -21 -51 -21t-51 21t-21 51t21 51t51 21t51 -21t21 -51t-21 -51zM224 704v-704h-160v704h160z" />
    <glyph glyph-name="Eth" unicode="&#xd0;" 
d="M64 704h175q175 0 273 -101q96 -102 96 -251q0 -204 -167 -302q-86 -50 -202 -50h-175v304h-48v96h48v304zM224 144h26q90 0 144 62t54 146t-54 146t-144 62h-26v-160h96v-96h-96v-160z" />
    <glyph glyph-name="Ntilde" unicode="&#xd1;" horiz-adv-x="656" 
d="M471 896l65 -64q-45 -64 -119 -64q-36 0 -81 16q-116 44 -151 -16l-65 64q45 64 119 64q37 0 81 -15q115 -46 151 15zM432 360v344h160v-720l-368 360v-344h-160v720z" />
    <glyph glyph-name="Ograve" unicode="&#xd2;" horiz-adv-x="816" 
d="M408 928l64 -160h-96l-96 160h128zM142 612q110 108 266 108t266 -108t110 -260t-110 -260t-266 -108t-266 108t-110 260t110 260zM256 194q63 -66 152 -66q88 0 153 66q63 64 63 158q0 93 -63 159q-65 65 -153 65q-89 0 -152 -65q-64 -65 -64 -159t64 -158z" />
    <glyph glyph-name="Oacute" unicode="&#xd3;" horiz-adv-x="816" 
d="M440 768h-96l64 160h128zM142 612q110 108 266 108t266 -108t110 -260t-110 -260t-266 -108t-266 108t-110 260t110 260zM256 194q63 -66 152 -66q88 0 153 66q63 64 63 158q0 93 -63 159q-65 65 -153 65q-89 0 -152 -65q-64 -65 -64 -159t64 -158z" />
    <glyph glyph-name="Ocircumflex" unicode="&#xd4;" horiz-adv-x="816" 
d="M552 768h-96l-48 64l-48 -64h-96l144 160zM142 612q110 108 266 108t266 -108t110 -260t-110 -260t-266 -108t-266 108t-110 260t110 260zM256 194q63 -66 152 -66q88 0 153 66q63 64 63 158q0 93 -63 159q-65 65 -153 65q-89 0 -152 -65q-64 -65 -64 -159t64 -158z" />
    <glyph glyph-name="Otilde" unicode="&#xd5;" horiz-adv-x="816" 
d="M551 896l65 -64q-45 -64 -119 -64q-36 0 -81 16q-116 44 -151 -16l-65 64q45 64 119 64q37 0 81 -15q115 -46 151 15zM142 612q110 108 266 108t266 -108t110 -260t-110 -260t-266 -108t-266 108t-110 260t110 260zM256 194q63 -66 152 -66q88 0 153 66q63 64 63 158
q0 93 -63 159q-65 65 -153 65q-89 0 -152 -65q-64 -65 -64 -159t64 -158z" />
    <glyph glyph-name="Odieresis" unicode="&#xd6;" horiz-adv-x="816" 
d="M355 789q-21 -21 -51 -21t-51 21t-21 51t21 51t51 21t51 -21t21 -51t-21 -51zM563 789q-21 -21 -51 -21t-51 21t-21 51t21 51t51 21t51 -21t21 -51t-21 -51zM142 612q110 108 266 108t266 -108t110 -260t-110 -260t-266 -108t-266 108t-110 260t110 260zM256 194
q63 -66 152 -66q88 0 153 66q63 64 63 158q0 93 -63 159q-65 65 -153 65q-89 0 -152 -65q-64 -65 -64 -159t64 -158z" />
    <glyph glyph-name="multiply" unicode="&#xd7;" horiz-adv-x="480" 
d="M240 423l113 113l79 -79l-113 -113l113 -113l-79 -79l-113 113l-113 -113l-79 79l113 113l-113 113l79 79z" />
    <glyph glyph-name="Oslash" unicode="&#xd8;" horiz-adv-x="816" 
d="M142 612q110 108 266 108t266 -108t110 -260t-110 -260t-266 -108t-266 108t-110 260t110 260zM408 576q-89 0 -152 -65q-64 -65 -64 -159q0 -74 44 -136l283 328q-52 32 -111 32zM408 128q88 0 153 66q63 64 63 158q0 80 -50 144l-284 -331q52 -37 118 -37z" />
    <glyph glyph-name="Ugrave" unicode="&#xd9;" 
d="M320 928l64 -160h-96l-96 160h128zM416 248v456h160v-440q0 -133 -70 -206q-71 -74 -186 -74q-119 0 -187.5 73.5t-68.5 206.5v440h160v-456q0 -60 26.5 -90t69.5 -30q41 0 68.5 31t27.5 89z" />
    <glyph glyph-name="Uacute" unicode="&#xda;" 
d="M352 768h-96l64 160h128zM416 248v456h160v-440q0 -133 -70 -206q-71 -74 -186 -74q-119 0 -187.5 73.5t-68.5 206.5v440h160v-456q0 -60 26.5 -90t69.5 -30q41 0 68.5 31t27.5 89z" />
    <glyph glyph-name="Ucircumflex" unicode="&#xdb;" 
d="M464 768h-96l-48 64l-48 -64h-96l144 160zM416 248v456h160v-440q0 -133 -70 -206q-71 -74 -186 -74q-119 0 -187.5 73.5t-68.5 206.5v440h160v-456q0 -60 26.5 -90t69.5 -30q41 0 68.5 31t27.5 89z" />
    <glyph glyph-name="Udieresis" unicode="&#xdc;" 
d="M267 789q-21 -21 -51 -21t-51 21t-21 51t21 51t51 21t51 -21t21 -51t-21 -51zM475 789q-21 -21 -51 -21t-51 21t-21 51t21 51t51 21t51 -21t21 -51t-21 -51zM416 248v456h160v-440q0 -133 -70 -206q-71 -74 -186 -74q-119 0 -187.5 73.5t-68.5 206.5v440h160v-456
q0 -60 26.5 -90t69.5 -30q41 0 68.5 31t27.5 89z" />
    <glyph glyph-name="Yacute" unicode="&#xdd;" 
d="M352 768h-96l64 160h128zM320 432l136 272h184l-240 -432v-272h-160v272l-240 432h184z" />
    <glyph glyph-name="Thorn" unicode="&#xde;" horiz-adv-x="560" 
d="M224 608h30q134 0 205 -71q69 -71 69 -177q0 -104 -69 -180q-70 -76 -189 -76h-46v-104h-160v704h160v-96zM224 248h29q50 0 82.5 31t32.5 77q0 50 -31.5 79t-83.5 29h-29v-216z" />
    <glyph glyph-name="germandbls" unicode="&#xdf;" horiz-adv-x="576" 
d="M208 -192h-160v704q4 172 125 220q46 20 92 20q109 0 171 -60q60 -60 60 -148q0 -52 -22.5 -92.5t-57.5 -59.5q55 -13 91.5 -61.5t36.5 -117.5q0 -97 -60 -163t-164 -66q-45 0 -80 16l48 132q33 -8 64 13q32 20 32 79q0 50 -38.5 77t-105.5 27v96q45 0 70.5 31t25.5 73
q0 36 -17 58t-47 22t-47 -24t-17 -64v-712z" />
    <glyph glyph-name="agrave" unicode="&#xe0;" horiz-adv-x="544" 
d="M281 704l64 -160h-96l-96 160h128zM496 250v-250h-160v40q-50 -56 -130 -56q-81 0 -127 49q-47 49 -47 118q0 63 47 104t114 48q69 6 141 -13q-2 34 -24.5 54t-61.5 20q-59 0 -112 -31l-48 115q74 48 184 48q96 0 161 -60q63 -60 63 -186zM336 190q-54 19 -100 8
q-44 -11 -44 -50q0 -23 16.5 -37.5t40.5 -14.5q32 0 57 25.5t30 68.5z" />
    <glyph glyph-name="aacute" unicode="&#xe1;" horiz-adv-x="544" 
d="M304 544h-96l64 160h128zM496 250v-250h-160v40q-50 -56 -130 -56q-81 0 -127 49q-47 49 -47 118q0 63 47 104t114 48q69 6 141 -13q-2 34 -24.5 54t-61.5 20q-59 0 -112 -31l-48 115q74 48 184 48q96 0 161 -60q63 -60 63 -186zM336 190q-54 19 -100 8q-44 -11 -44 -50
q0 -23 16.5 -37.5t40.5 -14.5q32 0 57 25.5t30 68.5z" />
    <glyph glyph-name="acircumflex" unicode="&#xe2;" horiz-adv-x="544" 
d="M416 544h-96l-48 64l-48 -64h-96l144 160zM496 250v-250h-160v40q-50 -56 -130 -56q-81 0 -127 49q-47 49 -47 118q0 63 47 104t114 48q69 6 141 -13q-2 34 -24.5 54t-61.5 20q-59 0 -112 -31l-48 115q74 48 184 48q96 0 161 -60q63 -60 63 -186zM336 190q-54 19 -100 8
q-44 -11 -44 -50q0 -23 16.5 -37.5t40.5 -14.5q32 0 57 25.5t30 68.5z" />
    <glyph glyph-name="atilde" unicode="&#xe3;" horiz-adv-x="544" 
d="M407 672l65 -64q-45 -64 -119 -64q-36 0 -81 16q-116 44 -151 -16l-65 64q45 64 119 64q37 0 81 -15q115 -46 151 15zM496 250v-250h-160v40q-50 -56 -130 -56q-81 0 -127 49q-47 49 -47 118q0 63 47 104t114 48q69 6 141 -13q-2 34 -24.5 54t-61.5 20q-59 0 -112 -31
l-48 115q74 48 184 48q96 0 161 -60q63 -60 63 -186zM336 190q-54 19 -100 8q-44 -11 -44 -50q0 -23 16.5 -37.5t40.5 -14.5q32 0 57 25.5t30 68.5z" />
    <glyph glyph-name="adieresis" unicode="&#xe4;" horiz-adv-x="544" 
d="M219 565q-21 -21 -51 -21t-51 21t-21 51t21 51t51 21t51 -21t21 -51t-21 -51zM427 565q-21 -21 -51 -21t-51 21t-21 51t21 51t51 21t51 -21t21 -51t-21 -51zM496 250v-250h-160v40q-50 -56 -130 -56q-81 0 -127 49q-47 49 -47 118q0 63 47 104t114 48q69 6 141 -13
q-2 34 -24.5 54t-61.5 20q-59 0 -112 -31l-48 115q74 48 184 48q96 0 161 -60q63 -60 63 -186zM336 190q-54 19 -100 8q-44 -11 -44 -50q0 -23 16.5 -37.5t40.5 -14.5q32 0 57 25.5t30 68.5z" />
    <glyph glyph-name="aring" unicode="&#xe5;" horiz-adv-x="544" 
d="M187 717q35 35 85 35t85 -35t35 -85t-35 -85t-85 -35t-85 35t-35 85t35 85zM238 598q14 -14 34 -14t34 14t14 34t-14 34t-34 14t-34 -14t-14 -34t14 -34zM496 250v-250h-160v40q-50 -56 -130 -56q-81 0 -127 49q-47 49 -47 118q0 63 47 104t114 48q69 6 141 -13
q-2 34 -24.5 54t-61.5 20q-59 0 -112 -31l-48 115q74 48 184 48q96 0 161 -60q63 -60 63 -186zM336 190q-54 19 -100 8q-44 -11 -44 -50q0 -23 16.5 -37.5t40.5 -14.5q32 0 57 25.5t30 68.5z" />
    <glyph glyph-name="ae" unicode="&#xe6;" horiz-adv-x="880" 
d="M630 124q71 0 120 46l82 -107q-82 -79 -196 -79q-131 0 -206 99q-72 -99 -216 -99q-84 0 -133 47t-49 120q0 63 47 104t114 48q69 6 141 -13q-2 34 -24.5 54t-61.5 20q-59 0 -112 -31l-48 115q74 48 184 48q121 0 179 -82q73 82 185 82q30 0 60.5 -8t64.5 -27.5t62 -60
t41 -96.5l-284 -170q16 -10 50 -10zM636 356q-54 0 -87.5 -35.5t-26.5 -89.5l166 99q-17 26 -52 26zM249 96q32 0 57 25.5t30 68.5q-54 19 -100 8q-44 -11 -44 -50q0 -23 16.5 -37.5t40.5 -14.5z" />
    <glyph glyph-name="ccedilla" unicode="&#xe7;" horiz-adv-x="512" 
d="M308 128q54 0 90 42l82 -107q-66 -72 -162 -78v-33q37 -3 71 -34q35 -30 35 -86q0 -61 -40 -98q-41 -38 -96 -38q-41 0 -72.5 17.5t-47.5 45.5l48 45q18 -44 72 -44q31 0 51.5 21.5t20.5 51.5q0 39 -33.5 57t-78.5 6v92q-100 15 -158 85t-58 167q0 110 73 183t195 73
q107 0 180 -79l-82 -107q-36 42 -90 42q-49 0 -82.5 -32.5t-33.5 -79.5t33.5 -79.5t82.5 -32.5z" />
    <glyph glyph-name="egrave" unicode="&#xe8;" horiz-adv-x="544" 
d="M288 704l64 -160h-96l-96 160h128zM294 124q71 0 120 46l82 -107q-82 -79 -196 -79q-122 0 -195 73t-73 183t73 183t195 73q30 0 60.5 -8t64.5 -27.5t62 -60t41 -96.5l-284 -170q16 -10 50 -10zM300 356q-54 0 -87.5 -35.5t-26.5 -89.5l166 99q-17 26 -52 26z" />
    <glyph glyph-name="eacute" unicode="&#xe9;" horiz-adv-x="544" 
d="M304 544h-96l64 160h128zM294 124q71 0 120 46l82 -107q-82 -79 -196 -79q-122 0 -195 73t-73 183t73 183t195 73q30 0 60.5 -8t64.5 -27.5t62 -60t41 -96.5l-284 -170q16 -10 50 -10zM300 356q-54 0 -87.5 -35.5t-26.5 -89.5l166 99q-17 26 -52 26z" />
    <glyph glyph-name="ecircumflex" unicode="&#xea;" horiz-adv-x="544" 
d="M432 544h-96l-48 64l-48 -64h-96l144 160zM294 124q71 0 120 46l82 -107q-82 -79 -196 -79q-122 0 -195 73t-73 183t73 183t195 73q30 0 60.5 -8t64.5 -27.5t62 -60t41 -96.5l-284 -170q16 -10 50 -10zM300 356q-54 0 -87.5 -35.5t-26.5 -89.5l166 99q-17 26 -52 26z" />
    <glyph glyph-name="edieresis" unicode="&#xeb;" horiz-adv-x="544" 
d="M227 565q-21 -21 -51 -21t-51 21t-21 51t21 51t51 21t51 -21t21 -51t-21 -51zM435 565q-21 -21 -51 -21t-51 21t-21 51t21 51t51 21t51 -21t21 -51t-21 -51zM294 124q71 0 120 46l82 -107q-82 -79 -196 -79q-122 0 -195 73t-73 183t73 183t195 73q30 0 60.5 -8
t64.5 -27.5t62 -60t41 -96.5l-284 -170q16 -10 50 -10zM300 356q-54 0 -87.5 -35.5t-26.5 -89.5l166 99q-17 26 -52 26z" />
    <glyph glyph-name="igrave" unicode="&#xec;" horiz-adv-x="288" 
d="M160 704l64 -160h-96l-96 160h128zM224 0h-160v480h160v-480z" />
    <glyph glyph-name="iacute" unicode="&#xed;" horiz-adv-x="288" 
d="M160 544h-96l64 160h128zM224 0h-160v480h160v-480z" />
    <glyph glyph-name="icircumflex" unicode="&#xee;" horiz-adv-x="288" 
d="M288 544h-96l-48 64l-48 -64h-96l144 160zM224 0h-160v480h160v-480z" />
    <glyph glyph-name="idieresis" unicode="&#xef;" horiz-adv-x="288" 
d="M91 565q-21 -21 -51 -21t-51 21t-21 51t21 51t51 21t51 -21t21 -51t-21 -51zM299 565q-21 -21 -51 -21t-51 21t-21 51t21 51t51 21t51 -21t21 -51t-21 -51zM224 0h-160v480h160v-480z" />
    <glyph glyph-name="eth" unicode="&#xf0;" horiz-adv-x="608" 
d="M347 592l148 -154q36 -37 58.5 -91.5t22.5 -106.5q0 -108 -78 -181q-80 -75 -194 -75q-118 0 -195 74t-77 182q0 96 64 167q63 72 160 82l-40 45l-104 -46v80l53 23l-101 113h176l53 -55l107 47v-80zM225 161q33 -33 79 -33t79 33t33 79t-33 79t-79 33t-79 -33t-33 -79
t33 -79z" />
    <glyph glyph-name="ntilde" unicode="&#xf1;" horiz-adv-x="592" 
d="M439 672l65 -64q-45 -64 -119 -64q-36 0 -81 16q-116 44 -151 -16l-65 64q45 64 119 64q37 0 81 -15q115 -46 151 15zM352 496q82 0 137 -58t55 -166v-272h-160v256q0 96 -80 96q-33 0 -56.5 -29.5t-23.5 -82.5v-240h-160v480h160v-48q42 64 128 64z" />
    <glyph glyph-name="ograve" unicode="&#xf2;" horiz-adv-x="608" 
d="M304 704l64 -160h-96l-96 160h128zM304 496q113 0 193 -74q79 -75 79 -182q0 -108 -78 -181q-80 -75 -194 -75q-118 0 -195 74t-77 182q0 110 76 183t196 73zM225 161q33 -33 79 -33t79 33t33 79t-33 79t-79 33t-79 -33t-33 -79t33 -79z" />
    <glyph glyph-name="oacute" unicode="&#xf3;" horiz-adv-x="608" 
d="M336 544h-96l64 160h128zM304 496q113 0 193 -74q79 -75 79 -182q0 -108 -78 -181q-80 -75 -194 -75q-118 0 -195 74t-77 182q0 110 76 183t196 73zM225 161q33 -33 79 -33t79 33t33 79t-33 79t-79 33t-79 -33t-33 -79t33 -79z" />
    <glyph glyph-name="ocircumflex" unicode="&#xf4;" horiz-adv-x="608" 
d="M448 544h-96l-48 64l-48 -64h-96l144 160zM304 496q113 0 193 -74q79 -75 79 -182q0 -108 -78 -181q-80 -75 -194 -75q-118 0 -195 74t-77 182q0 110 76 183t196 73zM225 161q33 -33 79 -33t79 33t33 79t-33 79t-79 33t-79 -33t-33 -79t33 -79z" />
    <glyph glyph-name="otilde" unicode="&#xf5;" horiz-adv-x="608" 
d="M447 672l65 -64q-45 -64 -119 -64q-36 0 -81 16q-116 44 -151 -16l-65 64q45 64 119 64q37 0 81 -15q115 -46 151 15zM304 496q113 0 193 -74q79 -75 79 -182q0 -108 -78 -181q-80 -75 -194 -75q-118 0 -195 74t-77 182q0 110 76 183t196 73zM225 161q33 -33 79 -33
t79 33t33 79t-33 79t-79 33t-79 -33t-33 -79t33 -79z" />
    <glyph glyph-name="odieresis" unicode="&#xf6;" horiz-adv-x="608" 
d="M251 565q-21 -21 -51 -21t-51 21t-21 51t21 51t51 21t51 -21t21 -51t-21 -51zM459 565q-21 -21 -51 -21t-51 21t-21 51t21 51t51 21t51 -21t21 -51t-21 -51zM304 496q113 0 193 -74q79 -75 79 -182q0 -108 -78 -181q-80 -75 -194 -75q-118 0 -195 74t-77 182
q0 110 76 183t196 73zM225 161q33 -33 79 -33t79 33t33 79t-33 79t-79 33t-79 -33t-33 -79t33 -79z" />
    <glyph glyph-name="divide" unicode="&#xf7;" horiz-adv-x="480" 
d="M303 506q-25 -26 -62 -26t-63 26t-26 63t26 62t63 25t62 -25t25 -62t-25 -63zM48 288v112h384v-112h-384zM303 58q-25 -26 -62 -26t-63 26t-26 63t26 62t63 25t62 -25t25 -62t-25 -63z" />
    <glyph glyph-name="oslash" unicode="&#xf8;" horiz-adv-x="608" 
d="M304 496q113 0 193 -74q79 -75 79 -182q0 -108 -78 -181q-80 -75 -194 -75q-118 0 -195 74t-77 182q0 110 76 183t196 73zM304 352q-46 0 -79 -33t-33 -79q0 -30 15 -56l138 160q-22 8 -41 8zM304 128q46 0 79 33t33 79q0 32 -16 58l-138 -162q22 -8 42 -8z" />
    <glyph glyph-name="ugrave" unicode="&#xf9;" horiz-adv-x="592" 
d="M288 704l64 -160h-96l-96 160h128zM240 -16q-80 0 -136 59t-56 165v272h160v-256q0 -96 80 -96q33 0 56.5 29.5t23.5 82.5v240h160v-480h-160v48q-42 -64 -128 -64z" />
    <glyph glyph-name="uacute" unicode="&#xfa;" horiz-adv-x="592" 
d="M320 544h-96l64 160h128zM240 -16q-80 0 -136 59t-56 165v272h160v-256q0 -96 80 -96q33 0 56.5 29.5t23.5 82.5v240h160v-480h-160v48q-42 -64 -128 -64z" />
    <glyph glyph-name="ucircumflex" unicode="&#xfb;" horiz-adv-x="592" 
d="M432 544h-96l-48 64l-48 -64h-96l144 160zM240 -16q-80 0 -136 59t-56 165v272h160v-256q0 -96 80 -96q33 0 56.5 29.5t23.5 82.5v240h160v-480h-160v48q-42 -64 -128 -64z" />
    <glyph glyph-name="udieresis" unicode="&#xfc;" horiz-adv-x="592" 
d="M235 565q-21 -21 -51 -21t-51 21t-21 51t21 51t51 21t51 -21t21 -51t-21 -51zM443 565q-21 -21 -51 -21t-51 21t-21 51t21 51t51 21t51 -21t21 -51t-21 -51zM240 -16q-80 0 -136 59t-56 165v272h160v-256q0 -96 80 -96q33 0 56.5 29.5t23.5 82.5v240h160v-480h-160v48
q-42 -64 -128 -64z" />
    <glyph glyph-name="yacute" unicode="&#xfd;" horiz-adv-x="544" 
d="M304 544h-96l64 160h128zM272 214l96 266h176l-304 -736h-176l129 286l-193 450h176z" />
    <glyph glyph-name="thorn" unicode="&#xfe;" 
d="M368 512q99 0 170 -77q70 -76 70 -187t-70 -187q-71 -77 -170 -77q-83 0 -144 58v-298h-160v960h160v-250q61 58 144 58zM257 163q33 -35 79 -35t79 35t33 85t-33 85t-79 35t-79 -35t-33 -85t33 -85z" />
    <glyph glyph-name="ydieresis" unicode="&#xff;" horiz-adv-x="544" 
d="M219 565q-21 -21 -51 -21t-51 21t-21 51t21 51t51 21t51 -21t21 -51t-21 -51zM427 565q-21 -21 -51 -21t-51 21t-21 51t21 51t51 21t51 -21t21 -51t-21 -51zM272 214l96 266h176l-304 -736h-176l129 286l-193 450h176z" />
    <glyph glyph-name="Amacron" unicode="&#x100;" horiz-adv-x="672" 
d="M464 880v-96h-256v96h256zM672 0h-176l-33 80h-254l-33 -80h-176l336 720zM336 392l-69 -168h138z" />
    <glyph glyph-name="amacron" unicode="&#x101;" horiz-adv-x="544" 
d="M400 656v-96h-256v96h256zM496 250v-250h-160v40q-50 -56 -130 -56q-81 0 -127 49q-47 49 -47 118q0 63 47 104t114 48q69 6 141 -13q-2 34 -24.5 54t-61.5 20q-59 0 -112 -31l-48 115q74 48 184 48q96 0 161 -60q63 -60 63 -186zM336 190q-54 19 -100 8q-44 -11 -44 -50
q0 -23 16.5 -37.5t40.5 -14.5q32 0 57 25.5t30 68.5z" />
    <glyph glyph-name="Abreve" unicode="&#x102;" horiz-adv-x="672" 
d="M400 912h80q0 -60 -42 -102t-102 -42t-102 42t-42 102h80q0 -26 19 -45t45 -19t45 19t19 45zM672 0h-176l-33 80h-254l-33 -80h-176l336 720zM336 392l-69 -168h138z" />
    <glyph glyph-name="abreve" unicode="&#x103;" horiz-adv-x="544" 
d="M336 688h80q0 -60 -42 -102t-102 -42t-102 42t-42 102h80q0 -26 19 -45t45 -19t45 19t19 45zM496 250v-250h-160v40q-50 -56 -130 -56q-81 0 -127 49q-47 49 -47 118q0 63 47 104t114 48q69 6 141 -13q-2 34 -24.5 54t-61.5 20q-59 0 -112 -31l-48 115q74 48 184 48
q96 0 161 -60q63 -60 63 -186zM336 190q-54 19 -100 8q-44 -11 -44 -50q0 -23 16.5 -37.5t40.5 -14.5q32 0 57 25.5t30 68.5z" />
    <glyph glyph-name="Aogonek" unicode="&#x104;" horiz-adv-x="672" 
d="M536 -84q0 -40 36 -50q36 -9 60 16l32 -58q-12 -13 -37 -22.5t-45 -9.5q-53 0 -85.5 35t-32.5 89q0 52 32 84l-33 80h-254l-33 -80h-176l336 720l336 -720h-40q-44 0 -70 -23.5t-26 -60.5zM336 392l-69 -168h138z" />
    <glyph glyph-name="aogonek" unicode="&#x105;" horiz-adv-x="544" 
d="M472 -118l32 -58q-12 -13 -37 -22.5t-45 -9.5q-53 0 -85.5 35t-32.5 89q0 52 32 84v40q-50 -56 -130 -56q-81 0 -127 49q-47 49 -47 118q0 63 47 104t114 48q69 6 141 -13q-2 34 -24.5 54t-61.5 20q-59 0 -112 -31l-48 115q74 48 184 48q96 0 161 -60q63 -60 63 -186
v-250h-24q-44 0 -70 -23.5t-26 -60.5q0 -40 36 -50q36 -9 60 16zM249 96q32 0 57 25.5t30 68.5q-54 19 -100 8q-44 -11 -44 -50q0 -23 16.5 -37.5t40.5 -14.5z" />
    <glyph glyph-name="Cacute" unicode="&#x106;" horiz-adv-x="656" 
d="M440 768h-96l64 160h128zM418 128q81 0 142 52l80 -122q-43 -35 -104 -54.5t-119 -19.5q-159 0 -272 108t-113 260t113 260t272 108q58 0 119 -19.5t104 -54.5l-80 -122q-61 52 -142 52q-92 0 -159 -65q-67 -66 -67 -159q0 -94 67 -158q66 -66 159 -66z" />
    <glyph glyph-name="cacute" unicode="&#x107;" horiz-adv-x="512" 
d="M312 544h-96l64 160h128zM308 128q54 0 90 42l82 -107q-73 -79 -180 -79q-122 0 -195 73t-73 183t73 183t195 73q107 0 180 -79l-82 -107q-36 42 -90 42q-49 0 -82.5 -32.5t-33.5 -79.5t33.5 -79.5t82.5 -32.5z" />
    <glyph glyph-name="Cdotaccent" unicode="&#x10a;" horiz-adv-x="656" 
d="M470 778q-26 -26 -62 -26t-62 26t-26 62t26 62t62 26t62 -26t26 -62t-26 -62zM418 128q81 0 142 52l80 -122q-43 -35 -104 -54.5t-119 -19.5q-159 0 -272 108t-113 260t113 260t272 108q58 0 119 -19.5t104 -54.5l-80 -122q-61 52 -142 52q-92 0 -159 -65
q-67 -66 -67 -159q0 -94 67 -158q66 -66 159 -66z" />
    <glyph glyph-name="cdotaccent" unicode="&#x10b;" horiz-adv-x="512" 
d="M358 554q-26 -26 -62 -26t-62 26t-26 62t26 62t62 26t62 -26t26 -62t-26 -62zM308 128q54 0 90 42l82 -107q-73 -79 -180 -79q-122 0 -195 73t-73 183t73 183t195 73q107 0 180 -79l-82 -107q-36 42 -90 42q-49 0 -82.5 -32.5t-33.5 -79.5t33.5 -79.5t82.5 -32.5z" />
    <glyph glyph-name="Ccaron" unicode="&#x10c;" horiz-adv-x="656" 
d="M400 864l48 64h96l-144 -160l-144 160h96zM418 128q81 0 142 52l80 -122q-43 -35 -104 -54.5t-119 -19.5q-159 0 -272 108t-113 260t113 260t272 108q58 0 119 -19.5t104 -54.5l-80 -122q-61 52 -142 52q-92 0 -159 -65q-67 -66 -67 -159q0 -94 67 -158q66 -66 159 -66z
" />
    <glyph glyph-name="ccaron" unicode="&#x10d;" horiz-adv-x="512" 
d="M288 640l48 64h96l-144 -160l-144 160h96zM308 128q54 0 90 42l82 -107q-73 -79 -180 -79q-122 0 -195 73t-73 183t73 183t195 73q107 0 180 -79l-82 -107q-36 42 -90 42q-49 0 -82.5 -32.5t-33.5 -79.5t33.5 -79.5t82.5 -32.5z" />
    <glyph glyph-name="Dcaron" unicode="&#x10e;" 
d="M296 864l48 64h96l-144 -160l-144 160h96zM64 704h175q175 0 273 -101q96 -102 96 -251q0 -204 -167 -302q-86 -50 -202 -50h-175v704zM224 144h26q90 0 144 62t54 146t-54 146t-144 62h-26v-416z" />
    <glyph glyph-name="dcaron" unicode="&#x10f;" horiz-adv-x="784" 
d="M416 432v304h160v-736h-160v48q-54 -64 -143 -64q-102 0 -171 75q-70 73 -70 181t70 182q69 74 171 74q89 0 143 -64zM720 544h-96v160h128zM225 161q33 -33 79 -33t79 33t33 79t-33 79t-79 33t-79 -33t-33 -79t33 -79z" />
    <glyph glyph-name="Dcroat" unicode="&#x110;" 
d="M64 704h175q175 0 273 -101q96 -102 96 -251q0 -204 -167 -302q-86 -50 -202 -50h-175v304h-48v96h48v304zM224 144h26q90 0 144 62t54 146t-54 146t-144 62h-26v-160h96v-96h-96v-160z" />
    <glyph glyph-name="dslash" unicode="&#x111;" horiz-adv-x="656" 
d="M576 736v-96h48v-80h-48v-560h-160v48q-54 -64 -143 -64q-102 0 -171 75q-70 73 -70 181t70 182q69 74 171 74q89 0 143 -64v128h-96v80h96v96h160zM225 161q33 -33 79 -33t79 33t33 79t-33 79t-79 33t-79 -33t-33 -79t33 -79z" />
    <glyph glyph-name="Emacron" unicode="&#x112;" horiz-adv-x="512" 
d="M384 880v-96h-256v96h256zM464 704v-144h-240v-176h176v-144h-176v-96h240v-144h-400v704h400z" />
    <glyph glyph-name="emacron" unicode="&#x113;" horiz-adv-x="544" 
d="M416 656v-96h-256v96h256zM294 124q71 0 120 46l82 -107q-82 -79 -196 -79q-122 0 -195 73t-73 183t73 183t195 73q30 0 60.5 -8t64.5 -27.5t62 -60t41 -96.5l-284 -170q16 -10 50 -10zM300 356q-54 0 -87.5 -35.5t-26.5 -89.5l166 99q-17 26 -52 26z" />
    <glyph glyph-name="Edotaccent" unicode="&#x116;" horiz-adv-x="512" 
d="M318 778q-26 -26 -62 -26t-62 26t-26 62t26 62t62 26t62 -26t26 -62t-26 -62zM464 704v-144h-240v-176h176v-144h-176v-96h240v-144h-400v704h400z" />
    <glyph glyph-name="edotaccent" unicode="&#x117;" horiz-adv-x="544" 
d="M342 554q-26 -26 -62 -26t-62 26t-26 62t26 62t62 26t62 -26t26 -62t-26 -62zM294 124q71 0 120 46l82 -107q-82 -79 -196 -79q-122 0 -195 73t-73 183t73 183t195 73q30 0 60.5 -8t64.5 -27.5t62 -60t41 -96.5l-284 -170q16 -10 50 -10zM300 356q-54 0 -87.5 -35.5
t-26.5 -89.5l166 99q-17 26 -52 26z" />
    <glyph glyph-name="Eogonek" unicode="&#x118;" horiz-adv-x="512" 
d="M464 -118l32 -58q-12 -13 -37 -22.5t-45 -9.5q-53 0 -85.5 35t-32.5 89q0 52 32 84h-264v704h400v-144h-240v-176h176v-144h-176v-96h240v-144q-44 0 -70 -23.5t-26 -60.5q0 -40 36 -50q36 -9 60 16z" />
    <glyph glyph-name="eogonek" unicode="&#x119;" horiz-adv-x="544" 
d="M354 -11q-58 -15 -58 -73q0 -40 36 -50q36 -9 60 16l32 -58q-12 -13 -37 -22.5t-45 -9.5q-53 0 -85.5 35t-32.5 89q0 38 22 72h1q-99 15 -157 85t-58 167q0 110 73 183t195 73q30 0 60.5 -8t64.5 -27.5t62 -60t41 -96.5l-284 -170q16 -10 50 -10q71 0 120 46l82 -107
q-61 -59 -142 -74zM300 356q-54 0 -87.5 -35.5t-26.5 -89.5l166 99q-17 26 -52 26z" />
    <glyph glyph-name="Ecaron" unicode="&#x11a;" horiz-adv-x="512" 
d="M256 864l48 64h96l-144 -160l-144 160h96zM464 704v-144h-240v-176h176v-144h-176v-96h240v-144h-400v704h400z" />
    <glyph glyph-name="ecaron" unicode="&#x11b;" horiz-adv-x="544" 
d="M288 640l48 64h96l-144 -160l-144 160h96zM294 124q71 0 120 46l82 -107q-82 -79 -196 -79q-122 0 -195 73t-73 183t73 183t195 73q30 0 60.5 -8t64.5 -27.5t62 -60t41 -96.5l-284 -170q16 -10 50 -10zM300 356q-54 0 -87.5 -35.5t-26.5 -89.5l166 99q-17 26 -52 26z" />
    <glyph glyph-name="Gbreve" unicode="&#x11e;" horiz-adv-x="784" 
d="M456 912h80q0 -60 -42 -102t-102 -42t-102 42t-42 102h80q0 -26 19 -45t45 -19t45 19t19 45zM384 384h365q3 -22 3 -48q0 -146 -99 -249t-244 -103q-157 0 -267 108q-110 107 -110 260q0 152 113 260t272 108q58 0 119 -19.5t104 -54.5l-80 -122q-61 52 -142 52
q-92 0 -159 -65q-67 -66 -67 -159q0 -94 63 -159q62 -65 155 -65q61 0 108 30.5t62 81.5h-196v144z" />
    <glyph glyph-name="gbreve" unicode="&#x11f;" 
d="M400 688h80q0 -60 -42 -102t-102 -42t-102 42t-42 102h80q0 -26 19 -45t45 -19t45 19t19 45zM416 432v48h160v-440q0 -151 -76 -231.5t-212 -80.5q-119 0 -192 64l64 120q58 -40 119 -40q63 0 100 41t37 108v27q-54 -64 -143 -64q-102 0 -171 75q-70 73 -70 181t70 182
q69 74 171 74q89 0 143 -64zM225 161q33 -33 79 -33t79 33t33 79t-33 79t-79 33t-79 -33t-33 -79t33 -79z" />
    <glyph glyph-name="Gdotaccent" unicode="&#x120;" horiz-adv-x="784" 
d="M462 778q-26 -26 -62 -26t-62 26t-26 62t26 62t62 26t62 -26t26 -62t-26 -62zM384 384h365q3 -22 3 -48q0 -146 -99 -249t-244 -103q-157 0 -267 108q-110 107 -110 260q0 152 113 260t272 108q58 0 119 -19.5t104 -54.5l-80 -122q-61 52 -142 52q-92 0 -159 -65
q-67 -66 -67 -159q0 -94 63 -159q62 -65 155 -65q61 0 108 30.5t62 81.5h-196v144z" />
    <glyph glyph-name="gdotaccent" unicode="&#x121;" 
d="M382 554q-26 -26 -62 -26t-62 26t-26 62t26 62t62 26t62 -26t26 -62t-26 -62zM416 432v48h160v-440q0 -151 -76 -231.5t-212 -80.5q-119 0 -192 64l64 120q58 -40 119 -40q63 0 100 41t37 108v27q-54 -64 -143 -64q-102 0 -171 75q-70 73 -70 181t70 182q69 74 171 74
q89 0 143 -64zM225 161q33 -33 79 -33t79 33t33 79t-33 79t-79 33t-79 -33t-33 -79t33 -79z" />
    <glyph glyph-name="Gcommaaccent" unicode="&#x122;" horiz-adv-x="784" 
d="M384 384h365q3 -22 3 -48q0 -146 -99 -249t-244 -103q-157 0 -267 108q-110 107 -110 260q0 152 113 260t272 108q58 0 119 -19.5t104 -54.5l-80 -122q-61 52 -142 52q-92 0 -159 -65q-67 -66 -67 -159q0 -94 63 -159q62 -65 155 -65q61 0 108 30.5t62 81.5h-196v144z
M432 -224h-96v160h128z" />
    <glyph glyph-name="gcommaaccent" unicode="&#x123;" 
d="M304 704h96v-160h-128zM416 432v48h160v-440q0 -151 -76 -231.5t-212 -80.5q-119 0 -192 64l64 120q58 -40 119 -40q63 0 100 41t37 108v27q-54 -64 -143 -64q-102 0 -171 75q-70 73 -70 181t70 182q69 74 171 74q89 0 143 -64zM225 161q33 -33 79 -33t79 33t33 79
t-33 79t-79 33t-79 -33t-33 -79t33 -79z" />
    <glyph glyph-name="Hbar" unicode="&#x126;" horiz-adv-x="624" 
d="M400 592v112h160v-704h-160v240h-176v-240h-160v704h160v-112h176zM224 512v-128h176v128h-176z" />
    <glyph glyph-name="hbar" unicode="&#x127;" horiz-adv-x="592" 
d="M352 496q82 0 137 -58t55 -166v-272h-160v256q0 96 -80 96q-33 0 -56.5 -29.5t-23.5 -82.5v-240h-160v560h-48v80h48v96h160v-96h96v-80h-96v-128q42 64 128 64z" />
    <glyph glyph-name="Imacron" unicode="&#x12a;" horiz-adv-x="288" 
d="M272 880v-96h-256v96h256zM224 704v-704h-160v704h160z" />
    <glyph glyph-name="imacron" unicode="&#x12b;" horiz-adv-x="288" 
d="M272 656v-96h-256v96h256zM224 0h-160v480h160v-480z" />
    <glyph glyph-name="Iogonek" unicode="&#x12e;" horiz-adv-x="288" 
d="M200 -118l32 -58q-12 -13 -37 -22.5t-45 -9.5q-53 0 -85.5 35t-32.5 89q0 52 32 84v704h160v-704h-24q-44 0 -70 -23.5t-26 -60.5q0 -40 36 -50q36 -9 60 16z" />
    <glyph glyph-name="iogonek" unicode="&#x12f;" horiz-adv-x="288" 
d="M212 572q-28 -28 -68 -28t-68 28t-28 68t28 68t68 28t68 -28t28 -68t-28 -68zM200 -118l32 -58q-12 -13 -37 -22.5t-45 -9.5q-53 0 -85.5 35t-32.5 89q0 52 32 84v480h160v-480h-24q-44 0 -70 -23.5t-26 -60.5q0 -40 36 -50q36 -9 60 16z" />
    <glyph glyph-name="Idot" unicode="&#x130;" horiz-adv-x="288" 
d="M206 778q-26 -26 -62 -26t-62 26t-26 62t26 62t62 26t62 -26t26 -62t-26 -62zM224 704v-704h-160v704h160z" />
    <glyph glyph-name="dotlessi" unicode="&#x131;" horiz-adv-x="288" 
d="M224 0h-160v480h160v-480z" />
    <glyph glyph-name="IJ" unicode="&#x132;" horiz-adv-x="752" 
d="M224 704v-704h-160v704h160zM544 242v462h160v-456q0 -132 -64 -198t-185 -66q-38 0 -75.5 12.5t-59.5 31.5l80 120q23 -20 50 -20q94 0 94 114z" />
    <glyph glyph-name="ij" unicode="&#x133;" horiz-adv-x="568" 
d="M212 572q-28 -28 -68 -28t-68 28t-28 68t28 68t68 28t68 -28t28 -68t-28 -68zM492 572q-28 -28 -68 -28t-68 28t-28 68t28 68t68 28t68 -28t28 -68t-28 -68zM224 0h-160v480h160v-480zM504 -224l-160 -48v752h160v-704z" />
    <glyph glyph-name="Kcommaaccent" unicode="&#x136;" horiz-adv-x="608" 
d="M362 388l230 -388h-192l-135 244l-41 -60v-184h-160v704h160v-272l168 272h184zM320 -224h-96v160h128z" />
    <glyph glyph-name="kcommaaccent" unicode="&#x137;" horiz-adv-x="560" 
d="M362 267l198 -267h-192l-105 152l-39 -46v-106h-160v736h160v-420l128 164h192zM312 -224h-96v160h128z" />
    <glyph glyph-name="Lacute" unicode="&#x139;" horiz-adv-x="496" 
d="M160 768h-96l64 160h128zM64 0v704h160v-560h240v-144h-400z" />
    <glyph glyph-name="lacute" unicode="&#x13a;" horiz-adv-x="288" 
d="M160 800h-96l64 160h128zM64 0v736h160v-736h-160z" />
    <glyph glyph-name="Lcommaaccent" unicode="&#x13b;" horiz-adv-x="496" 
d="M64 0v704h160v-560h240v-144h-400zM288 -224h-96v160h128z" />
    <glyph glyph-name="lcommaaccent" unicode="&#x13c;" horiz-adv-x="288" 
d="M64 0v736h160v-736h-160zM176 -224h-96v160h128z" />
    <glyph glyph-name="Lcaron" unicode="&#x13d;" horiz-adv-x="496" 
d="M64 0v704h160v-560h240v-144h-400zM432 544h-96v160h128z" />
    <glyph glyph-name="lcaron" unicode="&#x13e;" horiz-adv-x="432" 
d="M64 0v736h160v-736h-160zM368 544h-96v160h128z" />
    <glyph glyph-name="Ldot" unicode="&#x13f;" horiz-adv-x="496" 
d="M64 0v704h160v-560h240v-144h-400zM455 330q-25 -26 -62 -26t-63 26t-26 63t26 62t63 25t62 -25t25 -62t-25 -63z" />
    <glyph glyph-name="ldot" unicode="&#x140;" horiz-adv-x="464" 
d="M64 0v736h160v-736h-160zM423 314q-25 -26 -62 -26t-63 26t-26 63t26 62t63 25t62 -25t25 -62t-25 -63z" />
    <glyph glyph-name="Lslash" unicode="&#x141;" horiz-adv-x="496" 
d="M224 347v-203h240v-144h-400v302l-48 -14v80l48 14v322h160v-277l48 13v-80z" />
    <glyph glyph-name="lslash" unicode="&#x142;" horiz-adv-x="288" 
d="M224 351v-351h-160v306l-48 -14v80l48 14v350h160v-305l48 13v-80z" />
    <glyph glyph-name="Nacute" unicode="&#x143;" horiz-adv-x="656" 
d="M352 768h-96l64 160h128zM432 360v344h160v-720l-368 360v-344h-160v720z" />
    <glyph glyph-name="nacute" unicode="&#x144;" horiz-adv-x="592" 
d="M320 544h-96l64 160h128zM352 496q82 0 137 -58t55 -166v-272h-160v256q0 96 -80 96q-33 0 -56.5 -29.5t-23.5 -82.5v-240h-160v480h160v-48q42 64 128 64z" />
    <glyph glyph-name="Ncommaaccent" unicode="&#x145;" horiz-adv-x="656" 
d="M432 360v344h160v-720l-368 360v-344h-160v720zM360 -224h-96v160h128z" />
    <glyph glyph-name="ncommaaccent" unicode="&#x146;" horiz-adv-x="592" 
d="M352 496q82 0 137 -58t55 -166v-272h-160v256q0 96 -80 96q-33 0 -56.5 -29.5t-23.5 -82.5v-240h-160v480h160v-48q42 64 128 64zM328 -224h-96v160h128z" />
    <glyph glyph-name="Ncaron" unicode="&#x147;" horiz-adv-x="656" 
d="M328 864l48 64h96l-144 -160l-144 160h96zM432 360v344h160v-720l-368 360v-344h-160v720z" />
    <glyph glyph-name="ncaron" unicode="&#x148;" horiz-adv-x="592" 
d="M288 640l48 64h96l-144 -160l-144 160h96zM352 496q82 0 137 -58t55 -166v-272h-160v256q0 96 -80 96q-33 0 -56.5 -29.5t-23.5 -82.5v-240h-160v480h160v-48q42 64 128 64z" />
    <glyph glyph-name="Eng" unicode="&#x14a;" horiz-adv-x="656" 
d="M432 360v344h160v-688q0 -170 -71 -233q-63 -55 -169 -55l-32 144q51 1 81.5 33t30.5 95v141l-208 203v-344h-160v720z" />
    <glyph glyph-name="eng" unicode="&#x14b;" horiz-adv-x="592" 
d="M352 496q82 0 137 -58t55 -166v-256q0 -170 -71 -233q-63 -55 -169 -55l-32 144q51 1 81.5 33t30.5 95v256q0 96 -80 96q-33 0 -56.5 -29.5t-23.5 -82.5v-240h-160v480h160v-48q42 64 128 64z" />
    <glyph glyph-name="Omacron" unicode="&#x14c;" horiz-adv-x="816" 
d="M536 880v-96h-256v96h256zM142 612q110 108 266 108t266 -108t110 -260t-110 -260t-266 -108t-266 108t-110 260t110 260zM256 194q63 -66 152 -66q88 0 153 66q63 64 63 158q0 93 -63 159q-65 65 -153 65q-89 0 -152 -65q-64 -65 -64 -159t64 -158z" />
    <glyph glyph-name="omacron" unicode="&#x14d;" horiz-adv-x="608" 
d="M432 656v-96h-256v96h256zM304 496q113 0 193 -74q79 -75 79 -182q0 -108 -78 -181q-80 -75 -194 -75q-118 0 -195 74t-77 182q0 110 76 183t196 73zM225 161q33 -33 79 -33t79 33t33 79t-33 79t-79 33t-79 -33t-33 -79t33 -79z" />
    <glyph glyph-name="Ohungarumlaut" unicode="&#x150;" horiz-adv-x="816" 
d="M328 768h-80v144h112zM552 768h-80v144h112zM142 612q110 108 266 108t266 -108t110 -260t-110 -260t-266 -108t-266 108t-110 260t110 260zM256 194q63 -66 152 -66q88 0 153 66q63 64 63 158q0 93 -63 159q-65 65 -153 65q-89 0 -152 -65q-64 -65 -64 -159t64 -158z
" />
    <glyph glyph-name="ohungarumlaut" unicode="&#x151;" horiz-adv-x="608" 
d="M224 546h-80v144h112zM448 546h-80v144h112zM304 496q113 0 193 -74q79 -75 79 -182q0 -108 -78 -181q-80 -75 -194 -75q-118 0 -195 74t-77 182q0 110 76 183t196 73zM225 161q33 -33 79 -33t79 33t33 79t-33 79t-79 33t-79 -33t-33 -79t33 -79z" />
    <glyph glyph-name="OE" unicode="&#x152;" horiz-adv-x="1072" 
d="M1024 704v-144h-240v-176h176v-144h-176v-96h240v-144h-400v51q-97 -67 -216 -67q-156 0 -266 108t-110 260t110 260t266 108q119 0 216 -67v51h400zM256 194q63 -66 152 -66q88 0 153 66q63 64 63 158q0 93 -63 159q-65 65 -153 65q-89 0 -152 -65q-64 -65 -64 -159
t64 -158z" />
    <glyph glyph-name="oe" unicode="&#x153;" horiz-adv-x="928" 
d="M678 124q71 0 120 46l82 -107q-82 -79 -196 -79q-119 0 -192 70q-77 -70 -188 -70q-118 0 -195 74t-77 182q0 110 76 183t196 73q111 0 188 -70q74 70 192 70q30 0 60.5 -8t64.5 -27.5t62 -60t41 -96.5l-284 -170q16 -10 50 -10zM684 356q-54 0 -87.5 -35.5t-26.5 -89.5
l166 99q-17 26 -52 26zM225 161q33 -33 79 -33t79 33t33 79t-33 79t-79 33t-79 -33t-33 -79t33 -79z" />
    <glyph glyph-name="Racute" unicode="&#x154;" horiz-adv-x="576" 
d="M296 768h-96l64 160h128zM415 240l129 -240h-176l-98 200h-46v-200h-160v704h190q134 0 205 -71q69 -71 69 -177q0 -67 -30 -125t-83 -91zM253 560h-29v-216h29q50 0 82.5 31t32.5 77q0 50 -31.5 79t-83.5 29z" />
    <glyph glyph-name="racute" unicode="&#x155;" horiz-adv-x="432" 
d="M224 544h-96l64 160h128zM224 480v-89q25 51 66 75.5t110 29.5v-176q-42 13 -88 0q-38 -10 -63 -49t-25 -94v-177h-160v480h160z" />
    <glyph glyph-name="Rcommaaccent" unicode="&#x156;" horiz-adv-x="576" 
d="M415 240l129 -240h-176l-98 200h-46v-200h-160v704h190q134 0 205 -71q69 -71 69 -177q0 -67 -30 -125t-83 -91zM253 560h-29v-216h29q50 0 82.5 31t32.5 77q0 50 -31.5 79t-83.5 29zM312 -224h-96v160h128z" />
    <glyph glyph-name="rcommaaccent" unicode="&#x157;" horiz-adv-x="432" 
d="M224 480v-89q25 51 66 75.5t110 29.5v-176q-42 13 -88 0q-38 -10 -63 -49t-25 -94v-177h-160v480h160zM208 -224h-96v160h128z" />
    <glyph glyph-name="Rcaron" unicode="&#x158;" horiz-adv-x="576" 
d="M272 864l48 64h96l-144 -160l-144 160h96zM415 240l129 -240h-176l-98 200h-46v-200h-160v704h190q134 0 205 -71q69 -71 69 -177q0 -67 -30 -125t-83 -91zM253 560h-29v-216h29q50 0 82.5 31t32.5 77q0 50 -31.5 79t-83.5 29z" />
    <glyph glyph-name="rcaron" unicode="&#x159;" horiz-adv-x="432" 
d="M216 640l48 64h96l-144 -160l-144 160h96zM224 480v-89q25 51 66 75.5t110 29.5v-176q-42 13 -88 0q-38 -10 -63 -49t-25 -94v-177h-160v480h160z" />
    <glyph glyph-name="Sacute" unicode="&#x15a;" horiz-adv-x="560" 
d="M312 768h-96l64 160h128zM296 463q40 -16 52 -20q8 -2 46 -20q33 -16 45 -25q4 -3 35 -30q28 -26 39 -60t15 -90q0 -96 -69 -165q-71 -69 -179 -69q-100 0 -171 54q-57 43 -77 74l89 112q73 -96 159 -96q38 0 63 24.5t25 55.5q0 35 -18.5 56t-61.5 37q-116 43 -165 93
q-51 50 -51 132q0 87 65 141q65 53 161 53q110 0 196 -78l-86 -118q-49 52 -112 52q-27 0 -45.5 -14t-18.5 -33q0 -42 64 -66z" />
    <glyph glyph-name="sacute" unicode="&#x15b;" horiz-adv-x="496" 
d="M272 544h-96l64 160h128zM266 317q198 -33 198 -165q0 -75 -58.5 -121.5t-163.5 -46.5q-67 0 -123.5 22t-86.5 52l64 120q62 -50 123 -56q85 -9 85 23q0 15 -14 21t-48 12q-2 0 -5.5 1t-5.5 1q-113 23 -147 72q-28 41 -28 88q0 64 54 111q52 45 149 45q34 0 89 -15
q47 -15 77 -35l-61 -119q-40 31 -94 36t-54 -18q0 -12 10 -17.5t40 -10.5z" />
    <glyph glyph-name="Scedilla" unicode="&#x15e;" horiz-adv-x="560" 
d="M528 218q0 -89 -60 -155q-59 -66 -158 -77v-34q37 -3 71 -34q35 -30 35 -86q0 -61 -40 -98q-41 -38 -96 -38q-41 0 -72.5 17.5t-47.5 45.5l48 45q18 -44 72 -44q31 0 51.5 21.5t20.5 51.5q0 39 -33.5 57t-78.5 6v91q-77 11 -132 52q-57 42 -76 73l89 112q73 -96 159 -96
q38 0 63 24.5t25 55.5q0 35 -18.5 56t-61.5 37q-116 43 -165 93q-51 50 -51 132q0 87 65 141q65 53 161 53q110 0 196 -78l-86 -118q-49 52 -112 52q-27 0 -45.5 -14t-18.5 -33q0 -42 64 -66q40 -16 52 -20q8 -2 46 -20q33 -16 45 -25q4 -3 35 -30q28 -26 39 -60t15 -90z
" />
    <glyph glyph-name="scedilla" unicode="&#x15f;" horiz-adv-x="496" 
d="M464 152q0 -68 -49 -113t-137 -53v-34q37 -3 71 -34q35 -30 35 -86q0 -61 -40 -98q-41 -38 -96 -38q-41 0 -72.5 17.5t-47.5 45.5l48 45q18 -44 72 -44q31 0 51.5 21.5t20.5 51.5q0 39 -33.5 57t-78.5 6v90q-56 5 -103.5 26t-72.5 46l64 120q62 -50 123 -56q85 -9 85 23
q0 15 -14 21t-48 12q-2 0 -5.5 1t-5.5 1q-113 23 -147 72q-28 41 -28 88q0 64 54 111q52 45 149 45q34 0 89 -15q47 -15 77 -35l-61 -119q-40 31 -94 36t-54 -18q0 -12 10 -17.5t40 -10.5q198 -33 198 -165z" />
    <glyph glyph-name="Scaron" unicode="&#x160;" horiz-adv-x="560" 
d="M288 864l48 64h96l-144 -160l-144 160h96zM296 463q40 -16 52 -20q8 -2 46 -20q33 -16 45 -25q4 -3 35 -30q28 -26 39 -60t15 -90q0 -96 -69 -165q-71 -69 -179 -69q-100 0 -171 54q-57 43 -77 74l89 112q73 -96 159 -96q38 0 63 24.5t25 55.5q0 35 -18.5 56t-61.5 37
q-116 43 -165 93q-51 50 -51 132q0 87 65 141q65 53 161 53q110 0 196 -78l-86 -118q-49 52 -112 52q-27 0 -45.5 -14t-18.5 -33q0 -42 64 -66z" />
    <glyph glyph-name="scaron" unicode="&#x161;" horiz-adv-x="496" 
d="M248 640l48 64h96l-144 -160l-144 160h96zM266 317q198 -33 198 -165q0 -75 -58.5 -121.5t-163.5 -46.5q-67 0 -123.5 22t-86.5 52l64 120q62 -50 123 -56q85 -9 85 23q0 15 -14 21t-48 12q-2 0 -5.5 1t-5.5 1q-113 23 -147 72q-28 41 -28 88q0 64 54 111q52 45 149 45
q34 0 89 -15q47 -15 77 -35l-61 -119q-40 31 -94 36t-54 -18q0 -12 10 -17.5t40 -10.5z" />
    <glyph glyph-name="uni0162" unicode="&#x162;" horiz-adv-x="512" 
d="M336 560v-560h-46v-48q37 -3 71 -34q35 -30 35 -86q0 -61 -40 -98q-41 -38 -96 -38q-41 0 -72.5 17.5t-47.5 45.5l48 45q18 -44 72 -44q31 0 51.5 21.5t20.5 51.5q0 39 -33.5 57t-78.5 6v104h-44v560h-144v144h448v-144h-144z" />
    <glyph glyph-name="uni0163" unicode="&#x163;" horiz-adv-x="432" 
d="M272 336v-336h-42v-48q37 -3 71 -34q35 -30 35 -86q0 -61 -40 -98q-41 -38 -96 -38q-41 0 -72.5 17.5t-47.5 45.5l48 45q18 -44 72 -44q31 0 51.5 21.5t20.5 51.5q0 39 -33.5 57t-78.5 6v104h-48v336h-80v144h80v144l160 48v-192h128v-144h-128z" />
    <glyph glyph-name="Tcaron" unicode="&#x164;" horiz-adv-x="512" 
d="M256 864l48 64h96l-144 -160l-144 160h96zM32 560v144h448v-144h-144v-560h-160v560h-144z" />
    <glyph glyph-name="tcaron" unicode="&#x165;" horiz-adv-x="560" 
d="M496 544h-96v160h128zM272 0h-160v336h-80v144h80v144l160 48v-192h128v-144h-128v-336z" />
    <glyph glyph-name="Tbar" unicode="&#x166;" horiz-adv-x="512" 
d="M480 704v-144h-144v-208h64v-80h-64v-272h-160v272h-64v80h64v208h-144v144h448z" />
    <glyph glyph-name="tbar" unicode="&#x167;" horiz-adv-x="432" 
d="M400 480v-144h-128v-64h96v-80h-96v-192h-160v192h-64v80h64v64h-80v144h80v144l160 48v-192h128z" />
    <glyph glyph-name="Umacron" unicode="&#x16a;" 
d="M448 880v-96h-256v96h256zM416 248v456h160v-440q0 -133 -70 -206q-71 -74 -186 -74q-119 0 -187.5 73.5t-68.5 206.5v440h160v-456q0 -60 26.5 -90t69.5 -30q41 0 68.5 31t27.5 89z" />
    <glyph glyph-name="umacron" unicode="&#x16b;" horiz-adv-x="592" 
d="M416 656v-96h-256v96h256zM240 -16q-80 0 -136 59t-56 165v272h160v-256q0 -96 80 -96q33 0 56.5 29.5t23.5 82.5v240h160v-480h-160v48q-42 -64 -128 -64z" />
    <glyph glyph-name="Uring" unicode="&#x16e;" 
d="M440 712v-8h136v-440q0 -133 -70 -206q-71 -74 -186 -74q-119 0 -187.5 73.5t-68.5 206.5v440h136v8q0 50 35 85t85 35t85 -35t35 -85zM355 747q-15 15 -35 15t-35 -15t-15 -35t15 -35t35 -15t35 15t15 35t-15 35zM320 128q41 0 68.5 31t27.5 89v391q-36 -47 -96 -47
t-96 47v-391q0 -60 26.5 -90t69.5 -30z" />
    <glyph glyph-name="uring" unicode="&#x16f;" horiz-adv-x="592" 
d="M211 717q35 35 85 35t85 -35t35 -85t-35 -85t-85 -35t-85 35t-35 85t35 85zM261 597q15 -15 35 -15t35 15t15 35t-15 35t-35 15t-35 -15t-15 -35t15 -35zM240 -16q-80 0 -136 59t-56 165v272h160v-256q0 -96 80 -96q33 0 56.5 29.5t23.5 82.5v240h160v-480h-160v48
q-42 -64 -128 -64z" />
    <glyph glyph-name="Uhungarumlaut" unicode="&#x170;" 
d="M240 768h-80v144h112zM464 768h-80v144h112zM416 248v456h160v-440q0 -133 -70 -206q-71 -74 -186 -74q-119 0 -187.5 73.5t-68.5 206.5v440h160v-456q0 -60 26.5 -90t69.5 -30q41 0 68.5 31t27.5 89z" />
    <glyph glyph-name="uhungarumlaut" unicode="&#x171;" horiz-adv-x="592" 
d="M208 546h-80v144h112zM432 546h-80v144h112zM240 -16q-80 0 -136 59t-56 165v272h160v-256q0 -96 80 -96q33 0 56.5 29.5t23.5 82.5v240h160v-480h-160v48q-42 -64 -128 -64z" />
    <glyph glyph-name="Uogonek" unicode="&#x172;" 
d="M416 248v456h160v-440q0 -113 -52.5 -184.5t-144.5 -89.5q-63 -14 -63 -74q0 -40 36 -50q36 -9 60 16l32 -58q-12 -13 -37 -22.5t-45 -9.5q-53 0 -85.5 35t-32.5 89q0 38 22 72q-95 16 -148.5 88t-53.5 188v440h160v-456q0 -60 26.5 -90t69.5 -30q41 0 68.5 31t27.5 89z
" />
    <glyph glyph-name="uogonek" unicode="&#x173;" horiz-adv-x="592" 
d="M504 -118l32 -58q-12 -13 -37 -22.5t-45 -9.5q-53 0 -85.5 35t-32.5 89q0 52 32 84v48q-42 -64 -128 -64q-80 0 -136 59t-56 165v272h160v-256q0 -96 80 -96q33 0 56.5 29.5t23.5 82.5v240h160v-480h-24q-44 0 -70 -23.5t-26 -60.5q0 -40 36 -50q36 -9 60 16z" />
    <glyph glyph-name="Wcircumflex" unicode="&#x174;" horiz-adv-x="944" 
d="M616 768h-96l-48 64l-48 -64h-96l144 160zM768 704h176l-320 -720l-145 353l-159 -353l-320 720h176l144 -360l82 181l-70 179h156l136 -360z" />
    <glyph glyph-name="wcircumflex" unicode="&#x175;" horiz-adv-x="768" 
d="M528 544h-96l-48 64l-48 -64h-96l144 160zM600 480h168l-264 -496l-113 233l-127 -233l-264 496h168l96 -202l53 92l-53 110h144l96 -202z" />
    <glyph glyph-name="Ycircumflex" unicode="&#x176;" 
d="M464 768h-96l-48 64l-48 -64h-96l144 160zM320 432l136 272h184l-240 -432v-272h-160v272l-240 432h184z" />
    <glyph glyph-name="ycircumflex" unicode="&#x177;" horiz-adv-x="544" 
d="M416 544h-96l-48 64l-48 -64h-96l144 160zM272 214l96 266h176l-304 -736h-176l129 286l-193 450h176z" />
    <glyph glyph-name="Ydieresis" unicode="&#x178;" 
d="M267 789q-21 -21 -51 -21t-51 21t-21 51t21 51t51 21t51 -21t21 -51t-21 -51zM475 789q-21 -21 -51 -21t-51 21t-21 51t21 51t51 21t51 -21t21 -51t-21 -51zM320 432l136 272h184l-240 -432v-272h-160v272l-240 432h184z" />
    <glyph glyph-name="Zacute" unicode="&#x179;" horiz-adv-x="560" 
d="M304 768h-96l64 160h128zM512 144v-144h-480l264 560h-248v144h480l-264 -560h248z" />
    <glyph glyph-name="zacute" unicode="&#x17a;" horiz-adv-x="496" 
d="M272 544h-96l64 160h128zM448 144v-144h-416l184 336h-168v144h416l-184 -336h168z" />
    <glyph glyph-name="Zdotaccent" unicode="&#x17b;" horiz-adv-x="560" 
d="M342 778q-26 -26 -62 -26t-62 26t-26 62t26 62t62 26t62 -26t26 -62t-26 -62zM512 144v-144h-480l264 560h-248v144h480l-264 -560h248z" />
    <glyph glyph-name="zdotaccent" unicode="&#x17c;" horiz-adv-x="496" 
d="M310 554q-26 -26 -62 -26t-62 26t-26 62t26 62t62 26t62 -26t26 -62t-26 -62zM448 144v-144h-416l184 336h-168v144h416l-184 -336h168z" />
    <glyph glyph-name="Zcaron" unicode="&#x17d;" horiz-adv-x="560" 
d="M280 864l48 64h96l-144 -160l-144 160h96zM512 144v-144h-480l264 560h-248v144h480l-264 -560h248z" />
    <glyph glyph-name="zcaron" unicode="&#x17e;" horiz-adv-x="496" 
d="M248 640l48 64h96l-144 -160l-144 160h96zM448 144v-144h-416l184 336h-168v144h416l-184 -336h168z" />
    <glyph glyph-name="Aringacute" unicode="&#x1fa;" horiz-adv-x="672" 
d="M376 864h-96l64 160h128zM390 605l282 -605h-176l-33 80h-254l-33 -80h-176l282 604q-30 15 -48 44t-18 64q0 50 35 85t85 35t85 -35t35 -85q0 -35 -18 -64t-48 -43zM370 746q-14 14 -34 14t-34 -14t-14 -34t14 -34t34 -14t34 14t14 34t-14 34zM336 392l-69 -168h138z
" />
    <glyph glyph-name="aringacute" unicode="&#x1fb;" horiz-adv-x="544" 
d="M304 784h-96l64 160h128zM187 717q35 35 85 35t85 -35t35 -85t-35 -85t-85 -35t-85 35t-35 85t35 85zM238 598q14 -14 34 -14t34 14t14 34t-14 34t-34 14t-34 -14t-14 -34t14 -34zM496 250v-250h-160v40q-50 -56 -130 -56q-81 0 -127 49q-47 49 -47 118q0 63 47 104
t114 48q69 6 141 -13q-2 34 -24.5 54t-61.5 20q-59 0 -112 -31l-48 115q74 48 184 48q96 0 161 -60q63 -60 63 -186zM336 190q-54 19 -100 8q-44 -11 -44 -50q0 -23 16.5 -37.5t40.5 -14.5q32 0 57 25.5t30 68.5z" />
    <glyph glyph-name="AEacute" unicode="&#x1fc;" horiz-adv-x="816" 
d="M480 768h-96l64 160h128zM768 704v-144h-240v-176h176v-144h-176v-96h240v-144h-400v80h-154l-38 -80h-176l368 704h400zM368 408l-87 -184h87v184z" />
    <glyph glyph-name="aeacute" unicode="&#x1fd;" horiz-adv-x="880" 
d="M432 704h128l-96 -160h-96zM630 124q71 0 120 46l82 -107q-82 -79 -196 -79q-131 0 -206 99q-72 -99 -216 -99q-84 0 -133 47t-49 120q0 63 47 104t114 48q69 6 141 -13q-2 34 -24.5 54t-61.5 20q-59 0 -112 -31l-48 115q74 48 184 48q121 0 179 -82q73 82 185 82
q30 0 60.5 -8t64.5 -27.5t62 -60t41 -96.5l-284 -170q16 -10 50 -10zM636 356q-54 0 -87.5 -35.5t-26.5 -89.5l166 99q-17 26 -52 26zM249 96q32 0 57 25.5t30 68.5q-54 19 -100 8q-44 -11 -44 -50q0 -23 16.5 -37.5t40.5 -14.5z" />
    <glyph glyph-name="Scommaaccent" unicode="&#x218;" horiz-adv-x="560" 
d="M296 463q40 -16 52 -20q8 -2 46 -20q33 -16 45 -25q4 -3 35 -30q28 -26 39 -60t15 -90q0 -96 -69 -165q-71 -69 -179 -69q-100 0 -171 54q-57 43 -77 74l89 112q73 -96 159 -96q38 0 63 24.5t25 55.5q0 35 -18.5 56t-61.5 37q-116 43 -165 93q-51 50 -51 132q0 87 65 141
q65 53 161 53q110 0 196 -78l-86 -118q-49 52 -112 52q-27 0 -45.5 -14t-18.5 -33q0 -42 64 -66zM320 -224h-96v160h128z" />
    <glyph glyph-name="scommaaccent" unicode="&#x219;" horiz-adv-x="496" 
d="M266 317q198 -33 198 -165q0 -75 -58.5 -121.5t-163.5 -46.5q-67 0 -123.5 22t-86.5 52l64 120q62 -50 123 -56q85 -9 85 23q0 15 -14 21t-48 12q-2 0 -5.5 1t-5.5 1q-113 23 -147 72q-28 41 -28 88q0 64 54 111q52 45 149 45q34 0 89 -15q47 -15 77 -35l-61 -119
q-40 31 -94 36t-54 -18q0 -12 10 -17.5t40 -10.5zM280 -224h-96v160h128z" />
    <glyph glyph-name="uni021A" unicode="&#x21a;" horiz-adv-x="512" 
d="M32 560v144h448v-144h-144v-560h-160v560h-144zM288 -224h-96v160h128z" />
    <glyph glyph-name="uni021B" unicode="&#x21b;" horiz-adv-x="432" 
d="M272 0h-160v336h-80v144h80v144l160 48v-192h128v-144h-128v-336zM240 -224h-96v160h128z" />
    <glyph glyph-name="Alphatonos" unicode="&#x386;" horiz-adv-x="672" 
d="M672 0h-176l-33 80h-254l-33 -80h-176l336 720zM32 704h128l-32 -160h-96v160zM336 392l-69 -168h138z" />
    <glyph glyph-name="Epsilontonos" unicode="&#x388;" horiz-adv-x="672" 
d="M128 544h-96v160h128zM624 704v-144h-240v-176h176v-144h-176v-96h240v-144h-400v704h400z" />
    <glyph glyph-name="Etatonos" unicode="&#x389;" horiz-adv-x="784" 
d="M128 544h-96v160h128zM560 384v320h160v-704h-160v240h-176v-240h-160v704h160v-320h176z" />
    <glyph glyph-name="Iotatonos" unicode="&#x38a;" horiz-adv-x="448" 
d="M128 544h-96v160h128zM384 704v-704h-160v704h160z" />
    <glyph glyph-name="Omicrontonos" unicode="&#x38c;" horiz-adv-x="912" 
d="M238 612q110 108 266 108t266 -108t110 -260t-110 -260t-266 -108t-266 108t-110 260t110 260zM128 544h-96v160h128zM352 194q63 -66 152 -66q88 0 153 66q63 64 63 158q0 93 -63 159q-65 65 -153 65q-89 0 -152 -65q-64 -65 -64 -159t64 -158z" />
    <glyph glyph-name="Upsilontonos" unicode="&#x38e;" horiz-adv-x="832" 
d="M128 544h-96v160h128zM512 432l136 272h184l-240 -432v-272h-160v272l-240 432h184z" />
    <glyph glyph-name="Omegatonos" unicode="&#x38f;" horiz-adv-x="880" 
d="M832 408q0 -128 -109 -264h109v-144h-296v112q81 103 109 161q27 59 27 127q0 78 -51 127q-50 49 -125 49t-125 -49q-51 -49 -51 -127q0 -70 28 -127q26 -56 108 -161v-112h-296v144h109q-109 136 -109 264t92 220t244 92t244 -92t92 -220zM128 544h-96v160h128z" />
    <glyph glyph-name="iotadieresistonos" unicode="&#x390;" horiz-adv-x="288" 
d="M184 544h-96v160h128zM27 565q-21 -21 -51 -21t-51 21t-21 51t21 51t51 21t51 -21t21 -51t-21 -51zM363 565q-21 -21 -51 -21t-51 21t-21 51t21 51t51 21t51 -21t21 -51t-21 -51zM224 0h-160v480h160v-480z" />
    <glyph glyph-name="Alpha" unicode="&#x391;" horiz-adv-x="672" 
d="M672 0h-176l-33 80h-254l-33 -80h-176l336 720zM336 392l-69 -168h138z" />
    <glyph glyph-name="Beta" unicode="&#x392;" horiz-adv-x="576" 
d="M407 369q56 -18 88.5 -63.5t32.5 -103.5q0 -91 -59 -146.5t-163 -55.5h-242v704h184q118 0 183 -50t65 -142q0 -46 -25.5 -85.5t-63.5 -57.5zM248 560h-24v-128h24q88 0 88 68q0 60 -88 60zM224 144h40q104 0 104 72q0 34 -27 53t-77 19h-40v-144z" />
    <glyph glyph-name="Gamma" unicode="&#x393;" horiz-adv-x="496" 
d="M224 0h-160v704h400v-144h-240v-560z" />
    <glyph glyph-name="uni0394" unicode="&#x394;" horiz-adv-x="672" 
d="M0 0l336 720l336 -720h-672zM336 392l-101 -248h202z" />
    <glyph glyph-name="Epsilon" unicode="&#x395;" horiz-adv-x="512" 
d="M464 704v-144h-240v-176h176v-144h-176v-96h240v-144h-400v704h400z" />
    <glyph glyph-name="Zeta" unicode="&#x396;" horiz-adv-x="560" 
d="M512 144v-144h-480l264 560h-248v144h480l-264 -560h248z" />
    <glyph glyph-name="Eta" unicode="&#x397;" horiz-adv-x="624" 
d="M400 384v320h160v-704h-160v240h-176v-240h-160v704h160v-320h176z" />
    <glyph glyph-name="Theta" unicode="&#x398;" horiz-adv-x="816" 
d="M142 612q110 108 266 108t266 -108t110 -260t-110 -260t-266 -108t-266 108t-110 260t110 260zM256 194q63 -66 152 -66q88 0 153 66q63 64 63 158q0 93 -63 159q-65 65 -153 65q-89 0 -152 -65q-64 -65 -64 -159t64 -158zM544 304h-272v96h272v-96z" />
    <glyph glyph-name="Iota" unicode="&#x399;" horiz-adv-x="288" 
d="M224 704v-704h-160v704h160z" />
    <glyph glyph-name="Kappa" unicode="&#x39a;" horiz-adv-x="608" 
d="M362 388l230 -388h-192l-135 244l-41 -60v-184h-160v704h160v-272l168 272h184z" />
    <glyph glyph-name="Lambda" unicode="&#x39b;" horiz-adv-x="672" 
d="M672 0h-176l-160 376l-160 -376h-176l336 720z" />
    <glyph glyph-name="Mu" unicode="&#x39c;" horiz-adv-x="768" 
d="M384 376l320 344v-720h-160v344l-160 -184l-160 184v-344h-160v720z" />
    <glyph glyph-name="Nu" unicode="&#x39d;" horiz-adv-x="656" 
d="M432 360v344h160v-720l-368 360v-344h-160v720z" />
    <glyph glyph-name="Xi" unicode="&#x39e;" horiz-adv-x="528" 
d="M480 560h-432v144h432v-144zM432 240h-336v144h336v-144zM480 0h-432v144h432v-144z" />
    <glyph glyph-name="Omicron" unicode="&#x39f;" horiz-adv-x="816" 
d="M142 612q110 108 266 108t266 -108t110 -260t-110 -260t-266 -108t-266 108t-110 260t110 260zM256 194q63 -66 152 -66q88 0 153 66q63 64 63 158q0 93 -63 159q-65 65 -153 65q-89 0 -152 -65q-64 -65 -64 -159t64 -158z" />
    <glyph glyph-name="Pi" unicode="&#x3a0;" horiz-adv-x="624" 
d="M64 704h496v-704h-160v560h-176v-560h-160v704z" />
    <glyph glyph-name="Rho" unicode="&#x3a1;" horiz-adv-x="560" 
d="M64 704h190q134 0 205 -71q69 -71 69 -177q0 -104 -69 -180q-70 -76 -189 -76h-46v-200h-160v704zM224 344h29q50 0 82.5 31t32.5 77q0 50 -31.5 79t-83.5 29h-29v-216z" />
    <glyph glyph-name="Sigma" unicode="&#x3a3;" horiz-adv-x="560" 
d="M496 560h-208l128 -208l-128 -208h208v-144h-464l218 352l-218 352h464v-144z" />
    <glyph glyph-name="Tau" unicode="&#x3a4;" horiz-adv-x="512" 
d="M32 560v144h448v-144h-144v-560h-160v560h-144z" />
    <glyph glyph-name="Upsilon" unicode="&#x3a5;" 
d="M320 432l136 272h184l-240 -432v-272h-160v272l-240 432h184z" />
    <glyph glyph-name="Phi" unicode="&#x3a6;" horiz-adv-x="800" 
d="M768 368q0 -86 -43 -156q-42 -68 -109 -107q-62 -36 -136 -41v-64h-160v64q-73 4 -137 42t-107 106q-44 71 -44 156q0 88 45 158q43 69 109 106q64 36 134 40v64h160v-64q72 -4 136 -41t108 -105q44 -71 44 -158zM320 208v320q-46 -5 -86 -46q-42 -44 -42 -114
q0 -71 41 -114q40 -41 87 -46zM480 528v-320q47 5 87 46q41 43 41 114q0 70 -41 114q-40 41 -87 46z" />
    <glyph glyph-name="Chi" unicode="&#x3a7;" horiz-adv-x="656" 
d="M434 362l206 -362h-184l-128 237l-128 -237h-184l206 362l-190 342h177l119 -218l119 218h177z" />
    <glyph glyph-name="Psi" unicode="&#x3a8;" horiz-adv-x="832" 
d="M608 448v256h160v-256q0 -134 -80 -216q-79 -82 -192 -88v-144h-160v144q-113 6 -192 88q-80 82 -80 216v256h160v-256q0 -74 32 -115t80 -45v416h160v-416q48 4 80 45t32 115z" />
    <glyph glyph-name="uni03A9" unicode="&#x3a9;" horiz-adv-x="768" 
d="M720 408q0 -128 -109 -264h109v-144h-296v112q81 103 109 161q27 59 27 127q0 78 -51 127q-50 49 -125 49t-125 -49q-51 -49 -51 -127q0 -70 28 -127q26 -56 108 -161v-112h-296v144h109q-109 136 -109 264t92 220t244 92t244 -92t92 -220z" />
    <glyph glyph-name="Iotadieresis" unicode="&#x3aa;" horiz-adv-x="288" 
d="M91 789q-21 -21 -51 -21t-51 21t-21 51t21 51t51 21t51 -21t21 -51t-21 -51zM299 789q-21 -21 -51 -21t-51 21t-21 51t21 51t51 21t51 -21t21 -51t-21 -51zM224 704v-704h-160v704h160z" />
    <glyph glyph-name="Upsilondieresis" unicode="&#x3ab;" 
d="M267 789q-21 -21 -51 -21t-51 21t-21 51t21 51t51 21t51 -21t21 -51t-21 -51zM475 789q-21 -21 -51 -21t-51 21t-21 51t21 51t51 21t51 -21t21 -51t-21 -51zM320 432l136 272h184l-240 -432v-272h-160v272l-240 432h184z" />
    <glyph glyph-name="alphatonos" unicode="&#x3ac;" 
d="M376 544h-96v160h128zM416 432v48h160v-480h-160v48q-54 -64 -143 -64q-102 0 -171 75q-70 73 -70 181t70 182q69 74 171 74q89 0 143 -64zM225 161q33 -33 79 -33t79 33t33 79t-33 79t-79 33t-79 -33t-33 -79t33 -79z" />
    <glyph glyph-name="epsilontonos" unicode="&#x3ad;" horiz-adv-x="480" 
d="M296 544h-96v160h128zM280 128q58 0 108 32l60 -115q-85 -61 -193 -61q-88 0 -147 44q-60 44 -60 122q0 32 22 60t55 38q-30 10 -49.5 37t-19.5 61q0 66 60 108q58 42 142 42q100 0 186 -62l-60 -114q-53 32 -110 32q-23 0 -40.5 -9.5t-17.5 -25.5q0 -37 104 -37v-80
q-112 0 -112 -36t72 -36z" />
    <glyph glyph-name="etatonos" unicode="&#x3ae;" horiz-adv-x="592" 
d="M336 544h-96v160h128zM352 496q82 0 137 -58t55 -166v-528h-160v512q0 96 -80 96q-33 0 -56.5 -29.5t-23.5 -82.5v-240h-160v480h160v-48q42 64 128 64z" />
    <glyph glyph-name="iotatonos" unicode="&#x3af;" horiz-adv-x="288" 
d="M184 544h-96v160h128zM224 0h-160v480h160v-480z" />
    <glyph glyph-name="upsilondieresistonos" unicode="&#x3b0;" horiz-adv-x="576" 
d="M328 544h-96v160h128zM171 565q-21 -21 -51 -21t-51 21t-21 51t21 51t51 21t51 -21t21 -51t-21 -51zM507 565q-21 -21 -51 -21t-51 21t-21 51t21 51t51 21t51 -21t21 -51t-21 -51zM368 230v250h160v-232q0 -123 -61.5 -193.5t-178.5 -70.5t-178.5 70.5t-61.5 193.5v232
h160v-250q-4 -64 38 -90.5t84 0t38 90.5z" />
    <glyph glyph-name="alpha" unicode="&#x3b1;" 
d="M416 432v48h160v-480h-160v48q-54 -64 -143 -64q-102 0 -171 75q-70 73 -70 181t70 182q69 74 171 74q89 0 143 -64zM225 161q33 -33 79 -33t79 33t33 79t-33 79t-79 33t-79 -33t-33 -79t33 -79z" />
    <glyph glyph-name="beta" unicode="&#x3b2;" horiz-adv-x="576" 
d="M416 392q55 -13 91.5 -61.5t36.5 -117.5q0 -95 -66 -162t-166 -67q-60 0 -104 32v-208h-160v704q4 172 125 220q46 20 92 20q109 0 171 -60q60 -60 60 -148q0 -52 -22.5 -92.5t-57.5 -59.5zM208 520v-352q31 -31 74 -33.5t73.5 23t28.5 66.5q0 50 -38.5 77t-105.5 27v96
q45 0 70.5 31t25.5 73q0 36 -17 58t-47 22t-47 -24t-17 -64z" />
    <glyph glyph-name="gamma" unicode="&#x3b3;" horiz-adv-x="544" 
d="M368 480h176l-192 -450v-286h-160v286l-192 450h176l96 -264z" />
    <glyph glyph-name="delta" unicode="&#x3b4;" horiz-adv-x="608" 
d="M576 240q0 -108 -78 -181q-80 -75 -194 -75q-118 0 -195 74t-77 182q0 96 65 166q65 68 153 74q-80 89 -218 224h496v-144h-163q24 -20 68 -62q19 -18 55 -57q31 -34 49 -63q39 -70 39 -138zM416 240q0 50 -32.5 81t-79.5 31q-48 0 -80 -30t-32 -82q0 -46 33 -79t79 -33
t79 33t33 79z" />
    <glyph glyph-name="epsilon" unicode="&#x3b5;" horiz-adv-x="480" 
d="M280 128q58 0 108 32l60 -115q-85 -61 -193 -61q-88 0 -147 44q-60 44 -60 122q0 32 22 60t55 38q-30 10 -49.5 37t-19.5 61q0 66 60 108q58 42 142 42q100 0 186 -62l-60 -114q-53 32 -110 32q-23 0 -40.5 -9.5t-17.5 -25.5q0 -37 104 -37v-80q-112 0 -112 -36t72 -36z
" />
    <glyph glyph-name="zeta" unicode="&#x3b6;" horiz-adv-x="512" 
d="M308 128q93 0 132.5 -36.5t39.5 -123.5v-64h-144v37q0 43 -36 43q-252 0 -252 224q0 84 51 181q50 96 119 171h-154v144h432q-288 -343 -288 -484q0 -48 24 -69.5t76 -22.5z" />
    <glyph glyph-name="eta" unicode="&#x3b7;" horiz-adv-x="592" 
d="M352 496q82 0 137 -58t55 -166v-528h-160v512q0 96 -80 96q-33 0 -56.5 -29.5t-23.5 -82.5v-240h-160v480h160v-48q42 64 128 64z" />
    <glyph glyph-name="theta" unicode="&#x3b8;" horiz-adv-x="592" 
d="M105 616q74 104 191 104t191 -104q73 -103 73 -264t-73 -264q-74 -104 -191 -104q-119 0 -191 104q-73 103 -73 264t73 264zM365 530q-27 46 -69 46q-43 0 -68 -46q-27 -46 -33 -130h202q-6 83 -32 130zM228 175q26 -47 68 -47t69 47q26 48 32 129h-202q6 -82 33 -129z
" />
    <glyph glyph-name="iota" unicode="&#x3b9;" horiz-adv-x="288" 
d="M224 0h-160v480h160v-480z" />
    <glyph glyph-name="kappa" unicode="&#x3ba;" horiz-adv-x="560" 
d="M362 267l198 -267h-192l-105 152l-39 -46v-106h-160v480h160v-164l128 164h192z" />
    <glyph glyph-name="lambda" unicode="&#x3bb;" horiz-adv-x="560" 
d="M272 704l272 -704h-168l-106 285l-102 -285h-168l192 480l-88 224h168z" />
    <glyph glyph-name="uni03BC" unicode="&#x3bc;" horiz-adv-x="624" 
d="M400 240v240h160v-480h-160v48q-8 -28 -32.5 -46t-55.5 -18t-55.5 18t-32.5 46v-304h-160v736h160v-240q0 -51 27 -81.5t61 -30.5t61 30.5t27 81.5z" />
    <glyph glyph-name="nu" unicode="&#x3bd;" horiz-adv-x="544" 
d="M272 -16l-272 496h176l96 -202l96 202h176z" />
    <glyph glyph-name="xi" unicode="&#x3be;" horiz-adv-x="544" 
d="M340 128q93 0 132.5 -36.5t39.5 -123.5v-64h-144v37q0 43 -36 43q-140 0 -212 63t-72 161q0 58 31 104.5t78 61.5q-40 18 -66.5 59.5t-26.5 86.5q0 90 65 146q65 54 159 54q132 0 224 -88l-66 -112q-64 56 -138 56q-35 0 -59.5 -19t-24.5 -51q0 -78 160 -78v-120
q-176 0 -176 -97q0 -40 36.5 -61.5t95.5 -21.5z" />
    <glyph glyph-name="omicron" unicode="&#x3bf;" horiz-adv-x="608" 
d="M304 512q119 0 195 -76q77 -77 77 -188q0 -112 -76 -188t-196 -76q-125 0 -198 76q-74 76 -74 188t74 189q74 75 198 75zM225 163q33 -35 79 -35t79 35t33 85t-33 85t-79 35t-79 -35t-33 -85t33 -85z" />
    <glyph glyph-name="pi" unicode="&#x3c0;" 
d="M608 480v-144h-64v-336h-160v336h-128v-336h-160v336h-64v144h576z" />
    <glyph glyph-name="rho" unicode="&#x3c1;" 
d="M336 496q113 0 193 -74q79 -75 79 -182q0 -106 -77 -181q-76 -75 -187 -75q-68 0 -120 33v-273h-160v496q0 110 76 183t196 73zM257 161q33 -33 79 -33t79 33t33 79t-33 79t-79 33t-79 -33t-33 -79t33 -79z" />
    <glyph glyph-name="uni03C2" unicode="&#x3c2;" horiz-adv-x="528" 
d="M105 57q-73 73 -73 183t73 183t195 73q107 0 180 -79l-82 -107q-36 42 -90 42q-49 0 -82.5 -32.5t-33.5 -79.5t33.5 -79.5t82.5 -32.5q93 0 132.5 -36.5t39.5 -123.5v-64h-144v37q0 43 -36 43q-122 0 -195 73z" />
    <glyph glyph-name="sigma" unicode="&#x3c3;" horiz-adv-x="656" 
d="M624 480v-144h-75q27 -40 27 -104q0 -103 -76 -175q-76 -73 -196 -73q-118 0 -195 74t-77 182q0 110 76 183t196 73q24 0 88 -8q82 -8 232 -8zM225 161q33 -33 79 -33t79 33t33 79t-33 79t-79 33t-79 -33t-33 -79t33 -79z" />
    <glyph glyph-name="tau" unicode="&#x3c4;" horiz-adv-x="480" 
d="M32 336v144h416v-144h-128v-336h-160v336h-128z" />
    <glyph glyph-name="upsilon" unicode="&#x3c5;" horiz-adv-x="576" 
d="M368 230v250h160v-232q0 -123 -61.5 -193.5t-178.5 -70.5t-178.5 70.5t-61.5 193.5v232h160v-250q-4 -64 38 -90.5t84 0t38 90.5z" />
    <glyph glyph-name="phi" unicode="&#x3c6;" horiz-adv-x="768" 
d="M32 240q0 96 63 157q60 60 153 83l24 -135q-80 -29 -80 -105q0 -47 30 -76t82 -36v363q48 5 80 5q200 0 300 -114q52 -59 52 -142q0 -108 -74 -176t-198 -80v-240h-160v240q-124 12 -198 80t-74 176zM464 352v-224q52 7 82 36t30 76t-30 76t-82 36z" />
    <glyph glyph-name="chi" unicode="&#x3c7;" horiz-adv-x="560" 
d="M380 252l164 -252h-180l-84 141l-84 -141h-180l164 252l-148 228h180l68 -118l68 118h180z" />
    <glyph glyph-name="psi" unicode="&#x3c8;" horiz-adv-x="768" 
d="M560 262v218h160v-214q0 -257 -256 -282v-240h-160v240q-256 25 -256 282v214h160v-218q0 -119 96 -134v352h160v-352q96 15 96 134z" />
    <glyph glyph-name="omega" unicode="&#x3c9;" horiz-adv-x="800" 
d="M551 448l144 32q57 -114 57 -236q0 -128 -57 -194t-159 -66q-92 0 -136 69q-20 -32 -59 -50.5t-85 -18.5q-97 0 -152.5 66t-55.5 194q0 122 57 236l144 -32q-41 -102 -41 -202q0 -118 56 -118t56 102v154h160v-154q0 -102 56 -102t56 118q0 100 -41 202z" />
    <glyph glyph-name="iotadieresis" unicode="&#x3ca;" horiz-adv-x="288" 
d="M91 565q-21 -21 -51 -21t-51 21t-21 51t21 51t51 21t51 -21t21 -51t-21 -51zM299 565q-21 -21 -51 -21t-51 21t-21 51t21 51t51 21t51 -21t21 -51t-21 -51zM224 0h-160v480h160v-480z" />
    <glyph glyph-name="upsilondieresis" unicode="&#x3cb;" horiz-adv-x="576" 
d="M235 565q-21 -21 -51 -21t-51 21t-21 51t21 51t51 21t51 -21t21 -51t-21 -51zM443 565q-21 -21 -51 -21t-51 21t-21 51t21 51t51 21t51 -21t21 -51t-21 -51zM368 230v250h160v-232q0 -123 -61.5 -193.5t-178.5 -70.5t-178.5 70.5t-61.5 193.5v232h160v-250
q-4 -64 38 -90.5t84 0t38 90.5z" />
    <glyph glyph-name="omicrontonos" unicode="&#x3cc;" horiz-adv-x="608" 
d="M344 544h-96v160h128zM304 496q113 0 193 -74q79 -75 79 -182q0 -108 -78 -181q-80 -75 -194 -75q-118 0 -195 74t-77 182q0 110 76 183t196 73zM225 161q33 -33 79 -33t79 33t33 79t-33 79t-79 33t-79 -33t-33 -79t33 -79z" />
    <glyph glyph-name="upsilontonos" unicode="&#x3cd;" horiz-adv-x="576" 
d="M328 544h-96v160h128zM368 230v250h160v-232q0 -123 -61.5 -193.5t-178.5 -70.5t-178.5 70.5t-61.5 193.5v232h160v-250q-4 -64 38 -90.5t84 0t38 90.5z" />
    <glyph glyph-name="omegatonos" unicode="&#x3ce;" horiz-adv-x="800" 
d="M440 544h-96v160h128zM551 448l144 32q57 -114 57 -236q0 -128 -57 -194t-159 -66q-92 0 -136 69q-20 -32 -59 -50.5t-85 -18.5q-97 0 -152.5 66t-55.5 194q0 122 57 236l144 -32q-41 -102 -41 -202q0 -118 56 -118t56 102v154h160v-154q0 -102 56 -102t56 118
q0 100 -41 202z" />
    <glyph glyph-name="uni0401" unicode="&#x401;" horiz-adv-x="512" 
d="M203 789q-21 -21 -51 -21t-51 21t-21 51t21 51t51 21t51 -21t21 -51t-21 -51zM411 789q-21 -21 -51 -21t-51 21t-21 51t21 51t51 21t51 -21t21 -51t-21 -51zM464 704v-144h-240v-176h176v-144h-176v-96h240v-144h-400v704h400z" />
    <glyph glyph-name="uni0402" unicode="&#x402;" horiz-adv-x="688" 
d="M440 448q93 0 146.5 -59t53.5 -161v-212q0 -277 -224 -288l-40 136q51 4 77.5 35.5t26.5 100.5v208q0 47 -24 71.5t-56 24.5q-42 0 -80 -20v-284h-160v560h-128v144h416v-144h-128v-148q56 36 120 36z" />
    <glyph glyph-name="uni0403" unicode="&#x403;" horiz-adv-x="496" 
d="M272 768h-96l64 160h128zM224 0h-160v704h400v-144h-240v-560z" />
    <glyph glyph-name="uni0404" unicode="&#x404;" horiz-adv-x="656" 
d="M418 128q81 0 142 52l80 -122q-43 -35 -104 -54.5t-119 -19.5q-159 0 -272 108t-113 260t113 260t272 108q58 0 119 -19.5t104 -54.5l-80 -122q-61 52 -142 52q-76 0 -136 -45t-81 -115h215v-128h-215q21 -70 81 -115t136 -45z" />
    <glyph glyph-name="uni0405" unicode="&#x405;" horiz-adv-x="560" 
d="M296 463q40 -16 52 -20q8 -2 46 -20q33 -16 45 -25q4 -3 35 -30q28 -26 39 -60t15 -90q0 -96 -69 -165q-71 -69 -179 -69q-100 0 -171 54q-57 43 -77 74l89 112q73 -96 159 -96q38 0 63 24.5t25 55.5q0 35 -18.5 56t-61.5 37q-116 43 -165 93q-51 50 -51 132q0 87 65 141
q65 53 161 53q110 0 196 -78l-86 -118q-49 52 -112 52q-27 0 -45.5 -14t-18.5 -33q0 -42 64 -66z" />
    <glyph glyph-name="uni0406" unicode="&#x406;" horiz-adv-x="288" 
d="M224 704v-704h-160v704h160z" />
    <glyph glyph-name="uni0407" unicode="&#x407;" horiz-adv-x="288" 
d="M91 789q-21 -21 -51 -21t-51 21t-21 51t21 51t51 21t51 -21t21 -51t-21 -51zM299 789q-21 -21 -51 -21t-51 21t-21 51t21 51t51 21t51 -21t21 -51t-21 -51zM224 704v-704h-160v704h160z" />
    <glyph glyph-name="uni0408" unicode="&#x408;" horiz-adv-x="464" 
d="M256 242v462h160v-456q0 -132 -64 -198t-185 -66q-38 0 -75.5 12.5t-59.5 31.5l80 120q23 -20 50 -20q94 0 94 114z" />
    <glyph glyph-name="uni0409" unicode="&#x409;" horiz-adv-x="1008" 
d="M672 384h48q125 0 190.5 -48t65.5 -140q0 -97 -65 -146.5t-191 -49.5h-208v560h-128l-48 -348q-15 -110 -67.5 -169t-131.5 -59q-62 0 -121 32l48 136q45 -23 78 -6t40 64l74 494h416v-320zM672 144h55q46 0 67.5 10.5t21.5 37.5q0 28 -20.5 38t-68.5 10h-55v-96z" />
    <glyph glyph-name="uni040A" unicode="&#x40a;" horiz-adv-x="896" 
d="M560 384h48q125 0 190.5 -48t65.5 -140q0 -97 -65 -146.5t-191 -49.5h-208v240h-176v-240h-160v704h160v-320h176v320h160v-320zM560 144h55q46 0 67.5 10.5t21.5 37.5q0 28 -20.5 38t-68.5 10h-55v-96z" />
    <glyph glyph-name="uni040B" unicode="&#x40b;" horiz-adv-x="688" 
d="M440 448q93 0 146.5 -59t53.5 -161v-228h-160v208q0 47 -24 71.5t-56 24.5q-42 0 -80 -20v-284h-160v560h-128v144h416v-144h-128v-148q56 36 120 36z" />
    <glyph glyph-name="uni040C" unicode="&#x40c;" horiz-adv-x="608" 
d="M304 768h-96l64 160h128zM362 388l230 -388h-192l-135 244l-41 -60v-184h-160v704h160v-272l168 272h184z" />
    <glyph glyph-name="uni040E" unicode="&#x40e;" 
d="M392 912h80q0 -60 -42 -102t-102 -42t-102 42t-42 102h80q0 -26 19 -45t45 -19t45 19t19 45zM328 416l132 288h180l-344 -704h-180l126 245l-226 459h180z" />
    <glyph glyph-name="uni040F" unicode="&#x40f;" horiz-adv-x="624" 
d="M400 144v560h160v-704h-168v-112h-160v112h-168v704h160v-560h176z" />
    <glyph glyph-name="uni0410" unicode="&#x410;" horiz-adv-x="672" 
d="M672 0h-176l-33 80h-254l-33 -80h-176l336 720zM336 392l-69 -168h138z" />
    <glyph glyph-name="uni0411" unicode="&#x411;" horiz-adv-x="560" 
d="M224 480h48q122 0 189 -67t67 -169q0 -108 -68 -176q-70 -68 -196 -68h-200v704h384v-144h-224v-80zM224 144h39q46 0 75.5 25t29.5 71q0 43 -30.5 69.5t-74.5 26.5h-39v-192z" />
    <glyph glyph-name="uni0412" unicode="&#x412;" horiz-adv-x="576" 
d="M407 369q56 -18 88.5 -63.5t32.5 -103.5q0 -91 -59 -146.5t-163 -55.5h-242v704h184q118 0 183 -50t65 -142q0 -46 -25.5 -85.5t-63.5 -57.5zM248 560h-24v-128h24q88 0 88 68q0 60 -88 60zM224 144h40q104 0 104 72q0 34 -27 53t-77 19h-40v-144z" />
    <glyph glyph-name="uni0413" unicode="&#x413;" horiz-adv-x="496" 
d="M224 0h-160v704h400v-144h-240v-560z" />
    <glyph glyph-name="uni0414" unicode="&#x414;" horiz-adv-x="768" 
d="M640 704v-560h96v-256h-160v112h-384v-112h-160v256h82l110 560h416zM352 560l-75 -416h203v416h-128z" />
    <glyph glyph-name="uni0415" unicode="&#x415;" horiz-adv-x="512" 
d="M464 704v-144h-240v-176h176v-144h-176v-96h240v-144h-400v704h400z" />
    <glyph glyph-name="uni0416" unicode="&#x416;" horiz-adv-x="928" 
d="M682 388l230 -388h-184l-141 248l-43 -64v-184h-160v184l-43 64l-141 -248h-184l230 388l-214 316h184l168 -272v272h160v-272l168 272h184z" />
    <glyph glyph-name="uni0417" unicode="&#x417;" horiz-adv-x="544" 
d="M176 308v120q160 0 160 78q0 32 -24.5 51t-59.5 19q-76 0 -140 -56l-66 112q92 88 226 88q94 0 159 -54q65 -56 65 -146q0 -45 -26.5 -86.5t-66.5 -59.5q47 -15 78 -61.5t31 -104.5q0 -95 -70 -159q-71 -65 -185 -65q-133 0 -225 92l72 114q59 -62 148 -62q41 0 70.5 22
t29.5 61q0 97 -176 97z" />
    <glyph glyph-name="uni0418" unicode="&#x418;" horiz-adv-x="656" 
d="M64 704h160v-394l240 394h128v-704h-160v394l-240 -394h-128v704z" />
    <glyph glyph-name="uni0419" unicode="&#x419;" horiz-adv-x="656" 
d="M392 912h80q0 -60 -42 -102t-102 -42t-102 42t-42 102h80q0 -26 19 -45t45 -19t45 19t19 45zM64 704h160v-392l240 392h128v-704h-160v392l-240 -392h-128v704z" />
    <glyph glyph-name="uni041A" unicode="&#x41a;" horiz-adv-x="608" 
d="M362 388l230 -388h-192l-135 244l-41 -60v-184h-160v704h160v-272l168 272h184z" />
    <glyph glyph-name="uni041B" unicode="&#x41b;" horiz-adv-x="736" 
d="M256 704h416v-704h-160v560h-128l-48 -348q-15 -110 -67.5 -169t-131.5 -59q-62 0 -121 32l48 136q45 -23 78 -6t40 64z" />
    <glyph glyph-name="uni041C" unicode="&#x41c;" horiz-adv-x="768" 
d="M384 376l320 344v-720h-160v344l-160 -184l-160 184v-344h-160v720z" />
    <glyph glyph-name="uni041D" unicode="&#x41d;" horiz-adv-x="624" 
d="M400 384v320h160v-704h-160v240h-176v-240h-160v704h160v-320h176z" />
    <glyph glyph-name="uni041E" unicode="&#x41e;" horiz-adv-x="816" 
d="M142 612q110 108 266 108t266 -108t110 -260t-110 -260t-266 -108t-266 108t-110 260t110 260zM256 194q63 -66 152 -66q88 0 153 66q63 64 63 158q0 93 -63 159q-65 65 -153 65q-89 0 -152 -65q-64 -65 -64 -159t64 -158z" />
    <glyph glyph-name="uni041F" unicode="&#x41f;" horiz-adv-x="624" 
d="M64 704h496v-704h-160v560h-176v-560h-160v704z" />
    <glyph glyph-name="uni0420" unicode="&#x420;" horiz-adv-x="560" 
d="M64 704h190q134 0 205 -71q69 -71 69 -177q0 -104 -69 -180q-70 -76 -189 -76h-46v-200h-160v704zM224 344h29q50 0 82.5 31t32.5 77q0 50 -31.5 79t-83.5 29h-29v-216z" />
    <glyph glyph-name="uni0421" unicode="&#x421;" horiz-adv-x="656" 
d="M418 128q81 0 142 52l80 -122q-43 -35 -104 -54.5t-119 -19.5q-159 0 -272 108t-113 260t113 260t272 108q58 0 119 -19.5t104 -54.5l-80 -122q-61 52 -142 52q-92 0 -159 -65q-67 -66 -67 -159q0 -94 67 -158q66 -66 159 -66z" />
    <glyph glyph-name="uni0422" unicode="&#x422;" horiz-adv-x="512" 
d="M32 560v144h448v-144h-144v-560h-160v560h-144z" />
    <glyph glyph-name="uni0423" unicode="&#x423;" 
d="M328 416l132 288h180l-344 -704h-180l126 245l-226 459h180z" />
    <glyph glyph-name="uni0424" unicode="&#x424;" horiz-adv-x="800" 
d="M768 368q0 -86 -43 -156q-42 -68 -109 -107q-62 -36 -136 -41v-64h-160v64q-73 4 -137 42t-107 106q-44 71 -44 156q0 88 45 158q43 69 109 106q64 36 134 40v64h160v-64q72 -4 136 -41t108 -105q44 -71 44 -158zM320 208v320q-46 -5 -86 -46q-42 -44 -42 -114
q0 -71 41 -114q40 -41 87 -46zM480 528v-320q47 5 87 46q41 43 41 114q0 70 -41 114q-40 41 -87 46z" />
    <glyph glyph-name="uni0425" unicode="&#x425;" horiz-adv-x="656" 
d="M434 362l206 -362h-184l-128 237l-128 -237h-184l206 362l-190 342h177l119 -218l119 218h177z" />
    <glyph glyph-name="uni0426" unicode="&#x426;" horiz-adv-x="704" 
d="M560 704v-560h96v-256h-160v112h-432v704h160v-560h176v560h160z" />
    <glyph glyph-name="uni0427" unicode="&#x427;" horiz-adv-x="624" 
d="M264 208q-94 0 -155 63q-61 62 -61 177v256h160v-240q0 -60 22 -86t74 -26q44 0 96 24v328h160v-704h-160v236q-69 -28 -136 -28z" />
    <glyph glyph-name="uni0428" unicode="&#x428;" horiz-adv-x="896" 
d="M672 144v560h160v-704h-768v704h160v-560h144v560h160v-560h144z" />
    <glyph glyph-name="uni0429" unicode="&#x429;" horiz-adv-x="976" 
d="M832 704v-560h96v-256h-160v112h-704v704h160v-560h144v560h160v-560h144v560h160z" />
    <glyph glyph-name="uni042A" unicode="&#x42a;" horiz-adv-x="624" 
d="M288 480h48q122 0 189 -67t67 -169q0 -108 -68 -176q-70 -68 -196 -68h-200v560h-96v144h256v-224zM288 144h39q46 0 75.5 25t29.5 71q0 43 -30.5 69.5t-74.5 26.5h-39v-192z" />
    <glyph glyph-name="uni042B" unicode="&#x42b;" horiz-adv-x="848" 
d="M224 480h48q122 0 189 -67t67 -169q0 -108 -68 -176q-70 -68 -196 -68h-200v704h160v-224zM784 704v-704h-160v704h160zM224 144h39q46 0 75.5 25t29.5 71q0 43 -30.5 69.5t-74.5 26.5h-39v-192z" />
    <glyph glyph-name="uni042C" unicode="&#x42c;" horiz-adv-x="560" 
d="M224 480h48q122 0 189 -67t67 -169q0 -108 -68 -176q-70 -68 -196 -68h-200v704h160v-224zM224 144h39q46 0 75.5 25t29.5 71q0 43 -30.5 69.5t-74.5 26.5h-39v-192z" />
    <glyph glyph-name="uni042D" unicode="&#x42d;" horiz-adv-x="672" 
d="M254 128q76 0 136 45t81 115h-215v128h215q-21 70 -81 115t-136 45q-81 0 -142 -52l-80 122q43 35 104 54.5t119 19.5q159 0 272 -108t113 -260t-113 -260t-272 -108q-58 0 -119 19.5t-104 54.5l80 122q61 -52 142 -52z" />
    <glyph glyph-name="uni042E" unicode="&#x42e;" horiz-adv-x="1104" 
d="M696 720q156 0 266 -108t110 -260t-110 -260t-266 -108q-136 0 -239 84q-105 85 -130 212h-103v-280h-160v704h160v-280h103q25 127 130 212q103 84 239 84zM544 194q63 -66 152 -66q88 0 153 66q63 64 63 158q0 93 -63 159q-65 65 -153 65q-89 0 -152 -65
q-64 -65 -64 -159t64 -158z" />
    <glyph glyph-name="uni042F" unicode="&#x42f;" horiz-adv-x="576" 
d="M322 704h190v-704h-160v200h-46l-98 -200h-176l129 240q-53 33 -83 91t-30 125q0 107 70 177q69 71 204 71zM323 344h29v216h-29q-52 0 -83.5 -29t-31.5 -79q0 -46 32.5 -77t82.5 -31z" />
    <glyph glyph-name="uni0430" unicode="&#x430;" horiz-adv-x="544" 
d="M496 250v-250h-160v40q-50 -56 -130 -56q-81 0 -127 49q-47 49 -47 118q0 63 47 104t114 48q69 6 141 -13q-2 34 -24.5 54t-61.5 20q-59 0 -112 -31l-48 115q74 48 184 48q96 0 161 -60q63 -60 63 -186zM336 190q-54 19 -100 8q-44 -11 -44 -50q0 -23 16.5 -37.5
t40.5 -14.5q32 0 57 25.5t30 68.5z" />
    <glyph glyph-name="uni0431" unicode="&#x431;" horiz-adv-x="608" 
d="M312 496q108 0 186 -75t78 -181q0 -108 -78 -181q-80 -75 -194 -75q-118 0 -195 74t-77 182q0 101 37 172q38 74 121 152q50 47 70 73t36 67h168q-9 -80 -139 -173q-49 -38 -51 -40q15 5 38 5zM225 161q33 -33 79 -33t79 33t33 79t-33 79t-79 33t-79 -33t-33 -79t33 -79z
" />
    <glyph glyph-name="uni0432" unicode="&#x432;" horiz-adv-x="560" 
d="M432 253q34 -9 57 -39t23 -66q0 -82 -54.5 -115t-177.5 -33h-216v480h200q232 0 232 -132q0 -32 -18.5 -59t-45.5 -36zM288 352h-64v-64h64q48 0 48 32t-48 32zM224 128h79q49 0 49 36t-49 36h-79v-72z" />
    <glyph glyph-name="uni0433" unicode="&#x433;" horiz-adv-x="432" 
d="M400 336h-176v-336h-160v480h336v-144z" />
    <glyph glyph-name="uni0434" unicode="&#x434;" horiz-adv-x="656" 
d="M544 480v-336h80v-256h-160v112h-272v-112h-160v256h68l76 336h368zM296 336l-39 -192h127v192h-88z" />
    <glyph glyph-name="uni0435" unicode="&#x435;" horiz-adv-x="544" 
d="M294 124q71 0 120 46l82 -107q-82 -79 -196 -79q-122 0 -195 73t-73 183t73 183t195 73q30 0 60.5 -8t64.5 -27.5t62 -60t41 -96.5l-284 -170q16 -10 50 -10zM300 356q-54 0 -87.5 -35.5t-26.5 -89.5l166 99q-17 26 -52 26z" />
    <glyph glyph-name="uni0436" unicode="&#x436;" horiz-adv-x="864" 
d="M648 269l200 -269h-192l-108 156l-36 -42v-114h-160v114l-36 42l-108 -156h-192l200 269l-184 211h192l128 -156v156h160v-156l128 156h192z" />
    <glyph glyph-name="uni0437" unicode="&#x437;" horiz-adv-x="480" 
d="M200 128q72 0 72 36t-112 36v80q104 0 104 37q0 16 -17.5 25.5t-40.5 9.5q-57 0 -110 -32l-60 114q86 62 186 62q83 0 143 -42q59 -42 59 -108q0 -34 -19.5 -61t-49.5 -37q33 -10 55 -38t22 -60q0 -78 -59 -122q-61 -44 -148 -44q-108 0 -193 61l60 115q50 -32 108 -32z
" />
    <glyph glyph-name="uni0438" unicode="&#x438;" horiz-adv-x="608" 
d="M64 480h160v-236l192 236h128v-480h-160v236l-192 -236h-128v480z" />
    <glyph glyph-name="uni0439" unicode="&#x439;" horiz-adv-x="608" 
d="M368 688h80q0 -60 -42 -102t-102 -42t-102 42t-42 102h80q0 -26 19 -45t45 -19t45 19t19 45zM64 480h160v-236l192 236h128v-480h-160v236l-192 -236h-128v480z" />
    <glyph glyph-name="uni043A" unicode="&#x43a;" horiz-adv-x="560" 
d="M362 267l198 -267h-192l-105 152l-39 -46v-106h-160v480h160v-164l128 164h192z" />
    <glyph glyph-name="uni043B" unicode="&#x43b;" 
d="M144 192l42 288h390v-480h-160v336h-98l-22 -147q-30 -205 -186 -205q-70 0 -110 32l56 128q27 -21 54.5 -7.5t33.5 55.5z" />
    <glyph glyph-name="uni043C" unicode="&#x43c;" horiz-adv-x="688" 
d="M64 496l280 -277l280 277v-496h-160v168l-120 -120l-120 120v-168h-160v496z" />
    <glyph glyph-name="uni043D" unicode="&#x43d;" horiz-adv-x="592" 
d="M368 312v168h160v-480h-160v168h-144v-168h-160v480h160v-168h144z" />
    <glyph glyph-name="uni043E" unicode="&#x43e;" horiz-adv-x="608" 
d="M304 496q113 0 193 -74q79 -75 79 -182q0 -108 -78 -181q-80 -75 -194 -75q-118 0 -195 74t-77 182q0 110 76 183t196 73zM225 161q33 -33 79 -33t79 33t33 79t-33 79t-79 33t-79 -33t-33 -79t33 -79z" />
    <glyph glyph-name="uni043F" unicode="&#x43f;" horiz-adv-x="592" 
d="M64 480h464v-480h-160v336h-144v-336h-160v480z" />
    <glyph glyph-name="uni0440" unicode="&#x440;" 
d="M64 480h160v-48q54 64 143 64q101 0 172 -74q69 -75 69 -182q0 -108 -69 -181q-71 -75 -172 -75q-89 0 -143 64v-304h-160v736zM257 161q33 -33 79 -33t79 33t33 79t-33 79t-79 33t-79 -33t-33 -79t33 -79z" />
    <glyph glyph-name="uni0441" unicode="&#x441;" horiz-adv-x="512" 
d="M308 128q54 0 90 42l82 -107q-73 -79 -180 -79q-122 0 -195 73t-73 183t73 183t195 73q107 0 180 -79l-82 -107q-36 42 -90 42q-49 0 -82.5 -32.5t-33.5 -79.5t33.5 -79.5t82.5 -32.5z" />
    <glyph glyph-name="uni0442" unicode="&#x442;" horiz-adv-x="480" 
d="M32 336v144h416v-144h-128v-336h-160v336h-128z" />
    <glyph glyph-name="uni0443" unicode="&#x443;" horiz-adv-x="544" 
d="M272 214l96 266h176l-304 -736h-176l129 286l-193 450h176z" />
    <glyph glyph-name="uni0444" unicode="&#x444;" horiz-adv-x="800" 
d="M480 704v-208q128 -9 208 -73q80 -65 80 -183q0 -117 -80 -182q-82 -65 -208 -74v-240h-160v240q-127 9 -207 74q-81 64 -81 182t81 183q79 64 207 73v208h160zM320 124v232q-61 -4 -94.5 -34.5t-33.5 -81.5t33.5 -81.5t94.5 -34.5zM480 356v-232q61 4 94.5 34.5
t33.5 81.5t-33.5 81.5t-94.5 34.5z" />
    <glyph glyph-name="uni0445" unicode="&#x445;" horiz-adv-x="560" 
d="M380 252l164 -252h-180l-84 141l-84 -141h-180l164 252l-148 228h180l68 -118l68 118h180z" />
    <glyph glyph-name="uni0446" unicode="&#x446;" horiz-adv-x="672" 
d="M528 480v-336h96v-256h-160v112h-400v480h160v-336h144v336h160z" />
    <glyph glyph-name="uni0447" unicode="&#x447;" horiz-adv-x="576" 
d="M232 136q-84 0 -134 54t-50 154v136h160v-118q0 -43 15.5 -62.5t52.5 -19.5q40 0 76 15v185h160v-480h-160v164q-55 -28 -120 -28z" />
    <glyph glyph-name="uni0448" unicode="&#x448;" horiz-adv-x="832" 
d="M608 144v336h160v-480h-704v480h160v-336h112v336h160v-336h112z" />
    <glyph glyph-name="uni0449" unicode="&#x449;" horiz-adv-x="912" 
d="M768 480v-336h96v-256h-160v112h-640v480h160v-336h112v336h160v-336h112v336h160z" />
    <glyph glyph-name="uni044A" unicode="&#x44a;" 
d="M320 336h56q232 0 232 -164q0 -85 -60 -128.5t-172 -43.5h-216v336h-128v144h288v-144zM320 128h69q25 0 42 11t17 29q0 19 -16.5 29.5t-42.5 10.5h-69v-80z" />
    <glyph glyph-name="uni044B" unicode="&#x44b;" horiz-adv-x="832" 
d="M280 0h-216v480h160v-144h56q232 0 232 -164q0 -85 -60 -128.5t-172 -43.5zM768 0h-160v480h160v-480zM224 128h69q25 0 42 11t17 29q0 19 -16.5 29.5t-42.5 10.5h-69v-80z" />
    <glyph glyph-name="uni044C" unicode="&#x44c;" horiz-adv-x="544" 
d="M280 0h-216v480h160v-144h56q232 0 232 -164q0 -85 -60 -128.5t-172 -43.5zM224 128h69q25 0 42 11t17 29q0 19 -16.5 29.5t-42.5 10.5h-69v-80z" />
    <glyph glyph-name="uni044D" unicode="&#x44d;" horiz-adv-x="512" 
d="M212 496q122 0 195 -73t73 -183t-73 -183t-195 -73q-107 0 -180 79l82 107q36 -42 90 -42q40 0 70.5 22.5t40.5 57.5h-139v64h139q-10 35 -40.5 57.5t-70.5 22.5q-54 0 -90 -42l-82 107q73 79 180 79z" />
    <glyph glyph-name="uni044E" unicode="&#x44e;" horiz-adv-x="880" 
d="M576 496q113 0 193 -74q79 -75 79 -182q0 -108 -78 -181q-80 -75 -194 -75q-97 0 -167.5 50.5t-94.5 133.5h-90v-168h-160v480h160v-168h90q22 81 94 133q70 51 168 51zM497 161q33 -33 79 -33t79 33t33 79t-33 79t-79 33t-79 -33t-33 -79t33 -79z" />
    <glyph glyph-name="uni044F" unicode="&#x44f;" horiz-adv-x="544" 
d="M288 480h192v-480h-160v128l-96 -128h-176l120 147q-59 14 -89.5 55.5t-30.5 101.5q0 86 62 131t178 45zM320 352h-57q-23 0 -39 -13t-16 -35t16 -35t39 -13h57v96z" />
    <glyph glyph-name="uni0451" unicode="&#x451;" horiz-adv-x="544" 
d="M227 565q-21 -21 -51 -21t-51 21t-21 51t21 51t51 21t51 -21t21 -51t-21 -51zM435 565q-21 -21 -51 -21t-51 21t-21 51t21 51t51 21t51 -21t21 -51t-21 -51zM294 124q71 0 120 46l82 -107q-82 -79 -196 -79q-122 0 -195 73t-73 183t73 183t195 73q30 0 60.5 -8
t64.5 -27.5t62 -60t41 -96.5l-284 -170q16 -10 50 -10zM300 356q-54 0 -87.5 -35.5t-26.5 -89.5l166 99q-17 26 -52 26z" />
    <glyph glyph-name="uni0452" unicode="&#x452;" horiz-adv-x="592" 
d="M352 496q82 0 137 -58t55 -166v-272q-5 -163 -74 -220q-63 -52 -166 -52l-32 144q51 1 81.5 33t30.5 95v256q0 96 -80 96q-33 0 -56.5 -29.5t-23.5 -82.5v-240h-160v560h-48v80h48v96h160v-96h96v-80h-96v-128q42 64 128 64z" />
    <glyph glyph-name="uni0453" unicode="&#x453;" horiz-adv-x="432" 
d="M232 544h-96l64 160h128zM400 336h-176v-336h-160v480h336v-144z" />
    <glyph glyph-name="uni0454" unicode="&#x454;" horiz-adv-x="512" 
d="M308 128q54 0 90 42l82 -107q-73 -79 -180 -79q-122 0 -195 73t-73 183t73 183t195 73q107 0 180 -79l-82 -107q-36 42 -90 42q-40 0 -70.5 -22.5t-40.5 -57.5h139v-64h-139q10 -35 40.5 -57.5t70.5 -22.5z" />
    <glyph glyph-name="uni0455" unicode="&#x455;" horiz-adv-x="496" 
d="M266 317q198 -33 198 -165q0 -75 -58.5 -121.5t-163.5 -46.5q-67 0 -123.5 22t-86.5 52l64 120q62 -50 123 -56q85 -9 85 23q0 15 -14 21t-48 12q-2 0 -5.5 1t-5.5 1q-113 23 -147 72q-28 41 -28 88q0 64 54 111q52 45 149 45q34 0 89 -15q47 -15 77 -35l-61 -119
q-40 31 -94 36t-54 -18q0 -12 10 -17.5t40 -10.5z" />
    <glyph glyph-name="uni0456" unicode="&#x456;" horiz-adv-x="288" 
d="M212 572q-28 -28 -68 -28t-68 28t-28 68t28 68t68 28t68 -28t28 -68t-28 -68zM224 0h-160v480h160v-480z" />
    <glyph glyph-name="uni0457" unicode="&#x457;" horiz-adv-x="288" 
d="M91 565q-21 -21 -51 -21t-51 21t-21 51t21 51t51 21t51 -21t21 -51t-21 -51zM299 565q-21 -21 -51 -21t-51 21t-21 51t21 51t51 21t51 -21t21 -51t-21 -51zM224 0h-160v480h160v-480z" />
    <glyph glyph-name="uni0458" unicode="&#x458;" horiz-adv-x="288" 
d="M212 572q-28 -28 -68 -28t-68 28t-28 68t28 68t68 28t68 -28t28 -68t-28 -68zM224 -224l-160 -48v752h160v-704z" />
    <glyph glyph-name="uni0459" unicode="&#x459;" horiz-adv-x="864" 
d="M576 320h24q116 0 174 -37t58 -119q0 -164 -232 -164h-184v336h-98l-22 -147q-30 -205 -186 -205q-70 0 -110 32l56 128q27 -21 54.5 -7.5t33.5 55.5l42 288h390v-160zM576 128h37q59 0 59 32t-59 32h-37v-64z" />
    <glyph glyph-name="uni045A" unicode="&#x45a;" horiz-adv-x="816" 
d="M528 320h24q116 0 174 -37t58 -119q0 -164 -232 -164h-184v192h-144v-192h-160v480h160v-160h144v160h160v-160zM528 128h37q59 0 59 32t-59 32h-37v-64z" />
    <glyph glyph-name="uni045B" unicode="&#x45b;" horiz-adv-x="592" 
d="M352 496q82 0 137 -58t55 -166v-272h-160v256q0 96 -80 96q-33 0 -56.5 -29.5t-23.5 -82.5v-240h-160v560h-48v80h48v96h160v-96h96v-80h-96v-128q42 64 128 64z" />
    <glyph glyph-name="uni045C" unicode="&#x45c;" horiz-adv-x="560" 
d="M280 544h-96l64 160h128zM362 267l198 -267h-192l-105 152l-39 -46v-106h-160v480h160v-164l128 164h192z" />
    <glyph glyph-name="uni045E" unicode="&#x45e;" horiz-adv-x="544" 
d="M336 688h80q0 -60 -42 -102t-102 -42t-102 42t-42 102h80q0 -26 19 -45t45 -19t45 19t19 45zM272 214l96 266h176l-304 -736h-176l129 286l-193 450h176z" />
    <glyph glyph-name="uni045F" unicode="&#x45f;" horiz-adv-x="592" 
d="M368 144v336h160v-480h-152v-112h-160v112h-152v480h160v-336h144z" />
    <glyph glyph-name="uni0462" unicode="&#x462;" horiz-adv-x="592" 
d="M256 480h48q122 0 189 -67t67 -169q0 -108 -68 -176q-70 -68 -196 -68h-200v528h-80v112h80v64h160v-64h128v-112h-128v-48zM256 144h39q46 0 75.5 25t29.5 71q0 43 -30.5 69.5t-74.5 26.5h-39v-192z" />
    <glyph glyph-name="uni0463" unicode="&#x463;" horiz-adv-x="544" 
d="M224 336h56q232 0 232 -164q0 -85 -60 -128.5t-172 -43.5h-216v384h-48v80h48v48h160v-48h96v-80h-96v-48zM224 128h69q25 0 42 11t17 29q0 19 -16.5 29.5t-42.5 10.5h-69v-80z" />
    <glyph glyph-name="uni0472" unicode="&#x472;" horiz-adv-x="816" 
d="M142 612q110 108 266 108t266 -108t110 -260t-110 -260t-266 -108t-266 108t-110 260t110 260zM408 576q-72 0 -127 -43q-57 -43 -78 -112q88 36 209 -17q134 -60 210 -20q-10 81 -72 137q-61 55 -142 55zM408 128q70 0 126.5 42.5t78.5 110.5q-87 -32 -200 20
q-141 65 -218 15q12 -82 73 -134q60 -54 140 -54z" />
    <glyph glyph-name="uni0473" unicode="&#x473;" horiz-adv-x="608" 
d="M304 496q113 0 193 -74q79 -75 79 -182q0 -108 -78 -181q-80 -75 -194 -75q-118 0 -195 74t-77 182q0 110 76 183t196 73zM304 352q-35 0 -63.5 -19.5t-40.5 -50.5q49 15 98 -7q44 -20 67 -22t47 15q-9 36 -39 60t-69 24zM304 128q35 0 63 19t41 50q-45 -14 -98 9
q-82 38 -114 6q9 -36 39 -60t69 -24z" />
    <glyph glyph-name="uni0474" unicode="&#x474;" horiz-adv-x="720" 
d="M573 713q33 12 81.5 5t81.5 -28l-55 -132q-18 19 -45.5 14t-39.5 -31l-260 -557l-336 720h176l160 -376l96 225q58 137 141 160z" />
    <glyph glyph-name="uni0475" unicode="&#x475;" horiz-adv-x="576" 
d="M482 496q57 0 94 -32l-48 -120q-44 24 -69 -24l-187 -336l-272 496h176l96 -202l36 72q39 78 77 112t97 34z" />
    <glyph glyph-name="uni0490" unicode="&#x490;" horiz-adv-x="496" 
d="M336 704v96h128v-240h-240v-560h-160v704h272z" />
    <glyph glyph-name="uni0491" unicode="&#x491;" horiz-adv-x="432" 
d="M272 480v96h128v-240h-176v-336h-160v480h208z" />
    <glyph glyph-name="uni0492" unicode="&#x492;" horiz-adv-x="512" 
d="M480 704v-144h-240v-208h64v-80h-64v-272h-160v272h-64v80h64v352h400z" />
    <glyph glyph-name="uni0493" unicode="&#x493;" horiz-adv-x="432" 
d="M400 480v-144h-176v-96h96v-80h-96v-160h-160v160h-48v80h48v240h336z" />
    <glyph glyph-name="uni0496" unicode="&#x496;" horiz-adv-x="928" 
d="M682 388l145 -244h85v-240h-128v96h-56l-141 248l-43 -64v-184h-160v184l-43 64l-141 -248h-184l230 388l-214 316h184l168 -272v272h160v-272l168 272h184z" />
    <glyph glyph-name="uni0497" unicode="&#x497;" horiz-adv-x="864" 
d="M648 269l93 -125h107v-240h-128v96h-64l-108 156l-36 -42v-114h-160v114l-36 42l-108 -156h-192l200 269l-184 211h192l128 -156v156h160v-156l128 156h192z" />
    <glyph glyph-name="uni049A" unicode="&#x49a;" horiz-adv-x="608" 
d="M362 388l145 -244h85v-240h-128v96h-64l-135 244l-41 -60v-184h-160v704h160v-272l168 272h184z" />
    <glyph glyph-name="uni049B" unicode="&#x49b;" horiz-adv-x="560" 
d="M362 267l91 -123h107v-240h-128v96h-64l-105 152l-39 -46v-106h-160v480h160v-164l128 164h192z" />
    <glyph glyph-name="uni04A2" unicode="&#x4a2;" horiz-adv-x="688" 
d="M560 704v-560h128v-240h-128v96h-160v240h-176v-240h-160v704h160v-320h176v320h160z" />
    <glyph glyph-name="uni04A3" unicode="&#x4a3;" horiz-adv-x="656" 
d="M528 480v-336h128v-240h-128v96h-160v168h-144v-168h-160v480h160v-168h144v168h160z" />
    <glyph glyph-name="uni04AE" unicode="&#x4ae;" 
d="M320 432l136 272h184l-240 -432v-272h-160v272l-240 432h184z" />
    <glyph glyph-name="uni04AF" unicode="&#x4af;" horiz-adv-x="544" 
d="M368 480h176l-192 -450v-286h-160v286l-192 450h176l96 -264z" />
    <glyph glyph-name="uni04B0" unicode="&#x4b0;" 
d="M640 704l-240 -432v-48h64v-80h-64v-144h-160v144h-64v80h64v48l-240 432h184l136 -272l136 272h184z" />
    <glyph glyph-name="uni04B1" unicode="&#x4b1;" horiz-adv-x="544" 
d="M544 480l-192 -450v-78h64v-80h-64v-128h-160v128h-64v80h64v78l-192 450h176l96 -264l96 264h176z" />
    <glyph glyph-name="uni04B2" unicode="&#x4b2;" horiz-adv-x="656" 
d="M434 362l124 -218h82v-240h-128v96h-56l-128 237l-128 -237h-184l206 362l-190 342h177l119 -218l119 218h177z" />
    <glyph glyph-name="uni04B3" unicode="&#x4b3;" horiz-adv-x="560" 
d="M380 252l70 -108h94v-240h-128v96h-52l-84 141l-84 -141h-180l164 252l-148 228h180l68 -118l68 118h180z" />
    <glyph glyph-name="uni04B6" unicode="&#x4b6;" horiz-adv-x="688" 
d="M560 704v-560h128v-240h-128v96h-160v236q-69 -28 -136 -28q-94 0 -155 63q-61 62 -61 177v256h160v-240q0 -60 22 -86t74 -26q44 0 96 24v328h160z" />
    <glyph glyph-name="uni04B7" unicode="&#x4b7;" 
d="M512 480v-336h128v-240h-128v96h-160v164q-55 -28 -120 -28q-84 0 -134 54t-50 154v136h160v-118q0 -43 15.5 -62.5t52.5 -19.5q40 0 76 15v185h160z" />
    <glyph glyph-name="uni04BA" unicode="&#x4ba;" horiz-adv-x="624" 
d="M360 496q94 0 155 -63q61 -62 61 -177v-256h-160v240q0 60 -22 86t-74 26q-44 0 -96 -24v-328h-160v704h160v-236q69 28 136 28z" />
    <glyph glyph-name="uni04BB" unicode="&#x4bb;" horiz-adv-x="592" 
d="M352 496q82 0 137 -58t55 -166v-272h-160v256q0 96 -80 96q-33 0 -56.5 -29.5t-23.5 -82.5v-240h-160v736h160v-304q42 64 128 64z" />
    <glyph glyph-name="uni04C0" unicode="&#x4c0;" horiz-adv-x="288" 
d="M224 704v-704h-160v704h160z" />
    <glyph glyph-name="uni04CF" unicode="&#x4cf;" horiz-adv-x="288" 
d="M224 0h-160v480h160v-480z" />
    <glyph glyph-name="uni04D8" unicode="&#x4d8;" horiz-adv-x="816" 
d="M32 352q0 33 6 64h576q-19 74 -75 117t-131 43q-94 0 -152 -55l-92 119q100 80 244 80q161 0 269 -105q107 -105 107 -263t-107 -263q-108 -105 -269 -105q-162 0 -268 105q-108 105 -108 263zM614 288h-412q13 -69 71 -115q57 -45 135 -45t135 45q58 46 71 115z" />
    <glyph glyph-name="uni04D9" unicode="&#x4d9;" horiz-adv-x="608" 
d="M304 496q113 0 193 -74q79 -75 79 -182q0 -108 -78 -181q-80 -75 -194 -75q-118 0 -195 74t-77 182q0 29 4 48h369q-13 29 -40.5 46.5t-60.5 17.5q-35 0 -64 -20l-98 118q70 46 162 46zM237 151q44 -37 103 -17t71 74h-214q11 -35 40 -57z" />
    <glyph glyph-name="uni04E2" unicode="&#x4e2;" horiz-adv-x="656" 
d="M456 880v-96h-256v96h256zM64 704h160v-392l240 392h128v-704h-160v392l-240 -392h-128v704z" />
    <glyph glyph-name="uni04E3" unicode="&#x4e3;" horiz-adv-x="608" 
d="M432 656v-96h-256v96h256zM64 480h160v-236l192 236h128v-480h-160v236l-192 -236h-128v480z" />
    <glyph glyph-name="uni04E8" unicode="&#x4e8;" horiz-adv-x="816" 
d="M142 612q110 108 266 108t266 -108t110 -260t-110 -260t-266 -108t-266 108t-110 260t110 260zM544 526q-59 50 -136 50t-136 -50q-58 -50 -75 -126h422q-17 76 -75 126zM272 178q59 -50 136 -50t136 50q58 50 75 126h-422q17 -76 75 -126z" />
    <glyph glyph-name="uni04E9" unicode="&#x4e9;" horiz-adv-x="608" 
d="M304 496q113 0 193 -74q79 -75 79 -182q0 -108 -78 -181q-80 -75 -194 -75q-118 0 -195 74t-77 182q0 110 76 183t196 73zM372 330q-44 36 -103.5 16t-71.5 -74h214q-11 36 -39 58zM237 151q44 -37 103 -17t71 74h-214q11 -35 40 -57z" />
    <glyph glyph-name="uni04EE" unicode="&#x4ee;" 
d="M456 880v-96h-256v96h256zM328 416l132 288h180l-344 -704h-180l126 245l-226 459h180z" />
    <glyph glyph-name="uni04EF" unicode="&#x4ef;" horiz-adv-x="544" 
d="M400 656v-96h-256v96h256zM272 214l96 266h176l-304 -736h-176l129 286l-193 450h176z" />
    <glyph glyph-name="Wgrave" unicode="&#x1e80;" horiz-adv-x="944" 
d="M488 928l64 -160h-96l-96 160h128zM768 704h176l-320 -720l-145 353l-159 -353l-320 720h176l144 -360l82 181l-70 179h156l136 -360z" />
    <glyph glyph-name="wgrave" unicode="&#x1e81;" horiz-adv-x="768" 
d="M384 704l64 -160h-96l-96 160h128zM600 480h168l-264 -496l-113 233l-127 -233l-264 496h168l96 -202l53 92l-53 110h144l96 -202z" />
    <glyph glyph-name="Wacute" unicode="&#x1e82;" horiz-adv-x="944" 
d="M488 768h-96l64 160h128zM768 704h176l-320 -720l-145 353l-159 -353l-320 720h176l144 -360l82 181l-70 179h156l136 -360z" />
    <glyph glyph-name="wacute" unicode="&#x1e83;" horiz-adv-x="768" 
d="M416 544h-96l64 160h128zM600 480h168l-264 -496l-113 233l-127 -233l-264 496h168l96 -202l53 92l-53 110h144l96 -202z" />
    <glyph glyph-name="Wdieresis" unicode="&#x1e84;" horiz-adv-x="944" 
d="M419 789q-21 -21 -51 -21t-51 21t-21 51t21 51t51 21t51 -21t21 -51t-21 -51zM627 789q-21 -21 -51 -21t-51 21t-21 51t21 51t51 21t51 -21t21 -51t-21 -51zM768 704h176l-320 -720l-145 353l-159 -353l-320 720h176l144 -360l82 181l-70 179h156l136 -360z" />
    <glyph glyph-name="wdieresis" unicode="&#x1e85;" horiz-adv-x="768" 
d="M331 565q-21 -21 -51 -21t-51 21t-21 51t21 51t51 21t51 -21t21 -51t-21 -51zM539 565q-21 -21 -51 -21t-51 21t-21 51t21 51t51 21t51 -21t21 -51t-21 -51zM600 480h168l-264 -496l-113 233l-127 -233l-264 496h168l96 -202l53 92l-53 110h144l96 -202z" />
    <glyph glyph-name="Ygrave" unicode="&#x1ef2;" 
d="M320 928l64 -160h-96l-96 160h128zM320 432l136 272h184l-240 -432v-272h-160v272l-240 432h184z" />
    <glyph glyph-name="ygrave" unicode="&#x1ef3;" horiz-adv-x="544" 
d="M272 704l64 -160h-96l-96 160h128zM272 214l96 266h176l-304 -736h-176l129 286l-193 450h176z" />
    <glyph glyph-name="endash" unicode="&#x2013;" horiz-adv-x="528" 
d="M480 312v-112h-432v112h432z" />
    <glyph glyph-name="emdash" unicode="&#x2014;" horiz-adv-x="624" 
d="M576 312v-112h-528v112h528z" />
    <glyph glyph-name="quoteleft" unicode="&#x2018;" horiz-adv-x="272" 
d="M96 704h112v-240h-160z" />
    <glyph glyph-name="quoteright" unicode="&#x2019;" horiz-adv-x="272" 
d="M176 464h-112v240h160z" />
    <glyph glyph-name="quotesinglbase" unicode="&#x201a;" horiz-adv-x="272" 
d="M176 -96h-112v240h160z" />
    <glyph glyph-name="quotedblleft" unicode="&#x201c;" horiz-adv-x="512" 
d="M96 704h112v-240h-160zM336 704h112v-240h-160z" />
    <glyph glyph-name="quotedblright" unicode="&#x201d;" horiz-adv-x="512" 
d="M176 464h-112v240h160zM416 464h-112v240h160z" />
    <glyph glyph-name="quotedblbase" unicode="&#x201e;" horiz-adv-x="512" 
d="M176 -96h-112v240h160zM416 -96h-112v240h160z" />
    <glyph glyph-name="dagger" unicode="&#x2020;" 
d="M400 736v-240h192v-136h-192v-616h-160v616h-192v136h192v240h160z" />
    <glyph glyph-name="daggerdbl" unicode="&#x2021;" 
d="M592 496v-136h-192v-112h192v-136h-192v-368h-160v368h-192v136h192v112h-192v136h192v240h160v-240h192z" />
    <glyph glyph-name="bullet" unicode="&#x2022;" horiz-adv-x="800" 
d="M309 427q37 37 91 37t91 -37t37 -91t-37 -91t-91 -37t-91 37t-37 91t37 91z" />
    <glyph glyph-name="ellipsis" unicode="&#x2026;" horiz-adv-x="816" 
d="M199 10q-25 -26 -62 -26t-63 26t-26 63t26 62t63 25t62 -25t25 -62t-25 -63zM471 10q-25 -26 -62 -26t-63 26t-26 63t26 62t63 25t62 -25t25 -62t-25 -63zM743 10q-25 -26 -62 -26t-63 26t-26 63t26 62t63 25t62 -25t25 -62t-25 -63z" />
    <glyph glyph-name="perthousand" unicode="&#x2030;" horiz-adv-x="1232" 
d="M336 433q-48 -49 -119 -49t-120 49q-49 48 -49 119q0 69 50 119q49 49 119 49t119 -49q48 -49 48 -119q0 -71 -48 -119zM704 704l-448 -704h-112l448 704h112zM177 513q17 -17 39 -17t39 17t17 39t-17 39t-39 17t-39 -17t-17 -39t17 -39zM752 33q-48 -49 -119 -49
t-120 49q-49 48 -49 119q0 69 50 119q49 49 119 49t119 -49q48 -50 48 -119q0 -71 -48 -119zM1136 33q-48 -49 -119 -49t-120 49q-49 48 -49 119q0 69 50 119q49 49 119 49t119 -49q48 -50 48 -119q0 -71 -48 -119zM593 113q17 -17 39 -17t39 17t17 39t-17 39t-39 17
t-39 -17t-17 -39t17 -39zM977 113q17 -17 39 -17t39 17t17 39t-17 39t-39 17t-39 -17t-17 -39t17 -39z" />
    <glyph glyph-name="guilsinglleft" unicode="&#x2039;" horiz-adv-x="352" 
d="M48 272l128 208l96 -56l-96 -152l96 -152l-96 -56z" />
    <glyph glyph-name="guilsinglright" unicode="&#x203a;" horiz-adv-x="352" 
d="M80 424l96 56l128 -208l-128 -208l-96 56l96 152z" />
    <glyph glyph-name="fraction" unicode="&#x2044;" horiz-adv-x="128" 
d="M344 704l-448 -704h-112l448 704h112z" />
    <glyph glyph-name="uni2070" unicode="&#x2070;" horiz-adv-x="403" 
d="M93 753q44 47 108 47t109 -47t45 -117t-45 -117t-109 -47t-108 47q-45 47 -45 117t45 117zM160 579q16 -23 41 -23t42 23t17 58t-17 57t-42 22t-41 -22t-16 -57.5t16 -57.5z" />
    <glyph glyph-name="uni2074" unicode="&#x2074;" horiz-adv-x="367" 
d="M187 526h-155l94 266h94l-59 -182h26v47h95v-47h37v-84h-37v-46h-95v46z" />
    <glyph glyph-name="uni2075" unicode="&#x2075;" horiz-adv-x="356" 
d="M160 708l-3 -21q18 8 44 5t50 -11.5t40.5 -34t16.5 -61.5q0 -47 -37.5 -80t-96.5 -33t-90 31q-33 32 -36 61l88 23q2 -12 12.5 -21.5t25.5 -9.5q17 0 28 10.5t11 23.5q0 27 -29 32q-30 4 -43 -15l-82 25l25 160h188v-84h-112z" />
    <glyph glyph-name="uni2076" unicode="&#x2076;" horiz-adv-x="363" 
d="M268 792l-65 -92q48 -1 80 -33.5t32 -78.5q0 -50 -37.5 -83t-96.5 -33q-60 0 -96.5 33t-36.5 83q0 33 20 71q19 34 93 133h107zM181 556q24 0 34 18t0 36t-34 18q-23 1 -32.5 -17.5t0 -37t32.5 -17.5z" />
    <glyph glyph-name="uni2077" unicode="&#x2077;" horiz-adv-x="316" 
d="M48 708v84h252l-120 -312h-99l86 228h-119z" />
    <glyph glyph-name="uni2078" unicode="&#x2078;" horiz-adv-x="348" 
d="M264 644q36 -28 36 -70q0 -43 -36 -72.5t-90 -29.5q-56 0 -91 28.5t-35 73.5q0 42 34 70q-23 26 -23 59q0 42 32.5 69.5t82.5 27.5q47 0 80.5 -28.5t33.5 -68.5q0 -33 -24 -59zM154 717q-13 -11 -6 -26t26 -15q17 0 23.5 12t0 24t-23.5 12q-13 0 -20 -7zM152 556
q15 -13 33.5 -5.5t18.5 25.5q0 17 -15 23.5t-30.5 0t-15.5 -23.5q0 -12 9 -20z" />
    <glyph glyph-name="uni2079" unicode="&#x2079;" horiz-adv-x="363" 
d="M95 480l65 92q-48 1 -80 33.5t-32 78.5q0 50 37.5 83t96.5 33q60 0 96.5 -33t36.5 -83q0 -35 -19 -70q-16 -30 -94 -134h-107zM182 716q-24 0 -34 -18t0 -36t34 -18q23 -1 32.5 17.5t0 37t-32.5 17.5z" />
    <glyph glyph-name="Euro" unicode="&#x20ac;" horiz-adv-x="672" 
d="M418 128q81 0 142 52l80 -122q-43 -35 -104 -54.5t-119 -19.5q-159 0 -272 108t-113 260t113 260t272 108q58 0 119 -19.5t104 -54.5l-80 -122q-61 52 -142 52q-71 0 -129 -40t-82 -104h257l-17 -64h-254q-2 -16 0 -32h246l-15 -64h-217q24 -64 82 -104t129 -40z" />
    <glyph glyph-name="trademark" unicode="&#x2122;" horiz-adv-x="832" 
d="M584 510l200 202v-424h-112v174l-88 -103l-88 103v-174h-112v424zM48 602v102h288v-102h-88v-314h-112v314h-88z" />
    <glyph glyph-name="oneeighth" unicode="&#x215b;" horiz-adv-x="780" 
d="M208 392h-95v207l-49 -15v84l144 44v-320zM88 0l448 704h112l-448 -704h-112zM696 164q36 -28 36 -70q0 -43 -36 -72.5t-90 -29.5q-56 0 -91 28.5t-35 73.5q0 42 34 70q-23 26 -23 59q0 42 32.5 69.5t82.5 27.5q47 0 80.5 -28.5t33.5 -68.5q0 -33 -24 -59zM586 237
q-13 -11 -6 -26t26 -15q17 0 23.5 12t0 24t-23.5 12q-13 0 -20 -7zM584 76q15 -13 33.5 -5.5t18.5 25.5q0 17 -15 23.5t-30.5 0t-15.5 -23.5q0 -12 9 -20z" />
    <glyph glyph-name="threeeighths" unicode="&#x215c;" horiz-adv-x="832" 
d="M308 501q0 -51 -38 -84t-96 -33q-54 0 -88 31q-35 32 -38 66l87 26q7 -39 39 -39q17 0 28 10t11 24q0 21 -22 28q-22 6 -35 -6l-41 47l37 49h-90v84h238l-72 -102q33 -7 56.5 -33t23.5 -68zM140 0l448 704h112l-448 -704h-112zM748 164q36 -28 36 -70q0 -43 -36 -72.5
t-90 -29.5q-56 0 -91 28.5t-35 73.5q0 42 34 70q-23 26 -23 59q0 42 32.5 69.5t82.5 27.5q47 0 80.5 -28.5t33.5 -68.5q0 -33 -24 -59zM638 237q-13 -11 -6 -26t26 -15q17 0 23.5 12t0 24t-23.5 12q-13 0 -20 -7zM636 76q15 -13 33.5 -5.5t18.5 25.5q0 17 -15 23.5t-30.5 0
t-15.5 -23.5q0 -12 9 -20z" />
    <glyph glyph-name="fiveeighths" unicode="&#x215d;" horiz-adv-x="832" 
d="M308 497q0 -47 -37.5 -80t-96.5 -33t-90 31q-33 32 -36 61l88 23q2 -12 12.5 -21.5t25.5 -9.5q17 0 28 10.5t11 23.5q0 27 -29 32q-30 4 -43 -15l-82 25l25 160h188v-84h-112l-3 -21q18 8 44 5t50 -11.5t40.5 -34t16.5 -61.5zM140 0l448 704h112l-448 -704h-112zM748 164
q36 -28 36 -70q0 -43 -36 -72.5t-90 -29.5q-56 0 -91 28.5t-35 73.5q0 42 34 70q-23 26 -23 59q0 42 32.5 69.5t82.5 27.5q47 0 80.5 -28.5t33.5 -68.5q0 -33 -24 -59zM638 237q-13 -11 -6 -26t26 -15q17 0 23.5 12t0 24t-23.5 12q-13 0 -20 -7zM636 76q15 -13 33.5 -5.5
t18.5 25.5q0 17 -15 23.5t-30.5 0t-15.5 -23.5q0 -12 9 -20z" />
    <glyph glyph-name="seveneighths" unicode="&#x215e;" horiz-adv-x="792" 
d="M300 704l-120 -312h-99l86 228h-119v84h252zM100 0l448 704h112l-448 -704h-112zM708 164q36 -28 36 -70q0 -43 -36 -72.5t-90 -29.5q-56 0 -91 28.5t-35 73.5q0 42 34 70q-23 26 -23 59q0 42 32.5 69.5t82.5 27.5q47 0 80.5 -28.5t33.5 -68.5q0 -33 -24 -59zM598 237
q-13 -11 -6 -26t26 -15q17 0 23.5 12t0 24t-23.5 12q-13 0 -20 -7zM596 76q15 -13 33.5 -5.5t18.5 25.5q0 17 -15 23.5t-30.5 0t-15.5 -23.5q0 -12 9 -20z" />
    <glyph glyph-name="arrowleft" unicode="&#x2190;" horiz-adv-x="960" 
d="M264 63l-232 233l232 233l79 -79l-106 -98h675v-112h-675l106 -98z" />
    <glyph glyph-name="arrowup" unicode="&#x2191;" horiz-adv-x="530" 
d="M32 584l232 232l234 -232l-79 -79l-99 106v-675h-112v675l-98 -106z" />
    <glyph glyph-name="arrowright" unicode="&#x2192;" horiz-adv-x="960" 
d="M696 529l232 -233l-232 -233l-79 79l106 98h-675v112h675l-106 98z" />
    <glyph glyph-name="arrowdown" unicode="&#x2193;" horiz-adv-x="530" 
d="M498 120l-234 -232l-232 232l78 79l98 -106v675h112v-675l99 106z" />
    <glyph glyph-name="arrowboth" unicode="&#x2194;" horiz-adv-x="992" 
d="M649 450l79 79l232 -233l-232 -233l-79 79l106 98h-518l106 -98l-79 -79l-232 233l232 233l79 -79l-106 -98h518z" />
    <glyph glyph-name="arrowupdn" unicode="&#x2195;" horiz-adv-x="530" 
d="M321 611l-1 -518l99 106l79 -79l-233 -232l-233 232l78 79l98 -106l1 518l-99 -106l-78 79l232 232l234 -232l-79 -79z" />
    <glyph glyph-name="uni2196" unicode="&#x2196;" horiz-adv-x="752" 
d="M48 375v329h329v-112l-144 7l487 -489l-79 -79l-487 489l5 -145h-111z" />
    <glyph glyph-name="uni2197" unicode="&#x2197;" horiz-adv-x="752" 
d="M375 704h329v-329h-111l5 145l-487 -489l-79 79l487 489l-144 -7v112z" />
    <glyph glyph-name="uni2198" unicode="&#x2198;" horiz-adv-x="752" 
d="M704 329v-329h-329v112l144 -7l-487 489l79 79l487 -489l-5 145h111z" />
    <glyph glyph-name="uni2199" unicode="&#x2199;" horiz-adv-x="752" 
d="M377 0h-329v329h111l-5 -145l487 489l79 -79l-487 -489l144 7v-112z" />
    <glyph glyph-name="partialdiff" unicode="&#x2202;" 
d="M143 664l53 136q183 -74 289 -228q107 -155 107 -332q0 -108 -78 -181q-80 -75 -194 -75q-118 0 -195 74t-77 182q0 110 76 183t196 73q25 0 43 -7q-64 111 -220 175zM241 161q33 -33 79 -33t79 33t33 79t-33 79t-79 33t-79 -33t-33 -79t33 -79z" />
    <glyph glyph-name="emptyset" unicode="&#x2205;" horiz-adv-x="632" 
 />
    <glyph glyph-name="product" unicode="&#x220f;" horiz-adv-x="656" 
d="M64 704h528v-960h-160v816h-208v-816h-160v960z" />
    <glyph glyph-name="summation" unicode="&#x2211;" horiz-adv-x="688" 
d="M624 560h-318l206 -336l-206 -336h318v-144h-560l288 480l-288 480h560v-144z" />
    <glyph glyph-name="minus" unicode="&#x2212;" horiz-adv-x="480" 
d="M48 288v112h384v-112h-384z" />
    <glyph glyph-name="radical" unicode="&#x221a;" horiz-adv-x="928" 
d="M304 278l201 426h391v-144h-289l-303 -576l-272 496h176z" />
    <glyph glyph-name="infinity" unicode="&#x221e;" horiz-adv-x="688" 
d="M465 520q73 0 124 -51q51 -53 51 -125q0 -73 -51 -124q-51 -52 -124 -52q-68 0 -121 47q-50 -47 -119 -47q-74 0 -125 52q-52 51 -52 124t52 125q52 51 125 51q69 0 119 -47q53 47 121 47zM179 299q19 -19 45 -19t45 19t19 45t-19 45t-45 19t-45 -19t-19 -45t19 -45z
M419 299q19 -19 45 -19t45 19t19 45t-19 45t-45 19t-45 -19t-19 -45t19 -45z" />
    <glyph glyph-name="integral" unicode="&#x222b;" horiz-adv-x="384" 
d="M112 -49v521q0 118 56 183t168 65v-144q-29 0 -46.5 -21.5t-17.5 -57.5v-521q0 -118 -56 -183t-168 -65v144q29 0 46.5 21.5t17.5 57.5z" />
    <glyph glyph-name="approxequal" unicode="&#x2248;" horiz-adv-x="528" 
d="M399 512l81 -80q-45 -64 -119 -64q-23 0 -62 11q-15 4 -37.5 10.5t-27.5 7.5q-27 10 -57.5 3t-47.5 -32l-81 80q45 64 119 64q25 0 79 -17t91 -17q38 0 62 34zM399 320l81 -80q-45 -64 -119 -64q-23 0 -62 11q-15 4 -37.5 10.5t-27.5 7.5q-27 10 -57.5 3t-47.5 -32
l-81 80q45 64 119 64q25 0 79 -17t91 -17q38 0 62 34z" />
    <glyph glyph-name="notequal" unicode="&#x2260;" horiz-adv-x="480" 
d="M432 488v-112h-136l-16 -64h152v-112h-181l-43 -168h-96l43 168h-107v112h136l16 64h-152v112h181l43 168h96l-43 -168h107z" />
    <glyph glyph-name="lessequal" unicode="&#x2264;" horiz-adv-x="480" 
d="M432 336v-128l-384 184v80l384 184v-128l-240 -96zM48 160h384v-112h-384v112z" />
    <glyph glyph-name="greaterequal" unicode="&#x2265;" horiz-adv-x="480" 
d="M432 392l-384 -184v128l240 96l-240 96v128l384 -184v-80zM48 48v112h384v-112h-384z" />
    <glyph glyph-name="lozenge" unicode="&#x25ca;" 
d="M320 720l272 -368l-272 -368l-272 368zM320 154l144 198l-144 198l-142 -198z" />
    <glyph glyph-name="NULL" horiz-adv-x="0" 
 />
    <glyph glyph-name="Q.ss01" horiz-adv-x="816" 
d="M499 -5q78 -77 181 29l88 -112q-147 -125 -269 -74q-60 24 -116 79q-35 33 -61 46.5t-63 12.5q-41 -2 -83 -32l-88 112q21 21 52 38q-108 106 -108 258t110 260t266 108t266 -108t110 -260q0 -127 -80 -227q-81 -100 -205 -130zM561 511q-65 65 -153 65q-89 0 -152 -65
q-64 -65 -64 -159t64 -158q63 -66 152 -66q88 0 153 66q63 64 63 158q0 93 -63 159z" />
    <glyph glyph-name="a.ss01" 
d="M416 432v48h160v-480h-160v48q-54 -64 -143 -64q-102 0 -171 75q-70 73 -70 181t70 182q69 74 171 74q89 0 143 -64zM225 161q33 -33 79 -33t79 33t33 79t-33 79t-79 33t-79 -33t-33 -79t33 -79z" />
    <glyph glyph-name="aacute.ss01" 
d="M368 544h-96l64 160h128zM416 432v48h160v-480h-160v48q-54 -64 -143 -64q-102 0 -171 75q-70 73 -70 181t70 182q69 74 171 74q89 0 143 -64zM225 161q33 -33 79 -33t79 33t33 79t-33 79t-79 33t-79 -33t-33 -79t33 -79z" />
    <glyph glyph-name="abreve.ss01" 
d="M392 688h80q0 -60 -42 -102t-102 -42t-102 42t-42 102h80q0 -26 19 -45t45 -19t45 19t19 45zM416 432v48h160v-480h-160v48q-54 -64 -143 -64q-102 0 -171 75q-70 73 -70 181t70 182q69 74 171 74q89 0 143 -64zM225 161q33 -33 79 -33t79 33t33 79t-33 79t-79 33
t-79 -33t-33 -79t33 -79z" />
    <glyph glyph-name="acircumflex.ss01" 
d="M472 544h-96l-48 64l-48 -64h-96l144 160zM416 432v48h160v-480h-160v48q-54 -64 -143 -64q-102 0 -171 75q-70 73 -70 181t70 182q69 74 171 74q89 0 143 -64zM225 161q33 -33 79 -33t79 33t33 79t-33 79t-79 33t-79 -33t-33 -79t33 -79z" />
    <glyph glyph-name="adieresis.ss01" 
d="M275 565q-21 -21 -51 -21t-51 21t-21 51t21 51t51 21t51 -21t21 -51t-21 -51zM483 565q-21 -21 -51 -21t-51 21t-21 51t21 51t51 21t51 -21t21 -51t-21 -51zM416 432v48h160v-480h-160v48q-54 -64 -143 -64q-102 0 -171 75q-70 73 -70 181t70 182q69 74 171 74
q89 0 143 -64zM225 161q33 -33 79 -33t79 33t33 79t-33 79t-79 33t-79 -33t-33 -79t33 -79z" />
    <glyph glyph-name="agrave.ss01" 
d="M377 704l64 -160h-96l-96 160h128zM416 432v48h160v-480h-160v48q-54 -64 -143 -64q-102 0 -171 75q-70 73 -70 181t70 182q69 74 171 74q89 0 143 -64zM225 161q33 -33 79 -33t79 33t33 79t-33 79t-79 33t-79 -33t-33 -79t33 -79z" />
    <glyph glyph-name="amacron.ss01" 
d="M464 656v-96h-256v96h256zM416 432v48h160v-480h-160v48q-54 -64 -143 -64q-102 0 -171 75q-70 73 -70 181t70 182q69 74 171 74q89 0 143 -64zM225 161q33 -33 79 -33t79 33t33 79t-33 79t-79 33t-79 -33t-33 -79t33 -79z" />
    <glyph glyph-name="aogonek.ss01" 
d="M552 -118l32 -58q-12 -13 -37 -22.5t-45 -9.5q-53 0 -85.5 35t-32.5 89q0 52 32 84v48q-54 -64 -143 -64q-102 0 -171 75q-70 73 -70 181t70 182q69 74 171 74q89 0 143 -64v48h160v-480h-24q-44 0 -70 -23.5t-26 -60.5q0 -40 36 -50q36 -9 60 16zM225 161q33 -33 79 -33
t79 33t33 79t-33 79t-79 33t-79 -33t-33 -79t33 -79z" />
    <glyph glyph-name="aring.ss01" 
d="M243 717q35 35 85 35t85 -35t35 -85t-35 -85t-85 -35t-85 35t-35 85t35 85zM293 597q15 -15 35 -15t35 15t15 35t-15 35t-35 15t-35 -15t-15 -35t15 -35zM416 432v48h160v-480h-160v48q-54 -64 -143 -64q-102 0 -171 75q-70 73 -70 181t70 182q69 74 171 74q89 0 143 -64
zM225 161q33 -33 79 -33t79 33t33 79t-33 79t-79 33t-79 -33t-33 -79t33 -79z" />
    <glyph glyph-name="aringacute.ss01" 
d="M368 784h-96l64 160h128zM243 717q35 35 85 35t85 -35t35 -85t-35 -85t-85 -35t-85 35t-35 85t35 85zM293 597q15 -15 35 -15t35 15t15 35t-15 35t-35 15t-35 -15t-15 -35t15 -35zM416 432v48h160v-480h-160v48q-54 -64 -143 -64q-102 0 -171 75q-70 73 -70 181t70 182
q69 74 171 74q89 0 143 -64zM225 161q33 -33 79 -33t79 33t33 79t-33 79t-79 33t-79 -33t-33 -79t33 -79z" />
    <glyph glyph-name="atilde.ss01" 
d="M471 672l65 -64q-45 -64 -119 -64q-36 0 -81 16q-116 44 -151 -16l-65 64q45 64 119 64q37 0 81 -15q115 -46 151 15zM416 432v48h160v-480h-160v48q-54 -64 -143 -64q-102 0 -171 75q-70 73 -70 181t70 182q69 74 171 74q89 0 143 -64zM225 161q33 -33 79 -33t79 33
t33 79t-33 79t-79 33t-79 -33t-33 -79t33 -79z" />
    <glyph glyph-name="ae.ss01" horiz-adv-x="976" 
d="M726 124q71 0 120 46l82 -107q-82 -79 -196 -79q-96 0 -156 60v-44h-160v48q-54 -64 -143 -64q-102 0 -171 75q-70 73 -70 181t70 182q69 74 171 74q89 0 143 -64v48h160v-44q60 60 156 60q30 0 60.5 -8t64.5 -27.5t62 -60t41 -96.5l-284 -170q16 -10 50 -10zM732 356
q-54 0 -87.5 -35.5t-26.5 -89.5l166 99q-17 26 -52 26zM225 161q33 -33 79 -33t79 33t33 79t-33 79t-79 33t-79 -33t-33 -79t33 -79z" />
    <glyph glyph-name="aeacute.ss01" horiz-adv-x="976" 
d="M512 544h-96l64 160h128zM726 124q71 0 120 46l82 -107q-82 -79 -196 -79q-96 0 -156 60v-44h-160v48q-54 -64 -143 -64q-102 0 -171 75q-70 73 -70 181t70 182q69 74 171 74q89 0 143 -64v48h160v-44q60 60 156 60q30 0 60.5 -8t64.5 -27.5t62 -60t41 -96.5l-284 -170
q16 -10 50 -10zM732 356q-54 0 -87.5 -35.5t-26.5 -89.5l166 99q-17 26 -52 26zM225 161q33 -33 79 -33t79 33t33 79t-33 79t-79 33t-79 -33t-33 -79t33 -79z" />
    <glyph glyph-name="f_f.dlig" horiz-adv-x="864" 
d="M672 532v-52h160v-144h-160v-336h-160v336h-256v-336h-160v336h-64v144h64v64q0 91 52 149q53 59 144 59q66 0 124 -36l-48 -123q-38 26 -75 10t-37 -71v-52h256v64q0 91 52 149q53 59 144 59q66 0 124 -36l-48 -123q-38 26 -75 10t-37 -71z" />
    <glyph glyph-name="f_f_i.dlig" horiz-adv-x="1120" 
d="M672 480h384v-480h-160v336h-224v-336h-160v336h-256v-336h-160v336h-64v144h64v64q0 91 52 149q53 59 144 59q66 0 124 -36l-48 -123q-38 26 -75 10t-37 -71v-52h256v64q0 91 52 149q53 59 144 59q66 0 124 -36l-48 -123q-38 26 -75 10t-37 -71v-52z" />
    <glyph glyph-name="f_f_j.dlig" horiz-adv-x="1120" 
d="M672 480h384v-704l-160 -48v608h-224v-336h-160v336h-256v-336h-160v336h-64v144h64v64q0 91 52 149q53 59 144 59q66 0 124 -36l-48 -123q-38 26 -75 10t-37 -71v-52h256v64q0 91 52 149q53 59 144 59q66 0 124 -36l-48 -123q-38 26 -75 10t-37 -71v-52z" />
    <glyph glyph-name="uni041B.loclBGR" horiz-adv-x="672" 
d="M672 0h-176l-160 376l-160 -376h-176l336 720z" />
    <glyph glyph-name="uni0432.de-cy.loclBGR" horiz-adv-x="576" 
d="M416 392q55 -13 91.5 -61.5t36.5 -117.5q0 -96 -68 -162q-68 -67 -180 -67q-116 0 -182 66q-66 65 -66 163v299q4 172 125 220q46 20 92 20q109 0 171 -60q60 -60 60 -148q0 -52 -22.5 -92.5t-57.5 -59.5zM208 520v-296q0 -43 23.5 -69.5t64.5 -26.5t64.5 26t23.5 70
q0 50 -38.5 77t-105.5 27v96q45 0 70.5 31t25.5 73q0 36 -17 58t-47 22t-47 -24t-17 -64z" />
    <glyph glyph-name="uni0433.de-cy.loclBGR" horiz-adv-x="496" 
d="M230 317q30 5 40 10.5t10 17.5q0 23 -54 18t-94 -36l-61 119q31 20 72.5 33.5t68.5 14.5l25 2q96 0 150 -45q53 -47 53 -111q0 -49 -27 -88q-34 -49 -148 -72q-55 -10 -66 -19q-7 -6 -7 -16q0 -32 85 -23q61 6 123 56l64 -120q-30 -30 -86.5 -52t-123.5 -22
q-105 0 -163.5 46.5t-58.5 121.5q0 132 198 165z" />
    <glyph glyph-name="uni0434.de-cy.loclBGR" 
d="M416 432v48h160v-440q0 -151 -76 -231.5t-212 -80.5q-119 0 -192 64l64 120q58 -40 119 -40q63 0 100 41t37 108v27q-54 -64 -143 -64q-102 0 -171 75q-70 73 -70 181t70 182q69 74 171 74q89 0 143 -64zM225 161q33 -33 79 -33t79 33t33 79t-33 79t-79 33t-79 -33
t-33 -79t33 -79z" />
    <glyph glyph-name="uni0436.de-cy.loclBGR" horiz-adv-x="864" 
d="M648 269l200 -269h-192l-108 156l-36 -42v-114h-160v114l-36 42l-108 -156h-192l200 269l-184 211h192l128 -156v412h160v-412l128 156h192z" />
    <glyph glyph-name="uni0437.de-cy.loclBGR" horiz-adv-x="528" 
d="M176 80v96q56 2 92 28.5t36 72.5q0 31 -19 52t-49 23q-66 5 -124 -56l-66 112q89 88 204 88q86 0 151 -57q63 -57 63 -148q0 -53 -25 -94t-68 -63q48 -15 78.5 -62t30.5 -112q0 -96 -66 -164t-173 -68q-122 0 -209 92l72 114q59 -66 126 -62q38 2 64 28.5t26 62.5
q0 114 -144 117z" />
    <glyph glyph-name="uni0438.de-cy.loclBGR" horiz-adv-x="592" 
d="M240 -16q-80 0 -136 59t-56 165v272h160v-256q0 -96 80 -96q33 0 56.5 29.5t23.5 82.5v240h160v-480h-160v48q-42 -64 -128 -64z" />
    <glyph glyph-name="uni0439.de-cy.loclBGR" horiz-adv-x="592" 
d="M352 688h80q0 -60 -42 -102t-102 -42t-102 42t-42 102h80q0 -26 19 -45t45 -19t45 19t19 45zM240 -16q-80 0 -136 59t-56 165v272h160v-256q0 -96 80 -96q33 0 56.5 29.5t23.5 82.5v240h160v-480h-160v48q-42 -64 -128 -64z" />
    <glyph glyph-name="uni043A.de-cy.loclBGR" horiz-adv-x="560" 
d="M362 267l198 -267h-192l-105 152l-39 -46v-106h-160v736h160v-420l128 164h192z" />
    <glyph glyph-name="uni043B.de-cy.loclBGR" horiz-adv-x="544" 
d="M176 0h-176l200 480h144l200 -480h-176l-96 258z" />
    <glyph glyph-name="uni043F.de-cy.loclBGR" horiz-adv-x="592" 
d="M352 496q82 0 137 -58t55 -166v-272h-160v256q0 96 -80 96q-33 0 -56.5 -29.5t-23.5 -82.5v-240h-160v480h160v-48q42 64 128 64z" />
    <glyph glyph-name="uni0442.de-cy.loclBGR" horiz-adv-x="864" 
d="M628 496q80 0 134 -58t54 -166v-272h-160v256q0 52 -16 74t-48 22t-52 -27t-20 -85v-240h-160v256q0 52 -16 74t-48 22t-52 -27t-20 -85v-240h-160v480h160v-48q29 34 56.5 49t67.5 15q82 0 129 -65q57 65 151 65z" />
    <glyph glyph-name="uni0448.de-cy.loclBGR" horiz-adv-x="864" 
d="M236 -16q-80 0 -134 59t-54 165v272h160v-256q0 -52 16 -74t48 -22t52 27.5t20 84.5v240h160v-256q0 -52 16 -74t48 -22t52 27.5t20 84.5v240h160v-480h-160v48q-29 -34 -56.5 -49t-67.5 -15q-82 0 -129 65q-57 -65 -151 -65z" />
    <glyph glyph-name="uni0449.de-cy.loclBGR" horiz-adv-x="944" 
d="M800 480v-336h96v-256h-160v112h-96v48q-29 -34 -56.5 -49t-67.5 -15q-82 0 -129 65q-57 -65 -151 -65q-80 0 -134 59t-54 165v272h160v-256q0 -52 16 -74t48 -22t52 27.5t20 84.5v240h160v-256q0 -52 16 -74t48 -22t52 27.5t20 84.5v240h160z" />
    <glyph glyph-name="uni044C.de-cy.loclBGR" horiz-adv-x="544" 
d="M64 172v308h160v-160q130 30 210 -12q78 -42 78 -136q0 -91 -62.5 -139.5t-167.5 -48.5q-94 0 -155 48q-63 48 -63 140zM224 208v-30q0 -24 17.5 -37t43.5 -13q27 0 47 12.5t20 31.5q0 54 -128 36z" />
    <glyph glyph-name="uni044A.de-cy.loclBGR" 
d="M320 480v-160q130 30 210 -12q78 -42 78 -136q0 -91 -62.5 -139.5t-167.5 -48.5q-94 0 -155 48q-63 48 -63 140v164h-128v144h288zM381 128q27 0 47 12.5t20 31.5q0 54 -128 36v-30q0 -24 17.5 -37t43.5 -13z" />
    <glyph glyph-name="uni044E.de-cy.loclBGR" horiz-adv-x="880" 
d="M576 496q113 0 193 -74q79 -75 79 -182q0 -108 -78 -181q-80 -75 -194 -75q-97 0 -167.5 50.5t-94.5 133.5h-90v-168h-160v736h160v-424h90q22 81 94 133q70 51 168 51zM497 161q33 -33 79 -33t79 33t33 79t-33 79t-79 33t-79 -33t-33 -79t33 -79z" />
    <glyph glyph-name="uni0430.ss01" 
d="M416 432v48h160v-480h-160v48q-54 -64 -143 -64q-102 0 -171 75q-70 73 -70 181t70 182q69 74 171 74q89 0 143 -64zM225 161q33 -33 79 -33t79 33t33 79t-33 79t-79 33t-79 -33t-33 -79t33 -79z" />
    <glyph glyph-name="zero.subs" horiz-adv-x="403" 
d="M93 65q44 47 108 47t109 -47t45 -117t-45 -117t-109 -47t-108 47q-45 47 -45 117t45 117zM160 -110q16 -22 41 -22t42 22t17 57.5t-17 58.5q-17 22 -42 22t-41 -22q-16 -23 -16 -58.5t16 -57.5z" />
    <glyph glyph-name="one.subs" horiz-adv-x="304" 
d="M64 -16v84l144 44v-320h-95v207z" />
    <glyph glyph-name="two.subs" horiz-adv-x="355" 
d="M252 -105l-17 -19h72v-84h-251l95 109q40 46 53 68q8 14 8 25q0 15 -9.5 24.5t-24.5 9.5q-16 0 -25.5 -9.5t-9.5 -24.5q0 -12 10 -28l-82 -32q-23 32 -23 64q0 47 36.5 80.5t93.5 33.5q56 0 93 -34q36 -35 36 -80q0 -40 -24 -69q-8 -10 -21 -24z" />
    <glyph glyph-name="three.subs" horiz-adv-x="356" 
d="M300 104l-72 -102q33 -7 56.5 -33t23.5 -68q0 -51 -38 -84t-96 -33q-54 0 -88 31q-35 32 -38 66l87 26q7 -39 39 -39q17 0 28 10t11 24q0 21 -22 27q-21 7 -35 -5l-41 47l37 49h-90v84h238z" />
    <glyph glyph-name="four.subs" horiz-adv-x="367" 
d="M187 -162h-155l94 266h94l-59 -182h26v47h95v-47h37v-84h-37v-46h-95v46z" />
    <glyph glyph-name="five.subs" horiz-adv-x="356" 
d="M160 20l-3 -21q18 8 44 5t50 -11.5t40.5 -34t16.5 -61.5q0 -47 -37.5 -80t-96.5 -33t-90 31q-33 32 -36 61l88 23q2 -12 12.5 -21.5t25.5 -9.5q17 0 28 10.5t11 23.5q0 26 -29 31q-30 5 -43 -14l-82 25l25 160h188v-84h-112z" />
    <glyph glyph-name="six.subs" horiz-adv-x="363" 
d="M268 104l-65 -92q48 -1 80 -33.5t32 -78.5q0 -50 -37.5 -83t-96.5 -33q-60 0 -96.5 33t-36.5 83q0 33 20 70q18 34 93 134h107zM181 -132q24 0 34 18t0 36t-34 18q-23 1 -32.5 -17.5t0 -37t32.5 -17.5z" />
    <glyph glyph-name="seven.subs" horiz-adv-x="316" 
d="M48 20v84h252l-120 -312h-99l86 228h-119z" />
    <glyph glyph-name="eight.subs" horiz-adv-x="348" 
d="M264 -44q36 -28 36 -70q0 -43 -36 -72.5t-90 -29.5q-56 0 -91 28.5t-35 73.5q0 42 34 70q-23 26 -23 59q0 42 32.5 69.5t82.5 27.5q47 0 80.5 -28.5t33.5 -68.5q0 -34 -24 -59zM154 29q-13 -11 -6 -26t26 -15q17 0 23.5 12t0 24t-23.5 12q-13 0 -20 -7zM152 -132
q15 -13 33.5 -5.5t18.5 25.5q0 17 -15 23.5t-30.5 0t-15.5 -23.5q0 -13 9 -20z" />
    <glyph glyph-name="nine.subs" horiz-adv-x="363" 
d="M95 -208l65 92q-48 1 -80 33.5t-32 78.5q0 50 37.5 83t96.5 33q60 0 96.5 -33t36.5 -83q0 -34 -19 -71q-16 -30 -94 -133h-107zM182 28q-24 0 -34 -18t0 -36t34 -18q23 -1 32.5 17.5t0 37t-32.5 17.5z" />
    <glyph glyph-name="zero.tf" horiz-adv-x="672" 
d="M98 615q98 105 238 105q141 0 239 -105q97 -106 97 -263q0 -158 -97 -262q-97 -106 -239 -106q-141 0 -238 106q-98 106 -98 262t98 263zM211 191q51 -63 125 -63t125 63t51 161t-51 161t-125 63t-125 -63t-51 -161t51 -161z" />
    <glyph glyph-name="one.tf" horiz-adv-x="672" 
d="M448 720v-576h128v-144h-416v144h128v388l-128 -36v144z" />
    <glyph glyph-name="two.tf" horiz-adv-x="672" 
d="M488 256l-95 -112h199v-144h-512l214 244q83 93 111 145q27 49 27 92t-28.5 69.5t-67.5 26.5t-67.5 -26.5t-28.5 -69.5q0 -45 21 -74l-135 -61q-20 24 -33 62.5t-13 72.5q0 99 72 169q71 71 184 71q109 0 182 -69q74 -71 74 -171q0 -101 -104 -225z" />
    <glyph glyph-name="three.tf" horiz-adv-x="672" 
d="M576 704l-188 -254q82 -1 144 -59q60 -59 60 -159q0 -106 -75 -177q-76 -71 -189 -71q-109 0 -176 65q-67 64 -72 143l144 32q5 -41 34.5 -68.5t69.5 -27.5q46 0 75 27.5t29 76.5q0 41 -28.5 67.5t-65.5 24.5q-34 -1 -66 -19l-80 111l112 144h-192v144h464z" />
    <glyph glyph-name="four.tf" horiz-adv-x="672" 
d="M352 128h-304l212 576h158l-151 -432h85v128h160v-128h64v-144h-64v-128h-160v128z" />
    <glyph glyph-name="five.tf" horiz-adv-x="672" 
d="M285 560l-13 -93q38 13 80.5 14t85.5 -13t77 -41.5t55.5 -78t21.5 -116.5q0 -102 -76 -175t-188 -73q-109 0 -176 65q-67 64 -72 143l144 32q5 -41 34.5 -68.5t69.5 -27.5q44 0 74 29t30 75q0 75 -59 101q-61 26 -128 -23l-141 34l56 360h353v-144h-228z" />
    <glyph glyph-name="six.tf" horiz-adv-x="672" 
d="M500 704l-149 -208q109 -2 179 -76q70 -76 70 -180q0 -108 -75 -182q-76 -74 -189 -74q-117 0 -191 74q-73 73 -73 182q0 71 43 147q41 75 211 317h174zM261 161q29 -33 75 -33t75 33q29 32 29 79q0 46 -29 80q-29 32 -75 32t-75 -32q-29 -34 -29 -80q0 -47 29 -79z" />
    <glyph glyph-name="seven.tf" horiz-adv-x="672" 
d="M104 560v144h496l-272 -704h-168l216 560h-272z" />
    <glyph glyph-name="eight.tf" horiz-adv-x="672" 
d="M513 370q79 -64 79 -162q0 -94 -74 -159t-182 -65q-111 0 -184 65q-72 65 -72 159q0 99 76 163q-60 59 -60 141q0 88 68 148t172 60q100 0 170 -61t70 -147q0 -80 -63 -142zM280 555q-24 -21 -24 -51t24 -51q23 -21 56 -21t57 21q23 21 23 51t-23 51q-24 21 -57 21
t-56 -21zM268 154q28 -26 68 -26t68 26t28 62.5t-28 62.5q-28 25 -68 25t-68 -25q-28 -26 -28 -62.5t28 -62.5z" />
    <glyph glyph-name="nine.tf" horiz-adv-x="672" 
d="M172 0l149 208q-108 2 -178 77q-71 76 -71 179q0 108 75 182q76 74 189 74q118 0 191 -73t73 -183q0 -70 -42 -147q-45 -79 -212 -317h-174zM411 544q-29 32 -75 32t-75 -32q-29 -34 -29 -80q0 -47 29 -79q29 -33 75 -33t75 33q29 32 29 79q0 46 -29 80z" />
    <glyph glyph-name="zero.zero" horiz-adv-x="768" 
d="M146 615q98 105 238 105q142 0 239 -105q97 -106 97 -263q0 -158 -97 -262q-97 -106 -239 -106q-141 0 -238 106q-98 106 -98 262t98 263zM384 576q-74 0 -125 -63t-51 -161q0 -47 13 -87l294 240q-53 71 -131 71zM384 128q74 0 125 63t51 161q0 51 -13 87l-293 -241
q51 -70 130 -70z" />
    <glyph glyph-name="zero.tf.zero" horiz-adv-x="672" 
d="M98 615q98 105 238 105q141 0 239 -105q97 -106 97 -263q0 -158 -97 -262q-97 -106 -239 -106q-141 0 -238 106q-98 106 -98 262t98 263zM336 576q-74 0 -125 -63t-51 -161q0 -47 13 -87l294 240q-53 71 -131 71zM336 128q74 0 125 63t51 161q0 51 -13 87l-293 -241
q51 -70 130 -70z" />
    <glyph glyph-name="zero.dnom" horiz-adv-x="403" 
d="M93 273q44 47 108 47t109 -47t45 -117t-45 -117t-109 -47t-108 47q-45 47 -45 117t45 117zM160 99q16 -23 41 -23t42 23t17 58t-17 57t-42 22t-41 -22q-16 -23 -16 -57.5t16 -57.5z" />
    <glyph glyph-name="one.dnom" horiz-adv-x="304" 
d="M64 192v84l144 44v-320h-95v207z" />
    <glyph glyph-name="two.dnom" horiz-adv-x="355" 
d="M252 103l-17 -19h72v-84h-251l95 109q40 46 53 68q8 14 8 25q0 15 -9.5 24.5t-24.5 9.5q-16 0 -25.5 -9.5t-9.5 -24.5q0 -12 10 -28l-82 -32q-23 32 -23 64q0 47 36.5 80.5t93.5 33.5q56 0 93 -34q36 -35 36 -80q0 -41 -24 -68q-9 -12 -21 -24q-5 -6 -10 -11z" />
    <glyph glyph-name="three.dnom" horiz-adv-x="356" 
d="M300 312l-72 -102q33 -7 56.5 -33t23.5 -68q0 -51 -38 -84t-96 -33q-54 0 -88 31q-35 32 -38 66l87 26q7 -39 39 -39q17 0 28 10t11 24q0 21 -22 28q-22 6 -35 -6l-41 47l37 49h-90v84h238z" />
    <glyph glyph-name="four.dnom" horiz-adv-x="367" 
d="M187 46h-155l94 266h94l-59 -182h26v47h95v-47h37v-84h-37v-46h-95v46z" />
    <glyph glyph-name="five.dnom" horiz-adv-x="356" 
d="M160 228l-3 -21q18 8 44 5t50 -11.5t40.5 -34t16.5 -61.5q0 -47 -37.5 -80t-96.5 -33t-90 31q-33 32 -36 61l88 23q2 -12 12.5 -21.5t25.5 -9.5q17 0 28 10.5t11 23.5q0 27 -29 32q-30 4 -43 -15l-82 25l25 160h188v-84h-112z" />
    <glyph glyph-name="six.dnom" horiz-adv-x="363" 
d="M268 312l-65 -92q48 -1 80 -33.5t32 -78.5q0 -50 -37.5 -83t-96.5 -33q-60 0 -96.5 33t-36.5 83q0 33 20 71q19 34 93 133h107zM181 76q24 0 34 18t0 36t-34 18q-23 1 -32.5 -17.5t0 -37t32.5 -17.5z" />
    <glyph glyph-name="seven.dnom" horiz-adv-x="316" 
d="M48 228v84h252l-120 -312h-99l86 228h-119z" />
    <glyph glyph-name="eight.dnom" horiz-adv-x="348" 
d="M264 164q36 -28 36 -70q0 -43 -36 -72.5t-90 -29.5q-56 0 -91 28.5t-35 73.5q0 42 34 70q-23 26 -23 59q0 42 32.5 69.5t82.5 27.5q47 0 80.5 -28.5t33.5 -68.5q0 -33 -24 -59zM154 237q-13 -11 -6 -26t26 -15q17 0 23.5 12t0 24t-23.5 12q-13 0 -20 -7zM152 76
q15 -13 33.5 -5.5t18.5 25.5q0 17 -15 23.5t-30.5 0t-15.5 -23.5q0 -12 9 -20z" />
    <glyph glyph-name="nine.dnom" horiz-adv-x="363" 
d="M95 0l65 92q-48 1 -80 33.5t-32 78.5q0 50 37.5 83t96.5 33q60 0 96.5 -33t36.5 -83q0 -35 -19 -70q-16 -30 -94 -134h-107zM182 236q-24 0 -34 -18t0 -36t34 -18q23 -1 32.5 17.5t0 37t-32.5 17.5z" />
    <glyph glyph-name="zero.numr" horiz-adv-x="403" 
d="M93 665q44 47 108 47t109 -47t45 -117t-45 -117t-109 -47t-108 47q-45 47 -45 117t45 117zM160 491q16 -23 41 -23t42 23t17 58t-17 57t-42 22t-41 -22t-16 -57t16 -58z" />
    <glyph glyph-name="one.numr" horiz-adv-x="304" 
d="M64 584v84l144 44v-320h-95v207z" />
    <glyph glyph-name="two.numr" horiz-adv-x="355" 
d="M252 495l-17 -19h72v-84h-251l95 109q40 46 53 68q8 14 8 25q0 15 -9.5 24.5t-24.5 9.5q-16 0 -25.5 -9.5t-9.5 -24.5q0 -12 10 -28l-82 -32q-23 32 -23 64q0 47 36.5 80.5t93.5 33.5q56 0 93 -34q36 -34 36 -80q0 -41 -24 -68q-9 -12 -21 -24q-5 -6 -10 -11z" />
    <glyph glyph-name="three.numr" horiz-adv-x="356" 
d="M300 704l-72 -102q33 -7 56.5 -33t23.5 -68q0 -51 -38 -84t-96 -33q-54 0 -88 31q-35 32 -38 66l87 26q7 -39 39 -39q17 0 28 10t11 24q0 21 -22 28q-22 6 -35 -6l-41 47l37 49h-90v84h238z" />
    <glyph glyph-name="four.numr" horiz-adv-x="367" 
d="M187 438h-155l94 266h94l-59 -182h26v47h95v-47h37v-84h-37v-46h-95v46z" />
    <glyph glyph-name="five.numr" horiz-adv-x="356" 
d="M160 620l-3 -21q18 8 44 5t50 -11.5t40.5 -34t16.5 -61.5q0 -47 -37.5 -80t-96.5 -33t-90 31q-33 32 -36 61l88 23q2 -12 12.5 -21.5t25.5 -9.5q17 0 28 10.5t11 23.5q0 27 -29 32q-30 4 -43 -15l-82 25l25 160h188v-84h-112z" />
    <glyph glyph-name="six.numr" horiz-adv-x="363" 
d="M268 704l-65 -92q48 -1 80 -33.5t32 -78.5q0 -50 -37.5 -83t-96.5 -33q-60 0 -96.5 33t-36.5 83q0 33 20 71q19 34 93 133h107zM181 468q24 0 34 18t0 36t-34 18q-23 1 -32.5 -17.5t0 -37t32.5 -17.5z" />
    <glyph glyph-name="seven.numr" horiz-adv-x="316" 
d="M48 620v84h252l-120 -312h-99l86 228h-119z" />
    <glyph glyph-name="eight.numr" horiz-adv-x="348" 
d="M264 556q36 -28 36 -70q0 -43 -36 -72.5t-90 -29.5q-56 0 -91 28.5t-35 73.5q0 42 34 70q-23 26 -23 59q0 42 32.5 69.5t82.5 27.5q47 0 80.5 -28.5t33.5 -68.5q0 -33 -24 -59zM154 629q-13 -11 -6 -26t26 -15q17 0 23.5 12t0 24t-23.5 12q-13 0 -20 -7zM152 468
q15 -13 33.5 -5.5t18.5 25.5q0 17 -15 23.5t-30.5 0t-15.5 -23.5q0 -12 9 -20z" />
    <glyph glyph-name="nine.numr" horiz-adv-x="363" 
d="M95 392l65 92q-48 1 -80 33.5t-32 78.5q0 50 37.5 83t96.5 33q60 0 96.5 -33t36.5 -83q0 -35 -19 -70q-16 -30 -94 -134h-107zM182 628q-24 0 -34 -18t0 -36t34 -18q23 -1 32.5 17.5t0 37t-32.5 17.5z" />
    <glyph glyph-name="exclam.case" horiz-adv-x="304" 
d="M216 224h-128l-16 480h160zM215 10q-25 -26 -62 -26t-63 26t-26 63t26 62t63 25t62 -25t25 -62t-25 -63z" />
    <glyph glyph-name="exclamdown.case" horiz-adv-x="304" 
d="M90 695q26 25 63 25t62 -25t25 -62t-25 -63t-62 -26t-63 26t-26 63t26 62zM72 0l16 480h128l16 -480h-160z" />
    <glyph glyph-name="question.case" horiz-adv-x="512" 
d="M232 720q112 0 172 -60t60 -140q0 -66 -36 -113q-20 -25 -33 -39q-32 -31 -41 -40q-48 -44 -50 -104h-128q-4 75 32 131q9 13 40 48t42 51q14 23 14 52q0 28 -23 49t-56 21q-52 0 -85 -46l-92 99q27 39 75.5 65t108.5 26zM178 135q26 25 63 25t62 -25t25 -62t-25 -63
t-62 -26t-63 26t-26 63t26 62z" />
    <glyph glyph-name="questiondown.case" horiz-adv-x="512" 
d="M335 570q-25 -26 -62 -26t-63 26t-26 63t26 62t63 25t62 -25t25 -62t-25 -63zM280 -16q-112 0 -172 60t-60 140q0 66 37 114q23 30 32 39q22 22 41 39q48 44 50 104h128q4 -75 -32 -131q-8 -12 -39.5 -47t-41.5 -52q-15 -22 -15 -52q0 -28 23 -49t56 -21q52 0 85 46
l92 -99q-27 -39 -75.5 -65t-108.5 -26z" />
    <glyph glyph-name="braceleft.case" horiz-adv-x="368" 
d="M48 304v96q30 1 47 18.5t17 45.5v250q0 158 160 182l48 -96q-64 -16 -64 -106v-196q0 -114 -75 -146q75 -32 75 -146v-196q0 -90 64 -106l-48 -96q-160 24 -160 182v250q0 28 -17 45.5t-47 18.5z" />
    <glyph glyph-name="braceright.case" horiz-adv-x="368" 
d="M320 400v-96q-30 -1 -47 -18.5t-17 -45.5v-250q0 -158 -160 -182l-48 96q64 16 64 106v196q0 114 75 146q-75 32 -75 146v196q0 90 -64 106l48 96q160 -24 160 -182v-250q0 -28 17 -45.5t47 -18.5z" />
    <glyph glyph-name="bracketleft.case" horiz-adv-x="336" 
d="M272 736h-64v-768h64v-144h-208v1056h208v-144z" />
    <glyph glyph-name="bracketright.case" horiz-adv-x="336" 
d="M128 -32v768h-64v144h208v-1056h-208v144h64z" />
    <glyph glyph-name="parenleft.case" horiz-adv-x="320" 
d="M168 832l120 -72q-45 -90 -71 -202q-25 -107 -25 -206t25 -206q26 -112 71 -202l-120 -72q-120 212 -120 480t120 480z" />
    <glyph glyph-name="parenright.case" horiz-adv-x="320" 
d="M32 760l120 72q120 -212 120 -480t-120 -480l-120 72q45 90 71 202q25 107 25 206t-25 206q-26 112 -71 202z" />
    <glyph glyph-name="emdash.case" horiz-adv-x="624" 
d="M576 408v-112h-528v112h528z" />
    <glyph glyph-name="endash.case" horiz-adv-x="528" 
d="M480 408v-112h-432v112h432z" />
    <glyph glyph-name="hyphen.case" horiz-adv-x="400" 
d="M352 408v-112h-304v112h304z" />
    <glyph glyph-name="guillemotleft.case" horiz-adv-x="592" 
d="M48 352l128 208l96 -56l-96 -152l96 -152l-96 -56zM416 560l96 -56l-96 -152l96 -152l-96 -56l-128 208z" />
    <glyph glyph-name="guillemotright.case" horiz-adv-x="592" 
d="M176 352l-96 152l96 56l128 -208l-128 -208l-96 56zM320 504l96 56l128 -208l-128 -208l-96 56l96 152z" />
    <glyph glyph-name="guilsinglleft.case" horiz-adv-x="352" 
d="M48 352l128 208l96 -56l-96 -152l96 -152l-96 -56z" />
    <glyph glyph-name="guilsinglright.case" horiz-adv-x="352" 
d="M80 504l96 56l128 -208l-128 -208l-96 56l96 152z" />
    <glyph glyph-name="parenleft_one_parenright.dlig" horiz-adv-x="832" 
d="M154 614q106 106 262 106t262 -106t106 -262t-106 -262t-262 -106q-154 0 -261 107t-107 261q0 156 106 262zM235 171q74 -75 181 -75t182 75q74 74 74 181q0 106 -74 182q-76 74 -182 74q-107 0 -181 -74q-75 -75 -75 -182q0 -108 75 -181zM368 421l-61 -19v105l173 53
v-400h-112v261z" />
    <glyph glyph-name="parenleft_two_parenright.dlig" horiz-adv-x="832" 
d="M416 -16q-154 0 -261 107t-107 261q0 156 106 262t262 106t262 -106t106 -262t-106 -262t-262 -106zM235 171q74 -75 181 -75t182 75q74 74 74 181q0 106 -74 182q-76 74 -182 74q-107 0 -181 -74q-75 -75 -75 -182q0 -108 75 -181zM494 280l-19 -21h90v-99h-301l112 136
q63 75 70 92q7 13 7 25q0 19 -12 30.5t-31 11.5q-20 0 -32 -11.5t-12 -30.5q0 -13 13 -35l-97 -40q-28 37 -28 80q0 56 43 99t113 43t113 -42q42 -44 42 -100q0 -26 -13 -55.5t-26 -45.5q-2 -2 -12.5 -14.5t-19.5 -22.5z" />
    <glyph glyph-name="parenleft_three_parenright.dlig" horiz-adv-x="832" 
d="M416 -16q-154 0 -261 107t-107 261q0 156 106 262t262 106t262 -106t106 -262t-106 -262t-262 -106zM235 171q74 -75 181 -75t182 75q74 74 74 181q0 106 -74 182q-76 74 -182 74q-107 0 -181 -74q-75 -75 -75 -182q0 -108 75 -181zM562 544l-89 -127q41 -9 70 -42
t29 -85q0 -64 -46 -104q-46 -42 -115 -42q-63 0 -105 39t-46 82l102 33q3 -23 16 -39t33 -16q21 0 35 13.5t14 32.5q0 25 -27 36q-28 9 -44 -6l-54 59l51 67h-109v99h285z" />
    <glyph glyph-name="parenleft_four_parenright.dlig" horiz-adv-x="832" 
d="M416 -16q-154 0 -261 107t-107 261q0 156 106 262t262 106t262 -106t106 -262t-106 -262t-262 -106zM235 171q74 -75 181 -75t182 75q74 74 74 181q0 106 -74 182q-76 74 -182 74q-107 0 -181 -74q-75 -75 -75 -182q0 -108 75 -181zM421 219h-189l118 329h112l-78 -230
h37v60h112v-60h46v-99h-46v-63h-112v63z" />
    <glyph glyph-name="parenleft_five_parenright.dlig" horiz-adv-x="832" 
d="M154 614q106 106 262 106t262 -106t106 -262t-106 -262t-262 -106q-154 0 -261 107t-107 261q0 156 106 262zM235 171q74 -75 181 -75t182 75q74 74 74 181q0 106 -74 182q-76 74 -182 74q-107 0 -181 -74q-75 -75 -75 -182q0 -108 75 -181zM395 446l-5 -33q23 10 54 6.5
t59.5 -14.5t48.5 -42.5t20 -77.5q0 -57 -45 -99t-116 -42q-67 0 -108 39q-40 37 -43 76l104 29q2 -17 14.5 -30t32.5 -13q21 0 35 13.5t14 31.5q0 35 -37 41t-53 -18l-97 31l32 200h222v-98h-132z" />
    <glyph glyph-name="parenleft_six_parenright.dlig" horiz-adv-x="832" 
d="M416 -16q-154 0 -261 107t-107 261q0 156 106 262t262 106t262 -106t106 -262t-106 -262t-262 -106zM235 171q74 -75 181 -75t182 75q74 74 74 181q0 106 -74 182q-76 74 -182 74q-107 0 -181 -74q-75 -75 -75 -182q0 -108 75 -181zM515 544l-82 -115q58 -1 97 -42
t39 -98q0 -61 -45 -103t-116 -42q-73 0 -116 42q-44 42 -44 103q0 43 25 89q22 43 116 166h126zM374 259q14 -14 34.5 -14t34.5 14t14 35t-14 35t-34.5 14t-34.5 -14t-14 -35t14 -35z" />
    <glyph glyph-name="parenleft_seven_parenright.dlig" horiz-adv-x="832" 
d="M416 -16q-154 0 -261 107t-107 261q0 156 106 262t262 106t262 -106t106 -262t-106 -262t-262 -106zM235 171q74 -75 181 -75t182 75q74 74 74 181q0 106 -74 182q-76 74 -182 74q-107 0 -181 -74q-75 -75 -75 -182q0 -108 75 -181zM278 450v98h283l-143 -392h-120
l110 294h-130z" />
    <glyph glyph-name="parenleft_eight_parenright.dlig" horiz-adv-x="832" 
d="M154 614q106 106 262 106t262 -106t106 -262t-106 -262t-262 -106q-154 0 -261 107t-107 261q0 156 106 262zM235 171q74 -75 181 -75t182 75q74 74 74 181q0 106 -74 182q-76 74 -182 74q-107 0 -181 -74q-75 -75 -75 -182q0 -108 75 -181zM525 363q42 -37 42 -88
q0 -54 -43 -90q-43 -37 -108 -37q-68 0 -109.5 35.5t-41.5 91.5q0 54 40 88q-26 32 -26 72q0 52 38.5 86.5t98.5 34.5q56 0 97 -35q39 -36 39 -86q0 -41 -27 -72zM381 434q0 -14 10 -23t25 -9q14 0 24 9t10 23q0 13 -10 22t-24 9q-15 0 -25 -9t-10 -22zM416 239
q16 0 26.5 10t10.5 26q2 22 -17.5 31.5t-39.5 0t-19 -31.5q0 -16 11 -26t28 -10z" />
    <glyph glyph-name="parenleft_nine_parenright.dlig" horiz-adv-x="832" 
d="M416 -16q-154 0 -261 107t-107 261q0 156 106 262t262 106t262 -106t106 -262t-106 -262t-262 -106zM235 171q74 -75 181 -75t182 75q74 74 74 181q0 106 -74 182q-76 74 -182 74q-107 0 -181 -74q-75 -75 -75 -182q0 -108 75 -181zM317 160l82 115q-58 1 -97 42t-39 98
q0 61 45 103t116 42q72 0 116 -42t44 -103q0 -43 -24 -89q-25 -45 -117 -166h-126zM459 445q-13 14 -34.5 14t-35.5 -14t-14 -35t14 -35t35.5 -14t34.5 14t13 35t-13 35z" />
    <glyph glyph-name="copyright.ss02" horiz-adv-x="520" 
d="M411 357q-61 -61 -151 -61q-89 0 -151 62q-61 61 -61 150q0 90 61 151t151 61t151 -61t61 -151t-61 -151zM156 404q42 -43 104 -43t105 43q42 42 42 104t-42 105q-43 42 -105 42t-104 -42q-43 -43 -43 -105t43 -104zM263 447q27 0 43 13l29 -49q-31 -24 -72 -24
q-52 0 -88 36q-37 34 -37 85q0 50 37 86q37 35 88 35q41 0 72 -24l-29 -49q-16 13 -43 13q-26 0 -43.5 -18t-17.5 -43t17.5 -43t43.5 -18z" />
    <glyph glyph-name="registered.ss02" horiz-adv-x="520" 
d="M411 357q-61 -61 -151 -61q-89 0 -151 62q-61 61 -61 150q0 90 61 151t151 61t151 -61t61 -151t-61 -151zM156 404q42 -43 104 -43t105 43q42 42 42 104t-42 105q-43 42 -105 42t-104 -42q-43 -43 -43 -105t43 -104zM310 471l40 -78h-70l-29 64h-4v-64h-65v230h65
q49 0 74 -22.5t25 -60.5q0 -44 -36 -69zM247 564v-55q34 0 34 28q0 27 -34 27z" />
    <glyph glyph-name="trademark.ss02" horiz-adv-x="652" 
d="M454 558l150 152v-320h-84v131l-66 -77l-67 77v-131h-84v320zM48 627v77h217v-77h-66v-237h-85v237h-66z" />
    </font>
</defs>
</svg>
