<svg width="16" height="16" viewBox="0 0 16 16" fill="none" xmlns="http://www.w3.org/2000/svg">
<path d="M15 8.00858C15 7.1464 14.8368 6.32405 14.5524 5.56128C14.4772 8.07195 11.9285 10.0158 10.4321 11.3021H14.1776C14.7011 10.3199 15 9.19943 15 8.00858ZM12.2923 2.48033C11.1065 1.5559 9.61958 1 8.00015 1C4.1341 1 1 4.13801 1 8.00858C1 11.8791 4.1341 15.017 8.00015 15.017C9.77046 15.017 11.3824 14.3539 12.6151 13.2686H7.54727L7.53182 11.7784C10.5854 9.12059 12.4573 7.32312 12.4573 5.58693C12.4573 4.94169 12.2118 4.12744 11.1071 4.12744C10.2324 4.12744 9.38856 4.63477 9.54193 6.75465H7.76214C7.31707 4.29676 8.65204 2.34544 11.1989 2.34544C11.5938 2.34544 11.9591 2.39263 12.2923 2.48033Z" fill="#A3C626"/>
</svg>
