<svg width="14" height="14" viewBox="0 0 14 14" fill="none" xmlns="http://www.w3.org/2000/svg">
<path fill-rule="evenodd" clip-rule="evenodd" d="M4.14937 3.3763V2.65823C4.14937 1.95322 4.44966 1.27709 4.98419 0.778577C5.51871 0.280062 6.24369 0 6.99962 0C7.75555 0 8.48053 0.280062 9.01505 0.778577C9.54958 1.27709 9.84987 1.95322 9.84987 2.65823V3.3763C10.8357 3.40253 11.4361 3.49681 11.896 3.84911C12.5268 4.33114 12.7016 5.14916 13.0536 6.78592L13.5096 8.91251C14.0143 11.2659 14.2666 12.4426 13.5826 13.2217C12.8977 14 11.611 14 9.0366 14H4.96264C2.38905 14 1.1015 14 0.417435 13.2217C-0.266626 12.4433 -0.014283 11.2666 0.490402 8.91251L0.946442 6.78592C1.29759 5.14916 1.47317 4.33114 2.10327 3.84911C2.56387 3.49752 3.16432 3.40253 4.15013 3.3763H4.14937ZM5.28947 2.65823C5.28947 2.23522 5.46964 1.82955 5.79036 1.53044C6.11108 1.23133 6.54606 1.06329 6.99962 1.06329C7.45318 1.06329 7.88816 1.23133 8.20888 1.53044C8.5296 1.82955 8.70977 2.23522 8.70977 2.65823V3.36709H5.28947V2.65823ZM9.27982 6.20253C9.48141 6.20253 9.67473 6.12785 9.81727 5.99491C9.95981 5.86197 10.0399 5.68167 10.0399 5.49367C10.0399 5.30567 9.95981 5.12537 9.81727 4.99243C9.67473 4.85949 9.48141 4.78481 9.27982 4.78481C9.07824 4.78481 8.88491 4.85949 8.74237 4.99243C8.59983 5.12537 8.51976 5.30567 8.51976 5.49367C8.51976 5.68167 8.59983 5.86197 8.74237 5.99491C8.88491 6.12785 9.07824 6.20253 9.27982 6.20253ZM5.47948 5.49367C5.47948 5.68167 5.39941 5.86197 5.25687 5.99491C5.11433 6.12785 4.921 6.20253 4.71942 6.20253C4.51783 6.20253 4.32451 6.12785 4.18197 5.99491C4.03943 5.86197 3.95935 5.68167 3.95935 5.49367C3.95935 5.30567 4.03943 5.12537 4.18197 4.99243C4.32451 4.85949 4.51783 4.78481 4.71942 4.78481C4.921 4.78481 5.11433 4.85949 5.25687 4.99243C5.39941 5.12537 5.47948 5.30567 5.47948 5.49367Z" fill="white"/>
</svg>
