<svg width="10" height="10" viewBox="0 0 10 10" fill="none" xmlns="http://www.w3.org/2000/svg">
<path d="M0.175719 8.72408C0.0585729 8.60712 -4.59568e-08 8.47422 0 8.32536C-1.52408e-07 8.1765 0.0585727 8.04359 0.175719 7.92663L3.19489 4.91228L0.239617 1.96172C0.122471 1.84476 0.0638978 1.71186 0.0638978 1.563C0.0638978 1.41414 0.117146 1.28655 0.223643 1.18022L1.23003 0.175439C1.34718 0.0584796 1.4803 -6.27385e-09 1.62939 0C1.77849 6.27385e-09 1.91161 0.0584796 2.02875 0.175439L4.98403 3.126L7.90735 0.207336C8.02449 0.0903776 8.15761 0.0318984 8.30671 0.0318989C8.4558 0.0318986 8.58892 0.090378 8.70607 0.207337L9.80831 1.30782C9.92545 1.42477 9.98403 1.55768 9.98402 1.70654C9.98403 1.8554 9.92545 1.9883 9.80831 2.10526L6.88498 5.02392L9.84025 7.97448C9.94675 8.08081 10 8.2084 10 8.35726C10 8.50611 9.94143 8.63902 9.82428 8.75598L8.81789 9.76077C8.71139 9.86709 8.5836 9.92025 8.4345 9.92025C8.28541 9.92025 8.15761 9.86709 8.05112 9.76077L5.09585 6.81021L2.07668 9.82456C1.95953 9.94152 1.82641 10 1.67732 10C1.52822 10 1.3951 9.94152 1.27795 9.82456L0.175719 8.72408Z" fill="#C73737"/>
</svg>
