<svg width="46" height="46" viewBox="0 0 46 46" fill="none" xmlns="http://www.w3.org/2000/svg">
<rect width="46" height="46" rx="10" fill="#F26210"/>
<path d="M31.9901 26.8418C31.8385 27.9935 31.2729 29.0508 30.3988 29.816C29.5247 30.5812 28.4019 31.0021 27.2402 31C20.4911 31 15 25.5089 15 18.7599C14.9979 17.5982 15.4188 16.4754 16.184 15.6013C16.9492 14.7272 18.0065 14.1616 19.1583 14.01C19.4495 13.9745 19.7445 14.0341 19.9991 14.1799C20.2537 14.3257 20.4543 14.55 20.571 14.8192L22.3662 18.827V18.8372C22.4556 19.0433 22.4925 19.2683 22.4736 19.4921C22.4548 19.716 22.3808 19.9316 22.2583 20.1199C22.243 20.1428 22.2268 20.1641 22.2098 20.1853L20.4401 22.2832C21.0768 23.5769 22.43 24.9182 23.7407 25.5565L25.8096 23.7962C25.83 23.7791 25.8512 23.7632 25.8734 23.7486C26.0615 23.6231 26.2779 23.5465 26.5031 23.5258C26.7282 23.505 26.955 23.5407 27.1629 23.6296L27.1739 23.6347L31.1783 25.429C31.448 25.5453 31.6729 25.7457 31.8192 26.0004C31.9655 26.255 32.0255 26.5502 31.9901 26.8418Z" fill="white"/>
</svg>
