<svg width="46" height="46" viewBox="0 0 46 46" fill="none" xmlns="http://www.w3.org/2000/svg">
<rect width="46" height="46" rx="10" fill="#F26210"/>
<path d="M23.5 13C19.3645 13 16 16.2493 16 20.2432C16 25.1998 22.7118 32.4763 22.9975 32.7837C23.2659 33.0724 23.7346 33.0719 24.0025 32.7837C24.2882 32.4763 31 25.1998 31 20.2432C30.9999 16.2493 27.6355 13 23.5 13ZM23.5 23.8875C21.4193 23.8875 19.7266 22.2527 19.7266 20.2432C19.7266 18.2338 21.4194 16.599 23.5 16.599C25.5806 16.599 27.2734 18.2338 27.2734 20.2433C27.2734 22.2527 25.5806 23.8875 23.5 23.8875Z" fill="white"/>
</svg>
