<svg width="46" height="46" viewBox="0 0 46 46" fill="none" xmlns="http://www.w3.org/2000/svg">
<rect width="46" height="46" fill="#F26210"/>
<path d="M34 22.3447C34 22.7743 34 23.2039 34 23.6335C33.9893 23.7087 33.9732 23.7839 33.9624 23.859C33.9087 24.2564 33.8819 24.6592 33.8067 25.0512C33.3878 27.2421 32.3944 29.1323 30.8264 30.7164C29.1832 32.3757 27.2071 33.4175 24.9034 33.8203C24.4899 33.8901 24.071 33.933 23.6522 33.9921C23.2226 33.9921 22.793 33.9921 22.3634 33.9921C22.2989 33.9813 22.2399 33.9652 22.1754 33.9545C21.574 33.8632 20.9672 33.8095 20.3765 33.6699C14.7274 32.3113 11.0919 26.6407 12.1981 20.9324C12.6546 18.5589 13.7661 16.5345 15.549 14.9128C18.0943 12.593 21.1068 11.6693 24.5167 12.1043C26.6915 12.3782 28.6032 13.2696 30.2464 14.7194C32.1796 16.4271 33.3878 18.5482 33.8335 21.0989C33.9033 21.5124 33.9463 21.9312 34 22.3447ZM23.0024 14.1449C18.1641 14.1771 14.2065 18.0434 14.1635 22.9515C14.1206 27.8006 18.0889 31.8012 22.9702 31.8226C27.8246 31.8441 31.8037 27.9187 31.8413 23.0106C31.8789 18.1669 27.8998 14.1771 23.0024 14.1449Z" fill="white"/>
<path d="M15.5059 23.6071C15.726 23.6071 15.9301 23.6125 16.1395 23.6071C16.5637 23.6017 16.8483 23.344 16.8537 22.9681C16.8591 22.5922 16.5584 22.313 16.1341 22.3076C15.9355 22.3022 15.7368 22.3076 15.5327 22.3076C15.7045 18.8547 18.7869 15.7294 22.2666 15.52C22.2666 15.7187 22.2612 15.9174 22.2666 16.1161C22.272 16.5188 22.5351 16.7981 22.911 16.8034C23.2922 16.8034 23.5607 16.5188 23.5661 16.1053C23.5661 15.9013 23.5661 15.6918 23.5661 15.4878C27.2767 15.7348 30.1926 18.7688 30.4826 22.2217C30.2194 22.2217 29.9563 22.2109 29.6932 22.2217C29.3334 22.2378 29.0542 22.5385 29.0649 22.8822C29.0756 23.2258 29.3388 23.4943 29.6986 23.5158C29.8919 23.5266 30.0852 23.5212 30.2785 23.5212C30.3483 23.5212 30.4181 23.5212 30.4879 23.5212C30.3966 26.7109 27.6687 30.1692 23.6467 30.486C23.6467 30.239 23.6467 29.9866 23.6467 29.7396C23.6413 29.3207 23.3835 29.0361 23.0076 29.0307C22.621 29.0254 22.3579 29.3153 22.3525 29.7503C22.3525 29.9919 22.3525 30.2336 22.3525 30.4752C19.1681 30.3034 15.8281 27.6023 15.5059 23.6071ZM22.9808 22.0982C22.911 22.0122 22.8734 21.9424 22.8143 21.8834C21.8101 20.8738 20.8006 19.8696 19.7911 18.8601C19.7266 18.7957 19.6622 18.7259 19.5816 18.6722C19.3615 18.5218 19.1252 18.5111 18.8943 18.6399C18.6687 18.7688 18.5291 18.9729 18.5775 19.2253C18.6097 19.4078 18.7063 19.6065 18.8406 19.7408C20.0381 20.9544 21.2463 22.1572 22.4492 23.3601C22.8251 23.736 23.1687 23.736 23.5446 23.3601C24.2159 22.6942 24.8817 22.023 25.5476 21.3571C25.5959 21.3088 25.6496 21.2551 25.6926 21.196C25.9718 20.8148 25.7731 20.2885 25.3113 20.1811C25.0428 20.122 24.8388 20.2241 24.6562 20.4066C24.1138 20.9597 23.5715 21.5075 22.9808 22.0982Z" fill="white"/>
</svg>
