<svg width="46" height="46" viewBox="0 0 46 46" fill="none" xmlns="http://www.w3.org/2000/svg">
<rect width="46" height="46" rx="10" fill="#F26210"/>
<path fill-rule="evenodd" clip-rule="evenodd" d="M16 31C15.2044 31 14.4413 30.6839 13.8787 30.1213C13.3161 29.5587 13 28.7956 13 28V18C13 17.2044 13.3161 16.4413 13.8787 15.8787C14.4413 15.3161 15.2044 15 16 15H30C30.7956 15 31.5587 15.3161 32.1213 15.8787C32.6839 16.4413 33 17.2044 33 18V28C33 28.7956 32.6839 29.5587 32.1213 30.1213C31.5587 30.6839 30.7956 31 30 31H16ZM18.625 19.22C18.5231 19.133 18.4048 19.0674 18.2771 19.027C18.1494 18.9866 18.0149 18.9723 17.8815 18.9849C17.7482 18.9975 17.6187 19.0368 17.5008 19.1004C17.3829 19.164 17.279 19.2506 17.1953 19.3552C17.1115 19.4597 17.0496 19.58 17.0132 19.7089C16.9768 19.8378 16.9667 19.9727 16.9835 20.1056C17.0003 20.2385 17.0436 20.3667 17.1108 20.4826C17.1781 20.5984 17.2679 20.6995 17.375 20.78L21.125 23.781C21.6571 24.207 22.3184 24.4391 23 24.4391C23.6816 24.4391 24.3429 24.207 24.875 23.781L28.625 20.781C28.7276 20.6989 28.813 20.5975 28.8763 20.4824C28.9396 20.3673 28.9797 20.2409 28.9942 20.1103C29.0087 19.9797 28.9973 19.8476 28.9607 19.7215C28.9241 19.5953 28.8631 19.4776 28.781 19.375C28.6989 19.2724 28.5974 19.187 28.4824 19.1237C28.3673 19.0604 28.2409 19.0203 28.1103 19.0058C27.9798 18.9913 27.8476 19.0027 27.7215 19.0393C27.5953 19.0759 27.4776 19.1369 27.375 19.219L23.625 22.219C23.4476 22.361 23.2272 22.4384 23 22.4384C22.7728 22.4384 22.5524 22.361 22.375 22.219L18.625 19.219V19.22Z" fill="white"/>
</svg>
