<svg width="17" height="17" viewBox="0 0 17 17" fill="none" xmlns="http://www.w3.org/2000/svg">
<path d="M16.9901 12.8418C16.8385 13.9935 16.2729 15.0508 15.3988 15.816C14.5247 16.5812 13.4019 17.0021 12.2402 17C5.4911 17 7.69148e-06 11.5089 7.69148e-06 4.75987C-0.00207483 3.59816 0.418799 2.47541 1.18402 1.60132C1.94924 0.727238 3.00648 0.16159 4.15828 0.0100281C4.44954 -0.0255355 4.74449 0.0340509 4.9991 0.179892C5.25371 0.325734 5.45433 0.550008 5.571 0.819236L7.36623 4.82702V4.83722C7.45556 5.04331 7.49245 5.26831 7.47361 5.49214C7.45478 5.71596 7.3808 5.93163 7.25828 6.11989C7.24298 6.14284 7.22683 6.16409 7.20983 6.18534L5.4401 8.28316C6.07676 9.57687 7.42999 10.9182 8.74071 11.5565L10.8096 9.79617C10.83 9.77909 10.8512 9.7632 10.8734 9.74857C11.0615 9.62311 11.2779 9.54653 11.5031 9.52575C11.7282 9.50497 11.955 9.54066 12.1629 9.62957L12.1739 9.63467L16.1783 11.429C16.448 11.5453 16.6729 11.7457 16.8192 12.0004C16.9655 12.255 17.0255 12.5502 16.9901 12.8418Z" fill="#F26210"/>
</svg>
