<svg width="222" height="222" viewBox="0 0 222 222" fill="none" xmlns="http://www.w3.org/2000/svg">
<path d="M192.228 118.445C191.972 119.133 191.494 119.663 190.795 120.034C190.109 120.407 189.361 120.56 188.55 120.494C187.328 120.395 186.385 119.89 185.723 118.98C185.049 118.056 184.769 116.896 184.882 115.501L185.151 112.192L199.185 113.331L198.982 115.823C198.857 117.365 198.442 118.528 197.736 119.314C197.042 120.113 196.104 120.465 194.921 120.369C194.31 120.32 193.771 120.115 193.306 119.757C192.839 119.411 192.48 118.974 192.228 118.445ZM197.207 115.94L197.275 115.102L193.209 114.772L193.141 115.61C193.074 116.434 193.213 117.1 193.56 117.61C193.907 118.12 194.399 118.401 195.037 118.452C195.661 118.503 196.159 118.303 196.53 117.851C196.914 117.414 197.139 116.777 197.207 115.94ZM186.75 114.248L186.659 115.364C186.583 116.308 186.716 117.054 187.059 117.604C187.401 118.167 187.945 118.479 188.689 118.539C189.46 118.602 190.079 118.384 190.548 117.887C191.016 117.39 191.288 116.677 191.364 115.746L191.454 114.63L186.75 114.248Z" fill="#F26210"/>
<path d="M192.663 126.492L192.196 128.354L186.726 126.983L191.185 132.389L190.796 133.941L182.105 131.762L182.571 129.9L188.042 131.271L183.583 125.865L183.972 124.313L192.663 126.492Z" fill="#F26210"/>
<path d="M185.681 147.252L179.115 144.3L178.459 145.759L175.102 144.25L175.889 142.499L177.641 143.286L180.396 137.157L178.645 136.37L179.432 134.619L182.789 136.128L182.256 137.314L188.109 141.853L185.681 147.252ZM185.905 142.463L181.452 139.101L179.902 142.549L184.864 144.78L185.905 142.463Z" fill="#F26210"/>
<path d="M173.904 152.956C173.46 153.606 173.329 154.412 173.51 155.376L171.733 155.494C171.467 154.23 171.706 153.053 172.451 151.963C173.173 150.906 174.165 150.26 175.425 150.023C176.685 149.786 177.843 150.029 178.9 150.751C179.957 151.474 180.604 152.465 180.84 153.725C181.077 154.985 180.834 156.144 180.112 157.2C179.548 158.026 178.829 158.568 177.957 158.828C177.096 159.096 176.192 159.059 175.246 158.719L175.758 151.874C175.433 151.878 175.097 151.979 174.751 152.178C174.397 152.389 174.115 152.648 173.904 152.956ZM178.659 156.207C179.065 155.613 179.181 154.924 179.005 154.142C178.829 153.359 178.433 152.758 177.817 152.336C177.795 152.321 177.644 152.234 177.365 152.076L176.972 157.186C177.675 157.15 178.238 156.823 178.659 156.207Z" fill="#F26210"/>
<path d="M171.459 161.394C172.378 162.286 172.846 163.373 172.865 164.655C172.883 165.937 172.447 167.037 171.555 167.955C170.663 168.873 169.576 169.342 168.294 169.36C167.012 169.379 165.912 168.942 164.994 168.05C164.075 167.159 163.607 166.072 163.588 164.79C163.57 163.507 164.006 162.407 164.898 161.489C165.79 160.571 166.877 160.103 168.159 160.084C169.441 160.065 170.541 160.502 171.459 161.394ZM168.101 161.952C167.318 161.935 166.672 162.189 166.161 162.715C165.64 163.251 165.4 163.91 165.44 164.692C165.46 165.455 165.757 166.116 166.331 166.673C166.896 167.221 167.569 167.504 168.352 167.521C169.125 167.528 169.772 167.264 170.292 166.729C170.794 166.212 171.034 165.563 171.014 164.781C170.974 163.98 170.676 163.31 170.122 162.771C169.567 162.232 168.893 161.959 168.101 161.952Z" fill="#F26210"/>
<path d="M156.099 175.497C156.754 176.597 156.924 177.768 156.61 179.011C156.295 180.254 155.587 181.203 154.488 181.858C153.388 182.514 152.217 182.684 150.974 182.369C149.731 182.054 148.782 181.347 148.127 180.247C147.472 179.147 147.302 177.976 147.616 176.733C147.931 175.49 148.639 174.541 149.738 173.886C150.838 173.231 152.009 173.061 153.252 173.376C154.495 173.691 155.444 174.398 156.099 175.497ZM152.711 175.164C151.96 174.945 151.269 175.023 150.639 175.398C149.998 175.78 149.594 176.354 149.43 177.119C149.251 177.862 149.367 178.577 149.776 179.264C150.179 179.94 150.756 180.388 151.508 180.607C152.252 180.816 152.945 180.729 153.587 180.346C154.205 179.978 154.606 179.413 154.789 178.652C154.959 177.869 154.846 177.145 154.45 176.48C154.054 175.816 153.475 175.377 152.711 175.164Z" fill="#F26210"/>
<path d="M134.233 190.837C132.999 191.176 131.838 191.026 130.749 190.385C129.66 189.744 128.946 188.807 128.606 187.573C128.267 186.338 128.414 185.164 129.047 184.049C129.681 182.935 130.615 182.208 131.849 181.868C133.083 181.529 134.258 181.676 135.372 182.309C136.487 182.943 137.214 183.877 137.554 185.111C137.946 186.538 138.006 187.863 137.734 189.086C137.462 190.308 136.874 191.59 135.971 192.931C135.518 193.595 135.219 194.092 135.074 194.422C134.918 194.811 134.794 195.288 134.7 195.853L132.695 196.404C132.636 195.84 132.744 195.202 133.019 194.49C133.293 193.778 133.684 193.138 134.192 192.57C135.051 191.573 135.577 190.695 135.77 189.937C135.363 190.367 134.85 190.667 134.233 190.837ZM134.376 183.89C133.71 183.479 133.023 183.371 132.316 183.565C131.596 183.763 131.055 184.209 130.693 184.903C130.324 185.572 130.245 186.292 130.457 187.063C130.666 187.822 131.103 188.407 131.77 188.818C132.432 189.217 133.124 189.317 133.844 189.119C134.538 188.928 135.074 188.49 135.453 187.805C135.824 187.094 135.908 186.366 135.702 185.621C135.497 184.875 135.055 184.298 134.376 183.89Z" fill="#F26210"/>
<path d="M116.074 189.08L115.67 184.899L117.581 184.714L117.692 185.869C118.351 184.921 119.231 184.394 120.332 184.288C121.288 184.195 122.098 184.405 122.764 184.916C123.442 185.413 123.823 186.1 123.908 186.976C123.989 187.812 123.749 188.525 123.19 189.115C122.618 189.706 121.896 190.064 121.023 190.188C120.138 190.314 119.179 190.226 118.145 189.924C118.36 191.323 119.099 191.962 120.359 191.84C121.116 191.767 121.787 191.508 122.374 191.062L123.303 192.359C122.528 193.077 121.577 193.49 120.449 193.599C117.848 193.851 116.389 192.344 116.074 189.08ZM117.933 188.357C118.41 188.579 118.982 188.678 119.649 188.654C120.317 188.629 120.891 188.473 121.372 188.186C121.842 187.912 122.048 187.551 121.991 187.101C121.957 186.756 121.791 186.484 121.49 186.285C121.176 186.088 120.787 186.012 120.323 186.057C119.712 186.116 119.167 186.369 118.688 186.817C118.209 187.266 117.957 187.779 117.933 188.357Z" fill="#F26210"/>
<path d="M108.574 186.16L109.03 180.258L110.944 180.406L109.884 194.125L107.97 193.977L108.056 192.86C107.259 193.655 106.269 194.006 105.086 193.915C103.849 193.819 102.828 193.285 102.02 192.314C101.226 191.343 100.878 190.219 100.977 188.943C101.075 187.667 101.592 186.61 102.526 185.773C103.473 184.937 104.565 184.567 105.801 184.662C106.984 184.754 107.908 185.253 108.574 186.16ZM103.511 191.185C104.013 191.786 104.636 192.115 105.381 192.172C106.139 192.231 106.798 192.001 107.36 191.483C107.934 190.979 108.252 190.321 108.315 189.51C108.377 188.7 108.164 188.001 107.674 187.415C107.199 186.816 106.583 186.488 105.825 186.429C105.08 186.372 104.414 186.601 103.826 187.117C103.264 187.636 102.953 188.294 102.891 189.091C102.829 189.889 103.036 190.587 103.511 191.185Z" fill="#F26210"/>
<path d="M91.2658 191.771C90.0266 191.45 89.0946 190.741 88.4699 189.642C87.8451 188.544 87.6931 187.375 88.0138 186.136C88.3345 184.897 89.0473 183.952 90.1522 183.302C91.2571 182.651 92.4292 182.486 93.6683 182.807C94.9075 183.128 95.8524 183.84 96.503 184.945C97.1535 186.05 97.3185 187.222 96.9978 188.461C96.6269 189.894 96.0189 191.073 95.1737 191.997C94.3285 192.921 93.1801 193.74 91.7287 194.452C91.0046 194.802 90.4978 195.084 90.2082 195.298C89.8794 195.558 89.5337 195.909 89.1711 196.352L87.1574 195.831C87.3881 195.312 87.7997 194.813 88.3922 194.333C88.9848 193.852 89.6426 193.492 90.3658 193.253C91.608 192.817 92.5014 192.318 93.0461 191.756C92.4788 191.926 91.8853 191.931 91.2658 191.771ZM94.8513 185.819C94.4786 185.131 93.9373 184.694 93.2274 184.511C92.5045 184.324 91.8131 184.441 91.1531 184.862C90.4998 185.258 90.073 185.843 89.8725 186.617C89.6754 187.379 89.7632 188.104 90.1359 188.793C90.5119 189.468 91.0613 189.9 91.7842 190.087C92.4812 190.267 93.1645 190.155 93.834 189.75C94.5103 189.319 94.9452 188.729 95.139 187.98C95.3328 187.232 95.2369 186.511 94.8513 185.819Z" fill="#F26210"/>
<path d="M80.5398 180.219C79.8235 179.894 79.0064 179.903 78.0884 180.248L77.6657 178.518C78.865 178.038 80.0656 178.07 81.2675 178.616C82.4329 179.145 83.241 180.01 83.6917 181.211C84.1424 182.411 84.1031 183.594 83.5739 184.76C83.0446 185.925 82.1798 186.733 80.9794 187.184C79.779 187.634 78.5961 187.595 77.4306 187.066C76.5201 186.652 75.8616 186.039 75.4552 185.224C75.0433 184.422 74.9233 183.526 75.095 182.535L81.9258 181.859C81.8661 181.539 81.7082 181.225 81.4521 180.919C81.1838 180.606 80.8797 180.373 80.5398 180.219ZM78.1583 185.463C78.8139 185.761 79.5118 185.756 80.2521 185.448C80.9924 185.14 81.5169 184.646 81.8257 183.966C81.8367 183.941 81.8962 183.778 82.0042 183.476L76.9031 183.971C77.06 184.657 77.4784 185.155 78.1583 185.463Z" fill="#F26210"/>
<path d="M71.6441 175.084L74.9672 170.185L76.5562 171.263L68.8324 182.651L67.2434 181.573L67.8721 180.646C66.7862 180.94 65.7522 180.755 64.7701 180.089C63.7439 179.393 63.1211 178.422 62.9017 177.178C62.6934 175.941 62.9485 174.793 63.667 173.734C64.3855 172.674 65.3578 172.013 66.584 171.749C67.8212 171.493 68.9529 171.712 69.9792 172.408C70.9612 173.075 71.5162 173.967 71.6441 175.084ZM64.7564 176.938C64.8945 177.708 65.2725 178.303 65.8904 178.722C66.5194 179.148 67.2062 179.276 67.9509 179.104C68.6992 178.951 69.3016 178.538 69.7581 177.865C70.2146 177.192 70.3756 176.48 70.2411 175.728C70.1251 174.972 69.7526 174.381 69.1236 173.955C68.5057 173.536 67.8134 173.404 67.0466 173.561C66.3019 173.733 65.705 174.149 65.256 174.812C64.8069 175.474 64.6404 176.182 64.7564 176.938Z" fill="#F26210"/>
<path d="M54.7226 161.81L49.5763 166.845L48.2335 165.473L54.6379 159.206L63.1421 167.898L56.7377 174.164L55.3949 172.792L60.5413 167.756L58.3034 165.469L53.157 170.505L51.8142 169.132L56.9606 164.097L54.7226 161.81Z" fill="#F26210"/>
<path d="M48.1309 158.362C47.0535 159.053 45.8885 159.262 44.6358 158.988C43.3831 158.715 42.4113 158.039 41.7202 156.962C41.0291 155.884 40.8204 154.719 41.094 153.467C41.3676 152.214 42.0432 151.242 43.1206 150.551C44.198 149.86 45.363 149.651 46.6157 149.925C47.8684 150.198 48.8403 150.874 49.5314 151.951C50.2224 153.029 50.4312 154.194 50.1575 155.446C49.8839 156.699 49.2083 157.671 48.1309 158.362ZM48.3519 154.965C48.5465 154.207 48.4459 153.519 48.0499 152.902C47.6468 152.273 47.06 151.889 46.2894 151.75C45.5413 151.596 44.8306 151.735 44.1572 152.167C43.4951 152.592 43.0667 153.183 42.872 153.942C42.6886 154.693 42.7985 155.383 43.2016 156.011C43.5903 156.617 44.168 156.999 44.9345 157.157C45.7234 157.301 46.4434 157.164 47.0943 156.746C47.7452 156.328 48.1644 155.735 48.3519 154.965Z" fill="#F26210"/>
<path d="M36.3772 147.683L33.3159 140.292L41.5939 136.863L42.3286 138.637L35.6766 141.392L37.2685 145.236L43.9205 142.481L44.6552 144.255L36.3772 147.683Z" fill="#F26210"/>
<path d="M37.454 128.6C37.2801 127.833 36.7785 127.188 35.9491 126.665L37.0714 125.283C38.1791 125.948 38.8788 126.924 39.1705 128.211C39.4533 129.46 39.2528 130.626 38.5689 131.711C37.885 132.795 36.9189 133.479 35.6705 133.762C34.4222 134.045 33.2557 133.844 32.1711 133.16C31.0865 132.477 30.4027 131.51 30.1199 130.262C29.8989 129.287 29.9899 128.391 30.3929 127.575C30.7829 126.762 31.4246 126.125 32.3178 125.663L36.9854 130.696C37.2042 130.455 37.3584 130.139 37.4479 129.75C37.5345 129.348 37.5365 128.964 37.454 128.6ZM31.8364 129.873C31.9955 130.575 32.4215 131.128 33.1145 131.532C33.8074 131.935 34.518 132.054 35.2462 131.889C35.2722 131.884 35.4383 131.832 35.7445 131.736L32.2667 127.971C31.8148 128.511 31.6714 129.145 31.8364 129.873Z" fill="#F26210"/>
<path d="M29.772 103.555C30.0285 102.867 30.5063 102.337 31.2053 101.966C31.891 101.593 32.6392 101.44 33.4498 101.506C34.6725 101.605 35.6147 102.11 36.2766 103.02C36.9507 103.944 37.2311 105.104 37.1179 106.499L36.8493 109.808L22.8154 108.669L23.0177 106.177C23.1428 104.636 23.5583 103.472 24.2642 102.687C24.9579 101.887 25.8961 101.535 27.0788 101.631C27.6902 101.68 28.2287 101.885 28.6946 102.244C29.1615 102.589 29.5206 103.026 29.772 103.555ZM24.793 106.06L24.725 106.898L28.7916 107.228L28.8596 106.391C28.9265 105.567 28.7866 104.9 28.4401 104.39C28.0935 103.88 27.6013 103.6 26.9634 103.548C26.3388 103.497 25.8409 103.697 25.4698 104.149C25.0865 104.586 24.8609 105.223 24.793 106.06ZM35.2504 107.752L35.341 106.636C35.4176 105.692 35.2842 104.946 34.9409 104.396C34.5986 103.833 34.0554 103.521 33.3112 103.461C32.5404 103.399 31.9208 103.616 31.4524 104.113C30.9839 104.61 30.712 105.324 30.6365 106.254L30.5458 107.37L35.2504 107.752Z" fill="#F26210"/>
<path d="M29.3369 95.5083L29.8038 93.6459L35.2745 95.0175L30.8155 89.6108L31.2046 88.0589L39.8956 90.2378L39.4287 92.1002L33.958 90.7286L38.417 96.1353L38.0279 97.6873L29.3369 95.5083Z" fill="#F26210"/>
<path d="M36.3187 74.7476L42.8855 77.7001L43.5416 76.2408L46.898 77.7498L46.1106 79.501L44.3595 78.7136L41.6039 84.8427L43.355 85.63L42.5677 87.3811L39.2113 85.8721L39.7444 84.6864L33.8911 80.147L36.3187 74.7476ZM36.095 79.5371L40.5481 82.8988L42.0982 79.4512L37.1366 77.2205L36.095 79.5371Z" fill="#F26210"/>
<path d="M48.0961 69.0437C48.5401 68.3943 48.6715 67.5878 48.4904 66.6241L50.267 66.5061C50.5333 67.7703 50.294 68.9473 49.5491 70.037C48.8267 71.0937 47.8354 71.7404 46.5753 71.9772C45.3151 72.214 44.1567 71.9712 43.1 71.2489C42.0433 70.5265 41.3966 69.5353 41.1598 68.2751C40.9229 67.0149 41.1657 65.8565 41.8881 64.7998C42.4524 63.9743 43.1707 63.4316 44.0428 63.1718C44.9039 62.9044 45.8077 62.9408 46.7542 63.281L46.2418 70.1261C46.5673 70.1224 46.9032 70.021 47.2494 69.8216C47.6032 69.6112 47.8854 69.3519 48.0961 69.0437ZM43.341 65.7931C42.9347 66.3875 42.8194 67.0758 42.9952 67.8582C43.171 68.6406 43.5672 69.2425 44.1836 69.6639C44.2056 69.6789 44.3562 69.7657 44.6354 69.9243L45.0277 64.8142C44.3246 64.8504 43.7624 65.1767 43.341 65.7931Z" fill="#F26210"/>
<path d="M50.5407 60.6063C49.6226 59.7144 49.1542 58.6274 49.1355 57.3454C49.1169 56.0633 49.5535 54.9631 50.4454 54.045C51.3372 53.1268 52.4242 52.6584 53.7063 52.6398C54.9883 52.6212 56.0885 53.0578 57.0066 53.9496C57.9248 54.8415 58.3932 55.9284 58.4118 57.2105C58.4304 58.4926 57.9938 59.5927 57.102 60.5109C56.2101 61.429 55.1232 61.8974 53.8411 61.9161C52.559 61.9347 51.4589 61.4981 50.5407 60.6063ZM53.8988 60.0483C54.6817 60.0652 55.3286 59.8106 55.8395 59.2846C56.3598 58.749 56.6001 58.0902 56.5604 57.3082C56.5399 56.5447 56.2427 55.8843 55.6688 55.3269C55.1046 54.7787 54.431 54.4962 53.6481 54.4793C52.8748 54.4717 52.2281 54.7357 51.7078 55.2713C51.2062 55.7877 50.9657 56.4371 50.9865 57.2194C51.0265 58.0203 51.3238 58.6902 51.8785 59.229C52.4332 59.7678 53.1066 60.0409 53.8988 60.0483Z" fill="#F26210"/>
<path d="M65.9009 46.5026C65.2458 45.4029 65.0757 44.2316 65.3906 42.9887C65.7055 41.7457 66.4128 40.7967 67.5124 40.1416C68.6121 39.4865 69.7834 39.3164 71.0264 39.6313C72.2693 39.9462 73.2183 40.6535 73.8734 41.7532C74.5285 42.8528 74.6986 44.0241 74.3837 45.2671C74.0688 46.51 73.3615 47.4591 72.2618 48.1142C71.1622 48.7692 69.9909 48.9393 68.7479 48.6244C67.505 48.3095 66.5559 47.6022 65.9009 46.5026ZM69.2886 46.8357C70.0403 47.0553 70.7311 46.9774 71.3611 46.6021C72.0026 46.22 72.4057 45.6462 72.5704 44.8806C72.7489 44.138 72.6333 43.4231 72.2239 42.7358C71.8213 42.06 71.2442 41.6123 70.4926 41.3927C69.7478 41.1845 69.0547 41.2715 68.4132 41.6536C67.7946 42.0221 67.3938 42.5868 67.2108 43.3477C67.0414 44.1315 67.1546 44.8556 67.5504 45.5199C67.9461 46.1843 68.5256 46.6229 69.2886 46.8357Z" fill="#F26210"/>
<path d="M87.7668 31.1631C89.0009 30.8236 90.1625 30.9743 91.2515 31.6151C92.3404 32.2559 93.0546 33.1934 93.3941 34.4275C93.7336 35.6617 93.5865 36.8361 92.9527 37.9508C92.319 39.0654 91.385 39.7925 90.1509 40.132C88.9167 40.4715 87.7423 40.3243 86.6276 39.6906C85.513 39.0569 84.7859 38.1229 84.4464 36.8888C84.0539 35.4618 83.9937 34.1369 84.2659 32.9143C84.538 31.6917 85.1258 30.4099 86.0292 29.069C86.4826 28.4049 86.7815 27.9078 86.9258 27.5778C87.0816 27.1892 87.2063 26.7124 87.2998 26.1473L89.3053 25.5957C89.3638 26.1604 89.2559 26.7985 88.9815 27.5101C88.707 28.2217 88.3161 28.8617 87.8086 29.4299C86.9489 30.427 86.4229 31.3046 86.2304 32.0628C86.6376 31.6327 87.1497 31.3328 87.7668 31.1631ZM87.624 38.1097C88.2903 38.5211 88.977 38.6295 89.6841 38.435C90.404 38.237 90.9451 37.7908 91.3072 37.0966C91.6765 36.4281 91.755 35.7081 91.5429 34.9368C91.3342 34.1783 90.8968 33.5933 90.2305 33.182C89.5677 32.7835 88.8764 32.6833 88.1564 32.8813C87.4622 33.0722 86.9258 33.5102 86.5473 34.1951C86.1758 34.9058 86.0926 35.6339 86.2977 36.3795C86.5028 37.1252 86.9449 37.7019 87.624 38.1097Z" fill="#F26210"/>
<path d="M105.926 32.9204L106.331 37.1009L104.419 37.2857L104.308 36.1311C103.649 37.0789 102.769 37.6061 101.668 37.7126C100.712 37.805 99.9016 37.5954 99.236 37.0837C98.5583 36.5866 98.1771 35.9001 98.0924 35.0242C98.0116 34.1881 98.2507 33.4751 98.8099 32.8852C99.3823 32.2941 100.105 31.9362 100.977 31.8117C101.862 31.6859 102.822 31.774 103.855 32.0758C103.64 30.6768 102.902 30.0382 101.641 30.1601C100.884 30.2333 100.213 30.4924 99.6262 30.9376L98.6971 29.641C99.4716 28.9231 100.423 28.5097 101.551 28.4006C104.152 28.1491 105.611 29.6557 105.926 32.9204ZM104.067 33.6427C103.59 33.4209 103.018 33.3222 102.351 33.3466C101.683 33.3709 101.109 33.5269 100.628 33.8146C100.159 34.0877 99.9524 34.4492 100.009 34.8991C100.043 35.2442 100.21 35.5161 100.51 35.7147C100.824 35.9121 101.213 35.9883 101.678 35.9434C102.288 35.8844 102.833 35.6308 103.312 35.1826C103.791 34.7344 104.043 34.2211 104.067 33.6427Z" fill="#F26210"/>
<path d="M113.426 35.8396L112.97 41.742L111.056 41.5941L112.116 27.875L114.031 28.023L113.944 29.1396C114.741 28.3453 115.731 27.9939 116.914 28.0854C118.151 28.181 119.173 28.7146 119.98 29.6864C120.774 30.6572 121.122 31.7807 121.023 33.0569C120.925 34.3331 120.408 35.3897 119.475 36.2269C118.527 37.0631 117.435 37.4334 116.199 37.3378C115.016 37.2463 114.092 36.7469 113.426 35.8396ZM118.489 30.8148C117.987 30.2144 117.364 29.8854 116.619 29.8278C115.861 29.7693 115.202 29.9991 114.64 30.5174C114.066 31.0213 113.748 31.6787 113.685 32.4896C113.623 33.3005 113.836 33.9991 114.326 34.5852C114.801 35.1836 115.418 35.5121 116.175 35.5707C116.92 35.6282 117.586 35.3989 118.174 34.8827C118.736 34.3644 119.047 33.7065 119.109 32.9089C119.171 32.1113 118.964 31.4133 118.489 30.8148Z" fill="#F26210"/>
<path d="M130.734 30.2293C131.974 30.55 132.906 31.2595 133.53 32.3577C134.155 33.4559 134.307 34.6247 133.986 35.8638C133.666 37.103 132.953 38.0479 131.848 38.6985C130.743 39.349 129.571 39.514 128.332 39.1933C127.093 38.8726 126.148 38.1597 125.497 37.0548C124.847 35.9499 124.682 34.7779 125.002 33.5387C125.373 32.1059 125.981 30.9273 126.826 30.0029C127.672 29.0786 128.82 28.2602 130.271 27.5478C130.996 27.198 131.502 26.916 131.792 26.7018C132.121 26.4425 132.466 26.0913 132.829 25.648L134.843 26.1691C134.612 26.6879 134.2 27.1874 133.608 27.6676C133.015 28.1477 132.357 28.5077 131.634 28.7475C130.392 29.1835 129.499 29.6823 128.954 30.2437C129.521 30.0737 130.115 30.069 130.734 30.2293ZM127.149 36.1808C127.522 36.8695 128.063 37.3057 128.773 37.4894C129.496 37.6765 130.187 37.5593 130.847 37.1379C131.5 36.7423 131.927 36.1572 132.128 35.3828C132.325 34.6212 132.237 33.8961 131.864 33.2074C131.488 32.5316 130.939 32.1002 130.216 31.9131C129.519 31.7327 128.836 31.8451 128.166 32.2503C127.49 32.6813 127.055 33.2711 126.861 34.0198C126.667 34.7684 126.763 35.4888 127.149 36.1808Z" fill="#F26210"/>
<path d="M141.46 41.7813C142.177 42.1066 142.994 42.0969 143.912 41.7522L144.334 43.4818C143.135 43.9622 141.935 43.9296 140.733 43.3838C139.567 42.8546 138.759 41.9898 138.308 40.7894C137.858 39.589 137.897 38.406 138.426 37.2406C138.955 36.0751 139.82 35.267 141.021 34.8163C142.221 34.3657 143.404 34.4049 144.57 34.9342C145.48 35.3476 146.139 35.9615 146.545 36.7757C146.957 37.5777 147.077 38.4743 146.905 39.4652L140.074 40.1415C140.134 40.4615 140.292 40.7748 140.548 41.0815C140.816 41.3937 141.12 41.6269 141.46 41.7813ZM143.842 36.5367C143.186 36.239 142.488 36.2442 141.748 36.5524C141.008 36.8605 140.483 37.3545 140.174 38.0344C140.163 38.0587 140.104 38.222 139.996 38.5244L145.097 38.0292C144.94 37.3429 144.522 36.8454 143.842 36.5367Z" fill="#F26210"/>
<path d="M150.356 46.9156L147.033 51.815L145.444 50.7373L153.168 39.3495L154.757 40.4273L154.128 41.3542C155.214 41.0596 156.248 41.2454 157.23 41.9115C158.256 42.6075 158.879 43.5777 159.098 44.822C159.307 46.0588 159.052 47.2069 158.333 48.2662C157.615 49.3256 156.642 49.9872 155.416 50.251C154.179 50.5074 153.047 50.2876 152.021 49.5916C151.039 48.9255 150.484 48.0335 150.356 46.9156ZM157.244 45.0624C157.106 44.2921 156.728 43.6973 156.11 43.2782C155.481 42.8516 154.794 42.7241 154.049 42.8957C153.301 43.0487 152.699 43.4618 152.242 44.1349C151.785 44.808 151.624 45.5205 151.759 46.2723C151.875 47.0276 152.248 47.6186 152.876 48.0452C153.494 48.4643 154.187 48.5956 154.954 48.439C155.698 48.2674 156.295 47.8506 156.744 47.1885C157.193 46.5264 157.36 45.8177 157.244 45.0624Z" fill="#F26210"/>
<path d="M167.277 60.1905L172.424 55.1551L173.767 56.5275L167.362 62.7937L158.858 54.1021L165.262 47.8359L166.605 49.2082L161.459 54.2436L163.697 56.5309L168.843 51.4955L170.186 52.8678L165.04 57.9032L167.277 60.1905Z" fill="#F26210"/>
<path d="M173.869 63.638C174.947 62.9469 176.112 62.7382 177.364 63.0118C178.617 63.2855 179.589 63.961 180.28 65.0384C180.971 66.1158 181.18 67.2808 180.906 68.5335C180.632 69.7862 179.957 70.7581 178.88 71.4492C177.802 72.1402 176.637 72.349 175.384 72.0753C174.132 71.8017 173.16 71.1262 172.469 70.0487C171.778 68.9713 171.569 67.8063 171.843 66.5536C172.116 65.3009 172.792 64.3291 173.869 63.638ZM173.648 67.0349C173.454 67.7934 173.554 68.4812 173.95 69.0985C174.353 69.727 174.94 70.1109 175.711 70.2503C176.459 70.4041 177.17 70.265 177.843 69.8331C178.505 69.4083 178.933 68.8167 179.128 68.0583C179.312 67.307 179.202 66.6171 178.799 65.9886C178.41 65.3826 177.832 65.0007 177.066 64.8429C176.277 64.6995 175.557 64.8365 174.906 65.2541C174.255 65.6716 173.836 66.2652 173.648 67.0349Z" fill="#F26210"/>
<path d="M185.623 74.3169L188.684 81.708L180.406 85.1367L179.671 83.3628L186.323 80.6076L184.732 76.7643L178.08 79.5194L177.345 77.7455L185.623 74.3169Z" fill="#F26210"/>
<path d="M184.546 93.3997C184.72 94.167 185.222 94.8121 186.051 95.335L184.929 96.7172C183.821 96.0522 183.121 95.076 182.83 93.7887C182.547 92.5403 182.747 91.3738 183.431 90.2892C184.115 89.2046 185.081 88.5209 186.33 88.238C187.578 87.9552 188.744 88.1557 189.829 88.8396C190.914 89.5235 191.597 90.4896 191.88 91.738C192.101 92.7133 192.01 93.6088 191.607 94.4247C191.217 95.2377 190.576 95.8752 189.682 96.3374L185.015 91.3044C184.796 91.5454 184.642 91.8606 184.552 92.25C184.466 92.6524 184.464 93.0356 184.546 93.3997ZM190.164 92.1269C190.005 91.4247 189.579 90.8718 188.886 90.4683C188.193 90.0648 187.482 89.9456 186.754 90.1106C186.728 90.1165 186.562 90.1678 186.256 90.2645L189.733 94.029C190.185 93.4891 190.329 92.8551 190.164 92.1269Z" fill="#F26210"/>
</svg>
