<svg width="220" height="220" viewBox="0 0 220 220" fill="none" xmlns="http://www.w3.org/2000/svg">
<path d="M76.626 189.486C75.426 188.515 75.2034 186.8 75.7988 185.358C76.7222 183.122 79.0673 182.315 81.6739 183.392L84.7427 184.659L79.3696 197.673L77.0588 196.719C74.2489 195.559 73.0474 193.7 73.9709 191.463C74.4746 190.243 75.5772 189.616 76.626 189.486ZM78.2666 195.313L79.8235 191.542L79.0471 191.222C77.4942 190.581 76.2341 191.012 75.7609 192.159C75.2801 193.323 75.9373 194.352 77.4901 194.993L78.2666 195.313ZM81.2611 185.125C79.5973 184.438 78.221 184.627 77.6181 186.088C77.0075 187.567 77.7961 188.801 79.4599 189.488L80.4952 189.915L82.2963 185.553L81.2611 185.125Z" fill="#F26210"/>
<path d="M67.3979 186.575L70.3212 181.752L63.8403 184.419L62.472 183.59L67.116 175.927L68.758 176.922L65.8347 181.746L72.3156 179.079L73.6839 179.908L69.0399 187.57L67.3979 186.575Z" fill="#F26210"/>
<path d="M56.2112 169.676L54.9948 168.636L57.3857 165.839L58.8453 167.086L57.5979 168.546L62.7064 172.912L63.9538 171.452L65.4134 172.699L63.0225 175.497L62.0343 174.652L56.0338 178.995L51.5334 175.149L56.2112 169.676ZM60.5443 173.379L57.6707 170.923L54.1364 175.059L56.0673 176.709L60.5443 173.379Z" fill="#F26210"/>
<path d="M49.4397 162.41C48.8363 161.689 48.0061 161.445 47.2173 161.375L47.5848 159.633C48.7834 159.725 49.9549 160.283 50.7893 161.28C52.4324 163.243 52.1725 166.173 50.2094 167.816C48.2463 169.459 45.3163 169.199 43.6731 167.236C42.3894 165.703 42.3622 163.769 43.5289 162.141L49.9794 164.488C50.1342 163.863 49.9275 162.992 49.4397 162.41ZM45.0227 166.107C45.9727 167.242 47.8421 167.294 48.977 166.344C49.1151 166.228 49.2249 166.11 49.3501 165.98L44.5372 164.218C44.423 164.705 44.4066 165.371 45.0227 166.107Z" fill="#F26210"/>
<path d="M35.8116 156.483C34.4957 154.288 35.2108 151.434 37.4067 150.118C39.6026 148.802 42.456 149.518 43.7718 151.713C45.0877 153.909 44.3726 156.763 42.1767 158.079C39.9807 159.394 37.1274 158.679 35.8116 156.483ZM42.2621 152.618C41.5014 151.349 39.7317 150.963 38.3936 151.765C37.0554 152.567 36.5605 154.309 37.3213 155.579C38.082 156.848 39.8516 157.233 41.1898 156.432C42.5279 155.63 43.0228 153.888 42.2621 152.618Z" fill="#F26210"/>
<path d="M26.8037 136.991C26.0568 134.542 27.4396 131.946 29.8882 131.199C32.3369 130.452 34.9332 131.835 35.68 134.284C36.4268 136.733 35.0441 139.329 32.5955 140.076C30.1468 140.822 27.5505 139.44 26.8037 136.991ZM33.9966 134.797C33.5648 133.382 31.9405 132.581 30.4483 133.036C28.9562 133.491 28.0554 135.062 28.4871 136.478C28.9189 137.893 30.5432 138.694 32.0353 138.239C33.5275 137.784 34.4283 136.213 33.9966 134.797Z" fill="#F26210"/>
<path d="M22.8479 113.815L22.7482 111.897L31.6961 111.432L31.7958 113.349L28.2007 113.536L28.4168 117.691L32.012 117.504L32.1117 119.421L23.1638 119.887L23.0641 117.969L26.6592 117.782L26.4431 113.628L22.8479 113.815Z" fill="#F26210"/>
<path d="M32.4905 99.22L32.2784 101.128L31.1255 101C31.7196 101.63 32.2806 102.557 32.1304 103.909C31.9205 105.797 30.5335 107.052 28.7644 106.855C26.1604 106.566 25.4758 103.31 27.0638 100.609C26.0037 100.552 24.8994 100.892 24.7337 102.383C24.6476 103.158 24.8022 103.94 25.0804 104.514L23.6205 105.157C23.2473 104.532 22.8475 103.421 22.9933 102.109C23.254 99.7632 24.7382 98.3585 28.3162 98.7561L32.4905 99.22ZM28.6408 100.724C27.7463 102.073 27.5453 104.788 29.0361 104.954C29.7318 105.031 30.2972 104.47 30.401 103.536C30.5336 102.343 29.776 101.011 28.6408 100.724Z" fill="#F26210"/>
<path d="M27.2981 82.4427L27.8494 80.6035L36.4321 83.1762L32.9406 94.8242L24.3579 92.2515L24.9092 90.4124L31.806 92.4797L32.7248 89.4144L25.828 87.3471L26.3793 85.5079L33.2761 87.5752L34.1949 84.51L27.2981 82.4427Z" fill="#F26210"/>
<path d="M38.6677 74.3169C39.0953 73.4798 38.9954 72.6203 38.7514 71.8669L40.4986 71.5241C40.8823 72.6634 40.8264 73.9599 40.2351 75.1176C39.0705 77.3974 36.272 78.3035 33.9922 77.1389C31.7124 75.9744 30.8063 73.1759 31.9708 70.8961C32.8806 69.115 34.6495 68.3342 36.6046 68.7714L36.9659 75.6261C37.6018 75.5242 38.322 74.9938 38.6677 74.3169ZM33.5382 71.6967C32.8649 73.0147 33.5476 74.7559 34.8656 75.4291C35.0259 75.511 35.1775 75.566 35.3469 75.63L35.0869 70.5115C34.5942 70.5967 33.9749 70.8418 33.5382 71.6967Z" fill="#F26210"/>
<path d="M42.0452 54.8605L49.4908 60.3995L48.3448 61.9399L44.8788 59.3615L45.984 63.7732L41.4408 63.9829L44.9069 66.5614L43.7609 68.1019L36.3152 62.5629L43.7374 62.1019L42.0452 54.8605Z" fill="#F26210"/>
<path d="M54.1776 42.9192C56.1705 41.3124 59.033 41.6762 60.6399 43.6692C62.2467 45.6621 61.933 48.5869 59.9401 50.1937C57.9472 51.8005 55.0224 51.4868 53.4156 49.4939C51.4698 47.0806 51.1768 44.7735 51.7491 41.6915C52.0461 40.1162 52.0572 39.7476 51.7494 38.5056L53.3687 37.2C53.9817 38.2472 53.957 39.9371 53.5249 41.3131C53.1979 42.3732 52.9612 43.3861 53.1274 44.3569C53.3313 43.7814 53.7728 43.2456 54.1776 42.9192ZM58.8354 48.8236C59.9876 47.8946 60.1244 46.0887 59.1452 44.8743C58.166 43.6599 56.3722 43.4106 55.22 44.3395C54.0679 45.2685 53.9311 47.0744 54.9103 48.2888C55.8894 49.5032 57.6833 49.7525 58.8354 48.8236Z" fill="#F26210"/>
<path d="M73.2811 40.9768L71.6165 41.9335L71.0384 40.9278C70.8818 41.7791 70.4651 42.7799 69.286 43.4576C67.6387 44.4044 65.807 44.027 64.92 42.4838C63.6144 40.2123 65.8358 37.7359 68.9533 37.4204C68.373 36.5313 67.446 35.8415 66.1455 36.589C65.4692 36.9777 64.9299 37.5645 64.6312 38.1284L63.2499 37.3306C63.5335 36.6601 64.1934 35.681 65.3378 35.0232C67.3839 33.8472 69.3942 34.2142 71.1882 37.3354L73.2811 40.9768ZM69.7926 38.7604C68.1754 38.8364 65.867 40.2785 66.6145 41.579C66.9633 42.1859 67.75 42.3104 68.565 41.842C69.6054 41.244 70.232 39.8458 69.7926 38.7604Z" fill="#F26210"/>
<path d="M80.7873 42.6286L78.994 43.3146L74.0779 30.4627L75.8712 29.7768L76.2713 30.8229C76.6278 29.8514 77.3831 29.0271 78.5039 28.5984C80.8202 27.7123 83.4314 28.9405 84.346 31.3315C85.2606 33.7226 84.1358 36.3799 81.8194 37.2659C80.6986 37.6946 79.586 37.5849 78.6722 37.0993L80.7873 42.6286ZM78.9833 30.2994C77.5449 30.8496 76.9073 32.4854 77.4718 33.9611C78.0363 35.4368 79.6028 36.2294 81.0412 35.6792C82.4796 35.129 83.1172 33.4932 82.5527 32.0175C81.9882 30.5418 80.4216 29.7492 78.9833 30.2994Z" fill="#F26210"/>
<path d="M91.4165 24.6736C93.9232 24.1542 96.3036 25.7852 96.823 28.292C97.3423 30.7987 95.7276 33.2575 93.2208 33.7768C90.714 34.2962 88.2553 32.6814 87.736 30.1747C87.107 27.1391 87.9 24.9528 89.8166 22.4724C90.8003 21.2065 90.9785 20.8836 91.2719 19.6382L93.3086 19.2162C93.3758 20.4278 92.582 21.9198 91.5693 22.9467C90.7942 23.7404 90.1211 24.5335 89.8255 25.473C90.2698 25.0541 90.9073 24.7791 91.4165 24.6736ZM92.8637 32.0534C94.313 31.7532 95.2594 30.2091 94.9429 28.6815C94.6264 27.1539 93.1444 26.113 91.6952 26.4132C90.246 26.7135 89.2995 28.2576 89.616 29.7851C89.9325 31.3127 91.4145 32.3537 92.8637 32.0534Z" fill="#F26210"/>
<path d="M105.887 30.2564C106.826 30.2146 107.524 29.7031 108.059 29.1187L109.22 30.4684C108.419 31.3649 107.264 31.9569 105.965 32.0147C103.408 32.1285 101.237 30.143 101.124 27.5856C101.01 25.0281 102.995 22.8577 105.553 22.7438C107.551 22.6549 109.103 23.807 109.689 25.7229L103.908 29.4236C104.311 29.9262 105.128 30.2902 105.887 30.2564ZM105.631 24.5021C104.152 24.5679 102.976 26.0217 103.042 27.5002C103.05 27.68 103.077 27.839 103.105 28.0179L107.427 25.263C107.109 24.8768 106.59 24.4594 105.631 24.5021Z" fill="#F26210"/>
<path d="M115.182 36.6267L113.274 36.4073L114.846 22.7374L116.753 22.9568L116.626 24.0694C117.39 23.3722 118.441 22.9897 119.633 23.1268C122.097 23.4101 123.846 25.705 123.553 28.2482C123.261 30.7915 121.037 32.6294 118.573 32.3461C117.381 32.209 116.444 31.598 115.858 30.7454L115.182 36.6267ZM119.273 24.857C117.743 24.6811 116.422 25.8378 116.242 27.4074C116.061 28.9771 117.085 30.4034 118.615 30.5793C120.145 30.7552 121.466 29.5985 121.646 28.0289C121.827 26.4592 120.803 25.0329 119.273 24.857Z" fill="#F26210"/>
<path d="M139.03 27.6218L140.863 28.1944L138.191 36.7467L126.584 33.1207L129.256 24.5683L131.089 25.1408L128.942 32.0133L131.996 32.9675L134.143 26.0951L135.976 26.6676L133.829 33.54L136.883 34.4943L139.03 27.6218Z" fill="#F26210"/>
<path d="M150.452 32.3767C152.709 33.5847 153.561 36.4001 152.353 38.6571C151.145 40.9142 148.33 41.7666 146.073 40.5586C143.816 39.3506 142.964 36.5352 144.172 34.2781C145.38 32.0211 148.195 31.1687 150.452 32.3767ZM146.903 39.0068C148.208 39.7052 149.924 39.1265 150.661 37.7511C151.397 36.3757 150.926 34.6268 149.621 33.9284C148.317 33.2301 146.6 33.8087 145.864 35.1841C145.128 36.5595 145.599 38.3085 146.903 39.0068Z" fill="#F26210"/>
<path d="M165.528 42.3993L160.072 49.5069L158.549 48.3378L162.933 42.6264L159.633 40.0934L155.249 45.8048L153.726 44.6358L159.182 37.5282L165.528 42.3993Z" fill="#F26210"/>
<path d="M167.852 54.5568C168.497 55.2408 169.34 55.4355 170.132 55.4589L169.868 57.2196C168.666 57.1982 167.463 56.71 166.572 55.764C164.816 53.9011 164.903 50.9608 166.766 49.2049C168.629 47.449 171.569 47.5359 173.325 49.3988C174.697 50.8542 174.838 52.7825 173.769 54.477L167.191 52.514C167.074 53.1472 167.331 54.0037 167.852 54.5568ZM172.044 50.606C171.029 49.529 169.16 49.5869 168.083 50.602C167.952 50.7255 167.849 50.8498 167.732 50.9878L172.64 52.4629C172.725 51.9702 172.702 51.3045 172.044 50.606Z" fill="#F26210"/>
</svg>
