<svg width="22" height="13" viewBox="0 0 22 13" fill="none" xmlns="http://www.w3.org/2000/svg">
<path d="M0 0.952741C0.125622 0.739377 0.316568 0.640502 0.552737 0.62489C0.66831 0.619686 0.783881 0.609278 0.894429 0.604074C1.82403 0.59887 2.75866 0.593665 3.68827 0.588462C4.16563 0.583257 4.4822 0.807029 4.69324 1.26498C5.25101 2.46711 5.82384 3.65882 6.41678 4.84013C6.663 5.33451 6.97957 5.78726 7.41171 6.14113C7.5122 6.22439 7.62275 6.29725 7.74335 6.34408C8.00967 6.45337 8.21066 6.3597 8.34633 6.1047C8.55235 5.72481 8.56743 5.29808 8.61768 4.87656C8.72823 3.90341 8.71315 2.94067 8.5222 1.97793C8.40663 1.40029 8.06997 1.09325 7.5323 0.978761C7.25594 0.921517 7.24086 0.848662 7.43181 0.630094C7.65793 0.375098 7.93429 0.20857 8.26594 0.15653C9.50708 -0.0360178 10.7482 -0.0620387 11.9894 0.140917C12.6024 0.239793 12.8336 0.458361 12.8888 1.20774C12.929 1.78018 12.8838 2.36303 12.8788 2.94067C12.8687 3.71086 12.8537 4.48105 12.8587 5.25645C12.8587 5.48022 12.9089 5.7144 12.9843 5.92776C13.1501 6.38051 13.4868 6.44816 13.8385 6.14113C14.4164 5.64155 14.8033 4.99105 15.2003 4.35095C15.8033 3.3726 16.2957 2.33701 16.7128 1.26498C16.9339 0.692541 17.0344 0.630094 17.6223 0.62489C18.778 0.614482 19.9287 0.593665 21.0844 0.588462C21.2603 0.588462 21.4462 0.609277 21.612 0.661317C21.9386 0.760193 22.0442 0.952742 21.9839 1.30141C21.8934 1.83742 21.6522 2.31619 21.3608 2.75333C20.6121 3.86698 19.8332 4.95462 19.0694 6.05786C18.8986 6.30245 18.7227 6.54704 18.577 6.81245C18.3258 7.25999 18.366 7.6607 18.7127 8.03018C19.2152 8.56619 19.7428 9.08139 20.2553 9.6122C20.8131 10.1898 21.3457 10.7935 21.7477 11.5012C21.8281 11.647 21.8984 11.8031 21.9437 11.9644C22.0994 12.542 21.8281 12.8491 21.2904 12.9063C20.8081 12.9584 20.3156 12.948 19.8332 12.9584C19.2051 12.974 18.572 13 17.9439 13C17.4062 13 16.9238 12.797 16.5268 12.4432C16.0897 12.0529 15.7078 11.6001 15.3008 11.1734C15.0043 10.8612 14.7129 10.5437 14.4114 10.2419C14.331 10.1586 14.2305 10.0962 14.13 10.0441C13.8637 9.90362 13.6677 9.93484 13.4466 10.143C13.0547 10.5073 12.9642 11.0017 12.9039 11.5065C12.8788 11.725 12.8788 11.9488 12.8687 12.1726C12.8386 12.6253 12.6326 12.8855 12.2004 12.9219C10.3111 13.0833 8.51718 12.8491 6.89414 11.6834C5.81379 10.908 4.93946 9.96086 4.1606 8.88364C2.49737 6.58347 1.21602 4.06473 0.100498 1.44712C0.0703484 1.37947 0.0401985 1.31702 0.015074 1.24937C-6.13742e-07 1.1609 0 1.05682 0 0.952741Z" fill="white"/>
</svg>
