<svg width="19" height="19" viewBox="0 0 19 19" fill="none" xmlns="http://www.w3.org/2000/svg">
<path fill-rule="evenodd" clip-rule="evenodd" d="M8.81224 0.0061423C7.37579 0.145937 6.29261 0.455914 5.1178 1.06328C3.32432 1.99053 1.87611 3.46605 0.980688 5.27847C0.636679 5.97481 0.474551 6.40162 0.294753 7.08451C0.0680799 7.9452 0.0020831 8.46845 3.69801e-05 9.42067C-0.00096748 9.89474 0.0186009 10.4093 0.0452749 10.6095C0.248102 12.1316 0.72615 13.4434 1.52566 14.6715L1.79214 15.0809L1.20018 16.8259C0.874587 17.7857 0.613353 18.5761 0.61964 18.5824C0.625965 18.5887 1.44028 18.3354 2.42927 18.0194C3.41829 17.7035 4.24068 17.445 4.25687 17.445C4.27305 17.445 4.42573 17.5316 4.59615 17.6374C4.76657 17.7432 5.12364 17.9337 5.38964 18.0608C7.79491 19.2103 10.5445 19.3087 13.0073 18.3334C15.7978 17.2283 17.9411 14.8108 18.7062 11.9054C18.9405 11.0156 19 10.5277 19 9.49497C19 8.46221 18.9405 7.9744 18.7062 7.08451C17.8087 3.67613 15.073 1.02676 11.621 0.222837C11.041 0.0877604 10.4375 0.0193305 9.7051 0.0056222C9.29587 -0.0020678 8.89409 -0.0018449 8.81224 0.0061423ZM6.54331 4.41445C6.60492 4.44636 6.69123 4.53682 6.73517 4.61543C6.84607 4.81395 7.75049 6.98918 7.77683 7.12077C7.81053 7.28909 7.64569 7.57526 7.2759 7.99045C6.89 8.42365 6.80708 8.56274 6.84142 8.71895C6.9038 9.00244 7.76418 10.1419 8.29428 10.6429C9.11685 11.4205 10.3602 12.1588 10.9142 12.1987C11.199 12.2193 11.3029 12.1388 11.7386 11.5596C11.9363 11.2969 12.1471 11.0329 12.2071 10.9729C12.3506 10.8297 12.5636 10.7993 12.8025 10.8881C13.1089 11.002 14.9822 11.9129 15.1137 12.012L15.2396 12.1069L15.2188 12.5005C15.1655 13.5111 14.8105 14.0358 13.8717 14.492C12.9792 14.9258 12.2806 14.9139 10.9128 14.4418C9.07775 13.8085 8.10373 13.2035 6.7839 11.8772C6.12349 11.2136 5.65418 10.6526 5.11739 9.88505C4.23287 8.62021 3.89366 7.64354 3.99463 6.65227C4.07558 5.85749 4.3537 5.27079 4.91542 4.7099C5.18714 4.43852 5.54272 4.32681 6.07788 4.34464C6.30492 4.35218 6.47137 4.37715 6.54331 4.41445Z" fill="white"/>
</svg>
