<svg width="82" height="82" viewBox="0 0 82 82" fill="none" xmlns="http://www.w3.org/2000/svg">
<rect width="82" height="82" fill="#262626"/>
<g clip-path="url(#clip0_16_6464)">
<path d="M20.084 41C20.084 29.4017 29.4836 20 41.084 20C52.6802 20 62.084 29.4017 62.084 41C62.084 52.5983 52.6802 62 41.084 62C29.4836 62 20.084 52.5983 20.084 41Z" fill="#FC3F1D"/>
<path d="M43.7723 31.8986H41.8319C38.2745 31.8986 36.4034 33.7004 36.4034 36.3569C36.4034 39.3599 37.697 40.7669 40.3535 42.5708L42.548 44.0492L36.2417 53.4719H31.5293L37.1888 45.0425C33.9338 42.7094 32.1068 40.4435 32.1068 36.611C32.1068 31.8062 35.4563 28.526 41.8088 28.526H48.1151V53.4488H43.7723V31.8986Z" fill="white"/>
</g>
<path d="M58.6494 24.3055C59.1155 23.3289 60.5056 23.3289 60.9717 24.3055L62.4742 27.4543C62.6617 27.8473 63.0354 28.1188 63.4671 28.1757L66.926 28.6316C67.9989 28.7731 68.4285 30.0952 67.6437 30.8402L65.1133 33.2422C64.7975 33.542 64.6548 33.9813 64.7341 34.4095L65.3693 37.84C65.5663 38.904 64.4416 39.7211 63.4906 39.205L60.4243 37.5407C60.0415 37.333 59.5796 37.333 59.1969 37.5407L56.1306 39.205C55.1795 39.7211 54.0548 38.904 54.2518 37.84L54.8871 34.4095C54.9664 33.9813 54.8236 33.542 54.5078 33.2422L51.9775 30.8402C51.1926 30.0952 51.6222 28.7731 52.6951 28.6316L56.154 28.1757C56.5857 28.1188 56.9594 27.8473 57.147 27.4543L58.6494 24.3055Z" fill="#FFA800"/>
<path fill-rule="evenodd" clip-rule="evenodd" d="M64.4965 25.716L67.2631 26.0806C70.4817 26.5049 71.7704 30.4713 69.416 32.7063L67.3921 34.6276L67.9002 37.3715C68.4912 40.5636 65.1172 43.015 62.264 41.4664L59.8114 40.1353L57.3588 41.4664C54.5056 43.015 51.1315 40.5636 51.7226 37.3715L52.2307 34.6276L50.2068 32.7063C47.8524 30.4713 49.1411 26.5049 52.3596 26.0806L55.1263 25.716L56.3281 23.1974C57.7261 20.2675 61.8966 20.2675 63.2947 23.1974L64.4965 25.716ZM60.9725 24.3055C60.5065 23.3289 59.1163 23.3289 58.6503 24.3055L57.1478 27.4542C56.9602 27.8473 56.5866 28.1188 56.1548 28.1757L52.6959 28.6316C51.6231 28.7731 51.1935 30.0952 51.9783 30.8402L54.5086 33.2422C54.8245 33.542 54.9672 33.9813 54.8879 34.4095L54.2527 37.84C54.0556 38.904 55.1803 39.7211 56.1314 39.205L59.1977 37.5407C59.5805 37.333 60.0423 37.333 60.4251 37.5407L63.4914 39.205C64.4425 39.7211 65.5671 38.904 65.3701 37.84L64.7349 34.4095C64.6556 33.9813 64.7983 33.542 65.1142 33.2422L67.6445 30.8402C68.4293 30.0952 67.9997 28.7731 66.9269 28.6316L63.468 28.1757C63.0362 28.1188 62.6625 27.8473 62.475 27.4542L60.9725 24.3055Z" fill="#262626"/>
<defs>
<clipPath id="clip0_16_6464">
<rect width="42" height="42" fill="white" transform="translate(20 20)"/>
</clipPath>
</defs>
</svg>
