<svg width="82" height="82" viewBox="0 0 82 82" fill="none" xmlns="http://www.w3.org/2000/svg">
<rect width="82" height="82" fill="#262626"/>
<path d="M41.5 25C34.6075 25 29 30.1989 29 36.5891C29 44.5196 40.1863 56.1621 40.6625 56.6539C41.1099 57.1158 41.8909 57.115 42.3375 56.6539C42.8137 56.1621 54 44.5196 54 36.5891C53.9999 30.1989 48.3925 25 41.5 25ZM41.5 42.42C38.0322 42.42 35.211 39.8043 35.211 36.5891C35.211 33.374 38.0323 30.7584 41.5 30.7584C44.9677 30.7584 47.7889 33.3741 47.7889 36.5892C47.7889 39.8043 44.9677 42.42 41.5 42.42Z" fill="#F26210"/>
</svg>
