<svg width="82" height="82" viewBox="0 0 82 82" fill="none" xmlns="http://www.w3.org/2000/svg">
<rect width="82" height="82" fill="#262626"/>
<path d="M59.011 39.6686C59.011 40.3816 59.011 41.0946 59.011 41.8076C58.9932 41.9324 58.9664 42.0572 58.9486 42.1819C58.8595 42.8415 58.8149 43.5099 58.6901 44.1605C57.995 47.7969 56.3461 50.9341 53.7437 53.5633C51.0164 56.3173 47.7366 58.0464 43.9131 58.7148C43.2268 58.8307 42.5316 58.902 41.8364 59C41.1234 59 40.4104 59 39.6974 59C39.5905 58.9822 39.4924 58.9554 39.3855 58.9376C38.3873 58.7861 37.3801 58.697 36.3998 58.4652C27.0237 56.2104 20.9899 46.7987 22.8259 37.3246C23.5835 33.3852 25.4284 30.0252 28.3873 27.3336C32.6119 23.4833 37.6119 21.9504 43.2714 22.6723C46.881 23.1268 50.0538 24.6063 52.7811 27.0127C55.9896 29.8469 57.995 33.3674 58.7347 37.6009C58.8506 38.2871 58.9219 38.9823 59.011 39.6686ZM40.758 26.0591C32.7278 26.1126 26.1592 32.5296 26.0879 40.6757C26.0166 48.7238 32.603 55.3637 40.7045 55.3993C48.7615 55.435 55.3657 48.9199 55.4281 40.7738C55.4905 32.7346 48.8863 26.1126 40.758 26.0591Z" fill="#F26210"/>
<path d="M28.3174 41.7634C28.6828 41.7634 29.0215 41.7723 29.3691 41.7634C30.0732 41.7545 30.5455 41.3267 30.5544 40.7028C30.5634 40.0789 30.0643 39.6155 29.3602 39.6066C29.0304 39.5977 28.7006 39.6066 28.3619 39.6066C28.6471 33.8758 33.763 28.6887 39.5383 28.3411C39.5383 28.6708 39.5294 29.0006 39.5383 29.3304C39.5472 29.9988 39.984 30.4623 40.6078 30.4712C41.2406 30.4712 41.6863 29.9988 41.6952 29.3125C41.6952 28.9739 41.6952 28.6263 41.6952 28.2876C47.8538 28.6976 52.6933 33.7332 53.1746 39.464C52.7379 39.464 52.3012 39.4462 51.8644 39.464C51.2673 39.4907 50.8038 39.9898 50.8217 40.5602C50.8395 41.1306 51.2762 41.5763 51.8733 41.6119C52.1942 41.6297 52.5151 41.6208 52.8359 41.6208C52.9518 41.6208 53.0676 41.6208 53.1835 41.6208C53.032 46.9149 48.5044 52.6546 41.8289 53.1805C41.8289 52.7705 41.8289 52.3516 41.8289 51.9416C41.8199 51.2464 41.3921 50.774 40.7683 50.7651C40.1266 50.7562 39.6898 51.2375 39.6809 51.9594C39.6809 52.3605 39.6809 52.7616 39.6809 53.1626C34.3958 52.8774 28.8521 48.3944 28.3174 41.7634ZM40.7237 39.259C40.6078 39.1164 40.5454 39.0005 40.4474 38.9025C38.7808 37.2269 37.1052 35.5603 35.4296 33.8847C35.3227 33.7777 35.2157 33.6619 35.082 33.5728C34.7166 33.3232 34.3245 33.3054 33.9412 33.5193C33.5669 33.7332 33.3352 34.0719 33.4154 34.4908C33.4689 34.7938 33.6293 35.1235 33.8521 35.3464C35.8396 37.3606 37.8449 39.357 39.8414 41.3534C40.4652 41.9773 41.0356 41.9773 41.6595 41.3534C42.7736 40.2483 43.8788 39.1342 44.9839 38.0291C45.0641 37.9488 45.1533 37.8597 45.2246 37.7617C45.688 37.1289 45.3582 36.2554 44.5918 36.0772C44.1461 35.9792 43.8075 36.1485 43.5044 36.4515C42.6043 37.3695 41.7041 38.2786 40.7237 39.259Z" fill="#F26210"/>
</svg>
