<svg width="93" height="93" viewBox="0 0 93 93" fill="none" xmlns="http://www.w3.org/2000/svg">
<rect width="93" height="93" rx="46.5" fill="#F26210"/>
<path d="M46.5 18C39.6075 18 34 23.5238 34 30.3135C34 38.7396 45.1863 51.1097 45.6625 51.6322C46.1099 52.123 46.8909 52.1222 47.3375 51.6322C47.8137 51.1097 59 38.7396 59 30.3135C58.9999 23.5238 53.3925 18 46.5 18ZM46.5 36.5087C43.0322 36.5087 40.211 33.7295 40.211 30.3135C40.211 26.8974 43.0323 24.1183 46.5 24.1183C49.9677 24.1183 52.7889 26.8975 52.7889 30.3135C52.7889 33.7296 49.9677 36.5087 46.5 36.5087Z" fill="white"/>
<path d="M25.835 59.7268H29.6503V64H28.7347V60.5661H26.7507V64H25.835V59.7268Z" fill="white"/>
<path d="M31.5766 61.8634C31.5766 61.2529 31.7928 60.7315 32.2252 60.2991C32.6576 59.8667 33.1791 59.6505 33.7895 59.6505C34.4 59.6505 34.9214 59.8667 35.3538 60.2991C35.7862 60.7315 36.0024 61.2529 36.0024 61.8634C36.0024 62.4738 35.7862 62.9953 35.3538 63.4277C34.9214 63.8601 34.4 64.0763 33.7895 64.0763C33.1791 64.0763 32.6576 63.8601 32.2252 63.4277C31.7928 62.9953 31.5766 62.4738 31.5766 61.8634ZM32.8834 62.8268C33.1377 63.1002 33.4398 63.2369 33.7895 63.2369C34.1456 63.2369 34.4508 63.1002 34.7052 62.8268C34.9596 62.566 35.0867 62.2449 35.0867 61.8634C35.0867 61.4882 34.9596 61.1639 34.7052 60.8905C34.4508 60.6234 34.1456 60.4898 33.7895 60.4898C33.4461 60.4898 33.1441 60.6234 32.8834 60.8905C32.6226 61.1702 32.4923 61.4946 32.4923 61.8634C32.4923 62.2322 32.6226 62.5533 32.8834 62.8268Z" fill="white"/>
<path d="M39.7696 61.6058L41.7441 64H40.5995L39.1782 62.2163L38.8444 62.5597V64H37.9287V59.7268H38.8444V61.4437L40.4468 59.7268H41.5915L39.7696 61.6058Z" fill="white"/>
<path d="M46.7964 61.9969V64H45.8807V63.4468C45.5246 63.8665 45.0827 64.0763 44.5549 64.0763C44.097 64.0763 43.7218 63.9396 43.4293 63.6661C43.1305 63.3991 42.981 63.0557 42.981 62.636C42.981 62.2354 43.1273 61.9079 43.4198 61.6535C43.7187 61.3992 44.0779 61.2625 44.4976 61.2434C44.9237 61.2243 45.3752 61.3101 45.8521 61.5009C45.8139 60.8269 45.4928 60.4898 44.8887 60.4898C44.5262 60.4898 44.1956 60.582 43.8967 60.7665L43.5152 60.1083C43.9158 59.8031 44.3864 59.6505 44.9269 59.6505C46.1732 59.6505 46.7964 60.4326 46.7964 61.9969ZM45.8807 62.2545C45.6645 62.1273 45.3974 62.0541 45.0795 62.0351C44.7615 62.016 44.4817 62.0637 44.2401 62.1781C44.0048 62.2862 43.8904 62.4484 43.8967 62.6646C43.8967 62.8299 43.9635 62.9667 44.097 63.0748C44.2369 63.1829 44.4181 63.2369 44.6407 63.2369C44.9332 63.2369 45.2035 63.1415 45.4515 62.9508C45.6995 62.76 45.8426 62.5279 45.8807 62.2545Z" fill="white"/>
<path d="M49.9814 63.2369C50.2611 63.2496 50.4901 63.2147 50.6681 63.132C50.8462 63.043 50.9352 62.9126 50.9352 62.7409C50.9352 62.5756 50.8112 62.4516 50.5632 62.3689C50.3216 62.2862 50.0386 62.2449 49.7143 62.2449V61.4818C50.0322 61.4818 50.3025 61.431 50.525 61.3292C50.7476 61.2211 50.8589 61.0971 50.8589 60.9572C50.8589 60.6456 50.6109 60.4898 50.1149 60.4898C49.7588 60.5026 49.4218 60.6297 49.1038 60.8714L48.6841 60.2037C49.1102 59.8349 49.6284 59.6505 50.2389 59.6505C50.7031 59.6505 51.0751 59.7554 51.3549 59.9652C51.6347 60.1751 51.7746 60.4644 51.7746 60.8332C51.7746 61.0431 51.7174 61.237 51.6029 61.4151C51.4884 61.5868 51.3263 61.7108 51.1164 61.7871C51.3454 61.8761 51.5234 62.0128 51.6506 62.1972C51.7841 62.3753 51.8509 62.5756 51.8509 62.7981C51.8509 63.2051 51.6951 63.5199 51.3835 63.7425C51.0719 63.965 50.6618 64.0763 50.153 64.0763C49.5489 64.0763 49.0466 63.8951 48.646 63.5326L49.0275 62.8649C49.3391 63.1002 49.657 63.2242 49.9814 63.2369Z" fill="white"/>
<path d="M57.5954 61.9969V64H56.6797V63.4468C56.3236 63.8665 55.8816 64.0763 55.3538 64.0763C54.896 64.0763 54.5208 63.9396 54.2283 63.6661C53.9294 63.3991 53.78 63.0557 53.78 62.636C53.78 62.2354 53.9262 61.9079 54.2187 61.6535C54.5176 61.3992 54.8769 61.2625 55.2966 61.2434C55.7226 61.2243 56.1741 61.3101 56.651 61.5009C56.6129 60.8269 56.2918 60.4898 55.6877 60.4898C55.3252 60.4898 54.9945 60.582 54.6957 60.7665L54.3141 60.1083C54.7147 59.8031 55.1853 59.6505 55.7258 59.6505C56.9722 59.6505 57.5954 60.4326 57.5954 61.9969ZM56.6797 62.2545C56.4635 62.1273 56.1964 62.0541 55.8784 62.0351C55.5605 62.016 55.2807 62.0637 55.039 62.1781C54.8038 62.2862 54.6893 62.4484 54.6957 62.6646C54.6957 62.8299 54.7624 62.9667 54.896 63.0748C55.0359 63.1829 55.2171 63.2369 55.4397 63.2369C55.7322 63.2369 56.0024 63.1415 56.2504 62.9508C56.4984 62.76 56.6415 62.5279 56.6797 62.2545Z" fill="white"/>
<path d="M59.5194 60.5661V59.7268H62.877V60.5661H61.6561V64H60.7404V60.5661H59.5194Z" fill="white"/>
<path d="M66.4848 64H64.9587V59.7268H65.8744V61.1003H66.4848C67.1207 61.1003 67.6104 61.2243 67.9538 61.4723C68.2971 61.7139 68.4688 62.0605 68.4688 62.512C68.4688 62.9953 68.2971 63.3641 67.9538 63.6185C67.6167 63.8728 67.1271 64 66.4848 64ZM65.8744 63.1606H66.6374C67.2479 63.1606 67.5531 62.9571 67.5531 62.5501C67.5531 62.3594 67.4609 62.2099 67.2765 62.1018C67.0985 61.9937 66.8854 61.9397 66.6374 61.9397H65.8744V63.1606Z" fill="white"/>
<path d="M29.0793 70.4437V68.7268H29.995V73H29.0793V71.2831H27.0953V73H26.1796V68.7268H27.0953V70.4437H29.0793Z" fill="white"/>
<path d="M35.7366 70.9969V73H34.8209V72.4468C34.4648 72.8665 34.0229 73.0763 33.4951 73.0763C33.0372 73.0763 32.6621 72.9396 32.3696 72.6661C32.0707 72.3991 31.9212 72.0557 31.9212 71.636C31.9212 71.2354 32.0675 70.9079 32.36 70.6535C32.6589 70.3992 33.0182 70.2625 33.4379 70.2434C33.8639 70.2243 34.3154 70.3101 34.7923 70.5009C34.7542 69.8269 34.433 69.4898 33.8289 69.4898C33.4665 69.4898 33.1358 69.582 32.8369 69.7665L32.4554 69.1083C32.856 68.8031 33.3266 68.6505 33.8671 68.6505C35.1135 68.6505 35.7366 69.4326 35.7366 70.9969ZM34.8209 71.2545C34.6047 71.1273 34.3377 71.0541 34.0197 71.0351C33.7018 71.016 33.422 71.0637 33.1803 71.1781C32.945 71.2862 32.8306 71.4484 32.8369 71.6646C32.8369 71.8299 32.9037 71.9667 33.0372 72.0748C33.1771 72.1829 33.3584 72.2369 33.5809 72.2369C33.8735 72.2369 34.1437 72.1415 34.3917 71.9508C34.6397 71.76 34.7828 71.5279 34.8209 71.2545Z" fill="white"/>
<path d="M43.8697 70.6058L45.8441 73H44.6995L43.2783 71.2163L42.9444 71.5597V73H42.0287V68.7268H42.9444V70.4437L44.5469 68.7268H45.6915L43.8697 70.6058Z" fill="white"/>
<path d="M50.8965 70.9969V73H49.9808V72.4468C49.6247 72.8665 49.1827 73.0763 48.6549 73.0763C48.1971 73.0763 47.8219 72.9396 47.5294 72.6661C47.2305 72.3991 47.0811 72.0557 47.0811 71.636C47.0811 71.2354 47.2273 70.9079 47.5198 70.6535C47.8187 70.3992 48.178 70.2625 48.5977 70.2434C49.0237 70.2243 49.4752 70.3101 49.9521 70.5009C49.914 69.8269 49.5929 69.4898 48.9888 69.4898C48.6263 69.4898 48.2956 69.582 47.9968 69.7665L47.6152 69.1083C48.0158 68.8031 48.4864 68.6505 49.0269 68.6505C50.2733 68.6505 50.8965 69.4326 50.8965 70.9969ZM49.9808 71.2545C49.7646 71.1273 49.4975 71.0541 49.1795 71.0351C48.8616 71.016 48.5818 71.0637 48.3401 71.1781C48.1049 71.2862 47.9904 71.4484 47.9968 71.6646C47.9968 71.8299 48.0635 71.9667 48.1971 72.0748C48.337 72.1829 48.5182 72.2369 48.7408 72.2369C49.0333 72.2369 49.3035 72.1415 49.5515 71.9508C49.7995 71.76 49.9426 71.5279 49.9808 71.2545Z" fill="white"/>
<path d="M53.9669 72.4658V75.2892H53.0512V68.7268H53.9669V69.2609C54.3167 68.8539 54.7745 68.6505 55.3405 68.6505C55.9319 68.6505 56.4374 68.8667 56.8571 69.2991C57.2704 69.7315 57.4771 70.2529 57.4771 70.8634C57.4771 71.4738 57.2704 71.9953 56.8571 72.4277C56.4374 72.8601 55.9319 73.0763 55.3405 73.0763C54.7745 73.0763 54.3167 72.8728 53.9669 72.4658ZM56.1894 69.8905C55.9287 69.6234 55.6203 69.4898 55.2642 69.4898C54.9017 69.4898 54.5965 69.6234 54.3485 69.8905C54.0941 70.1512 53.9669 70.4755 53.9669 70.8634C53.9669 71.2513 54.0941 71.5756 54.3485 71.8363C54.5965 72.1034 54.9017 72.2369 55.2642 72.2369C55.6203 72.2369 55.9287 72.1034 56.1894 71.8363C56.4374 71.5692 56.5614 71.2449 56.5614 70.8634C56.5614 70.4818 56.4374 70.1575 56.1894 69.8905Z" fill="white"/>
<path d="M59.1748 69.5661V68.7268H62.5323V69.5661H61.3114V73H60.3957V69.5661H59.1748Z" fill="white"/>
<path d="M66.3727 72.2369C66.7479 72.2369 67.1008 72.0716 67.4314 71.7409L67.9561 72.4086C67.53 72.8537 67.0022 73.0763 66.3727 73.0763C65.7622 73.0763 65.2408 72.8601 64.8084 72.4277C64.376 71.9953 64.1598 71.4738 64.1598 70.8634C64.1598 70.2529 64.376 69.7315 64.8084 69.2991C65.2408 68.8667 65.7622 68.6505 66.3727 68.6505C66.8496 68.6505 67.2566 68.7872 67.5936 69.0606C67.9306 69.3277 68.1596 69.6933 68.2804 70.1575L65.4474 71.7981C65.5365 71.9253 65.6668 72.0302 65.8385 72.1129C66.0166 72.1956 66.1946 72.2369 66.3727 72.2369ZM66.3727 69.4898C66.0293 69.4898 65.7272 69.6297 65.4665 69.9095C65.2058 70.1893 65.0754 70.5073 65.0754 70.8634C65.0754 70.8761 65.0818 70.9588 65.0945 71.1114L67.2121 69.8905C67.0086 69.6234 66.7288 69.4898 66.3727 69.4898Z" fill="white"/>
</svg>
